<svg xmlns="http://www.w3.org/2000/svg" width="71.636" height="74.884" viewBox="0 0 71.636 74.884">
  <g id="Grupo_1101067" data-name="Grupo 1101067" transform="translate(-262.928 -4755.83)">
    <circle id="Elipse_11526" data-name="Elipse 11526" cx="35.818" cy="35.818" r="35.818" transform="translate(262.928 4759.079)" fill="#ee4f47"/>
    <g id="Grupo_1101244" data-name="Grupo 1101244" transform="translate(257.157 4755.831)">
      <g id="Grupo_1101243" data-name="Grupo 1101243" transform="translate(-19.747 0)">
        <path id="Trazado_912088" data-name="Trazado 912088" d="M124.526,105a8.6,8.6,0,0,0-7.049,3.7,8.6,8.6,0,0,0-7.049-3.7,8.744,8.744,0,0,0-6.587,2.912,9.922,9.922,0,0,0-2.476,6.67c0,2.735,1.059,5.242,3.332,7.89a68.789,68.789,0,0,0,7.831,7.174c3.433,2.866,3.835,3.242,4.949,4.189,1.352-1.149,1.417-1.241,4.949-4.189a68.8,68.8,0,0,0,7.832-7.174c2.273-2.648,3.332-5.155,3.332-7.89a9.922,9.922,0,0,0-2.476-6.67A8.743,8.743,0,0,0,124.526,105Zm-4.681,21.553c-.768.641-1.553,1.3-2.368,1.984-.814-.688-1.6-1.343-2.368-1.984-6.059-5.058-9.716-8.111-9.716-11.972,0-3.166,2.165-5.554,5.035-5.554,3.723,0,5.047,4.357,5.112,4.578h3.875l0-.007c.013-.046,1.324-4.571,5.11-4.571,2.87,0,5.035,2.388,5.035,5.554C129.561,118.443,125.9,121.5,119.844,126.553Z" transform="translate(-64.93 -90.902)" fill="#4045ab"/>
        <path id="Trazado_912089" data-name="Trazado 912089" d="M78.724,25.7a26.182,26.182,0,1,0-44.3,19.34V68.744h28.2V60.42H78.729V44.308h9.3ZM74.7,40.28V56.392H58.589v8.325H38.449V43.26A22.15,22.15,0,1,1,74.7,26.182v.475L81.512,40.28Z" transform="translate(0)" fill="#4045ab"/>
      </g>
    </g>
  </g>
</svg>
