<svg xmlns="http://www.w3.org/2000/svg" xmlns:xlink="http://www.w3.org/1999/xlink" width="75.407" height="73.223" viewBox="0 0 75.407 73.223">
  <defs>
    <clipPath id="clip-path">
      <path id="Trazado_911502" data-name="Trazado 911502" d="M33.487-.92A35.987,35.987,0,1,1-2.5,35.067c0-3.577-12.859-37.714,11.487-36.755,2.653-2.545,5.561,5.917,9.1,4.219A35.677,35.677,0,0,1,33.487-.92Z" transform="translate(5.894 2.169)" fill="#ffbd45"/>
    </clipPath>
  </defs>
  <g id="Grupo_1101061" data-name="Grupo 1101061" transform="translate(-259.157 -4757.831)">
    <circle id="Elipse_11526" data-name="Elipse 11526" cx="35.818" cy="35.818" r="35.818" transform="translate(262.928 4759.079)" fill="#ee4f47"/>
    <g id="Enmascarar_grupo_1098694" data-name="Enmascarar grupo 1098694" transform="translate(259.157 4757.831)" clip-path="url(#clip-path)">
      <g id="Grupo_1101238" data-name="Grupo 1101238" transform="translate(2.344 -28.043)">
        <path id="Trazado_912081" data-name="Trazado 912081" d="M62.455,40.859A17.835,17.835,0,0,0,38.524,39.69c-.811.666-.991.864-4.69,4.568-3.667-3.672-3.874-3.9-4.686-4.565A17.833,17.833,0,0,0,5.213,66.079c7.992,7.992,27.029,27.042,27.191,27.2a2,2,0,0,0,2.885-.023c.244-.238,1.613-1.609,2.96-2.958,3.262-3.265,10.05-10.061,24.206-24.216a17.859,17.859,0,0,0,0-25.22ZM8.018,63.275a13.867,13.867,0,0,1,18.61-20.519c.634.521.684.585,4.4,4.307l-9.174,9.174a1.983,1.983,0,0,0,0,2.8l2.589,2.589a5.8,5.8,0,0,0,8.2,0l5.179-5.178a1.836,1.836,0,0,1,2.593,0L52.169,68.163a1.8,1.8,0,0,1,.081,2.508,1.753,1.753,0,0,1-2.515.026L41.05,62.05a1.983,1.983,0,1,0-2.8,2.811L46.934,73.5a1.756,1.756,0,1,1-2.487,2.48l-8.686-8.646a1.983,1.983,0,1,0-2.8,2.811l8.682,8.643a1.758,1.758,0,0,1,0,2.484,1.951,1.951,0,0,1-2.422.166,5.668,5.668,0,0,0-3.746-1.783,5.715,5.715,0,0,0-5.288-5.288A5.715,5.715,0,0,0,24.9,69.082a5.721,5.721,0,0,0-9.752-3.628L12.674,67.93,8.018,63.275Zm16.467,9.756a1.759,1.759,0,0,1,1.241,3l-2.478,2.478-2.483-2.484,2.478-2.478a1.746,1.746,0,0,1,1.242-.514Zm5.288,5.288a1.758,1.758,0,0,1,1.241,3l-2.48,2.48-2.483-2.485,2.479-2.479A1.746,1.746,0,0,1,29.773,78.319Zm5.288,5.288a1.758,1.758,0,0,1,1.241,3l-2.48,2.481L31.338,86.6l2.482-2.481A1.745,1.745,0,0,1,35.061,83.607ZM20.439,70.742l-2.477,2.477-2.483-2.484,2.477-2.477a1.756,1.756,0,1,1,2.484,2.484ZM59.65,63.274l-3.593,3.593a5.788,5.788,0,0,0-1.087-1.512L43.223,53.647a5.806,5.806,0,0,0-8.2,0l-5.179,5.178a1.836,1.836,0,0,1-2.593,0l-1.187-1.187C41.248,42.455,40.29,43.371,41.043,42.753A13.867,13.867,0,0,1,59.65,63.274Z" transform="translate(0 0)" fill="#4045ab"/>
      </g>
    </g>
  </g>
</svg>
