<svg xmlns="http://www.w3.org/2000/svg" xmlns:xlink="http://www.w3.org/1999/xlink" width="820" height="549.363" viewBox="0 0 820 549.363">
  <defs>
    <linearGradient id="linear-gradient" x1="0.5" x2="0.5" y2="1" gradientUnits="objectBoundingBox">
      <stop offset="0" stop-color="#ffbd45"/>
      <stop offset="1" stop-color="#ca7441"/>
    </linearGradient>
    <clipPath id="clip-path">
      <rect id="Rectángulo_402895" data-name="Rectángulo 402895" width="820" height="549.363" fill="url(#linear-gradient)"/>
    </clipPath>
    <clipPath id="clip-path-2">
      <rect id="Rectángulo_402894" data-name="Rectángulo 402894" width="820" height="546.308" fill="url(#linear-gradient)"/>
    </clipPath>
    <clipPath id="clip-path-3">
      <rect id="Rectángulo_403046" data-name="Rectángulo 403046" width="753.814" height="490.875" fill="none"/>
    </clipPath>
    <clipPath id="clip-path-5">
      <rect id="Rectángulo_403040" data-name="Rectángulo 403040" width="378.807" height="298.533" fill="none"/>
    </clipPath>
    <clipPath id="clip-path-7">
      <path id="Trazado_911869" data-name="Trazado 911869" d="M504.867,58.385a20.312,20.312,0,0,0-20.334,20.333V268.253H733.706V78.718a20.317,20.317,0,0,0-20.333-20.333Z" transform="translate(-484.533 -58.385)" fill="none"/>
    </clipPath>
    <clipPath id="clip-path-9">
      <rect id="Rectángulo_403043" data-name="Rectángulo 403043" width="77.252" height="11.645" fill="none"/>
    </clipPath>
    <clipPath id="clip-path-10">
      <rect id="Rectángulo_403044" data-name="Rectángulo 403044" width="55.753" height="70.959" fill="none"/>
    </clipPath>
  </defs>
  <g id="Grupo_1102786" data-name="Grupo 1102786" transform="translate(-475 -6565.766)">
    <g id="Grupo_1100899" data-name="Grupo 1100899" transform="translate(475 6565.766)">
      <g id="Grupo_1100898" data-name="Grupo 1100898" clip-path="url(#clip-path)">
        <path id="Trazado_911503" data-name="Trazado 911503" d="M724.771,463.555s117.976-131.109,91.3-275.342S622.211,61.2,509.979,41.843s-170.015-60.733-302.6-26.35S23.511,103.659,8.228,183.82s-7.652,155.8,9.588,226.82S68.022,532.895,164.961,535.42,295.336,515.1,350.043,534.3s270.482,36.338,374.728-70.746" transform="translate(0 0.774)" opacity="0.18" fill="url(#linear-gradient)"/>
      </g>
    </g>
    <g id="Grupo_1101068" data-name="Grupo 1101068" transform="translate(493.481 6617.658)">
      <g id="Grupo_1101085" data-name="Grupo 1101085" clip-path="url(#clip-path-3)">
        <g id="Grupo_1101072" data-name="Grupo 1101072">
          <g id="Grupo_1101071" data-name="Grupo 1101071" clip-path="url(#clip-path-3)">
            <g id="Grupo_1101070" data-name="Grupo 1101070" transform="translate(153.179 162.269)" opacity="0.3">
              <g id="Grupo_1101069" data-name="Grupo 1101069">
                <g id="Grupo_1101068-2" data-name="Grupo 1101068" clip-path="url(#clip-path-5)">
                  <path id="Trazado_911737" data-name="Trazado 911737" d="M487.911,246.337H342.965a1.09,1.09,0,0,0,0,2.179H487.911a1.09,1.09,0,0,0,0-2.179" transform="translate(-151.44 -161.016)" fill="#fff"/>
                  <path id="Trazado_911738" data-name="Trazado 911738" d="M487.911,258.619H342.965a1.09,1.09,0,0,0,0,2.179H487.911a1.09,1.09,0,0,0,0-2.179" transform="translate(-151.44 -160.954)" fill="#fff"/>
                  <path id="Trazado_911739" data-name="Trazado 911739" d="M487.911,270.9H342.965a1.09,1.09,0,0,0,0,2.179H487.911a1.09,1.09,0,0,0,0-2.179" transform="translate(-151.44 -160.891)" fill="#fff"/>
                  <path id="Trazado_911740" data-name="Trazado 911740" d="M365.264,285.361a1.09,1.09,0,0,0,0-2.179h-22.3a1.09,1.09,0,0,0,0,2.179Z" transform="translate(-151.44 -160.829)" fill="#fff"/>
                  <path id="Trazado_911741" data-name="Trazado 911741" d="M487.911,327.711H342.965a1.09,1.09,0,0,0,0,2.179H487.911a1.09,1.09,0,0,0,0-2.179" transform="translate(-151.44 -160.603)" fill="#fff"/>
                  <path id="Trazado_911742" data-name="Trazado 911742" d="M487.911,339.992H342.965a1.09,1.09,0,0,0,0,2.179H487.911a1.09,1.09,0,0,0,0-2.179" transform="translate(-151.44 -160.54)" fill="#fff"/>
                  <path id="Trazado_911743" data-name="Trazado 911743" d="M487.911,352.274H342.965a1.09,1.09,0,0,0,0,2.179H487.911a1.09,1.09,0,0,0,0-2.179" transform="translate(-151.44 -160.478)" fill="#fff"/>
                  <path id="Trazado_911744" data-name="Trazado 911744" d="M365.264,364.556h-22.3a1.09,1.09,0,0,0,0,2.179h22.3a1.09,1.09,0,0,0,0-2.179" transform="translate(-151.44 -160.415)" fill="#fff"/>
                  <path id="Trazado_911745" data-name="Trazado 911745" d="M298.3,378.557V358.039a8.344,8.344,0,0,0-8.335-8.334H214.107a8.343,8.343,0,0,0-8.334,8.334v23.867a1.146,1.146,0,0,0,0,1.218v29.542A8.344,8.344,0,0,0,214.107,421h75.862a8.345,8.345,0,0,0,8.335-8.335V379.778a1.135,1.135,0,0,0,0-1.221m-84.2-27.108h75.862a6.6,6.6,0,0,1,6.592,6.59v20.23c-5.635,1.613-9.933,4.949-13.683,9.427-1.729,2.064-3.365,4.216-5.294,6.1a31.734,31.734,0,0,1-8.822,5.869,22.978,22.978,0,0,1-11.61,2.373c-4.253-.381-7.744-2.607-10.8-5.454-2.824-2.632-5.33-5.591-8.335-8.031a38.041,38.041,0,0,0-9.159-5.531,34.4,34.4,0,0,0-21.343-1.808V358.039a6.6,6.6,0,0,1,6.591-6.59m75.862,67.81H214.107a6.6,6.6,0,0,1-6.591-6.592V383.439a32.274,32.274,0,0,1,21.5,2.021,36.7,36.7,0,0,1,9.627,6.529c2.81,2.628,5.3,5.6,8.319,8,11.236,8.957,26.636,2.166,34.885-7.632a79.242,79.242,0,0,1,5.886-6.72,22.194,22.194,0,0,1,8.832-5.112v32.139a6.6,6.6,0,0,1-6.592,6.592" transform="translate(-152.134 -160.491)" fill="#fff"/>
                  <path id="Trazado_911746" data-name="Trazado 911746" d="M240.444,379.085a9.02,9.02,0,1,0-6.005-3.405,8.9,8.9,0,0,0,6.005,3.405m-6.114-9.847a7.281,7.281,0,0,1,7.205-6.383,7.544,7.544,0,0,1,.913.056,7.277,7.277,0,1,1-8.118,6.327" transform="translate(-151.997 -160.433)" fill="#fff"/>
                  <path id="Trazado_911747" data-name="Trazado 911747" d="M530.935,173.574a14.255,14.255,0,0,0-14.126-12.119c-1.1-.016-2.2,0-3.3,0H168.4c-1.034,0-2.081-.035-3.112.055a14.268,14.268,0,0,0-12.861,14.229c-.057,4.266,0,8.536,0,12.8V443.717a24.533,24.533,0,0,0,.322,5.146,14.273,14.273,0,0,0,14,11.1c3.526.046,7.055,0,10.581,0H517a14.291,14.291,0,0,0,14.077-14.233c.019-1.3,0-2.6,0-3.9V185.073c0-3.758.374-7.757-.146-11.5M154.608,176a12.1,12.1,0,0,1,11.9-12.365c.717-.013,1.435,0,2.152,0H512.642c1.294,0,2.587-.007,3.881,0,6.432.035,12.014,4.654,12.364,11.287.181,3.425.014,6.9.014,10.327v3.908a1.11,1.11,0,0,0-.436-.088H155.044a1.093,1.093,0,0,0-.437.089c0-4.386-.024-8.772,0-13.159M528.9,249.591V440.968c0,1.477.008,2.953,0,4.429A12.109,12.109,0,0,1,517,457.783H178.679c-3.878,0-7.757.018-11.635,0-5.908-.029-11.151-3.794-12.254-9.788a24.653,24.653,0,0,1-.182-4.41V191.157a1.11,1.11,0,0,0,.436.088H528.466a1.11,1.11,0,0,0,.436-.088v58.434Z" transform="translate(-152.404 -161.448)" fill="#fff"/>
                  <path id="Trazado_911748" data-name="Trazado 911748" d="M215.169,264.258c-.026-.077-.049-.158-.075-.235a.68.68,0,0,0-1.125-.249l-14.877-6.013a53.23,53.23,0,1,0,102.177,26.494l-52.826-6.544Z" transform="translate(-152.186 -160.958)" fill="#fff"/>
                  <path id="Trazado_911749" data-name="Trazado 911749" d="M267.333,223.5a50.909,50.909,0,0,0-17.879-3.3l-.164,50.924,50.539,6.263a51.062,51.062,0,0,0-32.5-53.884" transform="translate(-151.911 -161.149)" fill="#fff"/>
                  <path id="Trazado_911750" data-name="Trazado 911750" d="M241.687,224.391a42.076,42.076,0,0,0-39.58,25.993l38.882,16.076Z" transform="translate(-152.151 -161.128)" fill="#fff"/>
                  <path id="Trazado_911751" data-name="Trazado 911751" d="M173.958,182.045a4.129,4.129,0,1,0-4.13-4.13,4.13,4.13,0,0,0,4.13,4.13" transform="translate(-152.315 -161.385)" fill="#fff"/>
                  <path id="Trazado_911752" data-name="Trazado 911752" d="M185.728,182.045a4.129,4.129,0,1,0-4.13-4.13,4.13,4.13,0,0,0,4.13,4.13" transform="translate(-152.256 -161.385)" fill="#fff"/>
                  <path id="Trazado_911753" data-name="Trazado 911753" d="M197.5,182.045a4.129,4.129,0,1,0-4.13-4.13,4.13,4.13,0,0,0,4.13,4.13" transform="translate(-152.196 -161.385)" fill="#fff"/>
                </g>
              </g>
            </g>
          </g>
        </g>
        <g id="Grupo_1101074" data-name="Grupo 1101074">
          <g id="Grupo_1101073" data-name="Grupo 1101073" clip-path="url(#clip-path-3)">
            <path id="Trazado_911754" data-name="Trazado 911754" d="M365.88,167.287a11.76,11.76,0,0,1,7.2-5.5c12.508-3.247,25.622-4.668,38.074-1.509,14.444,3.664,27.748,14.6,30.738,29.2,1.157,5.653.756,11.5.124,17.235a4.134,4.134,0,0,0,.214,2.418,4.476,4.476,0,0,0,2.281,1.649c9.232,4.234,15.157,14.144,16.008,24.265s-2.884,20.27-8.868,28.476a39.545,39.545,0,0,1-13.867,12.324,44.5,44.5,0,0,1-11.664,3.676,111.522,111.522,0,0,1-19.177,1.838c-13.19.2-27.4.812-39.487-4.991-11.637-5.586-20.13-16.975-22.9-29.583s.025-26.194,6.9-37.118c.3-.47-3.067-8.648-3.275-9.955a29.307,29.307,0,0,1,3.845-19.364,27.159,27.159,0,0,1,6.714-7.753c.853-.641,5.79-3.878,6.729-2.9-.53-.554-.153-1.447.4-2.406" transform="translate(1.747 0.806)" fill="#12263f"/>
            <path id="Trazado_911755" data-name="Trazado 911755" d="M419.735,160.118c2.215-3.8,5.229-7.311,9.237-9.125a14.868,14.868,0,0,1,20.655,10.337c4.413-5.132,11.618-5.146,17.986-2.85a18.943,18.943,0,0,1,11.949,15.163,21,21,0,0,1-7.1,18.157,12.245,12.245,0,0,1,11.29,6.333,17.524,17.524,0,0,1,.862,13.138A23.261,23.261,0,0,1,470.4,226.216c-8.131,2.9-17.466.9-24.7-3.814s-12.586-11.855-16.7-19.443c-6.4-11.806-8.531-29.43-9.263-42.841" transform="translate(2.134 0.761)" fill="#12263f"/>
            <path id="Trazado_911756" data-name="Trazado 911756" d="M376.252,266.056v25.55l46.677-.237,5.587-47.86Z" transform="translate(1.913 1.238)" fill="#e79674"/>
            <path id="Trazado_911757" data-name="Trazado 911757" d="M376.252,271.584V284.81a39.388,39.388,0,0,0,16.378-.4c15.1-3.737,27.807-13.32,30.645-29.389a101.268,101.268,0,0,1-47.023,16.56" transform="translate(1.913 1.297)" fill="#e27868"/>
            <path id="Trazado_911758" data-name="Trazado 911758" d="M364.2,271.461c21.564,13.157,54.5,6.915,62.619-20.527a253.053,253.053,0,0,0,6.733-28.1c.691-3.967,1.073-7.061,1.311-9.263a44.03,44.03,0,0,0,1-9.208A43.41,43.41,0,0,0,352.2,188.384c-3.347,8.345-3.043,17.089-3.129,25.892-.064,6.585-.087,13.139.445,19.719.935,11.555,2.677,26.284,11.4,34.878a18.192,18.192,0,0,0,3.279,2.587" transform="translate(1.775 0.82)" fill="#e79674"/>
            <path id="Trazado_911759" data-name="Trazado 911759" d="M385.982,227.472a3.356,3.356,0,1,0,3.322-3.833,3.606,3.606,0,0,0-3.322,3.833" transform="translate(1.963 1.137)" fill="#3d113a"/>
            <path id="Trazado_911760" data-name="Trazado 911760" d="M355.836,226.494a3.356,3.356,0,1,0,3.322-3.833,3.606,3.606,0,0,0-3.322,3.833" transform="translate(1.809 1.132)" fill="#3d113a"/>
            <path id="Trazado_911761" data-name="Trazado 911761" d="M367.025,249.146c.925,1.947,2.328,4.143,4.488,3.817,2.361-.357,3.156-3.315,3.715-5.59Z" transform="translate(1.866 1.258)" fill="#fff"/>
            <path id="Trazado_911762" data-name="Trazado 911762" d="M367.091,245.215a.278.278,0,0,1-.165-.053,11.991,11.991,0,0,1-3.365-3.2,4.253,4.253,0,0,1-.1-4.616,6.025,6.025,0,0,1,1-1,6.19,6.19,0,0,0,.851-.821,5.8,5.8,0,0,0,.935-2.3,60,60,0,0,0,1.7-15.184.28.28,0,0,1,.276-.285h0a.281.281,0,0,1,.28.275,60.594,60.594,0,0,1-1.711,15.326,6.262,6.262,0,0,1-1.042,2.514,6.567,6.567,0,0,1-.927.9,5.541,5.541,0,0,0-.916.906,3.691,3.691,0,0,0,.124,3.992,11.546,11.546,0,0,0,3.215,3.043.28.28,0,0,1,.061.391.276.276,0,0,1-.226.116" transform="translate(1.845 1.107)" fill="#3d113a"/>
            <path id="Trazado_911763" data-name="Trazado 911763" d="M389.949,217.874c5.178-.372,2.018-6.208-1.81-5.537-1.359.238-3.622,1.954-3.582,3.5.054,2.046,3.863,2.145,5.392,2.035" transform="translate(1.955 1.079)" fill="#3d113a"/>
            <path id="Trazado_911764" data-name="Trazado 911764" d="M356.987,218.309c-5.178-.372-2.018-6.208,1.81-5.537,1.359.238,3.622,1.954,3.582,3.5-.054,2.045-3.863,2.145-5.392,2.035" transform="translate(1.801 1.082)" fill="#3d113a"/>
            <path id="Trazado_911765" data-name="Trazado 911765" d="M437.845,216.3a11.332,11.332,0,0,1,8.131,6.268,15.536,15.536,0,0,1,.926,10.416,19.567,19.567,0,0,1-17.252,14.544,10.073,10.073,0,0,1-5.888-1.137,8.813,8.813,0,0,1-3.84-6.863,19.754,19.754,0,0,1,1.356-7.99c2.516-7.315,7.028-16.729,16.568-15.237" transform="translate(2.135 1.099)" fill="#e79674"/>
            <path id="Trazado_911766" data-name="Trazado 911766" d="M429.68,235.578a.305.305,0,0,1-.168-.05.3.3,0,0,1-.082-.418,34.27,34.27,0,0,1,3.735-4.913,11.542,11.542,0,0,1,5.267-3.294.3.3,0,0,1,.154.583,10.946,10.946,0,0,0-4.988,3.13,33.809,33.809,0,0,0-3.667,4.828.3.3,0,0,1-.25.134" transform="translate(2.183 1.154)" fill="#3d113a"/>
            <path id="Trazado_911767" data-name="Trazado 911767" d="M376.065,160.425a15.443,15.443,0,0,0-12.279,15.812,29.286,29.286,0,0,0,1.465,7.631,22.075,22.075,0,0,0,5.665,9.358,16.7,16.7,0,0,0,15.894,3.628c-.478,10.266,5.586,20.377,14.6,25.309s23.776,3.721,31.459-3.1c3.713-3.3,3.749-7.989,3.9-12.912a45.852,45.852,0,0,0-2.58-16.775c-2.6-7.287-6.456-14.389-12.414-19.358a47.554,47.554,0,0,0-13.834-7.508,57.218,57.218,0,0,0-31.876-2.081" transform="translate(1.85 0.809)" fill="#12263f"/>
            <path id="Trazado_911768" data-name="Trazado 911768" d="M529.164,467.91l-.784,21.559H485.774l-2.945-28.464-3.478-29.348-3.045,20.534-.643,13.207a141.7,141.7,0,0,1-41.088,15.629H375.617a141.714,141.714,0,0,1-46.2-18.695l-.241-48.144-.1-20.976-.191-28.183-.241-37.781s.281-.231.794-.633c2.292-1.8,9.337-7.3,17.639-13.267,9.207-6.6,19.971-13.79,27.449-17.127l1.518-15.4s.151.151.462.422a22.272,22.272,0,0,0,7.116,4.111l.02.02a26.775,26.775,0,0,0,12.714,1.226c7.267-.975,15.207-3.95,20.835-6.412,4.543-1.99,7.568-3.628,7.568-3.628l.08.271.694,2.211,4.03,12.815a137.107,137.107,0,0,1,27.3,11.327,126.683,126.683,0,0,1,15.709,10.041,92.462,92.462,0,0,1,18.594,18.383c15.227,20.423,27.067,51.913,33.268,87.794a332.189,332.189,0,0,1,4.734,48.505" transform="translate(1.671 1.406)" fill="#fcf3ea"/>
            <path id="Trazado_911769" data-name="Trazado 911769" d="M283.821,379.856c-.625,18.1-1.88,36.164-3.12,54.227,30.089-9.8,60.85-26.274,60.85-26.274l-12.669-80.822L284.215,357.16q0,11.351-.394,22.7" transform="translate(1.427 1.663)" fill="#fcf3ea"/>
            <path id="Trazado_911770" data-name="Trazado 911770" d="M476.31,452.055l-.395,13.056-.255.154a141.514,141.514,0,0,1-41.085,15.622A142.442,142.442,0,0,1,329.411,462.2l-.565-.36L329,414.137l.068-21.065-.189-28.182.479-33.2v-.034l.069-5.184c2.293-1.8,9.341-7.289,17.641-13.261l1.213,37.679a44.731,44.731,0,0,0,49.383,43.052c.514-.052,1.044-.12,1.575-.172a44.478,44.478,0,0,0,38.278-35.95c3.422-17.779,9.411-40.28,19.335-54.773A125.911,125.911,0,0,1,472.562,313.1c-5.151,12.44-16.752,43.411-18.1,72.551-1.746,37.576,21.852,66.408,21.852,66.408" transform="translate(1.672 1.541)" fill="#f59691"/>
            <path id="Trazado_911771" data-name="Trazado 911771" d="M340.4,400.192a4.792,4.792,0,1,1,4.791-4.792,4.8,4.8,0,0,1-4.791,4.792m0-9.32a4.528,4.528,0,1,0,4.529,4.528,4.532,4.532,0,0,0-4.529-4.528" transform="translate(1.706 1.986)" fill="#faf0e4"/>
            <path id="Trazado_911772" data-name="Trazado 911772" d="M441.82,400.192a4.792,4.792,0,1,1,4.791-4.792,4.8,4.8,0,0,1-4.791,4.792m0-9.32a4.528,4.528,0,1,0,4.528,4.528,4.533,4.533,0,0,0-4.528-4.528" transform="translate(2.222 1.986)" fill="#faf0e4"/>
            <path id="Trazado_911773" data-name="Trazado 911773" d="M395.344,444.391c-14.031,0-24.605-3.921-31.43-11.652-10.24-11.6-8.331-27.942-8.311-28.106l.014-.116h77.422l.008.124c.012.175,1.032,17.65-9.865,29.292-6.495,6.939-15.861,10.458-27.838,10.458m-39.492-39.61c-.153,1.482-1.448,16.79,8.261,27.787,6.773,7.671,17.28,11.56,31.231,11.56,11.9,0,21.2-3.491,27.646-10.373,10.339-11.047,9.872-27.391,9.8-28.974Z" transform="translate(1.807 2.057)" fill="#faf0e4"/>
            <path id="Trazado_911774" data-name="Trazado 911774" d="M307.934,410.036a33.822,33.822,0,0,1-4.292,4.03c-.281.241-.583.472-.895.714-5.558,4.262-15.217,9.458-27.047,6.8-.372-.08-.754-.171-1.136-.271-6.292-1.658-13.167-5.568-20.353-13,0,0-9.92-12.312-12.322-33.53-.5-4.5-.9-8.4-1.216-11.749-.04-.412-.08-.814-.111-1.206-1.065-11.558-1.065-16.122-1.065-16.122s18.911-.853,30.2-22.061Z" transform="translate(1.218 1.646)" fill="#fcf3ea"/>
            <path id="Trazado_911775" data-name="Trazado 911775" d="M303.465,413.624c-.281.241-.583.472-.895.714a10.8,10.8,0,0,0-4.181-2.1,18.474,18.474,0,0,0-8.111.02c-6.533,1.236-11.84,4.453-14.755,8.885-.372-.08-.754-.171-1.136-.271,3.025-4.865,8.684-8.382,15.679-9.719a19.608,19.608,0,0,1,8.6,0,11.779,11.779,0,0,1,4.794,2.473" transform="translate(1.395 2.088)" fill="#351e3b"/>
            <path id="Trazado_911776" data-name="Trazado 911776" d="M294.293,374.738a.561.561,0,0,1-.5-.308l-26.432-51.836a.562.562,0,1,1,1-.511l26.432,51.836a.562.562,0,0,1-.245.757.571.571,0,0,1-.255.061" transform="translate(1.359 1.636)" fill="#351e3b"/>
            <path id="Trazado_911777" data-name="Trazado 911777" d="M239.243,343.576l-2.355-8.432S220.682,327.133,218.5,322.4s-9.651-13.657-10.2-18.209-6.373-29.134,2-31.138c0,0,.547-9.469,6.009-10.378s8.917,18.566,12.923,25.3c0,0,4.02-4.876,8.041-6.415,0,0-8.218-23.622-2.209-26.353s22.033,26.039,26.222,35.871,9.946,36.764,9.946,39.5a21.39,21.39,0,0,1-15.409,20.776c-14.75,4.734-15.9-4.1-15.9-4.1Z" transform="translate(1.047 1.297)" fill="#e79674"/>
            <path id="Trazado_911778" data-name="Trazado 911778" d="M231.119,324.951a.377.377,0,0,1-.377-.364,34.349,34.349,0,0,1,2.859-14.033c.1-.2,9.743-20.13,16.416-19.459a3.474,3.474,0,0,1,2.729,1.66c1.836,2.928.54,9.295-1.129,13.857-1.848,5.051-3.054,8.746-2.93,10.361a14.982,14.982,0,0,0,1.124,3.854.377.377,0,1,1-.689.306,15.546,15.546,0,0,1-1.186-4.1c-.135-1.757,1.037-5.388,2.973-10.679,1.738-4.75,2.782-10.673,1.2-13.2a2.718,2.718,0,0,0-2.165-1.311c-4.554-.434-12.015,11.435-15.662,19.035a33.491,33.491,0,0,0-2.785,13.681.378.378,0,0,1-.364.39Z" transform="translate(1.173 1.48)" fill="#351e3b"/>
            <path id="Trazado_911779" data-name="Trazado 911779" d="M218.994,319.869a.377.377,0,0,1-.373-.324c-.058-.407-1.41-10.008-.242-13.642.936-2.911,12.769-24.769,19.119-24.769l.118,0a4.27,4.27,0,0,1,3.5,1.768c2.149,3.045.58,8.923.048,10.652a90.968,90.968,0,0,1-4.228,9.794l.459,1.3a.377.377,0,1,1-.711.251l-.513-1.453a.377.377,0,0,1,.017-.294,94.943,94.943,0,0,0,4.255-9.823c.361-1.172,2.058-7.159.056-10a3.506,3.506,0,0,0-2.92-1.448q-.05,0-.1,0c-5.675,0-17.237,20.67-18.387,24.248-1.115,3.47.257,13.207.27,13.3a.375.375,0,0,1-.319.426.325.325,0,0,1-.054,0" transform="translate(1.108 1.43)" fill="#351e3b"/>
            <path id="Trazado_911780" data-name="Trazado 911780" d="M254.987,314.479a.381.381,0,0,1-.323-.181,7.466,7.466,0,0,0-4.541-3.338c-.432-.108-.558-.391-.532-.621a.475.475,0,0,1,.428-.38h0a.5.5,0,0,1,.455.312,8.275,8.275,0,0,1,4.829,3.635.378.378,0,0,1-.322.573" transform="translate(1.269 1.576)" fill="#351e3b"/>
            <path id="Trazado_911781" data-name="Trazado 911781" d="M222.97,298.186a.377.377,0,0,1-.3-.151c-.734-.984-1.445-1.9-2.157-2.823s-1.417-1.833-2.149-2.812a5.323,5.323,0,0,1-1.249-3.74l-.007-.1a32.951,32.951,0,0,0-2.218-10.59c-.8-1.912-2.232-4.268-4.558-4.643a.377.377,0,0,1,.12-.744c2.669.429,4.265,3.007,5.134,5.1a33.7,33.7,0,0,1,2.276,10.829l.006.1a6.461,6.461,0,0,0,.446,2.337,6.356,6.356,0,0,0,.655,1c.729.976,1.435,1.89,2.141,2.8s1.428,1.846,2.165,2.832a.377.377,0,0,1-.3.6" transform="translate(1.068 1.386)" fill="#351e3b"/>
            <path id="Trazado_911782" data-name="Trazado 911782" d="M449.283,231.821a19.031,19.031,0,0,1-2.062,4.257c-3.61,5.6-9.56,8.762-13.226,10.283A43.3,43.3,0,0,1,417.45,249.6a44.369,44.369,0,0,1-5.93-.4c-1.061-.146-2.124-.334-3.172-.562a39.243,39.243,0,0,1-4.257-1.139l.215-.659a40.146,40.146,0,0,0,4.763,1.242q1.407.282,2.833.458a42.967,42.967,0,0,0,21.828-2.826c3.644-1.513,9.616-4.7,13.094-10.337a18.154,18.154,0,0,0,1.8-3.784Z" transform="translate(2.055 1.178)" fill="#7581ff"/>
            <path id="Trazado_911783" data-name="Trazado 911783" d="M449.066,231.821A19.029,19.029,0,0,1,447,236.078c-.125-.236-.256-.465-.4-.693a18.151,18.151,0,0,0,1.8-3.784Z" transform="translate(2.271 1.178)" fill="#351e3b"/>
            <path id="Trazado_911784" data-name="Trazado 911784" d="M411.881,248.463c-.132.215-.257.437-.382.659-1.062-.146-2.125-.333-3.173-.562.208-.167.465-.361.723-.556q1.405.282,2.832.458" transform="translate(2.076 1.261)" fill="#5e70ef"/>
            <path id="Trazado_911785" data-name="Trazado 911785" d="M407.774,249.932a7.811,7.811,0,0,1-5.546-.879,3.436,3.436,0,0,1-1.124-.958,2.081,2.081,0,0,1,.266-2.556,3.539,3.539,0,0,1,1.785-1.035,6.535,6.535,0,0,1,5.964,1.687,2.2,2.2,0,0,1-1.126,3.682q-.11.032-.22.06" transform="translate(2.038 1.242)" fill="#727997"/>
            <path id="Trazado_911786" data-name="Trazado 911786" d="M440.079,217.228l-2.05.151-.955.07c-.09-1.2-.2-2.392-.352-3.578a73.376,73.376,0,0,0-1.266-7.327c-2.674-11.88-8.161-22.685-15.75-30.685-.121-.131-.241-.251-.362-.382a59.621,59.621,0,0,0-23.71-14.936q2.548.437,5.066,1.025c2.473.573,4.935,1.246,7.357,2.04,1.2.462,2.2.683,3.367,1.216a63.932,63.932,0,0,1,10.091,8.553c.965,1,1.9,2.04,2.794,3.116a61.926,61.926,0,0,1,4.784,6.583,71.949,71.949,0,0,1,8.815,20.815,76.178,76.178,0,0,1,1.668,8.583c.221,1.578.382,3.166.5,4.754" transform="translate(2.012 0.816)" fill="#8d90cd"/>
            <path id="Trazado_911787" data-name="Trazado 911787" d="M439.477,212.25a10.849,10.849,0,0,1-2.911,1.4c-.021.01-.052.01-.073.021a73.281,73.281,0,0,0-1.324-7.468c.829-.911,1.692-1.812,2.563-2.7a75.775,75.775,0,0,1,1.745,8.747" transform="translate(2.213 1.035)" fill="#4045ab"/>
            <path id="Trazado_911788" data-name="Trazado 911788" d="M434.221,216.753s-.684-7.014,3.764-7.356,4.79,7.87,4.79,7.87Z" transform="translate(2.208 1.065)" fill="#ff8e01"/>
            <path id="Trazado_911789" data-name="Trazado 911789" d="M452.515,231.684c0,8.359-5.377,15.294-12.4,16.553a12.83,12.83,0,0,1-2.308.21c-8.131,0-14.717-7.506-14.717-16.763s6.586-16.762,14.717-16.762a12.831,12.831,0,0,1,2.308.209c7.025,1.259,12.4,8.194,12.4,16.553" transform="translate(2.151 1.093)" fill="#333789"/>
            <path id="Trazado_911790" data-name="Trazado 911790" d="M452.492,231.683c0,8.359-5.377,15.294-12.4,16.553-7.033-1.25-12.41-8.185-12.41-16.553s5.377-15.3,12.41-16.553c7.025,1.259,12.4,8.194,12.4,16.553" transform="translate(2.175 1.094)" fill="#b3b4dd"/>
            <path id="Trazado_911791" data-name="Trazado 911791" d="M355.012,15.251v79.26a4.44,4.44,0,0,0,4.44,4.44H513.468a4.441,4.441,0,0,0,4.442-4.44V15.34a4.435,4.435,0,0,0-4.423-4.44c-23.233-.057-130.947-.31-154.089-.09a4.431,4.431,0,0,0-4.385,4.441" transform="translate(1.805 0.055)" fill="#ffbd45"/>
            <path id="Trazado_911792" data-name="Trazado 911792" d="M437.785,65.109a.561.561,0,0,1-.29-.082L355.1,14.382a.554.554,0,0,1-.182-.764.549.549,0,0,1,.763-.182L437.774,63.9l78.269-52.1a.555.555,0,0,1,.616.924l-78.567,52.3a.544.544,0,0,1-.308.093" transform="translate(1.804 0.059)" fill="#511a51"/>
            <path id="Trazado_911793" data-name="Trazado 911793" d="M355.016,97.032a.555.555,0,0,1-.326-1.006l61.983-44.6a.556.556,0,0,1,.65.9l-61.982,44.6a.57.57,0,0,1-.326.1" transform="translate(1.802 0.261)" fill="#511a51"/>
            <path id="Trazado_911794" data-name="Trazado 911794" d="M515.871,97.8a.549.549,0,0,1-.354-.128L458.824,50.8a.554.554,0,0,1,.707-.854l56.694,46.866a.555.555,0,0,1-.354.982" transform="translate(2.332 0.253)" fill="#511a51"/>
            <path id="Trazado_911795" data-name="Trazado 911795" d="M166.535,432.489H32.17a5,5,0,0,1-5-5V343.332a5,5,0,0,1,5-5H166.535a5,5,0,0,1,5,5V427.49a5,5,0,0,1-5,5" transform="translate(0.138 1.72)" fill="#fff"/>
            <path id="Trazado_911796" data-name="Trazado 911796" d="M88.4,358.557h60.787a.272.272,0,0,0,0-.544H88.4a.272.272,0,0,0,0,.544" transform="translate(0.448 1.82)" fill="#d7d5f2"/>
            <path id="Trazado_911797" data-name="Trazado 911797" d="M88.4,367.141h60.787a.272.272,0,0,0,0-.544H88.4a.272.272,0,0,0,0,.544" transform="translate(0.448 1.864)" fill="#d7d5f2"/>
            <path id="Trazado_911798" data-name="Trazado 911798" d="M88.4,375.725h37.687a.272.272,0,0,0,0-.544H88.4a.272.272,0,0,0,0,.544" transform="translate(0.448 1.908)" fill="#d7d5f2"/>
            <path id="Trazado_911799" data-name="Trazado 911799" d="M88.4,396.411h60.787a.272.272,0,0,0,0-.544H88.4a.272.272,0,0,0,0,.544" transform="translate(0.448 2.013)" fill="#d7d5f2"/>
            <path id="Trazado_911800" data-name="Trazado 911800" d="M88.4,404.995h60.787a.272.272,0,0,0,0-.544H88.4a.272.272,0,0,0,0,.544" transform="translate(0.448 2.057)" fill="#d7d5f2"/>
            <path id="Trazado_911801" data-name="Trazado 911801" d="M88.4,413.579h37.687a.272.272,0,0,0,0-.544H88.4a.272.272,0,0,0,0,.544" transform="translate(0.448 2.1)" fill="#d7d5f2"/>
            <path id="Trazado_911802" data-name="Trazado 911802" d="M68.273,380.051H48.049a3.006,3.006,0,0,1-3.005-3.005V356.823a3,3,0,0,1,3.005-3.005H68.273a3.005,3.005,0,0,1,3.005,3.005v20.222a3.006,3.006,0,0,1-3.005,3.005" transform="translate(0.229 1.799)" fill="#d7d5f2"/>
            <path id="Trazado_911803" data-name="Trazado 911803" d="M55.429,364.2l7.623,7.063a1.384,1.384,0,0,0,2.133-.275l9.756-12.731q.694-.9,1.386-1.808a1.368,1.368,0,0,0-.487-1.858,1.391,1.391,0,0,0-1.858.487q-4.879,6.367-9.756,12.732l-1.386,1.807,2.134-.274-7.623-7.063c-1.28-1.187-3.206.73-1.921,1.921" transform="translate(0.28 1.802)" fill="#7581ff"/>
            <path id="Trazado_911804" data-name="Trazado 911804" d="M68.273,420.432H48.049a3.006,3.006,0,0,1-3.005-3.005V397.2a3.006,3.006,0,0,1,3.005-3.005H68.273a3.006,3.006,0,0,1,3.005,3.005v20.223a3.006,3.006,0,0,1-3.005,3.005" transform="translate(0.229 2.004)" fill="#d7d5f2"/>
            <path id="Trazado_911805" data-name="Trazado 911805" d="M55.429,404.583l7.623,7.063a1.384,1.384,0,0,0,2.133-.275l9.756-12.731,1.386-1.808a1.368,1.368,0,0,0-.487-1.858,1.391,1.391,0,0,0-1.858.487q-4.879,6.367-9.756,12.732L62.839,410l2.134-.274-7.623-7.063c-1.28-1.187-3.206.73-1.921,1.921" transform="translate(0.28 2.007)" fill="#7581ff"/>
            <path id="Trazado_911806" data-name="Trazado 911806" d="M33.068,38.122v176.17h231.6V38.122a18.884,18.884,0,0,0-18.9-18.9H51.968a18.88,18.88,0,0,0-18.9,18.9" transform="translate(0.168 0.098)" fill="#fcf3ea"/>
            <path id="Trazado_911807" data-name="Trazado 911807" d="M33.064,38.119v16.93H264.672V38.119a18.887,18.887,0,0,0-18.9-18.9H51.965a18.887,18.887,0,0,0-18.9,18.9" transform="translate(0.168 0.098)" fill="#1a1b44"/>
            <path id="Trazado_911808" data-name="Trazado 911808" d="M238.871,38.211a5.745,5.745,0,1,0,5.745-5.745,5.745,5.745,0,0,0-5.745,5.745" transform="translate(1.215 0.165)" fill="#f4b30f"/>
            <path id="Trazado_911809" data-name="Trazado 911809" d="M220.581,38.211a5.745,5.745,0,1,0,5.745-5.745,5.745,5.745,0,0,0-5.745,5.745" transform="translate(1.122 0.165)" fill="#fff7e7"/>
            <path id="Trazado_911810" data-name="Trazado 911810" d="M201.637,38.211a5.745,5.745,0,1,0,5.745-5.745,5.745,5.745,0,0,0-5.745,5.745" transform="translate(1.025 0.165)" fill="#f4b30f"/>
            <path id="Trazado_911811" data-name="Trazado 911811" d="M57.441,213.887H194.279l.058-3.248.425-2.133,13-65.595c-9.586-23.723-32.035-35.551-36.725-37.8-.558-.274-.866-.4-.866-.4l-17.808-2.474-23.006-3.19s-34.093,16.409-53.193,45.646c-5.939,9.1-14.326,45.471-18.725,69.194" transform="translate(0.292 0.504)" fill="#ffbd45"/>
            <path id="Trazado_911812" data-name="Trazado 911812" d="M185.557,203.112a100.922,100.922,0,0,0,3.7,10.553h41.281a96.176,96.176,0,0,0-.441-9.879s-2.415-5.123-5.189-12.02c-1.175-2.915-2.415-6.147-3.573-9.446-.209-.624-.425-1.249-.633-1.873-.65-1.933-1.258-3.866-1.791-5.756-.05-.167-.1-.342-.15-.517-.4-1.391-.85-2.84-1.325-4.314-.025-.092-.058-.184-.083-.275-.091-.266-.175-.533-.266-.8-4.074-12.378-9.97-26.1-9.97-26.1l-12.387,34.718-.657,1.84Z" transform="translate(0.944 0.726)" fill="#ffbd45"/>
            <path id="Trazado_911813" data-name="Trazado 911813" d="M203.433,213.385h.674a89.3,89.3,0,0,1,9.121-15.01c.075-.1.117-.158.125-.167a.315.315,0,0,0-.058-.433.371.371,0,0,0-.125-.049.3.3,0,0,0-.309.108,90.71,90.71,0,0,0-9.429,15.552" transform="translate(1.034 1.005)" fill="#3d113a"/>
            <path id="Trazado_911814" data-name="Trazado 911814" d="M207.6,186.047l.737.245.21.07,19.424,6.4,17.681-31.04a3.513,3.513,0,0,0-2.446-5.189l-15.375-2.718-.061-.008c-.106-.018-.21-.035-.316-.044a3.539,3.539,0,0,0-3.375,1.832Z" transform="translate(1.056 0.782)" fill="#511a51"/>
            <path id="Trazado_911815" data-name="Trazado 911815" d="M208.333,186.293l.21.07c4.69-8.906,9.537-18.093,14.516-27.069a19.112,19.112,0,0,1,2.525-3.786,7.314,7.314,0,0,1,2.243-1.693l-.061-.009c-.1-.017-.21-.034-.316-.043a7.629,7.629,0,0,0-2.033,1.6,19.4,19.4,0,0,0-2.542,3.83c-4.979,9-9.844,18.189-14.543,27.1" transform="translate(1.059 0.782)" fill="#faf0e4"/>
            <path id="Trazado_911816" data-name="Trazado 911816" d="M226.746,158.183a1.1,1.1,0,0,0,.175.833,1.162,1.162,0,0,0,.716.466l4.474.833a.906.906,0,0,0,.208.016,1.117,1.117,0,0,0,.2-2.215l-4.465-.833a1.15,1.15,0,0,0-.841.183,1.057,1.057,0,0,0-.466.717m.216.033a.835.835,0,0,1,.375-.566.845.845,0,0,1,.5-.159,1.057,1.057,0,0,1,.167.008l4.482.833a.888.888,0,0,1,.708,1.049.9.9,0,0,1-1.041.717l-4.473-.833a.9.9,0,0,1-.717-1.049" transform="translate(1.153 0.8)" fill="#faf0e4"/>
            <path id="Trazado_911817" data-name="Trazado 911817" d="M230.005,203.675a62.25,62.25,0,0,1,.783-9.288c.784-4.476,4.477-9.959,4.924-11.078s6.6-7.274,5.6-10.3-6.49-9.958-8.505-8.84,2.574,10.631,2.574,10.631l-2.76,3.432a38.175,38.175,0,0,0-7.647-2.873c-3.021-.56-14.548-3.47-14.883-1.343s16.226,8.728,16.226,8.728l-.671,1.007s-21.038-7.721-22.269-5.371,14.323,9.735,14.323,9.735-12.422-5.707-13.428-4.028,9.064,8.952,9.064,8.952-1.231,8.505,2.35,11.414,12.085,1.9,14.323-.783" transform="translate(1.034 0.834)" fill="#e79674"/>
            <path id="Trazado_911818" data-name="Trazado 911818" d="M193.963,213.57l.109-5.381.616-30.877L195,161.619a.3.3,0,0,0-.309-.308.311.311,0,0,0-.317.291l-.35,17.55-.691,34.418Z" transform="translate(0.983 0.82)" fill="#3d113a"/>
            <path id="Trazado_911819" data-name="Trazado 911819" d="M94.718,213.57h.616l4.381-51.927a.318.318,0,0,0-.282-.333.3.3,0,0,0-.334.274Z" transform="translate(0.482 0.82)" fill="#3d113a"/>
            <path id="Trazado_911820" data-name="Trazado 911820" d="M170.429,18.037c7.129-1.711,13.9-4.08,22.061-.381,6.092,2.76,9.211,8.181,9.4,14.791,5.39-.459,10.765,3.27,13.327,8.035A13.637,13.637,0,0,1,213.5,55.625c-2.975,3.335-7.527,4.925-11.989,5.2s-8.9-.64-13.265-1.6c-1.253-.275-2.2-1.5-3.053-2.462a99.447,99.447,0,0,1-12.851-18.237,36.059,36.059,0,0,1-3.9-9.547c-.731-3.372.518-7.816,1.991-10.935" transform="translate(0.855 0.08)" fill="#511a51"/>
            <path id="Trazado_911821" data-name="Trazado 911821" d="M174.141,21.033a16.052,16.052,0,0,0-27.93,3.436c-5.19-1.575-11.252,1.349-13.926,6.067s-2.357,10.766.027,15.638a16.551,16.551,0,0,0-5.173,12.517A25.709,25.709,0,0,0,142.4,81.339a336.62,336.62,0,0,1,31.737-60.306" transform="translate(0.646 0.073)" fill="#511a51"/>
            <path id="Trazado_911822" data-name="Trazado 911822" d="M128.994,99.185s6.5,20.363,25.745,16.559c0,0,9.116-1.193,14.665-8.24a16.843,16.843,0,0,0,1-1.385l.982-3.121,2.594-8.293L141.757,71.433Z" transform="translate(0.656 0.363)" fill="#e79674"/>
            <path id="Trazado_911823" data-name="Trazado 911823" d="M148.563,97.538c2.787,5.356,7.81,9.686,13.727,10.913a10.823,10.823,0,0,0,4.374.115,7.774,7.774,0,0,0,2.655-1.1,16.391,16.391,0,0,0,1-1.385l.982-3.121c-7.626-8.52-15.445-17.742-25.508-23.054a30.5,30.5,0,0,0,2.77,17.636" transform="translate(0.74 0.406)" fill="#e27868"/>
            <path id="Trazado_911824" data-name="Trazado 911824" d="M178.591,102.827c-16.465,4.72-36.875-5.289-37.241-24.689A171.792,171.792,0,0,1,142,58.558c.262-2.718.569-4.808.81-6.291a29.9,29.9,0,0,1,1-6.2,29.434,29.434,0,0,1,57.566,4.608c.686,6.059-1.087,11.72-2.614,17.489-1.144,4.318-2.308,8.607-3.839,12.811-2.692,7.386-6.481,16.7-13.73,20.749a12.326,12.326,0,0,1-2.609,1.1" transform="translate(0.719 0.125)" fill="#e79674"/>
            <path id="Trazado_911825" data-name="Trazado 911825" d="M180.706,83.547a.314.314,0,0,0,.125-.025.311.311,0,0,0,.175-.208c1.544-6.214,3.073-12.525,4.543-18.756a.308.308,0,0,0-.229-.372.311.311,0,0,0-.371.23c-1.44,6.1-2.935,12.272-4.445,18.359a15,15,0,0,1-3.424-2.682.309.309,0,1,0-.446.426,15.642,15.642,0,0,0,3.927,2.992.309.309,0,0,0,.146.035" transform="translate(0.898 0.326)" fill="#3d113a"/>
            <path id="Trazado_911826" data-name="Trazado 911826" d="M174.818,86.4a3.7,3.7,0,0,0,2.4-1.308.308.308,0,0,0-.441-.431c-.973,1-1.769,1.317-2.5,1.01-.97-.407-1.062-1.6-1.073-2.793a.32.32,0,0,0-.313-.3.309.309,0,0,0-.306.312c.011,1.03.028,2.756,1.452,3.355a2.015,2.015,0,0,0,.782.16" transform="translate(0.878 0.42)" fill="#3d113a"/>
            <path id="Trazado_911827" data-name="Trazado 911827" d="M189.158,70.23a1.9,1.9,0,1,0,2.4-1.58,2.045,2.045,0,0,0-2.4,1.58" transform="translate(0.961 0.349)" fill="#3d113a"/>
            <path id="Trazado_911828" data-name="Trazado 911828" d="M171.567,63.661a1.9,1.9,0,1,0,2.4-1.58,2.045,2.045,0,0,0-2.4,1.58" transform="translate(0.872 0.315)" fill="#3d113a"/>
            <path id="Trazado_911829" data-name="Trazado 911829" d="M198.773,62.76a1.655,1.655,0,0,1-.014,1.531,1.691,1.691,0,0,1-1.538.5,8.583,8.583,0,0,1-2.024-.424,6.227,6.227,0,0,1-3.581-2.469,1.976,1.976,0,0,1-.082-2.193,1.839,1.839,0,0,1,.659-.486c2.457-1.173,5.717,1.3,6.58,3.545" transform="translate(0.972 0.3)" fill="#511a51"/>
            <path id="Trazado_911830" data-name="Trazado 911830" d="M179.178,59.977a1.655,1.655,0,0,1-.014,1.531,1.694,1.694,0,0,1-1.538.5,8.635,8.635,0,0,1-2.024-.425,6.235,6.235,0,0,1-3.581-2.469,1.977,1.977,0,0,1-.082-2.194,1.863,1.863,0,0,1,.659-.486c2.457-1.173,5.717,1.3,6.58,3.546" transform="translate(0.873 0.285)" fill="#511a51"/>
            <path id="Trazado_911831" data-name="Trazado 911831" d="M141.509,50.177a7.684,7.684,0,0,0-6.645,2.079,10.545,10.545,0,0,0-3.033,6.41,13.267,13.267,0,0,0,7.563,13.3,6.825,6.825,0,0,0,4.013.659,5.976,5.976,0,0,0,4.054-3.466,13.41,13.41,0,0,0,1.013-5.4c.116-5.245-.545-12.293-6.965-13.583" transform="translate(0.67 0.254)" fill="#e79674"/>
            <path id="Trazado_911832" data-name="Trazado 911832" d="M142.175,64.485a.3.3,0,0,0,.077-.009.331.331,0,0,0,.245-.4,23.356,23.356,0,0,0-1.231-4.024,7.949,7.949,0,0,0-2.62-3.383.331.331,0,1,0-.381.542,7.305,7.305,0,0,1,2.4,3.111,22.75,22.75,0,0,1,1.193,3.911.33.33,0,0,0,.322.253" transform="translate(0.702 0.288)" fill="#3d113a"/>
            <path id="Trazado_911833" data-name="Trazado 911833" d="M169.884,17.389A25.839,25.839,0,0,1,178.93,23.9a14.673,14.673,0,0,1,3.662,10.328,7.429,7.429,0,0,1-2.421,5.28c-2.286,1.85-5.828,1.436-8.184-.325a22.759,22.759,0,0,1,.245,8.127c-.526,2.678-2.246,5.3-4.857,6.093a7.134,7.134,0,0,1-5.69-.915,13.5,13.5,0,0,1-4.1-4.232,12.421,12.421,0,0,1-1.928,7.5,7.989,7.989,0,0,1-6.656,3.719,8.125,8.125,0,0,1-3.169-.809c-5.084-2.379-7.48-8.629-6.827-14.2s3.758-10.554,7.212-14.978a41.505,41.505,0,0,1,9.675-9.428c3.783-2.48,9.883-4.577,13.987-2.675" transform="translate(0.706 0.085)" fill="#511a51"/>
            <path id="Trazado_911834" data-name="Trazado 911834" d="M181.754,243.428H32.662a14.2,14.2,0,0,0-14.2,14.2V284.66a14.2,14.2,0,0,0,14.2,14.2H181.754a14.2,14.2,0,0,0,14.2-14.2V257.626a14.2,14.2,0,0,0-14.2-14.2" transform="translate(0.094 1.238)" fill="#1a1b44"/>
            <path id="Trazado_911835" data-name="Trazado 911835" d="M51.61,260.2l3.916,6.6,7.488,1.685-5.068,5.763.712,7.643-7.048-3.039-7.048,3.039.712-7.643-5.068-5.763,7.488-1.685Z" transform="translate(0.204 1.323)" fill="#fdd24b"/>
            <path id="Trazado_911836" data-name="Trazado 911836" d="M79.022,260.2l3.916,6.6,7.488,1.685-5.068,5.763.712,7.643-7.048-3.039-7.049,3.039.713-7.643-5.069-5.763,7.489-1.685Z" transform="translate(0.344 1.323)" fill="#fdd24b"/>
            <path id="Trazado_911837" data-name="Trazado 911837" d="M106.433,260.2l3.916,6.6,7.488,1.685-5.068,5.763.712,7.643-7.048-3.039-7.048,3.039.712-7.643-5.068-5.763,7.488-1.685Z" transform="translate(0.483 1.323)" fill="#fdd24b"/>
            <path id="Trazado_911838" data-name="Trazado 911838" d="M133.845,260.2l3.916,6.6,7.488,1.685-5.068,5.763.712,7.643-7.048-3.039L126.8,281.89l.712-7.643-5.068-5.763,7.488-1.685Z" transform="translate(0.623 1.323)" fill="#fdd24b"/>
            <path id="Trazado_911839" data-name="Trazado 911839" d="M168.308,282.664a.766.766,0,0,1-.3-.063l-6.744-2.908-6.744,2.908a.77.77,0,0,1-1.071-.779l.681-7.311L149.277,269a.771.771,0,0,1,.409-1.26l7.165-1.611,3.746-6.316a.8.8,0,0,1,1.326,0l3.745,6.316,7.165,1.611a.771.771,0,0,1,.41,1.26l-4.85,5.515.681,7.311a.77.77,0,0,1-.767.842m-7.049-4.58a.778.778,0,0,1,.3.062l5.856,2.526-.592-6.349a.773.773,0,0,1,.189-.58l4.211-4.789-6.222-1.4a.77.77,0,0,1-.493-.358l-3.252-5.485-3.252,5.485a.77.77,0,0,1-.493.358l-6.221,1.4,4.21,4.789a.773.773,0,0,1,.189.58l-.592,6.349,5.856-2.526a.778.778,0,0,1,.3-.062" transform="translate(0.758 1.319)" fill="#fff"/>
            <path id="Trazado_911840" data-name="Trazado 911840" d="M75.625,258.167,74.7,223,56.337,244.037" transform="translate(0.286 1.134)" fill="#1a1b44"/>
          </g>
        </g>
        <g id="Grupo_1101076" data-name="Grupo 1101076" transform="translate(486.997 58.682)">
          <g id="Grupo_1101075" data-name="Grupo 1101075" clip-path="url(#clip-path-7)">
            <path id="Trazado_911841" data-name="Trazado 911841" d="M484.533,78.718V268.253H733.706V78.718a20.318,20.318,0,0,0-20.333-20.334H504.867a20.312,20.312,0,0,0-20.334,20.334" transform="translate(-484.533 -58.385)" fill="#fcf3ea"/>
            <path id="Trazado_911842" data-name="Trazado 911842" d="M484.53,78.715V96.928H733.707V78.715a20.319,20.319,0,0,0-20.334-20.334H504.864A20.319,20.319,0,0,0,484.53,78.715" transform="translate(-484.533 -58.385)" fill="#272a67"/>
            <path id="Trazado_911843" data-name="Trazado 911843" d="M705.948,78.814a6.181,6.181,0,1,0,6.18-6.18,6.18,6.18,0,0,0-6.18,6.18" transform="translate(-483.407 -58.313)" fill="#f4b30f"/>
            <path id="Trazado_911844" data-name="Trazado 911844" d="M686.27,78.814a6.18,6.18,0,1,0,6.18-6.18,6.18,6.18,0,0,0-6.18,6.18" transform="translate(-483.507 -58.313)" fill="#f4b30f"/>
            <path id="Trazado_911845" data-name="Trazado 911845" d="M665.89,78.814a6.18,6.18,0,1,0,6.18-6.18,6.18,6.18,0,0,0-6.18,6.18" transform="translate(-483.611 -58.313)" fill="#f4b30f"/>
            <path id="Trazado_911846" data-name="Trazado 911846" d="M647.178,97.843c2.271,7.477,5.393,19.927,11.049,25,4.037,3.62,8.984,6.084,13.176,9.526a36.362,36.362,0,0,1,12.539,33.4,25.577,25.577,0,0,1-3.637,9.869c-3.508,5.345-9.372,8.679-15.317,11.04-21.376,8.491-45.545,6.649-67.881,1.159-8.123-2-16.262-4.516-23.233-9.136s-12.716-11.619-14.206-19.844c-1.462-8.071,1.279-16.384,5.365-23.5,2.47-4.3,5.508-8.5,6.227-13.4.766-5.217-1.209-10.394-2.036-15.6A33.518,33.518,0,0,1,575.2,81.168a28.932,28.932,0,0,1,22.88-11.585c20.34.2,35.007,12.044,49.1,28.26" transform="translate(-484.153 -58.328)" fill="#f4b30f"/>
            <path id="Trazado_911847" data-name="Trazado 911847" d="M547.992,271.378c31.9,7.178,136.111-5.367,136.111-5.367l-11.446-91.46c-11.019-11.778-37.276-26.2-37.89-29.017a12.059,12.059,0,0,1-.13-2.241c.014-4.552.888-13.644,1.159-16.24.042-.457.067-.709.067-.709l-2.413.789-21.789,7.152-6.956,2.28L596.04,139.4a.768.768,0,0,0,.015.1c.012.064.026.166.042.294.056.379.152,1.005.256,1.78.183,1.431.4,3.371.522,5.242.073,1.1.109,2.178.079,3.1a.207.207,0,0,0-.005.074c-.008.205-.017.4-.036.587-.283,3.814-17.75,13.454-29.3,24.472S551.58,214.988,550.4,229.279s-2.405,42.1-2.405,42.1" transform="translate(-484.21 -58.039)" fill="#bd7454"/>
            <path id="Trazado_911848" data-name="Trazado 911848" d="M595.8,139.387a.86.86,0,0,0,.014.1c.013.064.027.166.043.3.046.378.124,1,.218,1.772.177,1.5.382,3.567.479,5.513v.009c.051,1.01.071,1.985.04,2.841a.534.534,0,0,0,.12-.016c7.011-.609,15.2-1.25,21.491-4.2a.891.891,0,0,0,.154-.081A29.734,29.734,0,0,0,630.575,134.5a35.575,35.575,0,0,0,2.706-5.151c-.326.174-.66.34-1,.5-5.894,2.9-12.71,4.247-19.621,5.372-2.736.453-5.484.859-8.2,1.32Z" transform="translate(-483.967 -58.024)" fill="#822c29"/>
            <path id="Trazado_911849" data-name="Trazado 911849" d="M575.03,110.83a60.272,60.272,0,0,0,1.422,9.376,29.25,29.25,0,0,0,8.141,14.448,32.873,32.873,0,0,0,8.21,5.766c13.162,6.615,33.789,3.072,41.458-10.34,4-6.988,5.111-16.218,4.776-24.162-.312-7.746-2.589-15.585-8.029-21.312-7.681-8.062-19.585-11.536-30.494-10.228a35.612,35.612,0,0,0-5.576,1.124,32.615,32.615,0,0,0-6.109,2.442c-5.207,2.723-8.515,7.244-11.038,12.6-2.662,5.627-3.29,13.242-2.761,20.285" transform="translate(-484.074 -58.305)" fill="#bd7454"/>
            <path id="Trazado_911850" data-name="Trazado 911850" d="M595.745,121.3a.35.35,0,0,0,.128-.675,3.531,3.531,0,0,1-2.153-2.807c-.174-1.456.947-3.145,2.054-4.238a.35.35,0,0,0-.492-.5c-.594.587-2.512,2.671-2.256,4.818a4.251,4.251,0,0,0,2.592,3.376.355.355,0,0,0,.128.024" transform="translate(-483.981 -58.107)" fill="#3d113a"/>
            <path id="Trazado_911851" data-name="Trazado 911851" d="M600.034,126.543a5.5,5.5,0,0,0,4.837-2.549.292.292,0,0,0-.5-.307,5.331,5.331,0,0,1-6.206,2,.292.292,0,0,0-.171.558,7.018,7.018,0,0,0,2.036.3" transform="translate(-483.957 -58.054)" fill="#3d113a"/>
            <path id="Trazado_911852" data-name="Trazado 911852" d="M630.079,111.276s9.281-7.907,15.647-3.04c4.127,3.155,5.623,9.732,2.68,14.144a10.158,10.158,0,0,1-7.453,4.228c-2.61.309-6.2.089-7.127-2.457-1.733-4.748-3.747-12.874-3.747-12.874" transform="translate(-483.793 -58.14)" fill="#bd7454"/>
            <path id="Trazado_911853" data-name="Trazado 911853" d="M638.131,124.725a1.64,1.64,0,0,0,1.258-.8,3.374,3.374,0,0,0,.241-3.307,3.561,3.561,0,0,0-2.746-1.685c.118-4.965,2.369-10.711,8.385-10.92a.278.278,0,0,0,.267-.286.3.3,0,0,0-.286-.267c-6.509.226-8.876,6.456-8.924,11.72a.275.275,0,0,0,.256.278,3.156,3.156,0,0,1,2.549,1.4,2.811,2.811,0,0,1-.2,2.755c-.223.329-.6.621-.927.538a.277.277,0,1,0-.139.536,1.063,1.063,0,0,0,.265.034" transform="translate(-483.761 -58.135)" fill="#351e3b"/>
            <path id="Trazado_911854" data-name="Trazado 911854" d="M614.8,99.3c.331.578.52,1.383-.028,1.812a2.028,2.028,0,0,1-1.643.123l-6.015-1.282a5.9,5.9,0,0,1-1.8-.587,1.682,1.682,0,0,1-.927-1.432c.037-.7.694-1.247,1.366-1.6A6.846,6.846,0,0,1,614.8,99.3" transform="translate(-483.923 -58.196)" fill="#d39409"/>
            <path id="Trazado_911855" data-name="Trazado 911855" d="M580.119,101.039c-.321.564-.536,1.359-.091,1.81a1.531,1.531,0,0,0,1.407.192l5.262-1.028a4.7,4.7,0,0,0,1.583-.511,1.752,1.752,0,0,0,.888-1.39,2.1,2.1,0,0,0-1.075-1.651c-2.859-1.945-6.293-.372-7.974,2.578" transform="translate(-484.049 -58.186)" fill="#d39409"/>
            <path id="Trazado_911856" data-name="Trazado 911856" d="M636.17,109.913c-4.716,2.169-10.318.549-14.883-1.921-13.976-7.56-22.922-22.658-25.437-38.347,12.213-2.71,25.985-3.033,37.339,5.888,9.838,7.728,14.76,20.426,15.681,32.9a9.206,9.206,0,0,0-6.347-1.733c-2.258.25-4.289,2.26-6.353,3.21" transform="translate(-483.967 -58.336)" fill="#f4b30f"/>
            <path id="Trazado_911857" data-name="Trazado 911857" d="M648.337,105.33l-2.43,41.292-20.2-4.026,3.914-44.277Z" transform="translate(-483.815 -58.182)" fill="#511a51"/>
            <path id="Trazado_911858" data-name="Trazado 911858" d="M635.794,105.669,631.461,104a1.364,1.364,0,0,1-.782-1.758l.042-.109a1.361,1.361,0,0,1,1.757-.781l4.334,1.666a1.363,1.363,0,0,1,.782,1.758l-.042.108a1.361,1.361,0,0,1-1.758.782m-4.931-3.478-.042.109a1.211,1.211,0,0,0,.695,1.561l4.334,1.666a1.211,1.211,0,0,0,1.561-.695l.041-.109a1.209,1.209,0,0,0-.694-1.561l-4.334-1.666a1.208,1.208,0,0,0-1.561.695" transform="translate(-483.79 -58.167)" fill="#ffd4d4"/>
            <path id="Trazado_911859" data-name="Trazado 911859" d="M547.176,272.164c31.9,7.178,136.93-6.241,136.93-6.241l-11.445-91.46c-11.02-11.778-37.276-26.2-37.89-29.016a12.04,12.04,0,0,1-.131-2.241c-1.685.3-8.418,1.46-16.037,2.342-7.758.907-16.431,1.525-21.583.676a4.94,4.94,0,0,1-.142.51,2.38,2.38,0,0,1-.079.263v.01c.05,1.009.071,1.984.039,2.84a.551.551,0,0,0,.121-.015.206.206,0,0,0-.006.074c-.008.205-.017.4-.035.587-.284,3.813-17.75,13.454-29.3,24.471S551.583,214.9,550.4,229.193s-3.225,42.971-3.225,42.971" transform="translate(-484.214 -57.954)" fill="#ee4f47"/>
            <path id="Trazado_911860" data-name="Trazado 911860" d="M649.543,163.281s-.838-14.426-.968-19.4-1.117-10.5-2.671-13.149-4.253-6.785-8.179-9.435-9.717-4.615-11.19-3.237,4.323,5.833,4.323,5.833a12.333,12.333,0,0,0-7.625,4.057c-3.253,3.72-.516,6.311.786,6.247,0,0-1.125,3.613.136,5.092s7.252-2.021,7.252-2.021-4.378,9.705-3.883,14.9,4.689,13.167,4.689,13.167Z" transform="translate(-483.836 -58.084)" fill="#bd7454"/>
            <path id="Trazado_911861" data-name="Trazado 911861" d="M649.177,161.837l.463-.023-.795-15.931c-.012-.252-.023-.591-.035-1-.089-2.994-.3-10.007-2.472-13.919-2.517-4.536-6.078-8.817-8.661-10.409-2.1-1.295-8.68-4.564-11.3-2.682a.231.231,0,0,0-.06.064c-.04.063-.961,1.574,1.065,3.407a32.53,32.53,0,0,1,2.891,2.915.232.232,0,0,0,.357-.3A32.893,32.893,0,0,0,627.693,121c-1.579-1.428-1.118-2.56-1.005-2.78,2.266-1.544,8.208,1.164,10.746,2.729,2.522,1.555,6.016,5.765,8.5,10.239,2.116,3.814,2.325,10.747,2.414,13.708.012.413.022.755.035,1.009Z" transform="translate(-483.813 -58.085)" fill="#351e3b"/>
            <path id="Trazado_911862" data-name="Trazado 911862" d="M642.874,134.89a.225.225,0,0,0,.11-.028.232.232,0,0,0,.094-.314,23.912,23.912,0,0,0-8.282-9.113,10.186,10.186,0,0,0-2.3-1.1,7.976,7.976,0,0,0-5.276.269,10.854,10.854,0,0,0-4.248,3.151,6.005,6.005,0,0,0-1.62,3.487,3.287,3.287,0,0,0,1.023,2.427,2.324,2.324,0,0,0,1.909.657.232.232,0,0,0-.055-.46,1.886,1.886,0,0,1-1.536-.536,2.836,2.836,0,0,1-.878-2.062,5.573,5.573,0,0,1,1.512-3.214,10.391,10.391,0,0,1,4.063-3.017,7.507,7.507,0,0,1,4.967-.259,9.8,9.8,0,0,1,2.2,1.056,23.447,23.447,0,0,1,8.117,8.938.231.231,0,0,0,.2.122" transform="translate(-483.837 -58.051)" fill="#351e3b"/>
            <path id="Trazado_911863" data-name="Trazado 911863" d="M627.371,150.622a.232.232,0,0,0,.232-.23c.035-3.937,4.007-12.534,4.048-12.621a.232.232,0,0,0-.286-.317l-4.629,1.583a2.747,2.747,0,0,1-1.987.176,1.661,1.661,0,0,1-.856-1.209,3.726,3.726,0,0,1,.122-1.64,9.46,9.46,0,0,1,2.618-4.473,6.021,6.021,0,0,1,1.668-1.168,5.555,5.555,0,0,1,4.017-.075,9.824,9.824,0,0,1,3.507,2.235,16.235,16.235,0,0,1,2.663,3.223.232.232,0,0,0,.392-.247,16.709,16.709,0,0,0-2.739-3.315,10.258,10.258,0,0,0-3.675-2.336,6.025,6.025,0,0,0-4.357.091,6.466,6.466,0,0,0-1.8,1.255,9.919,9.919,0,0,0-2.748,4.695,4.265,4.265,0,0,0-.128,1.841,2.1,2.1,0,0,0,1.118,1.544,3.151,3.151,0,0,0,2.332-.16l4.12-1.408c-.858,1.911-3.835,8.79-3.868,12.32a.232.232,0,0,0,.23.234Z" transform="translate(-483.827 -58.022)" fill="#351e3b"/>
            <path id="Trazado_911864" data-name="Trazado 911864" d="M672.251,174.369s17.667,18.744,21.408,39.257c4.243,23.269-2.032,47.939-27.64,49.763-33.324,2.374-37.56-77.818-37.169-84.241a62.149,62.149,0,0,0-1.078-13.7l22.436-3.492L669.174,193.5Z" transform="translate(-483.805 -57.858)" fill="#ee4f47"/>
            <path id="Trazado_911865" data-name="Trazado 911865" d="M665.059,263.144c9.656,0,17.574-5.425,17.694-5.51a.349.349,0,1,0-.4-.572c-.177.123-17.829,12.206-32.315-.243-14.829-12.745-20.788-78.121-20.514-80.493.005-.065.319-4.83,1.644-6.295a.35.35,0,0,0,.086-.287c-.169-1.085-.388-4.266.777-4.647,1.663-.543,17.581-2.9,17.742-2.93a1.749,1.749,0,0,1,1.672,1.574c.247,1.853.508,5.452.51,5.488a.364.364,0,0,0,.366.325c.032-.012,2.48,0,4.508,5.073.857,2.146,4.049,6.288,8.089,11.531,6.257,8.121,14.044,18.227,16.518,25.411,4,11.62,4.479,17.186,4.483,17.239a.35.35,0,0,0,.7-.054c-.018-.226-.483-5.691-4.519-17.412-2.511-7.293-10.336-17.449-16.625-25.611-3.849-4.994-7.172-9.307-7.993-11.363-1.807-4.523-4.007-5.339-4.848-5.484-.067-.906-.283-3.675-.492-5.233a2.417,2.417,0,0,0-2.406-2.177h-.012c-.708.1-16.186,2.4-17.907,2.961-1.8.588-1.4,4.336-1.273,5.258-1.4,1.756-1.7,6.373-1.712,6.573-.275,2.368,5.771,68.208,20.753,81.085a23.152,23.152,0,0,0,15.478,5.794" transform="translate(-483.799 -57.861)" fill="#351e3b"/>
            <path id="Trazado_911866" data-name="Trazado 911866" d="M638.721,171.128a64.291,64.291,0,0,0,13.756-1.492.35.35,0,0,0-.15-.683,63.527,63.527,0,0,1-21.375,1,.349.349,0,1,0-.085.693,64.534,64.534,0,0,0,7.855.481" transform="translate(-483.79 -57.823)" fill="#351e3b"/>
            <path id="Trazado_911867" data-name="Trazado 911867" d="M582.226,110.612a3.356,3.356,0,1,0,3.322-3.833,3.606,3.606,0,0,0-3.322,3.833" transform="translate(-484.036 -58.139)" fill="#3d113a"/>
            <path id="Trazado_911868" data-name="Trazado 911868" d="M605.642,109.494a3.356,3.356,0,1,0,3.322-3.833,3.606,3.606,0,0,0-3.322,3.833" transform="translate(-483.917 -58.145)" fill="#3d113a"/>
          </g>
        </g>
        <g id="Grupo_1101084" data-name="Grupo 1101084">
          <g id="Grupo_1101083" data-name="Grupo 1101083" clip-path="url(#clip-path-3)">
            <path id="Trazado_911870" data-name="Trazado 911870" d="M753.814,446.882V488.6H0v-9.176l133.174-32.545Z" transform="translate(0 2.272)" fill="#7581ff"/>
            <path id="Trazado_911871" data-name="Trazado 911871" d="M459.384,471.774v1.485a.978.978,0,0,0,1,.951l109.9.8a1.013,1.013,0,0,0,.916-.544l9.387-18.7a.906.906,0,0,0,.1-.374l.164-4.316Z" transform="translate(2.336 2.294)" fill="#591757"/>
            <path id="Trazado_911872" data-name="Trazado 911872" d="M459.384,471.774l24.143-20.761,97.322.04L569.9,472.745s-110.859-.971-110.517-.971" transform="translate(2.336 2.293)" fill="#272a67"/>
            <path id="Trazado_911873" data-name="Trazado 911873" d="M468.463,470.254,489.3,451.7h87.94l-9.806,19.425s-99.276-.869-98.97-.869" transform="translate(2.382 2.297)" fill="#fff"/>
            <path id="Trazado_911874" data-name="Trazado 911874" d="M474.4,463.44h0a27.036,27.036,0,0,1-2.762-.08.1.1,0,0,1-.059-.082.107.107,0,0,1,.036-.1l6.328-5.353a.106.106,0,0,1,.068-.025h2.569a.106.106,0,0,1,.069.186l-6.178,5.423a.1.1,0,0,1-.07.027m-2.718-.177h0Zm.271-.09c.493.019,1.605.04,2.407.054l5.936-5.211h-2.247Z" transform="translate(2.398 2.328)" fill="#ffd4d4"/>
            <g id="Grupo_1101079" data-name="Grupo 1101079" transform="translate(662.685 475.118)" opacity="0.31" style="mix-blend-mode: multiply;isolation: isolate">
              <g id="Grupo_1101078" data-name="Grupo 1101078">
                <g id="Grupo_1101077" data-name="Grupo 1101077" clip-path="url(#clip-path-9)">
                  <path id="Trazado_911875" data-name="Trazado 911875" d="M736.584,478.537c0,3.215-17.294,5.822-38.625,5.822s-38.626-2.607-38.626-5.822,17.294-5.822,38.626-5.822,38.625,2.607,38.625,5.822" transform="translate(-659.332 -472.715)" fill="#7581ff"/>
                </g>
              </g>
            </g>
            <path id="Trazado_911876" data-name="Trazado 911876" d="M726.6,397.2l-2.247,10.912-1.913,9.322-.234,1.146-.912,4.438-.278,1.3L715,453.61l-.233,1.112-5.005,24.35h-42.1l-8.221-33.1-.312-1.223-1.624-6.53-.266-1.09-6.908-27.809-.312-1.246-2.469-9.933c.935,0,79.057-.935,79.057-.935" transform="translate(3.293 2.02)" fill="#f4b30f"/>
            <path id="Trazado_911877" data-name="Trazado 911877" d="M721.248,422.889l-.279,1.3c-20.323,7.843-42.081,11.146-63.516,13.893l-.267-1.09c21.647-2.77,43.628-6.107,64.062-14.105" transform="translate(3.342 2.15)" fill="#fff3ea"/>
            <path id="Trazado_911878" data-name="Trazado 911878" d="M714.943,453.37l-.233,1.113c-18.766-.234-37.266-4.3-55.33-8.754l-.312-1.224c18.254,4.5,36.942,8.655,55.875,8.866" transform="translate(3.351 2.26)" fill="#fff3ea"/>
            <path id="Trazado_911879" data-name="Trazado 911879" d="M722.43,417.38l-.233,1.146a53.648,53.648,0,0,1-5.8.267c-.622,0-1.234-.011-1.835-.011a242.406,242.406,0,0,1-64.251-9.522L650,408.014a241.608,241.608,0,0,0,64.574,9.656,60.257,60.257,0,0,0,7.854-.289" transform="translate(3.305 2.075)" fill="#fff3ea"/>
            <path id="Trazado_911880" data-name="Trazado 911880" d="M648.312,398.968l77.441-.947s-11.361,9.088-39.193,9.088-38.248-8.141-38.248-8.141" transform="translate(3.297 2.024)" fill="#511a51"/>
            <g id="Grupo_1101082" data-name="Grupo 1101082" transform="translate(671.896 410.133)" opacity="0.27" style="mix-blend-mode: multiply;isolation: isolate">
              <g id="Grupo_1101081" data-name="Grupo 1101081">
                <g id="Grupo_1101080" data-name="Grupo 1101080" clip-path="url(#clip-path-10)">
                  <path id="Trazado_911881" data-name="Trazado 911881" d="M724.25,408.059l-1.914,9.322-.233,1.146-.913,4.438-.277,1.3-6.018,29.289-.233,1.113-5.006,24.35H668.5c22.4-20.179,39.579-45.34,55.753-70.959" transform="translate(-668.497 -408.059)" fill="#ffa565"/>
                </g>
              </g>
            </g>
            <path id="Trazado_911882" data-name="Trazado 911882" d="M731.906,282.148q-3.137,11.247-7.175,22.225c2.325-1.736,6.33.79,7.776,3.3s1.267,5.64.812,8.51a59.14,59.14,0,0,1-2.759,10.545c-.067.2-.145.4-.222.6a108.194,108.194,0,0,1-6.831,14.617c-.123.223-.233.434-.345.634-1.435,2.6-2.915,5.172-4.394,7.72-4.816,8.332-9.7,16.441-14.594,24.55-.145.256-.3.5-.456.757-5.663,9.4-11.346,18.777-16.953,28.41-.289.489-.568.99-.856,1.479-.056.089-.1.178-.156.267,1.19-17.4,2.391-34.818,4.727-52.094.034-.266.067-.523.112-.789.757-5.5,1.624-10.98,2.647-16.441a246.266,246.266,0,0,1,6.341-26.174c.066-.256.145-.512.233-.757a173.492,173.492,0,0,1,16.742-38.443c2.836-4.75,6.085-9.489,10.767-12.448a11.015,11.015,0,0,1,2.114-1.056,6.64,6.64,0,0,1,.768-.223,4.578,4.578,0,0,1,2.758.056,5.4,5.4,0,0,1,3.215,4.382,15.486,15.486,0,0,1-.534,5.652q-1.586,7.024-3.527,13.96c-.055.256-.133.512-.211.757" transform="translate(3.487 1.308)" fill="#f59691"/>
            <path id="Trazado_911883" data-name="Trazado 911883" d="M730.2,257.341A243.842,243.842,0,0,0,714.687,291.7c-.111.3-.223.6-.334.891-4.873,13.259-8.822,26.619-11.937,38.61-.044.2-.1.389-.145.589-.878,3.36-1.68,6.619-2.413,9.722q-.5,2.12-1,4.272c-.045.189-.089.39-.134.579-2.381,10.356-4.638,21.113-6.808,31.88-.044.2-.088.39-.122.59-1.257,6.173-2.481,12.359-3.694,18.465q-.683,3.388-1.335,6.719l-.5,2.536a.285.285,0,0,1-.278.223.12.12,0,0,1-.055-.011.271.271,0,0,1-.211-.323c.066-.312.122-.623.189-.946.534-2.737,1.089-5.507,1.646-8.3,2.436-12.28,4.928-24.839,7.553-37.109.055-.256.112-.5.167-.746,1.3-6.084,2.647-12.1,4.049-17.965,1.547-6.507,3.371-13.649,5.507-21.112.066-.255.134-.513.222-.767,2.48-8.711,5.384-17.844,8.71-26.931.044-.124.09-.234.134-.346a249.564,249.564,0,0,1,15.54-34.661,6.7,6.7,0,0,1,.768-.223" transform="translate(3.487 1.309)" fill="#351e3b"/>
            <path id="Trazado_911884" data-name="Trazado 911884" d="M731.976,281.27c-.055.256-.134.512-.211.757-6.018,3.192-11.9,6.7-17.554,10.445-.055.033-.112.078-.167.112a.257.257,0,0,1-.156.044.288.288,0,0,1-.233-.123.211.211,0,0,0-.034-.055v-.011a.3.3,0,0,1,.112-.323c.011,0,.011-.011.022-.011.267-.178.523-.356.79-.523,5.629-3.694,11.469-7.153,17.431-10.312" transform="translate(3.629 1.43)" fill="#351e3b"/>
            <path id="Trazado_911885" data-name="Trazado 911885" d="M705.162,320.194a.227.227,0,0,1-.123.033.266.266,0,0,1-.244-.156l-.033-.066-5.251-10c.066-.256.144-.512.233-.757l5.24,9.99.3.579a.282.282,0,0,1-.123.378" transform="translate(3.557 1.572)" fill="#351e3b"/>
            <path id="Trazado_911886" data-name="Trazado 911886" d="M730.478,326.381c-.066.2-.145.4-.222.6l-28.066,4.461-.077.011h-.044a.274.274,0,0,1-.045-.546l.312-.044v-.011Z" transform="translate(3.568 1.66)" fill="#351e3b"/>
            <path id="Trazado_911887" data-name="Trazado 911887" d="M723.445,341.521c-.123.222-.233.434-.345.634-8.109,1.457-16.307,2.736-24.44,3.782v.011c-.044,0-.077.011-.122.011H698.5a.286.286,0,0,1-.277-.245.291.291,0,0,1,.244-.311c.112-.012.212-.023.323-.045,8.21-1.056,16.474-2.347,24.651-3.837" transform="translate(3.55 1.737)" fill="#351e3b"/>
            <path id="Trazado_911888" data-name="Trazado 911888" d="M695.485,359.687a.267.267,0,0,1-.156.055.289.289,0,0,1-.233-.122.011.011,0,0,0-.011-.011c-1.492-2.159-3.037-4.306-4.628-6.419.034-.266.067-.523.112-.789,1.6,2.125,3.17,4.294,4.684,6.463l.3.434a.28.28,0,0,1-.066.389" transform="translate(3.511 1.792)" fill="#351e3b"/>
            <path id="Trazado_911889" data-name="Trazado 911889" d="M704.145,374.259c-.145.256-.3.5-.456.757a74.919,74.919,0,0,1-11.924,3.225h-.056a.284.284,0,0,1-.277-.222.28.28,0,0,1,.222-.323c.078-.011.156-.033.233-.044a74.438,74.438,0,0,0,12.259-3.393" transform="translate(3.516 1.903)" fill="#351e3b"/>
            <path id="Trazado_911890" data-name="Trazado 911890" d="M747.441,356.2c-2.092,5.183-6.1,9.344-10.234,13.115q-.618.567-1.235,1.1c-.178.178-.367.334-.556.489a223.449,223.449,0,0,1-18.733,14.529h-.011c-.2.133-.378.277-.578.411l-2.6,1.835c-7.887,5.529-15.852,12.725-24.216,17.3a5.95,5.95,0,0,1,.1-.589,8.818,8.818,0,0,1,.489-1.536c.011-.011.011-.022.022-.033,1.279-2.937,4.194-5.984,5.818-8.221q4.288-5.907,9.044-11.468c3.381-3.96,6.919-7.787,10.612-11.436.2-.211.4-.411.6-.589q4.438-4.389,9.143-8.444a83.6,83.6,0,0,1,8.644-6.674c.2-.145.389-.267.589-.39h.011a41.61,41.61,0,0,1,6.886-3.626,7.632,7.632,0,0,1,4.816-.422,3.606,3.606,0,0,1,.6.255,2.491,2.491,0,0,1,1.179,1.446,4.489,4.489,0,0,1-.389,2.948" transform="translate(3.505 1.786)" fill="#f59691"/>
            <path id="Trazado_911891" data-name="Trazado 911891" d="M746.658,351.805c-7.152,5.228-14.628,10.89-22.036,17.019-.189.167-.389.334-.589.489-5.151,4.294-10.268,8.822-15.229,13.594-.145.145-.3.289-.445.434a196.291,196.291,0,0,0-18.977,21.045c-.29.368-.578.735-.856,1.113a.306.306,0,0,1-.222.112.3.3,0,0,1-.167-.055.284.284,0,0,1-.056-.39c.59-.779,1.191-1.546,1.791-2.314.011-.011.011-.022.022-.033a199.976,199.976,0,0,1,18.11-19.9l.167-.167h.011q3.388-3.287,6.864-6.4c.189-.178.389-.356.59-.523,5.828-5.217,11.791-10.1,17.7-14.694.2-.156.389-.312.59-.456,4.094-3.181,8.164-6.218,12.135-9.133a3.6,3.6,0,0,1,.6.256" transform="translate(3.499 1.788)" fill="#351e3b"/>
            <path id="Trazado_911892" data-name="Trazado 911892" d="M734.114,355.578c-.167,1.691-.312,3.393-.423,5.084-.022.189-.033.389-.044.578a.279.279,0,0,1-.278.256h-.011a.282.282,0,0,1-.266-.289.244.244,0,0,1,.011-.089c.112-1.7.244-3.437.423-5.151.2-.145.389-.266.589-.389" transform="translate(3.728 1.808)" fill="#351e3b"/>
            <path id="Trazado_911893" data-name="Trazado 911893" d="M735.8,370.328c-.178.178-.367.334-.556.489-1.336-.189-2.647-.367-3.972-.556-2.458-.346-4.9-.691-7.419-1.035-.022,0-.055-.011-.077-.011a.283.283,0,0,1-.245-.312.289.289,0,0,1,.323-.244c.2.033.4.055.59.077,2.336.334,4.617.645,6.908.968,1.479.211,2.959.423,4.45.623" transform="translate(3.679 1.875)" fill="#351e3b"/>
            <path id="Trazado_911894" data-name="Trazado 911894" d="M715.83,371.007c-.145,1.713-.245,3.282-.334,4.728-.011.2-.022.4-.033.589a.267.267,0,0,1-.279.267h-.011a.291.291,0,0,1-.267-.289v-.044c.089-1.435.189-2.981.323-4.661.2-.212.4-.412.6-.59" transform="translate(3.635 1.887)" fill="#351e3b"/>
            <path id="Trazado_911895" data-name="Trazado 911895" d="M716.578,385.275c-.2.135-.378.278-.578.413q-3.921-1.119-7.743-2.5c-.066-.022-.122-.045-.189-.066a.273.273,0,0,1-.167-.357.282.282,0,0,1,.167-.167h.011a.258.258,0,0,1,.178,0c.145.055.3.111.445.157,2.592.934,5.217,1.767,7.876,2.524" transform="translate(3.599 1.945)" fill="#351e3b"/>
            <path id="Trazado_911896" data-name="Trazado 911896" d="M685.392,398.8c-.156.98-.345,1.97-.534,2.959-.323,1.657-.689,3.315-1.091,5.005A363.421,363.421,0,0,0,665.6,350.121v-.011c-.1-.255-.211-.513-.323-.767v-.012c-1.235-2.992-2.514-5.951-3.837-8.9a39.849,39.849,0,0,1-3.327-9.344,12.554,12.554,0,0,1,1.78-9.522c-.756-1.991-1.491-3.982-2.191-5.994v-.013c-.089-.244-.178-.487-.256-.734-5.55-16.051-9.211-32.914-7.475-49.657.022-.21.044-.433.066-.656.112-.923.223-1.856.367-2.779.634-4.184,1.825-8.634,5.118-11.292a3.974,3.974,0,0,1,1.157-.689,1.731,1.731,0,0,1,.578-.112.193.193,0,0,1,.078-.011,3.247,3.247,0,0,1,2.136,1.146,29.337,29.337,0,0,1,5.684,8.965,158.825,158.825,0,0,1,9,25.4c.1.357.189.7.289,1.067v.011c3.759,14.373,5.984,29.234,7.964,44.007v.011c.055.4.112.812.167,1.2v.011q.116.883.233,1.768c1.313,9.955,2.57,19.9,3.437,29.889v.011c.044.445.078.89.112,1.324.167,1.947.312,3.883.445,5.83a118,118,0,0,1-1.413,28.532" transform="translate(3.303 1.269)" fill="#f59691"/>
            <path id="Trazado_911897" data-name="Trazado 911897" d="M685.356,398.8c-.156.98-.345,1.97-.534,2.959q-.017-21.074-2.024-41.981c-.012-.232-.034-.466-.067-.7q-1.7-17.621-4.816-35.063c-.044-.223-.078-.444-.123-.667v-.011q-2.653-14.767-6.318-29.368a1.813,1.813,0,0,0-.056-.232q-1.585-6.359-3.381-12.67c-.089-.345-.189-.679-.289-1.024v-.011q-1.818-6.374-3.826-12.715c-1.88-5.916-3.982-12.091-7.275-17.564a1.73,1.73,0,0,1,.578-.112c3.259,5.484,5.362,11.625,7.219,17.509q2.153,6.775,4.083,13.606v.01c.044.146.077.267.112.4q1.651,5.806,3.114,11.635c.089.323.167.634.234.957q5.255,20.876,8.432,42.116c.066.367.123.744.167,1.123q2.352,15.884,3.56,31.914v.011c.033.456.066.912.088,1.379v.012q1.034,14.2,1.124,28.487" transform="translate(3.339 1.269)" fill="#351e3b"/>
            <path id="Trazado_911898" data-name="Trazado 911898" d="M668.671,281.089c0,.022-.011.033-.033.055a.26.26,0,0,1-.2.089.314.314,0,0,1-.19-.078c-.055-.055-.122-.111-.178-.167-5.851-5.451-11.924-10.79-18.1-15.9.022-.211.045-.434.067-.656,6.052,4.983,12,10.2,17.743,15.517v.011c.266.234.523.478.778.712v.012a.3.3,0,0,1,.067.055.261.261,0,0,1,.044.345" transform="translate(3.305 1.345)" fill="#351e3b"/>
            <path id="Trazado_911899" data-name="Trazado 911899" d="M674.335,286.024v.011c-.69,2.548-1.5,5.073-2.425,7.542-.011.044-.033.077-.044.123a.265.265,0,0,1-.256.178.164.164,0,0,1-.1-.022.234.234,0,0,1-.112-.067.253.253,0,0,1-.055-.233.105.105,0,0,1,.011-.056c.112-.288.211-.578.323-.878.911-2.5,1.7-5.073,2.369-7.664.1.356.189.7.289,1.067" transform="translate(3.414 1.449)" fill="#351e3b"/>
            <path id="Trazado_911900" data-name="Trazado 911900" d="M678.177,323.562a.249.249,0,0,1-.233.134.044.044,0,0,1-.034-.011.2.2,0,0,1-.111-.022,43.4,43.4,0,0,0-8.455-3.638c-.644-.222-1.279-.444-1.913-.667a97.419,97.419,0,0,1-9.767-4.116v-.011c-.088-.244-.178-.489-.255-.734a97.824,97.824,0,0,0,10.212,4.338c.634.223,1.268.445,1.914.667a46.622,46.622,0,0,1,8.254,3.5v.011c.1.044.2.111.3.167a.264.264,0,0,1,.089.378" transform="translate(3.343 1.599)" fill="#351e3b"/>
            <path id="Trazado_911901" data-name="Trazado 911901" d="M682.423,331.025v.011l-1.9,5.462a.3.3,0,0,1-.266.189.28.28,0,0,1-.089-.011.276.276,0,0,1-.167-.356l.3-.856,1.958-5.64c.055.4.112.812.167,1.2" transform="translate(3.458 1.677)" fill="#351e3b"/>
            <path id="Trazado_911902" data-name="Trazado 911902" d="M683.11,359.183a.292.292,0,0,1-.234.123.252.252,0,0,1-.122-.033.039.039,0,0,1-.033-.012,150.585,150.585,0,0,0-17.2-9.644v-.011c-.1-.256-.211-.512-.323-.768a151.517,151.517,0,0,1,17.487,9.733c.111.078.234.145.346.223a.283.283,0,0,1,.077.389" transform="translate(3.382 1.774)" fill="#351e3b"/>
            <path id="Trazado_911903" data-name="Trazado 911903" d="M686.187,363.864l-2.068,5.817a.09.09,0,0,1-.023.045v.011a.3.3,0,0,1-.233.134.208.208,0,0,1-.088-.023.287.287,0,0,1-.179-.356l.412-1.146v-.011l2.068-5.8c.045.445.078.889.112,1.324" transform="translate(3.476 1.843)" fill="#351e3b"/>
            <path id="Trazado_911904" data-name="Trazado 911904" d="M682.413,405.041c-.3-.312-.612-.612-.924-.889a51.582,51.582,0,0,0-4.827-3.971Q664.265,391,652.7,380.758c-.222-.19-.455-.39-.678-.6-1.067-.946-2.136-1.9-3.192-2.871a142.014,142.014,0,0,1-16.285-16.953c-.167-.211-.334-.422-.49-.633-.534-.678-1.045-1.358-1.546-2.058-1.635-2.28-3.193-4.75-3.56-7.542a4.519,4.519,0,0,1,.445-2.959,3.141,3.141,0,0,1,1.023-1,2.486,2.486,0,0,1,.545-.266,4.361,4.361,0,0,1,1.88-.345,9.576,9.576,0,0,1,3.793,1.157c7.141,3.425,13.125,8.776,18.477,14.672.233.244.456.489.667.745.011.011.011.011.011.022,1.034,1.135,2,2.258,2.981,3.415a195.675,195.675,0,0,1,14.05,18.922c.189.289.367.567.556.856s.367.568.545.856q2.653,4.155,5.095,8.444c1.646,2.87,4.016,6.241,5.095,9.444a8.946,8.946,0,0,1,.3.979" transform="translate(3.188 1.757)" fill="#f59691"/>
            <path id="Trazado_911905" data-name="Trazado 911905" d="M683.095,406.163a.246.246,0,0,1-.145.044.276.276,0,0,1-.244-.134c-.4-.644-.812-1.29-1.224-1.924a229.42,229.42,0,0,0-15.551-21.514c-.189-.222-.379-.445-.557-.678q-5.223-6.358-10.9-12.314h-.011c-.1-.123-.211-.233-.323-.345q-3.387-3.57-6.952-6.985l-.7-.667a225.354,225.354,0,0,0-18.076-15.507,2.487,2.487,0,0,1,.545-.266,227.519,227.519,0,0,1,18.566,16c2.213,2.125,4.394,4.294,6.507,6.507.223.223.434.434.645.656a224.435,224.435,0,0,1,16.553,19.433c.178.223.345.434.5.656q5.473,7.243,10.379,14.94c.356.568.723,1.146,1.079,1.714a.284.284,0,0,1-.089.389" transform="translate(3.195 1.759)" fill="#351e3b"/>
            <path id="Trazado_911906" data-name="Trazado 911906" d="M647.57,362.009a.269.269,0,0,1-.279.244h-.033l-.089-.011-14.65-1.98c-.167-.211-.334-.422-.49-.633l14.438,1.946.011.011.857.112a.212.212,0,0,1,.089.033.242.242,0,0,1,.078.067.247.247,0,0,1,.066.211" transform="translate(3.214 1.829)" fill="#351e3b"/>
            <path id="Trazado_911907" data-name="Trazado 911907" d="M654.582,369.253a.292.292,0,0,1-.233.312H654.3a.286.286,0,0,1-.277-.256c0-.033-.011-.055-.011-.088-.034-.312-.067-.612-.112-.924-.256-2.336-.568-4.683-.924-7.018.234.244.456.489.667.745.011.011.011.011.011.022.346,2.3.634,4.605.89,6.908l.033.3" transform="translate(3.32 1.837)" fill="#351e3b"/>
            <path id="Trazado_911908" data-name="Trazado 911908" d="M666.234,382.285a.286.286,0,0,1-.278.211.14.14,0,0,1-.066-.011.194.194,0,0,0-.078-.011v-.011a77.87,77.87,0,0,0-13.237-1.88c-.223-.19-.456-.39-.678-.6a76.369,76.369,0,0,1,13.36,1.8c.256.044.512.112.768.167a.281.281,0,0,1,.211.334" transform="translate(3.315 1.932)" fill="#351e3b"/>
            <path id="Trazado_911909" data-name="Trazado 911909" d="M671.7,385.974c-.022.979-.089,1.969-.189,2.948v.044a.287.287,0,0,1-.278.245.278.278,0,0,1-.278-.245l-.055-.389a.261.261,0,0,1,.112-.245v-.066c.1-1.045.145-2.092.145-3.148.178.289.367.567.545.856" transform="translate(3.411 1.958)" fill="#351e3b"/>
            <path id="Trazado_911910" data-name="Trazado 911910" d="M429.9,475.316l44.562-23.5H239.69L205.723,476.4S429.9,474.229,429.9,475.316" transform="translate(1.046 2.297)" fill="#1a1b44"/>
            <path id="Trazado_911911" data-name="Trazado 911911" d="M188.826,341.245,205.673,477.11H430.664L410.013,339.615s-221.187,1.087-221.187,1.63" transform="translate(0.96 1.727)" fill="#12263f"/>
            <path id="Trazado_911912" data-name="Trazado 911912" d="M301.017,428.183a16.57,16.57,0,1,1,16.57-16.57,16.589,16.589,0,0,1-16.57,16.57m0-32.608a16.038,16.038,0,1,0,16.037,16.038,16.056,16.056,0,0,0-16.037-16.038" transform="translate(1.446 2.009)" fill="#ffd4d4"/>
            <path id="Trazado_911913" data-name="Trazado 911913" d="M429.137,474.365l.288,2.14L473.3,453.634l.034-1.834Z" transform="translate(2.182 2.297)" fill="#591757"/>
            <path id="Trazado_911914" data-name="Trazado 911914" d="M520.451,135.408a34.048,34.048,0,1,1-24.137-41.665,34.049,34.049,0,0,1,24.137,41.665" transform="translate(2.306 0.471)" fill="#ee4f47"/>
            <path id="Trazado_911915" data-name="Trazado 911915" d="M484.514,116.241s1.515-13.364,4.51-12.838,6.028,15.236,6.028,15.236l6.161,2.459-8.063,25.66s-29.8-6.848-29.877-10.14a12.771,12.771,0,0,1,1.271-5.8s-1.18-4.268-.094-6.3a19.771,19.771,0,0,1,2.612-3.666s-.35-4.319.676-6.636,5.294-1.452,7.551-.715,9.224,2.73,9.224,2.73" transform="translate(2.356 0.526)" fill="#faf0e4"/>
            <path id="Trazado_911916" data-name="Trazado 911916" d="M505.34,150.616h-.008l-17.671-4.98a.5.5,0,0,1-.348-.62.491.491,0,0,1,.62-.347l17.191,4.843,7.019-24.377-17.313-5.805a.5.5,0,0,1-.317-.637.49.49,0,0,1,.637-.316l17.768,5.959a.5.5,0,0,1,.324.615l-7.291,25.32a.5.5,0,0,1-.611.346" transform="translate(2.478 0.602)" fill="#faf0e4"/>
            <path id="Trazado_911917" data-name="Trazado 911917" d="M236.756,114.412a33.415,33.415,0,1,1,34.065,32.752,33.414,33.414,0,0,1-34.065-32.752" transform="translate(1.204 0.409)" fill="#ffbd45"/>
            <path id="Trazado_911918" data-name="Trazado 911918" d="M254.2,105.6a3.257,3.257,0,1,1,3.32,3.192,3.257,3.257,0,0,1-3.32-3.192" transform="translate(1.293 0.52)" fill="#3e0f3d"/>
            <path id="Trazado_911919" data-name="Trazado 911919" d="M278.988,105.113a3.257,3.257,0,1,1,3.32,3.193,3.257,3.257,0,0,1-3.32-3.193" transform="translate(1.419 0.518)" fill="#3e0f3d"/>
            <path id="Trazado_911920" data-name="Trazado 911920" d="M251.6,116.826l37.09-.73c.171,8.726-7.992,15.963-18.234,16.164s-18.683-6.709-18.855-15.434" transform="translate(1.279 0.59)" fill="#3e0f3d"/>
            <path id="Trazado_911921" data-name="Trazado 911921" d="M642.238,40.487A40.284,40.284,0,1,0,682.32,0a40.285,40.285,0,0,0-40.082,40.486" transform="translate(3.266 0)" fill="#fff3ea"/>
            <path id="Trazado_911922" data-name="Trazado 911922" d="M669.484,75.887,646.607,87.432a191.251,191.251,0,0,0,10.137-24.09c5.24,2.45,9.54,7.726,12.74,12.545" transform="translate(3.288 0.322)" fill="#fff3ea"/>
            <path id="Trazado_911923" data-name="Trazado 911923" d="M680.5,50.432l-.5.126a1.411,1.411,0,0,1-1.308-.81,12.889,12.889,0,0,1-1.431-5.6c0-4.544,2.987-7.283,6.1-10.147a25.931,25.931,0,0,0,3.113-3.361,4.475,4.475,0,0,0,.871-2.491c0-2.428-2.053-3.611-4.295-3.611a11.915,11.915,0,0,0-6.91,2.8,1.651,1.651,0,0,1-.872.312,1.1,1.1,0,0,1-.934-.56l-2.178-3.237a1.149,1.149,0,0,1-.25-.809,1.558,1.558,0,0,1,.5-1.121,16.581,16.581,0,0,1,10.831-4.171c6.351,0,11.207,3.8,11.207,10.272,0,4.109-1.931,6.723-4.732,9.524l-1.183,1.183a26.524,26.524,0,0,0-3.05,3.175,4.173,4.173,0,0,0-.934,2.553,7.418,7.418,0,0,0,.623,2.8,3.135,3.135,0,0,1,.125.561,1.2,1.2,0,0,1-.188.622,1.692,1.692,0,0,1-.56.435Zm-4.046,9.588a5.153,5.153,0,0,1,5.167-5.167,5.167,5.167,0,0,1,0,10.334,5.153,5.153,0,0,1-5.167-5.167" transform="translate(3.417 0.09)" fill="#12263f"/>
            <path id="Trazado_911924" data-name="Trazado 911924" d="M620.4,352.934a59.7,59.7,0,1,1-54.654-64.352A59.7,59.7,0,0,1,620.4,352.934" transform="translate(2.548 1.466)" fill="#ee4f47"/>
          </g>
        </g>
        <text id="_24_7" data-name="24/7" transform="translate(523.485 349.218)" fill="#faf0e4" font-size="35" font-family="Lato-Bold, Lato" font-weight="700"><tspan x="0" y="0">24/7</tspan></text>
        <text id="SERVICE" transform="translate(522.051 374.32)" fill="#fff" font-size="18" font-family="Lato-Black, Lato" font-weight="800"><tspan x="0" y="0">SE</tspan><tspan y="0" letter-spacing="-0.025em">R</tspan><tspan y="0">VICE</tspan></text>
      </g>
    </g>
  </g>
</svg>
