<svg xmlns="http://www.w3.org/2000/svg" xmlns:xlink="http://www.w3.org/1999/xlink" width="75.406" height="73.223" viewBox="0 0 75.406 73.223">
  <defs>
    <clipPath id="clip-path">
      <path id="Trazado_911502" data-name="Trazado 911502" d="M33.487-.92A35.987,35.987,0,1,1-2.5,35.067c0-3.577-12.859-37.714,11.487-36.755,2.653-2.545,5.561,5.917,9.1,4.219A35.677,35.677,0,0,1,33.487-.92Z" transform="translate(5.894 2.169)" fill="#ffbd45"/>
    </clipPath>
  </defs>
  <g id="Grupo_1101063" data-name="Grupo 1101063" transform="translate(-259.157 -4757.831)">
    <circle id="Elipse_11526" data-name="Elipse 11526" cx="35.818" cy="35.818" r="35.818" transform="translate(262.928 4759.079)" fill="#ee4f47"/>
    <g id="Enmascarar_grupo_1098694" data-name="Enmascarar grupo 1098694" transform="translate(259.157 4757.831)" clip-path="url(#clip-path)">
      <g id="Grupo_1101241" data-name="Grupo 1101241" transform="translate(3.325 2.397)">
        <g id="Grupo_1101239" data-name="Grupo 1101239" transform="translate(16.92 20.579)">
          <path id="Trazado_912082" data-name="Trazado 912082" d="M58.47,35.754l2.925.943a.955.955,0,1,0,.66-1.793L42.242,28.49V25.565a.943.943,0,1,0-1.887,0v2.359L21.108,21.7a.955.955,0,1,0-.66,1.793l1.981.66C21.485,28.112,17.9,42.17,17.9,42.359V43.4a5.577,5.577,0,0,0,5.567,5.567A5.639,5.639,0,0,0,29.033,43.4V42.265c0-.283-3.208-13.02-4.246-17.36l15.379,5v29.06H35.26a.943.943,0,0,0,0,1.887h11.6a.943.943,0,0,0,0-1.887H41.959V30.471L56.017,35c-1.038,4.057-4.529,18.3-4.529,18.492V54.53a5.567,5.567,0,1,0,11.133,0V53.492C62.81,53.3,59.6,40.566,58.47,35.754ZM27.146,43.3a3.68,3.68,0,1,1-7.359,0v-.094Zm-7.171-1.887,3.491-13.964,3.491,13.964Zm37.268-2.83,3.491,13.964H53.847Zm3.68,15.945a3.68,3.68,0,1,1-7.359,0v-.094Z" transform="translate(-17.9 -21.637)" fill="#4045ab" stroke="#4045ab" stroke-width="1"/>
        </g>
        <g id="Grupo_1101240" data-name="Grupo 1101240" transform="translate(0.559 2.903)">
          <path id="Trazado_912083" data-name="Trazado 912083" d="M29.752,57.811H18.43V52.056a.891.891,0,0,0-.943-.943h-6.51A2.094,2.094,0,0,1,8.9,49.037V41.206a.956.956,0,0,0-.566-.849l-5.567-2.17L6.73,30.922a1.317,1.317,0,0,0,.283-.849A21.258,21.258,0,0,1,25.789,4.882a20.689,20.689,0,0,1,16.134,5.472A21.143,21.143,0,0,1,48.81,25.921a.943.943,0,1,0,1.887,0A23.213,23.213,0,0,0,43.243,8.939,22.659,22.659,0,0,0,25.695,2.995,23.106,23.106,0,0,0,5.126,29.978L.692,38.187a1.118,1.118,0,0,0-.094.755.851.851,0,0,0,.566.566l5.944,2.359v7.171A3.987,3.987,0,0,0,11.07,53h5.567v5.755a.891.891,0,0,0,.943.943H29.846a.891.891,0,0,0,.943-.943,1.109,1.109,0,0,0-1.038-.943Z" transform="translate(-0.559 -2.903)" fill="#4045ab" stroke="#4045ab" stroke-width="1"/>
        </g>
      </g>
    </g>
  </g>
</svg>
