<svg xmlns="http://www.w3.org/2000/svg" width="82.747" height="95.373" viewBox="0 0 82.747 95.373">
  <g id="Grupo_1101283" data-name="Grupo 1101283" transform="translate(-5.944 -1.995)">
    <circle id="Elipse_11542" data-name="Elipse 11542" cx="12.715" cy="12.715" r="12.715" transform="translate(34.643 33.791)" fill="#f9ca79"/>
    <path id="Trazado_912239" data-name="Trazado 912239" d="M86.823,27.225a6.135,6.135,0,0,0-9.457,0l-14.3,16.132a21.012,21.012,0,0,1-15.7,7.47,21.028,21.028,0,0,1-15.894-7.47L17.334,27.464a6.193,6.193,0,0,0-9.536,0,7.947,7.947,0,0,0,0,10.2L25.71,58.648A11.221,11.221,0,0,1,28.285,65.8V83.808H66.24V65.8A11.126,11.126,0,0,1,68.8,58.569L86.823,37.461A7.947,7.947,0,0,0,86.823,27.225Z" transform="translate(0 13.559)" fill="#12263f"/>
    <g id="Grupo_1101282" data-name="Grupo 1101282" transform="translate(14.787 1.995)">
      <path id="Trazado_912240" data-name="Trazado 912240" d="M51.608,12.8a1.589,1.589,0,0,0-1.272-1.065L42.39,10.522l-3.64-7.6a1.589,1.589,0,0,0-2.893,0l-3.56,7.6L24.35,11.73a1.574,1.574,0,0,0-.906,2.654l5.8,5.944-1.367,8.408a1.589,1.589,0,0,0,2.336,1.589L37.3,26.5l7.089,3.926a1.6,1.6,0,0,0,2.336-1.685l-1.367-8.408,5.8-5.944A1.589,1.589,0,0,0,51.608,12.8Z" transform="translate(-4.733 -1.995)" fill="#ffc300"/>
      <path id="Trazado_912241" data-name="Trazado 912241" d="M26.849,19.077,23.671,16.82V13.069a1.589,1.589,0,0,0-2.527-1.256L18.251,13.88l-3.56-1.287a1.589,1.589,0,0,0-2.034,2.034l1.224,3.624-2.066,2.893a1.589,1.589,0,0,0,1.256,2.527H16.82l2.257,3.179a1.589,1.589,0,0,0,1.287.668h.27a1.589,1.589,0,0,0,1.256-1.128l1-3.465,3.465-1.1a1.589,1.589,0,0,0,.493-2.813Z" transform="translate(-11.507 3.612)" fill="#ffc300"/>
      <path id="Trazado_912242" data-name="Trazado 912242" d="M58.1,21.143l-2.066-2.893,1.287-3.56a1.589,1.589,0,0,0-2.034-2.034L51.66,13.88l-2.893-2.066a1.589,1.589,0,0,0-2.527,1.256V16.82l-3.179,2.257a1.589,1.589,0,0,0,.493,2.75l3.465,1,1.065,3.528a1.589,1.589,0,0,0,1.256,1.128h.27a1.589,1.589,0,0,0,1.287-.668l2.257-3.179H56.9a1.589,1.589,0,0,0,1.256-2.527Z" transform="translate(6.739 3.612)" fill="#ffc300"/>
    </g>
  </g>
</svg>
