<svg xmlns="http://www.w3.org/2000/svg" width="80.445" height="74.595" viewBox="0 0 80.445 74.595">
  <g id="Grupo_1101065" data-name="Grupo 1101065" transform="translate(-261.119 -4756.119)">
    <circle id="Elipse_11526" data-name="Elipse 11526" cx="35.818" cy="35.818" r="35.818" transform="translate(269.928 4759.079)" fill="#ee4f47"/>
    <g id="Grupo_1101242" data-name="Grupo 1101242" transform="translate(261.119 4755.831)">
      <g id="_5-kind" data-name="5-kind" transform="translate(0 0.289)">
        <path id="Trazado_912084" data-name="Trazado 912084" d="M35.664,0A35.664,35.664,0,1,0,71.328,35.664,35.664,35.664,0,0,0,35.664,0Zm0,68.356A32.692,32.692,0,1,1,68.356,35.664,32.692,32.692,0,0,1,35.664,68.356Z" fill="#4045ab"/>
        <path id="Trazado_912085" data-name="Trazado 912085" d="M11,27.486a19.318,19.318,0,1,0,38.636,0V26H11Zm35.6,1.486a16.347,16.347,0,0,1-32.558,0Z" transform="translate(5.346 12.636)" fill="#4045ab"/>
        <path id="Trazado_912086" data-name="Trazado 912086" d="M18.43,16.972a4.463,4.463,0,0,1,4.458,4.458H25.86a7.43,7.43,0,1,0-14.86,0h2.972a4.463,4.463,0,0,1,4.458-4.458Z" transform="translate(5.346 6.804)" fill="#4045ab"/>
        <path id="Trazado_912087" data-name="Trazado 912087" d="M34.43,14A7.439,7.439,0,0,0,27,21.43h2.972a4.458,4.458,0,1,1,8.916,0H41.86A7.439,7.439,0,0,0,34.43,14Z" transform="translate(13.122 6.804)" fill="#4045ab"/>
      </g>
    </g>
  </g>
</svg>
