<svg xmlns="http://www.w3.org/2000/svg" width="85" height="84.995" viewBox="0 0 85 84.995">
  <g id="Grupo_1101214" data-name="Grupo 1101214" transform="translate(-0.997 -1)">
    <path id="Trazado_911991" data-name="Trazado 911991" d="M49.962,40.79c-.029-.015-.044-.015-.073-.029L43.5,38.65H17.108l-6.372,2.11A13.189,13.189,0,0,0,1.7,52.4L1,62.419a2.954,2.954,0,0,0,2.966,3.121H56.805Z" transform="translate(0 17.524)" fill="#ee4f47"/>
    <path id="Trazado_911992" data-name="Trazado 911992" d="M38.382,39.288,32.594,48.93a2.345,2.345,0,0,1-3.649.454l-3.752-3.722-3.752,3.722a2.345,2.345,0,0,1-3.649-.454l-5.8-9.643,6.1-2.008H32.3Z" transform="translate(5.117 16.886)" fill="#e1eeff"/>
    <path id="Trazado_911993" data-name="Trazado 911993" d="M6,27.378v-4.4a21.982,21.982,0,0,1,43.963,0v4.4Z" transform="translate(2.329)" fill="#727997"/>
    <path id="Trazado_911994" data-name="Trazado 911994" d="M16.4,35.56l-.249,2.521,7.107,8.382,7.107-8.382-.249-2.521Z" transform="translate(7.053 16.085)" fill="#e0aa80"/>
    <path id="Trazado_911995" data-name="Trazado 911995" d="M6.931,18h7.327V29.723H6.931A2.931,2.931,0,0,1,4,26.793V20.931A2.931,2.931,0,0,1,6.931,18Z" transform="translate(1.398 7.912)" fill="#12263f"/>
    <path id="Trazado_911996" data-name="Trazado 911996" d="M2.931,0h7.327V11.723H2.931A2.931,2.931,0,0,1,0,8.793V2.931A2.931,2.931,0,0,1,2.931,0Z" transform="translate(55.223 37.636) rotate(180)" fill="#12263f"/>
    <path id="Trazado_911997" data-name="Trazado 911997" d="M10,24.051V21.12a16.12,16.12,0,1,1,32.24,0v2.931Z" transform="translate(4.19 1.862)" fill="#8f5c4a"/>
    <path id="Trazado_911998" data-name="Trazado 911998" d="M17.94,47.22l1.553,3.107h5.862l1.553-3.107L22.424,43Z" transform="translate(7.886 19.548)" fill="#ca7441"/>
    <path id="Trazado_911999" data-name="Trazado 911999" d="M26.793,61.189,25.327,48H19.465L18,61.189Z" transform="translate(7.914 21.875)" fill="#f6ccb3"/>
    <circle id="Elipse_11535" data-name="Elipse 11535" cx="19.051" cy="19.051" r="19.051" transform="translate(47.895 47.894)" fill="#ffbd45"/>
    <path id="Trazado_912000" data-name="Trazado 912000" d="M10,19.862a4.345,4.345,0,0,1,3.151-2.411c3.092-.44,7.944-.689,11.788-3.1a2.182,2.182,0,0,1,2.362,0c3.844,2.415,8.7,2.663,11.788,3.1a4.345,4.345,0,0,1,3.151,2.411V31.585l-.733,4.336a10.258,10.258,0,0,1-4.368,6.82c-2.77,1.871-6.542,4.963-11.019,4.963s-8.249-3.092-11.026-4.963a10.258,10.258,0,0,1-4.361-6.82L10,31.585Z" transform="translate(4.19 6.051)" fill="#f4c092"/>
    <path id="Trazado_912001" data-name="Trazado 912001" d="M44.4,57.585a1.455,1.455,0,0,1-1.036-.429l-2.931-2.931A1.465,1.465,0,1,1,42.5,52.153l1.773,1.773,10.7-13.376a1.466,1.466,0,1,1,2.289,1.832L45.538,57.036a1.465,1.465,0,0,1-1.062.547Z" transform="translate(18.153 18.152)" fill="#fff"/>
    <path id="Trazado_912002" data-name="Trazado 912002" d="M21.12,34.918a1.465,1.465,0,0,1-1.465,1.465H10.862A5.862,5.862,0,0,1,5,30.522V25.73a2.931,2.931,0,0,0,1.465.4H7.931v4.4a2.94,2.94,0,0,0,2.931,2.931h8.793A1.465,1.465,0,0,1,21.12,34.918Z" transform="translate(1.863 11.51)" fill="#727997"/>
  </g>
</svg>
