<svg xmlns="http://www.w3.org/2000/svg" width="49.072" height="54.5" viewBox="0 0 49.072 54.5">
  <g id="Grupo_1101113" data-name="Grupo 1101113" transform="translate(-0.5 -0.001)">
    <path id="Trazado_911936" data-name="Trazado 911936" d="M48.174,43.764l-.608-.8a1.072,1.072,0,1,0-1.7,1.3l.607.8a4.522,4.522,0,0,1-.6,6.2c-.042.036-.085.071-.129.105a4.568,4.568,0,0,1-6.412-.753L29.242,37.663a20.016,20.016,0,0,0,7.018-5.851l4.387,5.632.261.342a1.072,1.072,0,1,0,1.7-1.3l-.267-.35-4.83-6.2a19.854,19.854,0,1,0-10.3,8.61l10.431,13.4a6.668,6.668,0,0,0,4.483,2.51,6.839,6.839,0,0,0,.8.047,6.667,6.667,0,0,0,4.143-1.442q.1-.076.188-.154a6.665,6.665,0,0,0,.917-9.141ZM15.383,36.9a17.748,17.748,0,1,1,4.993.712,17.675,17.675,0,0,1-4.993-.712Zm0,0" transform="translate(0 0)" fill="#ee4f47"/>
    <path id="Trazado_911937" data-name="Trazado 911937" d="M66.661,51.047a14.3,14.3,0,0,0-5.195.968,1.072,1.072,0,0,0,.775,2,12.225,12.225,0,1,1-6.024,5.042,1.072,1.072,0,1,0-1.83-1.117,14.37,14.37,0,1,0,12.273-6.892Zm0,0" transform="translate(-46.279 -45.612)" fill="#ee4f47"/>
    <path id="Trazado_911938" data-name="Trazado 911938" d="M401.572,372.537a1.072,1.072,0,0,0,1.988-.8l-.039-.1a1.072,1.072,0,0,0-1.988.8Zm0,0" transform="translate(-358.274 -331.477)" fill="#ee4f47"/>
    <path id="Trazado_911939" data-name="Trazado 911939" d="M96.833,80.777a1.072,1.072,0,1,0,1.988-.8l-.039-.1a1.072,1.072,0,0,0-1.988.8Zm0,0" transform="translate(-85.974 -70.775)" fill="#ee4f47"/>
    <path id="Trazado_911940" data-name="Trazado 911940" d="M97.206,127.99c.158.262,3.936,6.422,9.375,6.44h.024c5.432,0,9.2-6.179,9.36-6.443a1.072,1.072,0,0,0,0-1.1c-.158-.263-3.937-6.442-9.379-6.442s-9.221,6.179-9.379,6.442A1.072,1.072,0,0,0,97.206,127.99Zm9.378-5.4c3.4,0,6.2,3.474,7.172,4.851-.972,1.378-3.757,4.85-7.152,4.85h-.017c-3.405-.011-6.2-3.476-7.175-4.851C100.388,126.057,103.181,122.586,106.584,122.586Zm0,0" transform="translate(-86.274 -107.621)" fill="#ee4f47"/>
    <path id="Trazado_911941" data-name="Trazado 911941" d="M157.383,160.412a3.481,3.481,0,1,0-3.481-3.481A3.485,3.485,0,0,0,157.383,160.412Zm0-4.818a1.337,1.337,0,1,1-1.337,1.337A1.339,1.339,0,0,1,157.383,155.594Zm0,0" transform="translate(-137.073 -137.115)" fill="#ee4f47"/>
  </g>
</svg>
