<svg xmlns="http://www.w3.org/2000/svg" xmlns:xlink="http://www.w3.org/1999/xlink" width="299.876" height="249.293" viewBox="0 0 299.876 249.293">
  <defs>
    <clipPath id="clip-path">
      <rect id="Rectángulo_404039" data-name="Rectángulo 404039" width="298.275" height="170.351" fill="none"/>
    </clipPath>
    <clipPath id="clip-path-3">
      <rect id="Rectángulo_404037" data-name="Rectángulo 404037" width="3.798" height="6.395" fill="none"/>
    </clipPath>
  </defs>
  <g id="Grupo_1102781" data-name="Grupo 1102781" transform="translate(-1052.949 -7973.732)">
    <g id="Grupo_1101104" data-name="Grupo 1101104" transform="translate(453.617 7569.732)">
      <rect id="Rectángulo_35929" data-name="Rectángulo 35929" width="298.949" height="249.293" transform="translate(600.259 404)" fill="#f6ccb3"/>
      <rect id="Rectángulo_402739" data-name="Rectángulo 402739" width="298.949" height="81.071" transform="translate(599.988 404)" fill="#fef6ed"/>
      <g id="Rectángulo_402741" data-name="Rectángulo 402741" transform="translate(625.323 426.294)" fill="none" stroke="#fef6ed" stroke-width="3">
        <rect width="248.279" height="204.704" stroke="none"/>
        <rect x="1.5" y="1.5" width="245.279" height="201.704" fill="none"/>
      </g>
    </g>
    <g id="Grupo_1101290" data-name="Grupo 1101290" transform="translate(1052.949 8029.302)" clip-path="url(#clip-path)">
      <g id="Grupo_1101289" data-name="Grupo 1101289">
        <g id="Grupo_1101288" data-name="Grupo 1101288" clip-path="url(#clip-path)">
          <path id="Trazado_912244" data-name="Trazado 912244" d="M68.146,224.945c-.6,2.173-1.277,4.334-2.044,6.477-.421,1.179-2.161.677-1.741-.5a96.441,96.441,0,0,0,2.929-9.936c-.9-3.944-1.9-7.789-3.044-11.5-1.122-3.645-2.383-7.159-3.773-10.507-.6,3.233-1.174,6.465-1.612,9.7-.163,1.208-2.037,1.206-1.874,0,.574-4.247,1.386-8.487,2.172-12.727a73.867,73.867,0,0,0-10.394-17.018,79.029,79.029,0,0,1-1.343,10.573c-.24,1.2-2.116,1.2-1.875,0,.475-2.374.828-4.753,1.071-7.131.186-1.819.307-3.632.381-5.44A36.688,36.688,0,0,0,34.525,167.9c-3.768-1.582-7.955-2.3-12.1.209s-8.159,9.034-8.629,15.951a18.524,18.524,0,0,0,2.862,11.5c1.8,2.683,4.1,4.375,6.321,6.16,5.931-.111,11.874-.294,17.6.706a.832.832,0,0,1,.5,1.153,1.111,1.111,0,0,1-1.241.655,49.82,49.82,0,0,0-6.192-.65c-2.813-.135-5.651-.1-8.493-.046a91.938,91.938,0,0,1,14.934,16.739c3.879-.355,7.632.212,11.416.55a.816.816,0,0,1,.812.937,1.115,1.115,0,0,1-1.063.937,74.735,74.735,0,0,0-9.954-.668A126.291,126.291,0,0,1,49.76,236.68a.874.874,0,0,1,.414.042,25.778,25.778,0,0,0,9.672,1.626c1.216-.064.957,1.811-.251,1.874a25.723,25.723,0,0,1-8.715-1.227,166.774,166.774,0,0,1,9.66,26.125h12.5a286.675,286.675,0,0,0-4.892-40.174" transform="translate(-7.843 -94.985)" fill="#ca7441"/>
          <path id="Trazado_912245" data-name="Trazado 912245" d="M82.679,274.861c-5.623-40.022-21.822-72.927-44.556-87.971" transform="translate(-21.753 -106.64)" fill="none" stroke="#000" stroke-linecap="round" stroke-linejoin="round" stroke-width="1"/>
          <path id="Trazado_912246" data-name="Trazado 912246" d="M38.417,304.425q-.6-1.18-1.24-2.308a14.221,14.221,0,0,0-.229,4.858c.168,1.166-1.707,1.659-1.874.5a17.951,17.951,0,0,1,.788-7.57,42.248,42.248,0,0,0-7.447-9.082c-.17,2.2-.334,4.39-.32,6.568a1.12,1.12,0,0,1-.809,1.153c-.459.122-1.062-.153-1.065-.654-.018-2.832.235-5.684.439-8.533a21.751,21.751,0,0,0-11.68-4.748,10.316,10.316,0,0,0-8.243,2.665,16.492,16.492,0,0,0-4.677,11.8,9.384,9.384,0,0,0,2.827,6.605,15.136,15.136,0,0,0,4.95,2.6q1.025.408,2.034.876l1.8-.532a36.991,36.991,0,0,1,10.984-1.962c1.2.024.952,1.9-.252,1.875a34.346,34.346,0,0,0-10.176,1.8,50.011,50.011,0,0,1,11.589,8.77,25.314,25.314,0,0,1,4.893-1.72c1.212-.272,1.467,1.536.256,1.807a23.2,23.2,0,0,0-3.843,1.265,70.257,70.257,0,0,1,8.989,12.053H47.653c-2.205-10.332-5.125-20.008-9.236-28.08" transform="translate(-1.167 -162.371)" fill="#ca7441"/>
          <path id="Trazado_912247" data-name="Trazado 912247" d="M52.109,339.682c-5.708-16.172-14.633-28.5-25.458-35.115a37.168,37.168,0,0,0-9.578-4.18" transform="translate(-9.742 -171.401)" fill="none" stroke="#000" stroke-linecap="round" stroke-linejoin="round" stroke-width="1"/>
          <path id="Trazado_912248" data-name="Trazado 912248" d="M169.13,244.906a1.035,1.035,0,0,1-1.327.336.889.889,0,0,1-.164-1.282q1.193-1.414,2.423-2.8.44-5.1.593-10.182c.106-3.7.074-7.392-.1-11.022-.81,1.589-1.567,3.2-2.319,4.813-.533,1.14-2.277.648-1.741-.5,1.208-2.585,2.432-5.19,3.858-7.694a101.9,101.9,0,0,0-3.534-20.809c-.708,1.472-1.36,2.964-1.932,4.484-.442,1.174-2.182.674-1.741-.5a58.758,58.758,0,0,1,2.911-6.45,56.612,56.612,0,0,0-4.151-9.689c-1.863-3.37-4.144-6.374-7.065-7.046s-6.58,1.6-8.266,6.26a19.485,19.485,0,0,0-.909,8.193c2.746.42,5.486.856,8.181,1.44,1.148.249.4,2.056-.741,1.807-2.366-.513-4.767-.912-7.176-1.286a49.766,49.766,0,0,0,2.458,8.183,139.572,139.572,0,0,1,4.139,14.068,16.348,16.348,0,0,1,6.071,2.577c.9.678-.257,2.3-1.163,1.618a14,14,0,0,0-4.424-2.114,173.657,173.657,0,0,1,3.138,18.876c1.167.779,2.348,1.541,3.553,2.266.976.587-.187,2.206-1.163,1.618q-1.074-.646-2.125-1.324a207.506,207.506,0,0,1,.6,32.064h8.5a253.661,253.661,0,0,0,4.268-26.672c-.216.253-.435.5-.649.757" transform="translate(-83.067 -100.687)" fill="#0097a7"/>
          <path id="Trazado_912249" data-name="Trazado 912249" d="M174.512,277.337c4.926-31.347,1.081-63.521-8.328-86.283" transform="translate(-94.825 -109.016)" fill="none" stroke="#000" stroke-linecap="round" stroke-linejoin="round" stroke-width="1"/>
          <path id="Trazado_912250" data-name="Trazado 912250" d="M460.917,215.579H357.853a2.043,2.043,0,0,1-2-2.826l12.66-58.3a4.085,4.085,0,0,1,3.656-2.826H475.237a2.042,2.042,0,0,1,2,2.826l-12.66,58.3a4.084,4.084,0,0,1-3.655,2.826" transform="translate(-202.984 -86.519)"/>
          <rect id="Rectángulo_404034" data-name="Rectángulo 404034" width="7.946" height="33.8" transform="translate(207.848 110.911)"/>
          <rect id="Rectángulo_404035" data-name="Rectángulo 404035" width="42.313" height="2.887" transform="translate(182.214 144.711)"/>
          <path id="Trazado_912251" data-name="Trazado 912251" d="M455.722,215.579H352.658a2.043,2.043,0,0,1-2-2.826l12.66-58.3a4.085,4.085,0,0,1,3.656-2.826H470.042a2.042,2.042,0,0,1,2,2.826l-12.66,58.3a4.084,4.084,0,0,1-3.655,2.826" transform="translate(-200.02 -86.519)" fill="#323e78"/>
          <path id="Trazado_912252" data-name="Trazado 912252" d="M457.593,216.073H358.931a1.955,1.955,0,0,1-1.911-2.705l11.85-55.54a3.91,3.91,0,0,1,3.5-2.705h98.661a1.956,1.956,0,0,1,1.911,2.705l-11.85,55.54a3.911,3.911,0,0,1-3.5,2.705" transform="translate(-203.651 -88.513)" fill="#fff"/>
          <path id="Trazado_912253" data-name="Trazado 912253" d="M461.935,120.693l10.786-.913-4.279,10.774h-3.228Z" transform="translate(-263.581 -68.347)"/>
          <path id="Trazado_912254" data-name="Trazado 912254" d="M488.367,63.428a118.772,118.772,0,0,0,3.351,30.345,97.067,97.067,0,0,1-21.136,10.371,123.562,123.562,0,0,0,3.366-32.361,34.3,34.3,0,0,1,14.419-8.354" transform="translate(-268.515 -36.192)" fill="#f7966a"/>
          <path id="Trazado_912255" data-name="Trazado 912255" d="M478.164,72.8A33.991,33.991,0,0,1,490.293,65.2a27.1,27.1,0,0,1-12.322,18.943c.249-3.779.321-7.568.193-11.351" transform="translate(-272.731 -37.206)"/>
          <path id="Trazado_912256" data-name="Trazado 912256" d="M448.971,48.137c-.675,2.914.544,5.686,2.722,6.191s4.493-1.448,5.168-4.362-.543-5.686-2.722-6.191-4.493,1.448-5.168,4.362" transform="translate(-256.078 -24.933)" fill="#12263f"/>
          <path id="Trazado_912257" data-name="Trazado 912257" d="M451.554,19.994c-1.26-1.754-9.548-2.153-2.386-12.7,2.062-3.037,8.71-4.1,11.548-4.642,6.14-1.173,18.939,1.864,19.549,8.742.932,10.5-6.285,17.823-7.171,19.447a26.271,26.271,0,0,1-21.54-10.85" transform="translate(-254.652 -1.374)" fill="#bf360c"/>
          <path id="Trazado_912258" data-name="Trazado 912258" d="M458.709,23.9c4.6-3.114,15.656-.952,18.808.593-.253,1.948-.878,5.231-.878,5.231l2,6.5s4.21-2.436,6.083-1c3.512,2.693-1.958,10.174-6.2,8.114-.193-.094-2.558,10.029-13.885,11.189-4.5.461-7.079-1.285-7.6-6.449A67.31,67.31,0,0,1,458.709,23.9" transform="translate(-260.551 -12.732)" fill="#f7966a"/>
          <path id="Trazado_912259" data-name="Trazado 912259" d="M479.532,76.012a9.866,9.866,0,0,1-3.147,2.979,5.991,5.991,0,0,1-3.847.931,2.332,2.332,0,0,1-.352-.089c1.21-2.482,4.572-4.06,7.347-3.821" transform="translate(-269.43 -43.359)" fill="#961717"/>
          <path id="Trazado_912260" data-name="Trazado 912260" d="M466.81,75.467a37.747,37.747,0,0,0,10.382-1.993q-.351.574-.727,1.1c-2.775-.239-6.136,1.339-7.347,3.821a3.573,3.573,0,0,1-2.308-2.932" transform="translate(-266.363 -41.924)" fill="#520c0c"/>
          <path id="Trazado_912261" data-name="Trazado 912261" d="M469.149,60.143a5.067,5.067,0,0,1-1.512-.548,2.176,2.176,0,0,1-1-1.375,3.821,3.821,0,0,1,.455-2.228l1.783-4.116" transform="translate(-266.238 -29.601)" fill="none" stroke="#12263f" stroke-linecap="round" stroke-linejoin="round" stroke-width="1"/>
          <path id="Trazado_912262" data-name="Trazado 912262" d="M515.528,56.182a1.479,1.479,0,0,0-1.482-1.461,2.262,2.262,0,0,0-1.876,1.2,5.073,5.073,0,0,0-.555,2.248,1.044,1.044,0,1,1,.5,1.926" transform="translate(-291.928 -31.224)" fill="none" stroke="#000" stroke-linecap="round" stroke-linejoin="round" stroke-width="1"/>
          <path id="Trazado_912263" data-name="Trazado 912263" d="M483.843,49.885a1.444,1.444,0,1,0,.646-1.937,1.443,1.443,0,0,0-.646,1.937" transform="translate(-275.995 -27.272)" fill="#12263f"/>
          <path id="Trazado_912264" data-name="Trazado 912264" d="M460.018,49.885a1.444,1.444,0,1,0,.646-1.937,1.444,1.444,0,0,0-.646,1.937" transform="translate(-262.4 -27.272)" fill="#12263f"/>
          <path id="Trazado_912265" data-name="Trazado 912265" d="M488.091,40.913c-1.113-.8-3.667-2.285-6.155-1.3" transform="translate(-274.994 -22.416)" fill="none" stroke="#12263f" stroke-linecap="round" stroke-linejoin="round" stroke-width="2"/>
          <path id="Trazado_912266" data-name="Trazado 912266" d="M464.113,40.124a3.354,3.354,0,0,0-4.106.493" transform="translate(-262.481 -22.617)" fill="none" stroke="#12263f" stroke-linecap="round" stroke-linejoin="round" stroke-width="2"/>
          <path id="Trazado_912267" data-name="Trazado 912267" d="M505.8,53.471c-.675,2.914.544,5.686,2.722,6.191s4.492-1.448,5.168-4.362-.543-5.686-2.722-6.191-4.492,1.448-5.168,4.362" transform="translate(-288.506 -27.977)" fill="#12263f"/>
          <path id="Trazado_912268" data-name="Trazado 912268" d="M477.429.85A13.042,13.042,0,0,1,490.579,3.16c3.538,3.057,4.924,7.752,5.118,12.286a55.188,55.188,0,0,1-.612,9.076c-.1.775-1.316.71-1.22-.073.571-4.649,1.16-9.458-.182-14.034a12.547,12.547,0,0,0-8.147-8.706,11.7,11.7,0,0,0-7.545.226c-.728.274-1.3-.808-.563-1.085" transform="translate(-272.227 0)" fill="#12263f"/>
          <path id="Trazado_912269" data-name="Trazado 912269" d="M456.4,81.717a1.223,1.223,0,0,1,.22-.583l.27-.317a1.617,1.617,0,0,1,.758-.389l.436-.033a1.63,1.63,0,0,1,.79.26l.371.223a1.675,1.675,0,0,1,.479,2.253l-.27.317a1.621,1.621,0,0,1-.757.389l-.435.033a1.629,1.629,0,0,1-.79-.26l-.371-.223a1.574,1.574,0,0,1-.7-1.67" transform="translate(-260.398 -45.874)" fill="#12263f"/>
          <path id="Trazado_912270" data-name="Trazado 912270" d="M389.266,194.232h82.308c-.3-10.814,3.7-60.512,1.318-64.347-2.533-4.071-6.973-6.661-11.594-7.941s-9.473-1.4-14.266-1.5c-.344-1.426-.311-2.527-.655-3.953-5.5,1.2-10.794,2.346-16.3,3.55-1.1,2.618-1.82,4.76-2.919,7.379-.4,0-1.086.024-1.485.024-.343-2.226-.816-4.628-1.159-6.854-.914-.339-3.135-1.434-4.049-1.773-.051.97-.446,4-.446,4-4.592.562-7.628.186-12.22.748-1.882.23-9.633,3.486-11.132,9.519-.515,2.074-7.406,61.154-7.406,61.154" transform="translate(-222.116 -66.468)" fill="#ee4f47"/>
          <path id="Trazado_912271" data-name="Trazado 912271" d="M486.893,126.535q.378,4.54.757,9.079c4.689-3.09,9.7-6.164,14.393-9.253" transform="translate(-277.822 -72.102)" fill="none" stroke="#000" stroke-linecap="round" stroke-linejoin="round" stroke-width="1"/>
          <path id="Trazado_912272" data-name="Trazado 912272" d="M465.015,126.162q-.8,3.677-1.605,7.354l-2.515-4.977" transform="translate(-262.988 -71.988)" fill="none" stroke="#000" stroke-linecap="round" stroke-linejoin="round" stroke-width="1"/>
          <path id="Trazado_912273" data-name="Trazado 912273" d="M467.523,145.209c-3.011,22.033-3.356,41.826-5.344,65.458" transform="translate(-263.72 -82.857)" fill="none" stroke="#000" stroke-linecap="round" stroke-linejoin="round" stroke-width="1"/>
          <path id="Trazado_912274" data-name="Trazado 912274" d="M417.851,237.686c1.778-21.672,3.65-45.044,3.65-45.044" transform="translate(-238.427 -109.922)" fill="none" stroke="#000" stroke-linecap="round" stroke-linejoin="round" stroke-width="1"/>
          <path id="Trazado_912275" data-name="Trazado 912275" d="M528.8,237.686c1.778-21.672,3.65-45.044,3.65-45.044" transform="translate(-301.735 -109.922)" fill="none" stroke="#000" stroke-linecap="round" stroke-linejoin="round" stroke-width="1"/>
          <path id="Trazado_912276" data-name="Trazado 912276" d="M453.333,73.476c-.945-.181-1.9-.335-2.837-.547a2.218,2.218,0,0,1-1.007-.434,1.217,1.217,0,0,1-.3-1.209,7.517,7.517,0,0,1,.477-1.335l.562-1.365,1.163-2.828c.1-.254-.276-.453-.381-.2-.664,1.615-1.356,3.221-1.992,4.847a2.4,2.4,0,0,0-.11,2.043,2.192,2.192,0,0,0,1.54.908c.927.2,1.867.361,2.8.539a.215.215,0,0,0,.089-.42" transform="translate(-256.037 -37.34)"/>
          <rect id="Rectángulo_404036" data-name="Rectángulo 404036" width="16.611" height="2.495" transform="translate(210.455 86.396)" fill="#fff"/>
          <path id="Trazado_912277" data-name="Trazado 912277" d="M348.376,32H297.391a2.453,2.453,0,0,1-2.453-2.453V20.775a2.453,2.453,0,0,1,2.453-2.453h50.985a2.453,2.453,0,0,1,2.453,2.453v8.773A2.453,2.453,0,0,1,348.376,32" transform="translate(-168.292 -10.455)" fill="#ffbd45"/>
          <path id="Trazado_912278" data-name="Trazado 912278" d="M413.339,43.391,425.013,50.1l-8.059-10.027Z" transform="translate(-235.852 -22.868)" fill="#ffbd45"/>
          <line id="Línea_1706" data-name="Línea 1706" x2="35.457" transform="translate(142.614 12.46)" fill="none" stroke="#fff" stroke-linecap="round" stroke-linejoin="round" stroke-width="1"/>
          <line id="Línea_1707" data-name="Línea 1707" x2="35.457" transform="translate(142.614 14.392)" fill="none" stroke="#fff" stroke-linecap="round" stroke-linejoin="round" stroke-width="1"/>
          <line id="Línea_1708" data-name="Línea 1708" x2="21.799" transform="translate(142.614 16.324)" fill="none" stroke="#fff" stroke-linecap="round" stroke-linejoin="round" stroke-width="1"/>
          <path id="Trazado_912279" data-name="Trazado 912279" d="M304.474,22.484a3.141,3.141,0,0,1,.549.15,2.48,2.48,0,0,1,.654.383,1.194,1.194,0,0,1,.4.765c.039.231.064.465.093.7a.476.476,0,0,0,.149.285c.507.507,1.012,1.017,1.52,1.523.056.055.058.083,0,.137-.146.139-.286.283-.426.429a.1.1,0,0,1-.107.03,1.483,1.483,0,0,0-1.2.187c-.052.033-.073-.006-.1-.033-.313-.315-.631-.624-.936-.946a.706.706,0,0,0-.476-.21,5.165,5.165,0,0,1-.689-.1,1.212,1.212,0,0,1-.757-.561,2.507,2.507,0,0,1-.371-.915.956.956,0,0,1,.019-.486l.6.6a.983.983,0,0,0,.292.2.917.917,0,0,0,1-1.5l-.59-.59c.041-.048.1-.022.147-.052Z" transform="translate(-172.754 -12.829)" fill="#fff"/>
          <path id="Trazado_912280" data-name="Trazado 912280" d="M303.676,31.771a1.182,1.182,0,0,1,.344-.848q1.264-1.273,2.533-2.542a1.229,1.229,0,0,1,.926-.39,1.067,1.067,0,0,1,.42.091.092.092,0,0,0,.122-.022q1.059-1.065,2.121-2.126a1.033,1.033,0,0,0,.167-.313c.094-.195.183-.391.271-.588a.232.232,0,0,1,.088-.105c.47-.314.94-.627,1.408-.943.052-.035.081-.036.125.01.149.154.3.3.453.454.039.038.042.062.01.109q-.477.71-.946,1.424a.259.259,0,0,1-.116.091c-.25.115-.5.232-.75.346a.539.539,0,0,0-.161.112q-1.042,1.047-2.086,2.092a.111.111,0,0,0-.032.137,1.187,1.187,0,0,1-.291,1.338q-1.255,1.268-2.521,2.527a1.162,1.162,0,0,1-1.22.314,1.183,1.183,0,0,1-.842-.916.957.957,0,0,1-.022-.14c0-.037,0-.075,0-.113" transform="translate(-173.277 -13.671)" fill="#fff"/>
          <path id="Trazado_912281" data-name="Trazado 912281" d="M317.879,38.675a1.746,1.746,0,0,1-1.725-1.508c-.031-.22-.04-.444-.086-.662a.455.455,0,0,0-.133-.242c-.155-.148-.3-.3-.456-.452a.068.068,0,0,1-.012-.1,1.519,1.519,0,0,0,.179-1.193.1.1,0,0,1,.03-.1c.148-.146.3-.291.44-.441.048-.051.074-.041.118,0,.323.327.653.646.969.979a.691.691,0,0,0,.477.184,2.4,2.4,0,0,1,1.139.311,1.679,1.679,0,0,1,.8,1.336,1.7,1.7,0,0,1-.9,1.681,1.662,1.662,0,0,1-.838.21m.01-.983a.757.757,0,0,0,.76-.76.764.764,0,1,0-1.528.018.76.76,0,0,0,.768.741" transform="translate(-179.995 -19.364)" fill="#fff"/>
          <path id="Trazado_912282" data-name="Trazado 912282" d="M21.945,368.362H17.99l4.148-20.96h3.955Z" transform="translate(-10.265 -198.228)" fill="#ff8d01"/>
          <path id="Trazado_912283" data-name="Trazado 912283" d="M201.725,368.362h-3.955l4.148-20.96h3.955Z" transform="translate(-112.848 -198.228)" fill="#ff8d01"/>
          <path id="Trazado_912284" data-name="Trazado 912284" d="M663.6,368.362h3.955l-4.148-20.96h-3.955Z" transform="translate(-376.284 -198.228)" fill="#ff8d01"/>
          <path id="Trazado_912285" data-name="Trazado 912285" d="M483.819,368.362h3.955l-4.148-20.96h-3.955Z" transform="translate(-273.701 -198.228)" fill="#ff8d01"/>
          <path id="Trazado_912286" data-name="Trazado 912286" d="M1.521,347.626H296.755a1.521,1.521,0,0,0,1.521-1.521v-.852a1.521,1.521,0,0,0-1.521-1.521H1.521A1.521,1.521,0,0,0,0,345.253v.852a1.521,1.521,0,0,0,1.521,1.521" transform="translate(0 -196.134)"/>
          <path id="Trazado_912287" data-name="Trazado 912287" d="M324.739,334.406l-25.291,2.539v1.466H367.79v-4Z" transform="translate(-170.866 -190.813)"/>
          <path id="Trazado_912288" data-name="Trazado 912288" d="M399.708,336.945v1.466H425v-4Z" transform="translate(-228.074 -190.813)" fill="#323e78"/>
          <path id="Trazado_912289" data-name="Trazado 912289" d="M175.64,33.849a16.961,16.961,0,1,1-16.961-16.961A16.961,16.961,0,0,1,175.64,33.849" transform="translate(-80.865 -9.636)" fill="#12263f"/>
          <path id="Trazado_912290" data-name="Trazado 912290" d="M127.436,21.6c0,.751-.9,1.434-1,2.159-.1.742.6,1.635.41,2.343s-1.243,1.146-1.524,1.826.155,1.731-.215,2.369-1.5.782-1.946,1.367-.3,1.71-.82,2.233-1.645.368-2.233.819-.724,1.575-1.367,1.946-1.682-.07-2.369.214-1.105,1.332-1.826,1.525-1.6-.507-2.343-.41c-.725.094-1.408,1-2.159,1s-1.434-.9-2.159-1c-.742-.1-1.635.6-2.343.41s-1.146-1.243-1.826-1.525-1.731.155-2.369-.215-.782-1.5-1.367-1.946-1.71-.3-2.233-.819-.368-1.645-.819-2.233-1.575-.724-1.946-1.367.07-1.682-.215-2.369-1.332-1.105-1.524-1.826.507-1.6.41-2.343c-.094-.725-1-1.408-1-2.159s.9-1.434,1-2.159c.1-.742-.6-1.635-.41-2.343s1.243-1.146,1.525-1.826-.155-1.731.214-2.369,1.5-.782,1.947-1.367.3-1.71.819-2.233,1.645-.368,2.233-.819.725-1.575,1.367-1.946,1.682.07,2.369-.214,1.105-1.332,1.825-1.525,1.6.507,2.343.41c.725-.094,1.408-1,2.159-1s1.434.9,2.159,1c.742.1,1.635-.6,2.343-.41s1.147,1.243,1.826,1.525,1.731-.155,2.369.215.782,1.5,1.367,1.946,1.71.3,2.233.819.368,1.645.819,2.233,1.575.725,1.946,1.367-.07,1.682.214,2.369,1.332,1.105,1.525,1.825-.507,1.6-.41,2.343c.094.725,1,1.408,1,2.159" transform="translate(-52.87 -2.402)" fill="#12263f"/>
          <path id="Trazado_912291" data-name="Trazado 912291" d="M168.6,84.983l-11.591,37.86c6.253,3.455,8.329,5.416,14.581,8.871,2.81-12.589,4.732-25.144,7.543-37.733-2.641-3.353-7.892-5.645-10.533-9" transform="translate(-89.588 -48.491)" fill="#e36629"/>
          <path id="Trazado_912292" data-name="Trazado 912292" d="M195.431,100.158c.478-2.368.97-4.737,1.5-7.107-2.641-3.353-5.982-6.345-8.624-9.7l-.106.223c.193,2.037.421,4.127.691,6.237a26.17,26.17,0,0,0,6.54,10.345" transform="translate(-107.387 -47.562)"/>
          <path id="Trazado_912293" data-name="Trazado 912293" d="M174.993,46.391c-1.256-2.054-4.631-2-6.2-.166a5.748,5.748,0,0,0-.066,6.727,10.393,10.393,0,0,0,5.9,3.9c.058.891,9.29,9.22,19.957,9.116,1.607-.015,1.835-3.072,1.842-4.05.021-2.868.039-3.623.06-6.492.871-.413,4.068-2.172,3.455-2.911-3.075-3.7-4.11-4.534-5.356-7.039,0,0,.2-3.506.264-4.666-1.654-3.576-5.96-8.125-8.772-10.887-3.489.958-5.341,2.286-8.518,4.018.532,1.768,1.21,5.1,1.742,6.869-2.008,2.584-2.306,3-4.314,5.582" transform="translate(-95.678 -17.074)" fill="#e36629"/>
          <path id="Trazado_912294" data-name="Trazado 912294" d="M172.116,70.386a2.677,2.677,0,0,1,4.553,2.235A1.011,1.011,0,1,0,176.5,74.5" transform="translate(-98.21 -39.719)" fill="none" stroke="#12263f" stroke-linecap="round" stroke-linejoin="round" stroke-width="1"/>
          <path id="Trazado_912295" data-name="Trazado 912295" d="M221.067,62.459a1.28,1.28,0,1,1-1.445-1.338,1.4,1.4,0,0,1,1.445,1.338" transform="translate(-124.709 -34.871)" fill="#12263f" stroke="#12263f" stroke-width="1"/>
          <path id="Trazado_912296" data-name="Trazado 912296" d="M209.72,54.821a7.33,7.33,0,0,1,4.493-2.8,1.756,1.756,0,0,1,1.887.623" transform="translate(-119.667 -29.658)" fill="none" stroke="#12263f" stroke-linecap="round" stroke-linejoin="round" stroke-width="2"/>
          <path id="Trazado_912297" data-name="Trazado 912297" d="M216.536,95.813a2.721,2.721,0,0,1,3.421-1.128c.574.268,1.031.735,1.579,1.052a1.641,1.641,0,0,0,1.787.068" transform="translate(-123.556 -53.898)" fill="#12263f" stroke="#12263f" stroke-linecap="round" stroke-linejoin="round" stroke-width="1"/>
          <path id="Trazado_912298" data-name="Trazado 912298" d="M249.187,204.061c-5.745,13.369-15.563,39.282-15.375,42.288.252,4.019,2.2,7.855,5.029,9.4s6.4.553,8.335-2.56c1.405-2.256,1.875-5.252,2.3-8.118q3.213-21.713,6.428-43.425Z" transform="translate(-133.412 -115.061)" fill="#e36629"/>
          <path id="Trazado_912299" data-name="Trazado 912299" d="M233.812,264.8c.251,4.019,2.2,7.854,5.029,9.4s6.4.553,8.335-2.56a14.483,14.483,0,0,0,1.7-4.622l-4.4-33.032c-5.216,13.147-10.8,28.538-10.661,30.812" transform="translate(-133.412 -133.516)"/>
          <path id="Trazado_912300" data-name="Trazado 912300" d="M284.944,194.529s-6.578,1.061-7.156,1.195c-2.655.608-5.626-.188-7.627,1.336-1.227.934-1.682,5.576.468,6.892,3.865,2.367,10.2,1.442,15.077.9,1.663-3.573.766-6.714-.761-10.323" transform="translate(-153.565 -110.999)" fill="#e36629"/>
          <path id="Trazado_912301" data-name="Trazado 912301" d="M303.837,190.448c3.315-.845,6.91-1.121,9.85-2.58.687-2.093.909-4.592,1.418-6.581a1.912,1.912,0,0,0-1.541-.046c-.45.183-2.248,3.474-2.544,4.534,0,0-5.471.97-8.164,1.294Z" transform="translate(-172.81 -103.338)" fill="#e36629"/>
          <path id="Trazado_912302" data-name="Trazado 912302" d="M306.4,195.985a62.546,62.546,0,0,0,11.047-2.748c1.271-1.772,1.022-3.258,2.733-5.465a1.888,1.888,0,0,0-1.522-.195,3.217,3.217,0,0,0-1.2.716,8.2,8.2,0,0,0-2.122,2.783,52.528,52.528,0,0,1-10.886,2Z" transform="translate(-173.72 -106.99)" fill="#e36629"/>
          <path id="Trazado_912303" data-name="Trazado 912303" d="M303.995,203.843c3.485-.134,7.634-.137,10.967-.94,1.585-1.612,2.176-3.58,4.186-5.658a1.813,1.813,0,0,0-1.47-.361,3.518,3.518,0,0,0-1.317.575,9.138,9.138,0,0,0-2.613,2.518,53.96,53.96,0,0,1-11.143.774Z" transform="translate(-172.667 -112.328)" fill="#e36629"/>
          <path id="Trazado_912304" data-name="Trazado 912304" d="M300.47,210.647a58.668,58.668,0,0,0,10.306-1.275c1.442-1.442,1.93-3.19,3.391-4.571a1.628,1.628,0,0,0-1.319-.334,3.184,3.184,0,0,0-1.19.51,8.269,8.269,0,0,0-2.376,2.25,48.592,48.592,0,0,1-10.032.63Z" transform="translate(-170.753 -116.658)" fill="#e36629"/>
          <path id="Trazado_912305" data-name="Trazado 912305" d="M316.8,204.756a2.625,2.625,0,0,0-2.126.082,5.731,5.731,0,0,0-1.587,1.21l-1.128,1.1c-2.724.269-5.322.519-8.046.788" transform="translate(-173.413 -116.726)" fill="none" stroke="#000" stroke-linecap="round" stroke-linejoin="round" stroke-width="1"/>
          <path id="Trazado_912306" data-name="Trazado 912306" d="M323.631,197.2a4.088,4.088,0,0,0-3.385.567,8,8,0,0,0-2.092,2.3,41.678,41.678,0,0,1-7.593,1.181" transform="translate(-177.206 -112.434)" fill="none" stroke="#000" stroke-linecap="round" stroke-linejoin="round" stroke-width="1"/>
          <path id="Trazado_912307" data-name="Trazado 912307" d="M306.688,193.109a66.085,66.085,0,0,0,9.792-1.912,8.432,8.432,0,0,1,1.733-2.459,4.319,4.319,0,0,1,3.158-1.119" transform="translate(-174.997 -107.048)" fill="none" stroke="#000" stroke-linecap="round" stroke-linejoin="round" stroke-width="1"/>
          <path id="Trazado_912308" data-name="Trazado 912308" d="M310.775,185.6H297.906a.959.959,0,0,1-.958-.958V156.633a.959.959,0,0,1,.958-.958h12.869a.958.958,0,0,1,.958.958V184.64a.958.958,0,0,1-.958.958" transform="translate(-169.439 -88.828)" fill="#323e78"/>
          <path id="Trazado_912309" data-name="Trazado 912309" d="M310.9,185.9H298.811a.958.958,0,0,1-.958-.958V158.776a.958.958,0,0,1,.958-.958H310.9a.958.958,0,0,1,.958.958v26.165a.958.958,0,0,1-.958.958" transform="translate(-169.955 -90.051)" fill="#fbcc34"/>
          <g id="Grupo_1101287" data-name="Grupo 1101287" transform="translate(127.898 77.405)" style="mix-blend-mode: multiply;isolation: isolate">
            <g id="Grupo_1101286" data-name="Grupo 1101286">
              <g id="Grupo_1101285" data-name="Grupo 1101285" clip-path="url(#clip-path-3)">
                <path id="Trazado_912310" data-name="Trazado 912310" d="M301.53,180.263l-3.677,3.356v3.039c2.288-1.378,4.322-3.857,3.677-6.395" transform="translate(-297.853 -180.263)" fill="#fbcc34"/>
              </g>
            </g>
          </g>
          <path id="Trazado_912311" data-name="Trazado 912311" d="M300.849,168.835H299.73v.706h1.322v.547h-2.034v-2.953h2.039v.55H299.73v.623h1.119Z" transform="translate(-170.62 -95.368)" fill="#536dfe"/>
          <path id="Trazado_912312" data-name="Trazado 912312" d="M305.528,169.044h-.385v1.045h-.712v-2.953h1.162a1.3,1.3,0,0,1,.821.233.789.789,0,0,1,.3.658.962.962,0,0,1-.125.511.888.888,0,0,1-.39.328l.616,1.192v.03h-.763Zm-.385-.547h.45a.4.4,0,0,0,.305-.107.412.412,0,0,0,.1-.3.419.419,0,0,0-.1-.3.4.4,0,0,0-.3-.109h-.45Z" transform="translate(-173.709 -95.368)" fill="#536dfe"/>
          <path id="Trazado_912313" data-name="Trazado 912313" d="M311.839,169.044h-.385v1.045h-.712v-2.953H311.9a1.3,1.3,0,0,1,.821.233.789.789,0,0,1,.3.658.962.962,0,0,1-.125.511.888.888,0,0,1-.39.328l.616,1.192v.03h-.763Zm-.385-.547h.45a.4.4,0,0,0,.305-.107.412.412,0,0,0,.1-.3.419.419,0,0,0-.1-.3.4.4,0,0,0-.3-.109h-.45Z" transform="translate(-177.31 -95.368)" fill="#536dfe"/>
          <path id="Trazado_912314" data-name="Trazado 912314" d="M319.443,168.619a1.742,1.742,0,0,1-.16.764,1.188,1.188,0,0,1-.455.513,1.362,1.362,0,0,1-1.342.006,1.183,1.183,0,0,1-.456-.5,1.7,1.7,0,0,1-.171-.741V168.5a1.75,1.75,0,0,1,.159-.766,1.181,1.181,0,0,1,.456-.512,1.352,1.352,0,0,1,1.346,0,1.205,1.205,0,0,1,.457.508,1.7,1.7,0,0,1,.165.756Zm-.724-.124a1.24,1.24,0,0,0-.147-.669.471.471,0,0,0-.421-.228q-.535,0-.566.8l0,.217a1.276,1.276,0,0,0,.144.667.471.471,0,0,0,.428.233.466.466,0,0,0,.416-.229,1.244,1.244,0,0,0,.148-.66Z" transform="translate(-180.8 -95.314)" fill="#536dfe"/>
          <path id="Trazado_912315" data-name="Trazado 912315" d="M324.83,169.044h-.386v1.045h-.712v-2.953h1.162a1.3,1.3,0,0,1,.822.233.79.79,0,0,1,.3.658.962.962,0,0,1-.125.511.888.888,0,0,1-.39.328l.616,1.192v.03h-.763Zm-.386-.547h.45a.4.4,0,0,0,.305-.107.41.41,0,0,0,.1-.3.417.417,0,0,0-.1-.3.4.4,0,0,0-.3-.109h-.45Z" transform="translate(-184.722 -95.368)" fill="#536dfe"/>
          <path id="Trazado_912316" data-name="Trazado 912316" d="M270.377,189.123c1.155-2.838,12.441-7.64,15.013-9.648.809.008-.143,2.316-1.066,3.231a29.42,29.42,0,0,1-3.923,3.118,6.281,6.281,0,0,1-1.322,5.217,7.429,7.429,0,0,1-4.7,2.425c-1.919.2-3.135-3-4-4.343" transform="translate(-154.278 -102.409)" fill="#e36629"/>
          <path id="Trazado_912317" data-name="Trazado 912317" d="M286.482,194.261c.132,2.924-2.083,5.836-5.446,7.16" transform="translate(-160.359 -110.846)" fill="none" stroke="#000" stroke-linecap="round" stroke-linejoin="round" stroke-width="1"/>
          <path id="Trazado_912318" data-name="Trazado 912318" d="M177.729,133.353c-5.037-3.449-8.337-6.152-13.92-8.621a14.781,14.781,0,0,0-6.809-1,38.644,38.644,0,0,0-2.838,6.876l-1.35.274a66.571,66.571,0,0,1,24.692,6.638c0-2,.225-4.163.225-4.163" transform="translate(-87.195 -70.569)" fill="#536dfe"/>
          <path id="Trazado_912319" data-name="Trazado 912319" d="M363.988,308.678a13.729,13.729,0,0,0,13.57,3.041c-.744-2.839-1.092-5.988-1.837-8.827a21.532,21.532,0,0,0-16.278-.853,18.405,18.405,0,0,0,4.544,6.638" transform="translate(-205.099 -171.658)" fill="#e36629"/>
          <path id="Trazado_912320" data-name="Trazado 912320" d="M395.334,320.179c1.824.666,5.877,2.449,7.7,3.115.881,2.063,1.942,4.413,2.823,6.476-1.421.483-3.508-2.449-4.563-5.093-2.275-.786-4.141-1.377-6.416-2.163" transform="translate(-225.318 -182.695)" fill="#e36629"/>
          <path id="Trazado_912321" data-name="Trazado 912321" d="M395.395,312.492c2.426.885,7.817,3.258,10.243,4.143,1.172,2.744,2.582,5.87,3.754,8.614-1.89.643-4.666-3.258-6.07-6.774-3.027-1.045-5.508-1.832-8.534-2.878" transform="translate(-225.267 -178.309)" fill="#e36629"/>
          <path id="Trazado_912322" data-name="Trazado 912322" d="M393.752,310.032c2.582-.011,8.462.344,11.044.332,2.051,2.168,4.458,4.609,6.51,6.777-1.55,1.259-5.507-1.437-8.043-4.248-3.2.07-5.8.192-9,.262" transform="translate(-224.676 -176.904)" fill="#e36629"/>
          <path id="Trazado_912323" data-name="Trazado 912323" d="M389.187,303.9c2.582-.011,8.462.344,11.044.332,2.051,2.168,4.458,4.61,6.51,6.777-1.55,1.259-5.507-1.437-8.043-4.248-3.2.07-5.8.192-9,.262" transform="translate(-222.071 -173.407)" fill="#e36629"/>
          <path id="Trazado_912324" data-name="Trazado 912324" d="M414.491,317.049c-2.8-2.372-4.863-4.517-7.659-6.889-3-.235-5.137.3-7.33.291" transform="translate(-227.957 -176.943)" fill="none" stroke="#000" stroke-linecap="round" stroke-linejoin="round" stroke-width="1"/>
          <path id="Trazado_912325" data-name="Trazado 912325" d="M162.738,208.9a67.507,67.507,0,0,1,4.322-28.626c2-5.387-.964-17.6-1.815-25.129a15.749,15.749,0,0,0-5.219-10.093c-3.084-2.706-7.073-5.838-10.636-7.476,0-2.019.225-4.225.225-4.225-5.037-3.449-8.337-6.153-13.92-8.621a14.781,14.781,0,0,0-6.809-1,38.627,38.627,0,0,0-2.838,6.876c-4.376.893-9.106,1.821-13.676,2.9a10.424,10.424,0,0,0-7.909,8.544c-1.478,9.588-1.363,19.676,1.716,28.667,1.71,4.994,4.041,9.761,5.712,14.768s2.672,10.4,1.609,15.571a25.311,25.311,0,0,1-2.61,6.913c17.148,1.574,34.648,2.392,51.847.934" transform="translate(-59.081 -70.569)" fill="#ffbd45"/>
          <path id="Trazado_912326" data-name="Trazado 912326" d="M100.751,319.981c-2.984,5.544-7.527,10.454-10.568,16.061a36.7,36.7,0,0,0-4.412,16.674h72.85c-2.42-11.069-5.341-21.088-6.023-31.8-17.2,1.458-34.7.64-51.847-.934" transform="translate(-48.941 -182.582)" fill="#12263f"/>
          <path id="Trazado_912327" data-name="Trazado 912327" d="M120.373,329.454a349.151,349.151,0,0,0,49.854,1.305" transform="translate(-68.685 -187.987)" fill="none" stroke="#000" stroke-linecap="round" stroke-linejoin="round" stroke-width="1"/>
          <path id="Trazado_912328" data-name="Trazado 912328" d="M202.2,348.922a28.025,28.025,0,0,0,8.671-1.479c2.735-1.092,5.216-3.245,5.924-6.1" transform="translate(-115.377 -194.769)" fill="none" stroke="#000" stroke-linecap="round" stroke-linejoin="round" stroke-width="1"/>
          <path id="Trazado_912329" data-name="Trazado 912329" d="M144.073,376.4a34.382,34.382,0,0,1,3.366-14.913" transform="translate(-82.208 -206.267)" fill="none" stroke="#000" stroke-linecap="round" stroke-linejoin="round" stroke-width="1"/>
          <path id="Trazado_912330" data-name="Trazado 912330" d="M215.558,199.443q-10.476,3.541-21.241,6.14a6.509,6.509,0,0,1-1.217-2.037,40.638,40.638,0,0,1-1.75-6.075" transform="translate(-109.185 -112.677)" fill="none" stroke="#000" stroke-linecap="round" stroke-linejoin="round" stroke-width="1"/>
          <path id="Trazado_912331" data-name="Trazado 912331" d="M271.868,245.059c-14.08.574-31.055,1.372-45.41,1.967l-6.844-45.314-8.438,2.821-12.81,3.448L211.8,262.048a5.059,5.059,0,0,0,5.9,3.743c16.019-3.193,42.279-9.84,55.289-13.773-.383-2.457-.739-4.5-1.123-6.959" transform="translate(-113.188 -115.097)" fill="#e36629"/>
          <path id="Trazado_912332" data-name="Trazado 912332" d="M267.318,71.521h26.509a2.453,2.453,0,0,0,2.453-2.453V60.295a2.453,2.453,0,0,0-2.453-2.453H267.318a2.453,2.453,0,0,0-2.453,2.453v8.773a2.453,2.453,0,0,0,2.453,2.453" transform="translate(-151.132 -33.005)" fill="#ca7441"/>
          <path id="Trazado_912333" data-name="Trazado 912333" d="M261.112,82.911l-11.674,6.713L257.5,79.6Z" transform="translate(-142.33 -45.418)" fill="#ca7441"/>
          <line id="Línea_1709" data-name="Línea 1709" x1="22.575" transform="translate(118.198 29.43)" fill="none" stroke="#fff" stroke-linecap="round" stroke-linejoin="round" stroke-width="1"/>
          <line id="Línea_1710" data-name="Línea 1710" x1="22.575" transform="translate(118.198 31.362)" fill="none" stroke="#fff" stroke-linecap="round" stroke-linejoin="round" stroke-width="1"/>
          <line id="Línea_1711" data-name="Línea 1711" x1="8.917" transform="translate(131.856 33.294)" fill="none" stroke="#fff" stroke-linecap="round" stroke-linejoin="round" stroke-width="1"/>
        </g>
      </g>
    </g>
  </g>
</svg>
