<svg xmlns="http://www.w3.org/2000/svg" width="44.412" height="53.294" viewBox="0 0 44.412 53.294">
  <g id="Grupo_1101112" data-name="Grupo 1101112" transform="translate(-5)">
    <path id="Trazado_911933" data-name="Trazado 911933" d="M14.771,53.294a9.716,9.716,0,0,0,9.748-6.742,13.33,13.33,0,1,0,7.415-19.233A23.612,23.612,0,0,0,35.2,15.1,15.1,15.1,0,0,0,5,15.1V43.523A9.782,9.782,0,0,0,14.771,53.294ZM47.635,39.97A11.547,11.547,0,1,1,36.088,28.423,11.56,11.56,0,0,1,47.635,39.97ZM6.776,15.1a13.323,13.323,0,1,1,26.647,0c0,6.208-2.171,9.951-4.305,13.537A13.278,13.278,0,0,0,23.4,44.023c-1.045,4.97-3.945,7.494-8.629,7.494a8,8,0,0,1-7.994-7.994Z" fill="#ee4f47"/>
    <path id="Trazado_911934" data-name="Trazado 911934" d="M32.715,48.122l4.426,2.83a1.666,1.666,0,0,0,.9.263,1.633,1.633,0,0,0,1.363-.713l6.551-9.774a1.5,1.5,0,0,0-.429-2.091l-2.017-1.354a1.684,1.684,0,0,0-1.328-.235,1.609,1.609,0,0,0-1.033.769l-3.932,7.041-1.011-.905a1.686,1.686,0,0,0-1.23-.415,1.643,1.643,0,0,0-1.143.576l-1.48,1.766a1.492,1.492,0,0,0-.336,1.185,1.533,1.533,0,0,0,.7,1.056Zm2.395-2.766,1.749,1.566a.9.9,0,0,0,.739.214.885.885,0,0,0,.629-.443l4.393-7.867,1.706,1.145L38.007,49.4l-4.09-2.616,1.194-1.425Z" transform="translate(-3.018 -4.135)" fill="#ee4f47"/>
    <path id="Trazado_911935" data-name="Trazado 911935" d="M14.175,24.283a.889.889,0,0,0,.009-1.254,10.159,10.159,0,0,1-2.222-5.114,7.923,7.923,0,0,1,6.449,1.207,5.937,5.937,0,0,1,2.247,4.816c0,3.6-1.508,6.741-2.968,9.775a29.342,29.342,0,0,0-2.53,6.518,1.519,1.519,0,0,1-.655.975,1.27,1.27,0,0,1-.965.181,1.6,1.6,0,0,1-1.163-1.6,2.337,2.337,0,0,1,.03-.338,22.339,22.339,0,0,0,.405-3.988A17.709,17.709,0,0,0,11.7,28.616a.888.888,0,0,0-1.618.733,16.409,16.409,0,0,1,.961,6.11,20.773,20.773,0,0,1-.379,3.688,4.093,4.093,0,0,0-.056.638,3.345,3.345,0,0,0,2.552,3.337,3.024,3.024,0,0,0,2.312-.422A3.281,3.281,0,0,0,16.9,40.6a27.968,27.968,0,0,1,2.392-6.115c1.545-3.214,3.143-6.537,3.143-10.545A7.682,7.682,0,0,0,19.5,17.72a9.6,9.6,0,0,0-7.712-1.58c-.005-.16-.014-.314-.014-.48a8.882,8.882,0,1,1,17.765,0c0,4.348-2.523,8.443-4.55,11.734a20.314,20.314,0,0,0-2.529,4.928.887.887,0,0,0,.647,1.077.86.86,0,0,0,.216.027.888.888,0,0,0,.861-.673A19.652,19.652,0,0,1,26.5,28.325c2.145-3.482,4.815-7.815,4.815-12.665A10.659,10.659,0,1,0,10,15.66c0,5.632,2.805,8.5,2.925,8.622a.884.884,0,0,0,1.251,0Z" transform="translate(-0.559 -0.559)" fill="#ee4f47"/>
  </g>
</svg>
