<svg xmlns="http://www.w3.org/2000/svg" xmlns:xlink="http://www.w3.org/1999/xlink" width="299.22" height="249.293" viewBox="0 0 299.22 249.293">
  <defs>
    <clipPath id="clip-path">
      <rect id="Rectángulo_404050" data-name="Rectángulo 404050" width="298.949" height="173.739" fill="none"/>
    </clipPath>
  </defs>
  <g id="Grupo_1102785" data-name="Grupo 1102785" transform="translate(-1053.605 -9716.732)">
    <g id="Grupo_1101104" data-name="Grupo 1101104" transform="translate(453.617 9312.732)">
      <rect id="Rectángulo_35929" data-name="Rectángulo 35929" width="298.949" height="249.293" transform="translate(600.259 404)" fill="#f6ccb3"/>
      <rect id="Rectángulo_402739" data-name="Rectángulo 402739" width="298.949" height="81.071" transform="translate(599.988 404)" fill="#fef6ed"/>
      <g id="Rectángulo_402741" data-name="Rectángulo 402741" transform="translate(625.323 426.294)" fill="none" stroke="#fef6ed" stroke-width="3">
        <rect width="248.279" height="204.704" stroke="none"/>
        <rect x="1.5" y="1.5" width="245.279" height="201.704" fill="none"/>
      </g>
      <g id="Grupo_1101299" data-name="Grupo 1101299" transform="translate(599.988 453.438)">
        <g id="Grupo_1101298" data-name="Grupo 1101298" clip-path="url(#clip-path)">
          <path id="Trazado_912488" data-name="Trazado 912488" d="M448.343,233.632H378.285a1.388,1.388,0,0,1-1.357-1.921l8.606-39.63a2.776,2.776,0,0,1,2.485-1.921h70.058a1.388,1.388,0,0,1,1.357,1.921l-8.606,39.63a2.777,2.777,0,0,1-2.485,1.921" transform="translate(-199.328 -100.583)"/>
          <rect id="Rectángulo_404048" data-name="Rectángulo 404048" width="5.401" height="22.976" transform="translate(214.97 120.711)"/>
          <rect id="Rectángulo_404049" data-name="Rectángulo 404049" width="28.763" height="1.963" transform="translate(197.545 143.686)"/>
          <path id="Trazado_912489" data-name="Trazado 912489" d="M445.124,233.632H375.066a1.389,1.389,0,0,1-1.357-1.921l8.606-39.63a2.776,2.776,0,0,1,2.485-1.921h70.058a1.388,1.388,0,0,1,1.357,1.921l-8.606,39.63a2.777,2.777,0,0,1-2.485,1.921" transform="translate(-197.626 -100.583)" fill="#323e78"/>
          <path id="Trazado_912490" data-name="Trazado 912490" d="M446.013,233.757H378.948a1.33,1.33,0,0,1-1.3-1.839l8.055-37.754a2.659,2.659,0,0,1,2.379-1.839h67.065a1.329,1.329,0,0,1,1.3,1.839l-8.055,37.754a2.658,2.658,0,0,1-2.378,1.839" transform="translate(-199.711 -101.728)" fill="#fff"/>
          <path id="Trazado_912491" data-name="Trazado 912491" d="M484.591,5.75V116.743a5.745,5.745,0,0,1-5.6,5.75c-.051,0-.1,0-.15,0h-56.9a5.751,5.751,0,0,1-5.75-5.754V5.75A5.748,5.748,0,0,1,421.94,0h56.9a5.748,5.748,0,0,1,5.75,5.75" transform="translate(-220.138)" fill="#fbcc34"/>
          <path id="Trazado_912492" data-name="Trazado 912492" d="M419.692,125.34c-3.374,2.535-4.729,6.885-5.889,10.942l-6.562,22.949a30.786,30.786,0,0,0-1.444,7.148,10.35,10.35,0,0,0,1.952,6.884,6.3,6.3,0,0,0,6.483,2.32,6.894,6.894,0,0,0,3.612-2.9,20.519,20.519,0,0,0,1.979-4.28l5.512-14.81Z" transform="translate(-214.635 -66.297)" fill="#ee4f47"/>
          <path id="Trazado_912493" data-name="Trazado 912493" d="M430.082,125.34a14.743,14.743,0,0,0-4.654,7.025c1.64,11.441,4.581,22.886,5.384,34.427l4.912-13.2Z" transform="translate(-225.025 -66.297)"/>
          <path id="Trazado_912494" data-name="Trazado 912494" d="M452.365,35.731a12.714,12.714,0,0,1-25.415,0,12.714,12.714,0,0,1,25.415,0" transform="translate(-225.83 -12.389)" fill="#773040"/>
          <path id="Trazado_912495" data-name="Trazado 912495" d="M456.808,105l3.518-1.154,1.058,8.268-2.446.614Z" transform="translate(-241.623 -54.929)"/>
          <path id="Trazado_912496" data-name="Trazado 912496" d="M463.216,63.594a98.618,98.618,0,0,0,10.326,23.15,80.593,80.593,0,0,1-14.092,13.548,102.6,102.6,0,0,0-5.524-26.444,28.477,28.477,0,0,1,9.289-10.254" transform="translate(-240.099 -33.637)" fill="#ff9b6d"/>
          <path id="Trazado_912497" data-name="Trazado 912497" d="M453.926,75.176A28.222,28.222,0,0,1,461.6,66.1a22.508,22.508,0,0,1-4.954,18.1q-1.139-4.577-2.719-9.026" transform="translate(-240.098 -34.965)"/>
          <path id="Trazado_912498" data-name="Trazado 912498" d="M427.585,66.651c.2,2.475,1.868,4.359,3.719,4.207s3.186-2.281,2.983-4.757-1.868-4.359-3.719-4.207-3.187,2.281-2.984,4.757" transform="translate(-226.155 -32.734)"/>
          <path id="Trazado_912499" data-name="Trazado 912499" d="M428.6,43.357c2.848-3.626,12.141-4.713,15.024-4.289.293,1.6.629,4.359.629,4.359l3.225,4.638s2.713-2.991,4.558-2.329c3.458,1.241,1.025,8.541-2.854,7.986-.176-.025.514,8.579-8.15,12.361-3.443,1.5-5.924.775-7.64-3.178A55.884,55.884,0,0,1,428.6,43.357" transform="translate(-226.702 -20.619)" fill="#ff9b6d"/>
          <path id="Trazado_912500" data-name="Trazado 912500" d="M454.748,77.924a8.186,8.186,0,0,1-1.735,3.152,4.975,4.975,0,0,1-2.808,1.709,1.984,1.984,0,0,1-.3.018,6.541,6.541,0,0,1,4.843-4.88" transform="translate(-237.972 -41.217)" fill="#961717"/>
          <path id="Trazado_912501" data-name="Trazado 912501" d="M444.457,79.883a31.376,31.376,0,0,0,7.706-4.2q-.133.542-.3,1.057a6.539,6.539,0,0,0-4.843,4.88,2.967,2.967,0,0,1-2.567-1.734" transform="translate(-235.09 -40.03)" fill="#520c0c"/>
          <path id="Trazado_912502" data-name="Trazado 912502" d="M475.59,56.821a1.228,1.228,0,0,0-1.541-.781,1.878,1.878,0,0,0-1.179,1.427,4.21,4.21,0,0,0,.13,1.918.867.867,0,1,1,.88,1.4" transform="translate(-250.085 -29.613)" fill="none" stroke="#000" stroke-linecap="round" stroke-linejoin="round" stroke-width="1"/>
          <path id="Trazado_912503" data-name="Trazado 912503" d="M451.777,52.107c-1.083-.351-3.478-.879-5.2.525" transform="translate(-236.213 -27.352)" fill="none" stroke="#000" stroke-linecap="round" stroke-linejoin="round" stroke-width="2"/>
          <path id="Trazado_912504" data-name="Trazado 912504" d="M434.328,56.951a2.785,2.785,0,0,0-3.122,1.429" transform="translate(-228.081 -30.08)" fill="none" stroke="#000" stroke-linecap="round" stroke-linejoin="round" stroke-width="2"/>
          <path id="Trazado_912505" data-name="Trazado 912505" d="M453.112,59.488a5.177,5.177,0,0,1-4.2.693" transform="translate(-237.447 -31.465)" fill="none" stroke="#000" stroke-linecap="round" stroke-linejoin="round" stroke-width="1"/>
          <path id="Trazado_912506" data-name="Trazado 912506" d="M436.535,63.707a2.62,2.62,0,0,1-3.089,1.12" transform="translate(-229.266 -33.697)" fill="none" stroke="#000" stroke-linecap="round" stroke-linejoin="round" stroke-width="1"/>
          <path id="Trazado_912507" data-name="Trazado 912507" d="M468.4,56.692c.2,2.475,1.868,4.359,3.719,4.207s3.186-2.281,2.983-4.757-1.868-4.359-3.719-4.207-3.187,2.281-2.984,4.757" transform="translate(-247.743 -27.466)"/>
          <path id="Trazado_912508" data-name="Trazado 912508" d="M438.289,25.027a9.643,9.643,0,0,1,9.092.75,16.475,16.475,0,0,1,6.211,7.933,49.093,49.093,0,0,1,1.969,6.151.508.508,0,0,1-.983.251,31.25,31.25,0,0,0-3.792-9.567,11.544,11.544,0,0,0-7.172-5.173,7.838,7.838,0,0,0-4.821.535c-.586.277-1.094-.6-.5-.88" transform="translate(-231.688 -12.807)"/>
          <path id="Trazado_912509" data-name="Trazado 912509" d="M464.3,73.546a21.143,21.143,0,0,0,5.06-7.232c.085-.2.377-.029.293.169a21.384,21.384,0,0,1-5.113,7.3c-.159.148-.4-.09-.24-.238" transform="translate(-245.557 -35.028)"/>
          <path id="Trazado_912510" data-name="Trazado 912510" d="M461.834,81.9l.984-1.072a.512.512,0,0,1,.717,0,.518.518,0,0,1,0,.717l-.984,1.073a.512.512,0,0,1-.717,0,.518.518,0,0,1,0-.717" transform="translate(-244.206 -42.675)"/>
          <path id="Trazado_912511" data-name="Trazado 912511" d="M439.329,65.007a7,7,0,0,1-1.971,5.12,3.657,3.657,0,0,0,3.309,1.564q.033.882.067,1.764" transform="translate(-231.335 -34.385)" fill="none" stroke="#000" stroke-linecap="round" stroke-linejoin="round" stroke-width="1"/>
          <path id="Trazado_912512" data-name="Trazado 912512" d="M488.374,171.057a5.7,5.7,0,0,1-3.528,1.326H434.294c1.637-7.526-1.566-37.726-4.356-44.909-1.547-3.978-3.157-8.169-2.546-12.391.789-5.422,8.189-11.152,13.65-11.6a14.531,14.531,0,0,0,.138-3.52c.782,2.617,1.346,5.111,2.127,7.727,1.65-.884,1.01-.722,2.66-1.606.134-2.621.319-5.146.457-7.766,3.76-1.436,7.222-2.557,10.983-4,.828,1.2,1.436,2.222,2.265,3.413,5.611-.087,17.988.564,22.1,4.38s4.36,10.754,4.691,16.357c1.026,17.246,1.871,34.542,1.911,52.584" transform="translate(-225.993 -49.89)" fill="#ee4f47"/>
          <path id="Trazado_912513" data-name="Trazado 912513" d="M481.52,103.317c-2.591,3.045-9.187,7.114-9.187,7.114-1.629-2.752-3.26-6.364-3.26-6.364" transform="translate(-248.111 -54.648)" fill="none" stroke="#000" stroke-linecap="round" stroke-linejoin="round" stroke-width="1"/>
          <path id="Trazado_912514" data-name="Trazado 912514" d="M456.141,106.732q-.305,3.359-.611,6.718" transform="translate(-240.947 -56.455)" fill="none" stroke="#000" stroke-linecap="round" stroke-linejoin="round" stroke-width="1"/>
          <path id="Trazado_912515" data-name="Trazado 912515" d="M461.665,120.129c.041,10.963,1.879,22.641,3.549,33.476s2.768,21.653.232,32.318" transform="translate(-244.192 -63.541)" fill="none" stroke="#000" stroke-linecap="round" stroke-linejoin="round" stroke-width="1"/>
          <path id="Trazado_912516" data-name="Trazado 912516" d="M468.5,155.071a1.663,1.663,0,0,0,.042-1.208.826.826,0,0,0-1.24-.36l-3.9,3.579-.065-.153c1.955-1.777,2.453-2.49,4.408-4.267a11.981,11.981,0,0,0,2.248-2.452,2.287,2.287,0,0,0,.225-1.986c-.119-.318-.632-.342-.967-.037l-7.059,6.464c-.057-.1-.032-.057-.091-.153,2.253-2.025,3.048-2.987,5.3-5.011a10.83,10.83,0,0,0,2.238-2.462,2.348,2.348,0,0,0,.131-2.079.652.652,0,0,0-1.021-.091l-8.193,7.613-.1-.106c1.673-1.5,1.888-1.944,3.561-3.447a10.82,10.82,0,0,0,2.238-2.462,2.348,2.348,0,0,0,.131-2.079.652.652,0,0,0-1.021-.091l-6.758,6.324-.235.248c-2.259,1.927-5.34,7.241-7.765,10.591a29.732,29.732,0,0,0,4.154,3.8c3.932-1.2,6.321-1.566,9.533-5.932,1.4-1.208,1.333-1.352,2.728-2.56a5.524,5.524,0,0,0,1.483-1.679" transform="translate(-238.343 -76.211)" fill="#ff9b6d"/>
          <path id="Trazado_912517" data-name="Trazado 912517" d="M450.607,165.491a15.482,15.482,0,0,1,4.295-8.885c1.634-1.661,3.636-3.232,5.394-4.793a.311.311,0,0,1,.51.157c.219.921-.8,2.635-1.367,3.727a28.762,28.762,0,0,1-8.832,9.794" transform="translate(-238.343 -80.257)" fill="#ff9b6d"/>
          <path id="Trazado_912518" data-name="Trazado 912518" d="M458.738,160.087a31.114,31.114,0,0,1,7-7.875" transform="translate(-242.644 -80.511)" fill="none" stroke="#000" stroke-linecap="round" stroke-linejoin="round" stroke-width="0.75"/>
          <path id="Trazado_912519" data-name="Trazado 912519" d="M451.293,185.554l2.975-4.775q-.753-.891-1.519-1.771a32.905,32.905,0,0,1-2.726-3.414q-1.708,1.139-3.408,2.289a10.891,10.891,0,0,0,4.678,7.67" transform="translate(-236.231 -92.879)" fill="#ff9b6d"/>
          <path id="Trazado_912520" data-name="Trazado 912520" d="M425.813,180.455q-5.28,3.572-10.479,7.255c-2.562,1.816-5.182,3.729-6.768,6.41s-1.876,6.349.159,8.72a7.23,7.23,0,0,0,6.69,2.1,11.807,11.807,0,0,0,6.237-3.6,34.352,34.352,0,0,0,4.257-5.865l4.581-7.351a10.891,10.891,0,0,1-4.678-7.67" transform="translate(-215.429 -95.449)" fill="#ee4f47"/>
          <path id="Trazado_912521" data-name="Trazado 912521" d="M407.315,198.179a8.957,8.957,0,0,1,2.217-7.267,26.517,26.517,0,0,1,6.078-4.929L427.57,178.1" transform="translate(-215.374 -94.206)" fill="none" stroke="#000" stroke-linecap="round" stroke-linejoin="round" stroke-width="1"/>
          <path id="Trazado_912522" data-name="Trazado 912522" d="M437.1,205.55a33.5,33.5,0,0,0,5.234-7.075l6.458-10.558" transform="translate(-231.196 -99.396)" fill="none" stroke="#000" stroke-linecap="round" stroke-linejoin="round" stroke-width="1"/>
          <path id="Trazado_912523" data-name="Trazado 912523" d="M438.6,189.228a7.512,7.512,0,0,0,6.69,6.406" transform="translate(-231.991 -100.09)" fill="none" stroke="#000" stroke-linecap="round" stroke-linejoin="round" stroke-width="1"/>
          <path id="Trazado_912524" data-name="Trazado 912524" d="M410.661,198.764a11.66,11.66,0,0,1,5.2-1.887" transform="translate(-217.214 -104.136)" fill="none" stroke="#000" stroke-linecap="round" stroke-linejoin="round" stroke-width="1"/>
          <path id="Trazado_912525" data-name="Trazado 912525" d="M515.981,205.987q-.725-24.069-1.46-48.138" transform="translate(-272.149 -83.492)" fill="none" stroke="#000" stroke-linecap="round" stroke-linejoin="round" stroke-width="1"/>
          <path id="Trazado_912526" data-name="Trazado 912526" d="M509.109,161.394l2.808,8.223" transform="translate(-269.287 -85.367)" fill="none" stroke="#000" stroke-linecap="round" stroke-linejoin="round" stroke-width="1"/>
          <path id="Trazado_912527" data-name="Trazado 912527" d="M20.4,338.915H16.437l4.158-26.539h3.964Z" transform="translate(-8.694 -165.228)" fill="#ff8d01"/>
          <path id="Trazado_912528" data-name="Trazado 912528" d="M184.649,338.915h-3.964l4.158-26.539h3.964Z" transform="translate(-95.571 -165.228)" fill="#ff8d01"/>
          <path id="Trazado_912529" data-name="Trazado 912529" d="M606.638,338.915H610.6l-4.158-26.539h-3.964Z" transform="translate(-318.674 -165.228)" fill="#ff8d01"/>
          <path id="Trazado_912530" data-name="Trazado 912530" d="M442.39,338.915h3.964L442.2,312.377h-3.964Z" transform="translate(-231.797 -165.228)" fill="#ff8d01"/>
          <path id="Trazado_912531" data-name="Trazado 912531" d="M1.669,313.071H297.281a1.669,1.669,0,0,0,1.669-1.669V309.81a1.669,1.669,0,0,0-1.669-1.669H1.669A1.669,1.669,0,0,0,0,309.81V311.4a1.669,1.669,0,0,0,1.669,1.669" transform="translate(0 -162.987)"/>
          <path id="Trazado_912532" data-name="Trazado 912532" d="M327.047,287.383h-14.1a1.11,1.11,0,0,1-1.11-1.11V269.6a1.11,1.11,0,0,1,1.11-1.11h14.1a1.11,1.11,0,0,1,1.11,1.11v16.674a1.11,1.11,0,0,1-1.11,1.11" transform="translate(-164.944 -142.013)" fill="#fff"/>
          <path id="Trazado_912533" data-name="Trazado 912533" d="M307.365,285.96h-2.947a3.471,3.471,0,0,1-3.306-3.608v-3.356a3.471,3.471,0,0,1,3.306-3.608h2.947v-1.723h-2.947a5.129,5.129,0,0,0-4.885,5.331v3.356a5.128,5.128,0,0,0,4.885,5.331h2.947Z" transform="translate(-158.434 -144.751)" fill="#fff"/>
          <path id="Trazado_912534" data-name="Trazado 912534" d="M325.6,250.94c-.692-1.2-1.587-2.182-2.257-3.458a5.626,5.626,0,0,1-.641-2.1,3.9,3.9,0,0,1,.081-1.174,3.935,3.935,0,0,1,.479-1.127,17.519,17.519,0,0,1,1.323-1.651,5.248,5.248,0,0,0,.486-.714,4.99,4.99,0,0,0,.335-.792,5.162,5.162,0,0,0-.226-3.622,4.252,4.252,0,0,1,1.688,3.833,4.567,4.567,0,0,1-.773,2.128c-.422.628-.889,1.128-1.178,1.6a2.7,2.7,0,0,0-.434,1.469,6.124,6.124,0,0,0,.254,1.726,12.668,12.668,0,0,1,.862,3.88" transform="translate(-170.683 -124.989)" fill="#fff"/>
          <path id="Trazado_912535" data-name="Trazado 912535" d="M297.634,16.379h45.992V8.738A7.642,7.642,0,0,0,335.984,1.1H297.634a7.642,7.642,0,0,0,0,15.283" transform="translate(-153.388 -0.58)" fill="#ca7441"/>
          <line id="Línea_1750" data-name="Línea 1750" x1="45.457" transform="translate(140.693 6.041)" fill="none" stroke="#fff" stroke-linecap="round" stroke-linejoin="round" stroke-width="1"/>
          <line id="Línea_1751" data-name="Línea 1751" x1="45.457" transform="translate(140.693 8.158)" fill="none" stroke="#fff" stroke-linecap="round" stroke-linejoin="round" stroke-width="1"/>
          <line id="Línea_1752" data-name="Línea 1752" x1="30.262" transform="translate(155.887 10.275)" fill="none" stroke="#fff" stroke-linecap="round" stroke-linejoin="round" stroke-width="1"/>
          <path id="Trazado_912536" data-name="Trazado 912536" d="M151.9,24.16a28.332,28.332,0,0,1-9.177,21.067c-1.716,1.582-3.794,3.31-3.7,5.572.08,1.881,1.657,3.345,2.887,4.827,4.694,5.656,4.962,13.97,1.475,20.357s-10.273,10.85-17.628,12.7c-10.2,2.569-22.137-.053-28.8-7.784-5.238-6.078-6.539-15.337-1.989-21.889,1.689-2.432,4.037-4.38,6.04-6.589s3.726-4.869,3.741-7.776c.014-2.567-1.292-4.947-2.215-7.362-3.818-9.989-.682-22.011,7.615-29.184A30.4,30.4,0,0,1,130.735,1.11a26.9,26.9,0,0,1,10.694,2.238c3.17,1.583,5.5,5.242,7.1,8.206A27.657,27.657,0,0,1,151.9,24.16" transform="translate(-48.766 -0.58)" fill="#8c5a2c"/>
          <path id="Trazado_912537" data-name="Trazado 912537" d="M230.361,303.74c-.2.824-.382,1.658-.561,2.487-.386,1.8-.749,3.6-1.173,5.389-2.7.339-5.45.758-8.154,1.1-.066-.122-.127-.24-.188-.363l.391-.674.565-.985,1.112-1.931c.273.019.551.028.829.038.363.014.73.024,1.093.028.876.019,1.748.038,2.61.118a4.542,4.542,0,0,1,.787-3.307,4.667,4.667,0,0,1,2.69-1.9" transform="translate(-116.517 -160.659)" fill="#d17f59"/>
          <path id="Trazado_912538" data-name="Trazado 912538" d="M226.953,302.19c-.207.876-.4,1.752-.594,2.633-.334,1.569-.655,3.147-1.017,4.706-.037.179-.08.358-.122.537-1.936.245-3.9.528-5.855.8-.231.033-.457.061-.684.094-.141-.283-.287-.565-.424-.848-.155-.3-.306-.608-.452-.909l1.14-1.983c.965.061,1.95.061,2.92.094.415.009.829.028,1.239.061.122,0,.25.019.372.028a4.751,4.751,0,0,1,3.477-5.21" transform="translate(-115.205 -159.839)" fill="#d17f59"/>
          <path id="Trazado_912539" data-name="Trazado 912539" d="M223.008,301.03c-.452,1.9-.838,3.816-1.253,5.728-.047.212-.094.429-.141.641-.1.485-.217.966-.33,1.446,0,.019-.009.042-.014.061-.89.113-1.79.236-2.69.358-.556.075-1.116.155-1.672.231-.155-.3-.306-.608-.452-.909q-.615-1.251-1.2-2.515c1.423.075,2.869.038,4.277.17a4.36,4.36,0,0,1,.41-2.647,4.719,4.719,0,0,1,3.067-2.563" transform="translate(-113.856 -159.226)" fill="#d17f59"/>
          <path id="Trazado_912540" data-name="Trazado 912540" d="M224.764,296.182c-.622,2.61-1.112,5.266-1.734,7.876-2.873.363-7.446.815-10.319,1.173-.268-.518-4.921-11.814-5.377-16.5-.054-.56-.283-1.154.024-1.625a1.4,1.4,0,0,1,1.969-.132,4.234,4.234,0,0,1,1.14,1.875c.269.688.306,1.041.923,1.446a11.236,11.236,0,0,1,4.866,8.79c.009.226.014.448,0,.674a9.5,9.5,0,0,1-.132,1.413c.3.028.594.047.9.061.9.047,1.809.047,2.709.071.523.019,1.041.042,1.555.09a4.694,4.694,0,0,1,1.592-4.211,4.4,4.4,0,0,1,1.884-1" transform="translate(-109.597 -151.613)" fill="#ff9b6d"/>
          <path id="Trazado_912541" data-name="Trazado 912541" d="M204.008,148.428a431.073,431.073,0,0,1,30.75,35.952c1.984,2.6,4.026,5.462,4.039,8.728.02,4.948-4.47,8.57-8.528,11.4L208.5,219.7c-1.083-2.4-2.4-5.686-3.483-8.087,4.093-4.346,10.538-15.241,14.631-19.586,1.344-1.427-.855-2.971-2.592-4.578l-16.552-15.325" transform="translate(-106.057 -78.509)" fill="#ff9b6d"/>
          <path id="Trazado_912542" data-name="Trazado 912542" d="M237.465,190.473q-2.518-3.043-5.091-6.04L225.117,201.9l4.368,4.045Z" transform="translate(-119.073 -97.553)"/>
          <path id="Trazado_912543" data-name="Trazado 912543" d="M204.008,148.428l-3.5,23.7L212.1,182.858l7.258-17.47q-7.449-8.681-15.351-16.961" transform="translate(-106.057 -78.509)" fill="#bf360c"/>
          <path id="Trazado_912544" data-name="Trazado 912544" d="M145.561,172.866c5.252-4.976,7.391-16.567,4.619-23.251s-6.636-15.174-13.224-18.164a80.832,80.832,0,0,0-39.166-6.972c-6.426.475-12.874,5.446-14.121,11.768-.918,4.654.41,9.428,1.8,13.964,4.324,14.141,8.952,23.832,14.6,37.024l43.074,1.634c.482-5.047,2.041-9.786,2.417-16" transform="translate(-44.095 -65.728)" fill="#ca7441"/>
          <path id="Trazado_912545" data-name="Trazado 912545" d="M204.061,151.94a24.544,24.544,0,0,1,5.343,36.008" transform="translate(-107.935 -80.367)" fill="none" stroke="#000" stroke-linecap="round" stroke-linejoin="round" stroke-width="1"/>
          <path id="Trazado_912546" data-name="Trazado 912546" d="M138.192,259.577l-43.074-1.634c.321.749.645,1.507.973,2.281C82.582,271.065,74.719,292.817,74,310.123h74.175c-1.852-15.218-5.77-27.544-9.26-40.964a26.739,26.739,0,0,1-.726-9.582" transform="translate(-39.143 -136.436)" fill="#12263f"/>
          <path id="Trazado_912547" data-name="Trazado 912547" d="M121.948,267.113c12.935,1.037,27.225.519,40.16,1.555" transform="translate(-64.503 -141.286)" fill="none" stroke="#000" stroke-linecap="round" stroke-linejoin="round" stroke-width="1"/>
          <path id="Trazado_912548" data-name="Trazado 912548" d="M103.68,293.492a28.987,28.987,0,0,0,9.117-.438c2.954-.784,5.776-2.7,6.852-5.559" transform="translate(-54.84 -152.067)" fill="none" stroke="#000" stroke-linecap="round" stroke-linejoin="round" stroke-width="1"/>
          <path id="Trazado_912549" data-name="Trazado 912549" d="M183.691,269.606l-.928,19.888a26.487,26.487,0,0,1-1.112,7.645,8.94,8.94,0,0,1-5.011,5.587,53.061,53.061,0,0,1,1.032,13.382" transform="translate(-93.431 -142.605)" fill="none" stroke="#000" stroke-linecap="round" stroke-linejoin="round" stroke-width="1"/>
          <path id="Trazado_912550" data-name="Trazado 912550" d="M181.015,269.164a148.761,148.761,0,0,1-1.522,27.913" transform="translate(-94.941 -142.371)" fill="none" stroke="#000" stroke-linecap="round" stroke-linejoin="round" stroke-width="1"/>
          <path id="Trazado_912551" data-name="Trazado 912551" d="M298.088,72.622l3,6.008,6.65.936-4.788,4.708,1.164,6.613-5.958-3.1-5.93,3.151,1.106-6.624L288.5,79.652l6.641-.995Z" transform="translate(-152.6 -38.413)" fill="#fbcc34"/>
          <path id="Trazado_912552" data-name="Trazado 912552" d="M308,54.057a.669.669,0,0,0-.614.7l.019,4.365a.657.657,0,1,0,1.311-.084L308.7,54.67a.664.664,0,0,0-.7-.614" transform="translate(-162.587 -28.592)" fill="#fbcc34"/>
          <path id="Trazado_912553" data-name="Trazado 912553" d="M308.28,117.967a.669.669,0,0,0-.614.7l.019,4.365a.657.657,0,1,0,1.311-.084l-.019-4.365a.664.664,0,0,0-.7-.614" transform="translate(-162.736 -62.396)" fill="#fbcc34"/>
          <path id="Trazado_912554" data-name="Trazado 912554" d="M340.543,91.1a.67.67,0,0,0-.7-.614l-4.365.019a.657.657,0,1,0,.084,1.311l4.365-.019a.664.664,0,0,0,.614-.7" transform="translate(-177.122 -47.861)" fill="#fbcc34"/>
          <path id="Trazado_912555" data-name="Trazado 912555" d="M276.633,91.381a.669.669,0,0,0-.7-.614l-4.365.019a.657.657,0,1,0,.084,1.311l4.366-.019a.664.664,0,0,0,.613-.7" transform="translate(-143.318 -48.01)" fill="#fbcc34"/>
          <path id="Trazado_912556" data-name="Trazado 912556" d="M330.944,64.825a.669.669,0,0,0-.927.059l-3.073,3.1a.657.657,0,0,0,.986.868l3.073-3.1a.664.664,0,0,0-.059-.927" transform="translate(-172.847 -34.204)" fill="#fbcc34"/>
          <path id="Trazado_912557" data-name="Trazado 912557" d="M285.951,110.217a.67.67,0,0,0-.928.059l-3.073,3.1a.657.657,0,0,0,.986.868l3.073-3.1a.664.664,0,0,0-.059-.927" transform="translate(-149.049 -58.213)" fill="#fbcc34"/>
          <path id="Trazado_912558" data-name="Trazado 912558" d="M331.2,114.044a.668.668,0,0,0-.059-.927l-3.1-3.073a.657.657,0,1,0-.868.986l3.1,3.073a.664.664,0,0,0,.927-.06" transform="translate(-172.939 -58.121)" fill="#fbcc34"/>
          <path id="Trazado_912559" data-name="Trazado 912559" d="M285.812,69.052a.669.669,0,0,0-.059-.927l-3.1-3.073a.657.657,0,1,0-.868.986l3.1,3.073a.664.664,0,0,0,.927-.059" transform="translate(-148.93 -34.323)" fill="#fbcc34"/>
          <path id="Trazado_912560" data-name="Trazado 912560" d="M162.641,140.3c.47,1.51.927,3.208.2,4.614a3.969,3.969,0,0,1-2.819,1.926,8.924,8.924,0,0,1-3.507-.18,24.872,24.872,0,0,1-14.745-9.487" transform="translate(-74.988 -72.555)" fill="none" stroke="#000" stroke-linecap="round" stroke-linejoin="round" stroke-width="1"/>
          <path id="Trazado_912561" data-name="Trazado 912561" d="M146.448,87.748c1.733-10.375,2.127-21.072,2.414-31.651a35.971,35.971,0,0,1,13.418,10.822,125.708,125.708,0,0,0-2.034,24.65c11.146,18.174-16.387,5.616-13.8-3.821" transform="translate(-77.37 -29.672)" fill="#ff9b6d"/>
          <path id="Trazado_912562" data-name="Trazado 912562" d="M167.449,68.081a35.7,35.7,0,0,0-11.4-9.788,28.465,28.465,0,0,0,9.818,21.6q.5-5.945,1.583-11.816" transform="translate(-82.54 -30.833)"/>
          <path id="Trazado_912563" data-name="Trazado 912563" d="M167.74,22.988c-4.827-3.271-16.44-1-19.749.623.266,2.046.922,5.493.922,5.493l-2.1,6.829s-4.421-2.558-6.388-1.05c-3.688,2.828,2.057,10.684,6.515,8.521.2-.1,6.559,9.792,17.345,9.812,1.83,0,4.579-2.619,5.124-8.042.83-8.258-.212-12.363-1.67-22.185" transform="translate(-73.654 -11.277)" fill="#ff9b6d"/>
          <path id="Trazado_912564" data-name="Trazado 912564" d="M179.742,74.608a6.644,6.644,0,0,0,2.569,1.377,6.4,6.4,0,0,0,3.111.172,2.752,2.752,0,0,0,.283-.082c-1-1.274-3.729-1.851-5.963-1.468" transform="translate(-95.072 -39.401)" fill="#961717"/>
          <path id="Trazado_912565" data-name="Trazado 912565" d="M186.864,73.49c-1.3-.6-5.22-.418-8.391-.175.193.192.391.375.6.55,2.234-.383,4.961.194,5.963,1.468.956-.324,1.79-1.154,1.83-1.842" transform="translate(-94.401 -38.658)" fill="#520c0c"/>
          <path id="Trazado_912566" data-name="Trazado 912566" d="M143.017,53.876a1.554,1.554,0,0,1,1.556-1.535,2.375,2.375,0,0,1,1.97,1.265,5.319,5.319,0,0,1,.583,2.36,1.1,1.1,0,1,0-.521,2.023" transform="translate(-75.645 -27.685)" fill="none" stroke="#000" stroke-linecap="round" stroke-linejoin="round" stroke-width="1"/>
          <path id="Trazado_912567" data-name="Trazado 912567" d="M176.177,47.906a1.516,1.516,0,1,1-.679-2.034,1.516,1.516,0,0,1,.679,2.034" transform="translate(-91.667 -24.179)"/>
          <path id="Trazado_912568" data-name="Trazado 912568" d="M197.712,47.906a1.516,1.516,0,1,1-.679-2.034,1.517,1.517,0,0,1,.679,2.034" transform="translate(-103.057 -24.179)"/>
          <path id="Trazado_912569" data-name="Trazado 912569" d="M166.433,39.432a7.467,7.467,0,0,1,6.936-1.171" transform="translate(-88.033 -20.026)" fill="none" stroke="#000" stroke-linecap="round" stroke-linejoin="round" stroke-width="2"/>
          <path id="Trazado_912570" data-name="Trazado 912570" d="M191.99,38.414a3.522,3.522,0,0,1,4.311.518" transform="translate(-101.551 -20.048)" fill="none" stroke="#000" stroke-linecap="round" stroke-linejoin="round" stroke-width="2"/>
          <path id="Trazado_912571" data-name="Trazado 912571" d="M191.132,53.184a23.28,23.28,0,0,0,2.848,3.951,6.737,6.737,0,0,1-2.126,3.086" transform="translate(-101.097 -28.131)" fill="none" stroke="#000" stroke-linecap="round" stroke-linejoin="round" stroke-width="1"/>
          <path id="Trazado_912572" data-name="Trazado 912572" d="M151.723,27.356c-4.816,2.98-10.717,3.771-16.367,3.388a1.438,1.438,0,0,1-.846-.244,1.266,1.266,0,0,1-.362-.828,8.8,8.8,0,0,1,.614-3.875,26.849,26.849,0,0,1,4.319-8.647A16.785,16.785,0,0,1,156.8,11.587c2.431.7,3.085,1.6,2.784,4.108a16.528,16.528,0,0,1-7.859,11.661" transform="translate(-70.932 -5.781)" fill="#8c5a2c"/>
          <path id="Trazado_912573" data-name="Trazado 912573" d="M119.513,213.41a3.66,3.66,0,0,0,2.186-.746c7.221-4.513,12-12,16.139-19.438a14.9,14.9,0,0,0,2.225-5.907c-4.457.289-8.548,2.621-11.994,5.463a30.421,30.421,0,0,0-7.179,8.254,21.135,21.135,0,0,0-2.523,6.936c-.233,1.384-1.157,5.226,1.148,5.437" transform="translate(-62.407 -99.08)"/>
          <path id="Trazado_912574" data-name="Trazado 912574" d="M280.639,140.652c1.124-.589,3.679-6.667,3.477-6.9a.605.605,0,0,0-.319-.191c-1.7-.382-4.45,3.322-4.973,4.562-2.254.537-5.567,1.059-7.822,1.6-.284.067-.613.175-.7.453a.854.854,0,0,0,.051.5q.33,1.055.66,2.11a.67.67,0,0,0,1.011.5,70.067,70.067,0,0,0,8.613-2.638" transform="translate(-142.962 -70.633)" fill="#d17f59"/>
          <path id="Trazado_912575" data-name="Trazado 912575" d="M273.867,138.665c1.085-.658,3.256-6.883,3.041-7.1a.605.605,0,0,0-.33-.171c-1.721-.276-4.234,3.593-4.679,4.863-2.217.676-5.49,1.4-7.708,2.08-.279.085-.6.213-.67.5a.856.856,0,0,0,.082.5l.791,2.065a.67.67,0,0,0,1.041.438,70.134,70.134,0,0,0,8.432-3.17" transform="translate(-139.379 -69.492)" fill="#d17f59"/>
          <path id="Trazado_912576" data-name="Trazado 912576" d="M265.209,140.017c.954-.579,2.865-6.059,2.676-6.25a.533.533,0,0,0-.291-.15c-1.514-.243-3.728,3.163-4.118,4.281-1.952.595-4.834,1.235-6.785,1.83-.245.075-.529.187-.59.437a.748.748,0,0,0,.073.44q.348.909.7,1.817a.781.781,0,0,0,.238.379.79.79,0,0,0,.677.006,61.744,61.744,0,0,0,7.423-2.79" transform="translate(-135.456 -70.669)" fill="#d17f59"/>
          <path id="Trazado_912577" data-name="Trazado 912577" d="M241.061,144.365c3.32-2.124,13.883-5.3,13.883-5.3a62.959,62.959,0,0,1,12.467-2.364,1.2,1.2,0,0,0,.853-.5,1,1,0,0,0-.362-1.287,2.706,2.706,0,0,0-1.411-.371,51.562,51.562,0,0,0-10.247.959,17.278,17.278,0,0,1-6.578.407c-.5-.049-2.158-1.266-1.992-1.739.514-1.461,1.989-1.826,2.883-3.092,1.217-1.723,2.839-3.443,2.759-5.55a1.014,1.014,0,0,0-.148-.559.817.817,0,0,0-1.061-.114,2.914,2.914,0,0,0-.78.865,14.819,14.819,0,0,1-5.038,4.047,35.549,35.549,0,0,0-5.554,3.387,8.168,8.168,0,0,0-3.193,5.477c-.154,2.167,1.393,5.284,3.518,5.732" transform="translate(-125.639 -65.967)" fill="#ff9b6d"/>
          <path id="Trazado_912578" data-name="Trazado 912578" d="M163.986,210.482c4.17-6.474,14.3-37.794,19.575-51.942l-5.438-4.284q-9.979,12.671-19.451,25.732-2.414,3.329-4.793,6.682-5.561-8.287-10.5-16.968a26.793,26.793,0,0,0-18.811,13.894c7.78,10.511,16.68,20.988,27.191,28.979a8.453,8.453,0,0,0,12.168-2l.06-.093" transform="translate(-65.888 -81.592)" fill="#ff9b6d"/>
          <path id="Trazado_912579" data-name="Trazado 912579" d="M101.131,179.455a81.981,81.981,0,0,0,8.037,13.5,25.45,25.45,0,0,1,6.736-16.945c4.123-4.351,9.386-7.6,15.323-8.3-3.84-8.916-5.127-11.685-9.985-17.57" transform="translate(-53.492 -79.415)" fill="none" stroke="#000" stroke-linecap="round" stroke-linejoin="round" stroke-width="1"/>
          <path id="Trazado_912580" data-name="Trazado 912580" d="M180.3,223.005a17.8,17.8,0,0,0-4.7,16.709" transform="translate(-92.617 -117.956)" fill="none" stroke="#000" stroke-linecap="round" stroke-linejoin="round" stroke-width="1"/>
          <path id="Trazado_912581" data-name="Trazado 912581" d="M483.87,12.357l.765,1.533,1.7.239-1.221,1.2.3,1.687-1.52-.79-1.513.8.282-1.69-1.232-1.19,1.694-.254Z" transform="translate(-254.643 -6.536)" fill="#fff"/>
          <path id="Trazado_912582" data-name="Trazado 912582" d="M497.8,12.357l.765,1.533,1.7.239-1.221,1.2.3,1.687-1.52-.79-1.513.8.282-1.69-1.232-1.19,1.694-.254Z" transform="translate(-262.014 -6.536)" fill="#fff"/>
          <path id="Trazado_912583" data-name="Trazado 912583" d="M511.74,12.357l.765,1.533,1.7.239-1.221,1.2.3,1.687-1.52-.79-1.512.8.282-1.69-1.232-1.19,1.694-.254Z" transform="translate(-269.385 -6.536)" fill="#fff"/>
          <path id="Trazado_912584" data-name="Trazado 912584" d="M525.675,12.357l.765,1.533,1.7.239-1.221,1.2.3,1.687-1.52-.79-1.513.8.282-1.69-1.232-1.19,1.694-.254Z" transform="translate(-276.755 -6.536)" fill="#fff"/>
          <path id="Trazado_912585" data-name="Trazado 912585" d="M541.17,12.289l.777,1.556,1.722.243-1.24,1.22.3,1.713-1.543-.8-1.536.816.286-1.716-1.251-1.208,1.72-.258Z" transform="translate(-284.931 -6.5)" fill="#fff"/>
          <path id="Trazado_912586" data-name="Trazado 912586" d="M543.737,7.481a.173.173,0,0,0-.159.181l0,1.131a.17.17,0,0,0,.34-.022l0-1.131a.172.172,0,0,0-.181-.159" transform="translate(-287.519 -3.957)" fill="#fff"/>
          <path id="Trazado_912587" data-name="Trazado 912587" d="M543.81,24.033a.173.173,0,0,0-.159.181l0,1.131a.17.17,0,0,0,.34-.022l-.005-1.131a.171.171,0,0,0-.18-.159" transform="translate(-287.557 -12.712)" fill="#fff"/>
          <path id="Trazado_912588" data-name="Trazado 912588" d="M552.166,17.075a.174.174,0,0,0-.181-.159l-1.13,0a.17.17,0,1,0,.022.34l1.13,0a.172.172,0,0,0,.159-.181" transform="translate(-291.283 -8.947)" fill="#fff"/>
          <path id="Trazado_912589" data-name="Trazado 912589" d="M535.614,17.148a.173.173,0,0,0-.18-.159l-1.131,0a.17.17,0,0,0,.022.34l1.131,0a.172.172,0,0,0,.159-.181" transform="translate(-282.528 -8.986)" fill="#fff"/>
          <path id="Trazado_912590" data-name="Trazado 912590" d="M549.68,10.27a.174.174,0,0,0-.24.016l-.8.8a.17.17,0,1,0,.255.225l.8-.8a.172.172,0,0,0-.016-.24" transform="translate(-290.176 -5.41)" fill="#fff"/>
          <path id="Trazado_912591" data-name="Trazado 912591" d="M538.026,22.026a.174.174,0,0,0-.24.016l-.8.8a.17.17,0,0,0,.255.225l.8-.8a.172.172,0,0,0-.016-.24" transform="translate(-284.012 -11.628)" fill="#fff"/>
          <path id="Trazado_912592" data-name="Trazado 912592" d="M549.747,23.017a.174.174,0,0,0-.016-.24l-.8-.8a.17.17,0,1,0-.225.255l.8.8a.172.172,0,0,0,.24-.016" transform="translate(-290.2 -11.604)" fill="#fff"/>
          <path id="Trazado_912593" data-name="Trazado 912593" d="M537.991,11.365a.174.174,0,0,0-.016-.24l-.8-.8a.17.17,0,1,0-.225.255l.8.8a.172.172,0,0,0,.24-.016" transform="translate(-283.982 -5.441)" fill="#fff"/>
        </g>
      </g>
    </g>
  </g>
</svg>
