<svg xmlns="http://www.w3.org/2000/svg" xmlns:xlink="http://www.w3.org/1999/xlink" width="299.22" height="249.293" viewBox="0 0 299.22 249.293">
  <defs>
    <clipPath id="clip-path">
      <rect id="Rectángulo_404055" data-name="Rectángulo 404055" width="298.678" height="190.105" fill="none"/>
    </clipPath>
  </defs>
  <g id="Grupo_1102786" data-name="Grupo 1102786" transform="translate(-1053.605 -10297.732)">
    <g id="Grupo_1101104" data-name="Grupo 1101104" transform="translate(453.617 9893.732)">
      <rect id="Rectángulo_35929" data-name="Rectángulo 35929" width="298.949" height="249.293" transform="translate(600.259 404)" fill="#f6ccb3"/>
      <rect id="Rectángulo_402739" data-name="Rectángulo 402739" width="298.949" height="81.071" transform="translate(599.988 404)" fill="#fef6ed"/>
      <g id="Rectángulo_402741" data-name="Rectángulo 402741" transform="translate(625.323 426.294)" fill="none" stroke="#fef6ed" stroke-width="3">
        <rect width="248.279" height="204.704" stroke="none"/>
        <rect x="1.5" y="1.5" width="245.279" height="201.704" fill="none"/>
      </g>
      <g id="Grupo_1101304" data-name="Grupo 1101304" transform="translate(600.259 440.893)">
        <g id="Grupo_1101301" data-name="Grupo 1101301">
          <g id="Grupo_1101300" data-name="Grupo 1101300" clip-path="url(#clip-path)">
            <path id="Trazado_912594" data-name="Trazado 912594" d="M106.427,5.4A17.348,17.348,0,0,0,94.9,19.107c-.468,3.553.232,7.338-1.311,10.6-1.34,2.835-4.146,4.763-6.937,6.376s-5.766,3.108-7.834,5.514-2.977,6.055-1.144,8.629c2.029,2.85,6.5,3.336,8.566,6.162,1.8,2.461,1.157,5.837.006,8.629s-2.762,5.55-2.705,8.548C83.6,76.931,85.83,79.99,88.663,82s6.233,3.131,9.585,4.189c5.739,1.811,11.587,3.53,17.623,3.853s12.357-.877,17.14-4.4,7.678-9.641,6.168-15.217c-.863-3.185-3.058-6.125-2.857-9.408.4-6.455,9.666-10.327,9.212-16.779-.492-6.99-11.849-9.556-12.562-16.53-.365-3.569,2.346-6.853,2.37-10.438a7.517,7.517,0,0,0-4.268-6.681c-2.253-1.083-4.8-.941-7.02-2.2C118.51,5.26,112.876,3.2,106.427,5.4" transform="translate(-40.646 -2.377)" fill="#773040"/>
            <path id="Trazado_912595" data-name="Trazado 912595" d="M127.693,59.982a3.2,3.2,0,0,0-.874-1,1.089,1.089,0,0,0-1.253-.015,1.506,1.506,0,0,0-.37,1.24,10.363,10.363,0,0,0,1.878,5.591,1.839,1.839,0,0,0,.594.6.714.714,0,0,0,.8-.043,1.078,1.078,0,0,0,.238-.823l.011-2.148" transform="translate(-66.359 -31.152)" fill="#e06753"/>
            <path id="Trazado_912596" data-name="Trazado 912596" d="M182.356,59.982a3.187,3.187,0,0,1,.874-1,1.089,1.089,0,0,1,1.253-.015,1.5,1.5,0,0,1,.37,1.24,10.363,10.363,0,0,1-1.878,5.591,1.839,1.839,0,0,1-.594.6.713.713,0,0,1-.8-.043,1.077,1.077,0,0,1-.238-.823q-.006-1.074-.011-2.148" transform="translate(-96.117 -31.152)" fill="#e06753"/>
            <path id="Trazado_912597" data-name="Trazado 912597" d="M123.911,126.21c-13.718-2.522-24.438-2.632-38.892,1.249a8.741,8.741,0,0,0-6.4,9.657c1.955,13.814,3.475,26.943,9.326,39.886-14.857,14.51-27.2,38.484-26.807,59.492h84.975c-2.275-19.925-11.725-42.835-22.335-59.706,5.322-11.993,8.214-22.455,10.953-34.062a13.621,13.621,0,0,0-10.821-16.516" transform="translate(-32.402 -65.946)" fill="#f6f6f6"/>
            <path id="Trazado_912598" data-name="Trazado 912598" d="M132.607,181.747l14.021-5.684-16.414-39.018a16.338,16.338,0,0,0-11.058-9.49,52.231,52.231,0,0,0-7.521-1.414c-7.262,13.706-12.794,28.771-17.8,43.435-5.39-13.924-11.9-28.464-16.585-42.76-3.164.53-5.641.849-8.085,1.267A16.162,16.162,0,0,0,57.015,137.7L39.247,179.555l14.021,5.684L67.615,161.4h0c2.8,5.415,5.745,10.83,8.373,16.513A95.992,95.992,0,0,0,55.6,207c5.835,6.535,13.466,12.667,23.2,11.45,9.4-1.41,13.159-11.279,14.1-19.738.47,6.109,2.35,12.219,6.109,16.918,5.169,5.639,13.159,5.169,18.8.94a58.6,58.6,0,0,0,9.819-9.24A167.355,167.355,0,0,0,112.643,177.7c2.754-6.068,5.124-11.8,7.227-17.511Z" transform="translate(-20.803 -66.862)" fill="#ee4f47"/>
            <path id="Trazado_912599" data-name="Trazado 912599" d="M153.375,248.349c1.452-10.13,1.138-19.542.952-29.782" transform="translate(-81.297 -115.852)" fill="none" stroke="#000" stroke-linecap="round" stroke-linejoin="round" stroke-width="1"/>
            <path id="Trazado_912600" data-name="Trazado 912600" d="M104.2,133.984c1.339,4.759,2.649,11.171,2.1,16.085l11.027,7.287-9.683-.623c3.261,4.643,7.364,8.616,11.2,12.793s7.49,8.677,9.577,13.952" transform="translate(-55.229 -71.018)" fill="none" stroke="#000" stroke-linecap="round" stroke-linejoin="round" stroke-width="1"/>
            <path id="Trazado_912601" data-name="Trazado 912601" d="M179.978,133.984c-1.339,4.759-2.649,11.171-2.1,16.085l-11.027,7.287,9.683-.623c-3.261,4.643-7.364,8.616-11.2,12.793s-7.49,8.677-9.577,13.952" transform="translate(-82.555 -71.018)" fill="none" stroke="#000" stroke-linecap="round" stroke-linejoin="round" stroke-width="1"/>
            <path id="Trazado_912602" data-name="Trazado 912602" d="M97.111,267.105a51.935,51.935,0,0,0,13.171,7.043" transform="translate(-51.474 -141.579)" fill="none" stroke="#000" stroke-linecap="round" stroke-linejoin="round" stroke-width="1"/>
            <path id="Trazado_912603" data-name="Trazado 912603" d="M175.22,275.333a32.216,32.216,0,0,0,14.071-5.091" transform="translate(-92.875 -143.242)" fill="none" stroke="#000" stroke-linecap="round" stroke-linejoin="round" stroke-width="1"/>
            <path id="Trazado_912604" data-name="Trazado 912604" d="M153.87,102.072c-4.016,3.1-12.36,9.409-12.36,9.409-.035-.027-8.556-6.31-12.572-9.409,1.137-.386,3.365-.7,4.5-1.081a118.393,118.393,0,0,0,.721-15.523q0-4.259-.3-8.5l7.44-.622v-.018l.1.009.108-.009v.018l7.44.622q-.311,4.423-.3,8.873a121.157,121.157,0,0,0,.678,15.155c1.137.386,3.408.695,4.545,1.081" transform="translate(-68.344 -40.455)" fill="#ff9685"/>
            <path id="Trazado_912605" data-name="Trazado 912605" d="M154.5,76.964q-.312,4.423-.3,8.873c-2.287,2.5-4.933,4.266-6.627,4.266h-1.232c-1.327,0-4.155-1.94-6.627-4.634q0-4.259-.3-8.5l7.44-.622v-.018l.1.009.108-.009v.018Z" transform="translate(-73.893 -40.455)"/>
            <path id="Trazado_912606" data-name="Trazado 912606" d="M150.348,30.293h-8.734a7.615,7.615,0,0,1-.735,1.539c-3.13,3.577-7.962,7.151-12.877,6.275l.936,11.783c0,6.209,8.312,14.125,12.141,14.125h1.341c2.867,0,12.141-7.915,12.141-14.125l.547-11.408a2.15,2.15,0,0,0-.477-1.462,55.346,55.346,0,0,1-4.079-6.612l-.2-.115" transform="translate(-67.847 -16.057)" fill="#ff9685"/>
            <path id="Trazado_912607" data-name="Trazado 912607" d="M157.214,85.745a5.514,5.514,0,0,1-8.447.379,8.661,8.661,0,0,1,8.447-.379" transform="translate(-78.854 -44.959)" fill="#961717"/>
            <path id="Trazado_912608" data-name="Trazado 912608" d="M156.742,83.107a5.5,5.5,0,0,1-.9,1.73,8.66,8.66,0,0,0-8.447.379,5.52,5.52,0,0,1-1.216-2.109Z" transform="translate(-77.483 -44.051)" fill="#520c0c"/>
            <path id="Trazado_912609" data-name="Trazado 912609" d="M158.335,68.6a2.9,2.9,0,0,0,1.836-2.823c-.416-2.546-1.016-5.059-1.055-6.1" transform="translate(-83.926 -31.631)" fill="none" stroke="#000" stroke-linecap="round" stroke-linejoin="round" stroke-width="1"/>
            <path id="Trazado_912610" data-name="Trazado 912610" d="M170.268,58.539a1.667,1.667,0,1,0,.746-2.236,1.667,1.667,0,0,0-.746,2.236" transform="translate(-90.157 -29.75)"/>
            <path id="Trazado_912611" data-name="Trazado 912611" d="M141.321,58.539a1.667,1.667,0,1,0,.746-2.236,1.667,1.667,0,0,0-.746,2.236" transform="translate(-74.814 -29.75)"/>
            <path id="Trazado_912612" data-name="Trazado 912612" d="M174.319,49.726a4.932,4.932,0,0,0-6.881-1.242" transform="translate(-88.751 -25.23)" fill="none" stroke="#773040" stroke-linecap="round" stroke-linejoin="round" stroke-width="2"/>
            <path id="Trazado_912613" data-name="Trazado 912613" d="M135.312,49.726a4.932,4.932,0,0,1,6.881-1.242" transform="translate(-71.722 -25.23)" fill="none" stroke="#773040" stroke-linecap="round" stroke-linejoin="round" stroke-width="2"/>
            <path id="Trazado_912614" data-name="Trazado 912614" d="M249.254,126.862c-6.288,14.632-17.033,42.992-16.827,46.281.275,4.4,2.413,8.6,5.5,10.29s7,.606,9.123-2.8c1.538-2.469,2.052-5.748,2.516-8.885q3.518-23.762,7.035-47.526Z" transform="translate(-123.196 -65.843)" fill="#ff9685"/>
            <path id="Trazado_912615" data-name="Trazado 912615" d="M285.052,117.1s-7.2,1.162-7.832,1.307c-2.905.665-6.158-.2-8.347,1.462-1.343,1.023-1.841,6.1.511,7.543,4.23,2.591,11.166,1.579,16.5.986,1.82-3.91.838-7.348-.833-11.3" transform="translate(-141.917 -62.071)" fill="#ff9685"/>
            <path id="Trazado_912616" data-name="Trazado 912616" d="M302.544,113.9c3.628-.925,7.563-1.227,10.78-2.823.751-2.291.994-5.026,1.552-7.2a2.1,2.1,0,0,0-1.687-.05c-.493.2-2.46,3.8-2.784,4.962,0,0-5.987,1.062-8.935,1.416Z" transform="translate(-159.794 -54.954)" fill="#ff9685"/>
            <path id="Trazado_912617" data-name="Trazado 912617" d="M305.2,119.359a68.433,68.433,0,0,0,12.089-3.007c1.391-1.939,1.118-3.566,2.992-5.981a2.066,2.066,0,0,0-1.666-.212,3.521,3.521,0,0,0-1.31.783,8.967,8.967,0,0,0-2.322,3.045,57.489,57.489,0,0,1-11.914,2.193Z" transform="translate(-160.64 -58.347)" fill="#ff9685"/>
            <path id="Trazado_912618" data-name="Trazado 912618" d="M302.741,127.077c3.815-.147,8.355-.15,12-1.029,1.735-1.765,2.381-3.918,4.582-6.193a1.987,1.987,0,0,0-1.609-.4,3.845,3.845,0,0,0-1.441.63,10,10,0,0,0-2.86,2.756,59.056,59.056,0,0,1-12.2.847Z" transform="translate(-159.662 -63.305)" fill="#ff9685"/>
            <path id="Trazado_912619" data-name="Trazado 912619" d="M299.2,133.806a64.215,64.215,0,0,0,11.28-1.4c1.578-1.578,2.112-3.491,3.712-5a1.782,1.782,0,0,0-1.444-.365,3.486,3.486,0,0,0-1.3.558,9.058,9.058,0,0,0-2.6,2.463,53.176,53.176,0,0,1-10.98.689Z" transform="translate(-157.884 -67.327)" fill="#ff9685"/>
            <path id="Trazado_912620" data-name="Trazado 912620" d="M316.633,127.347a2.873,2.873,0,0,0-2.327.09,6.272,6.272,0,0,0-1.737,1.325l-1.235,1.2c-2.981.294-5.825.568-8.805.862" transform="translate(-160.355 -67.391)" fill="none" stroke="#000" stroke-linecap="round" stroke-linejoin="round" stroke-width="1"/>
            <path id="Trazado_912621" data-name="Trazado 912621" d="M323.481,119.793a4.472,4.472,0,0,0-3.7.621,8.746,8.746,0,0,0-2.29,2.516,45.616,45.616,0,0,1-8.311,1.292" transform="translate(-163.879 -63.404)" fill="none" stroke="#000" stroke-linecap="round" stroke-linejoin="round" stroke-width="1"/>
            <path id="Trazado_912622" data-name="Trazado 912622" d="M305.3,116.2a72.328,72.328,0,0,0,10.717-2.093,9.237,9.237,0,0,1,1.9-2.692,4.731,4.731,0,0,1,3.457-1.225" transform="translate(-161.826 -58.4)" fill="none" stroke="#000" stroke-linecap="round" stroke-linejoin="round" stroke-width="1"/>
            <path id="Trazado_912623" data-name="Trazado 912623" d="M268.992,112.607c1.264-3.106,13.616-8.362,16.43-10.559.885.008-.157,2.534-1.167,3.536A32.171,32.171,0,0,1,279.962,109a6.874,6.874,0,0,1-1.447,5.709,8.132,8.132,0,0,1-5.141,2.654c-2.1.224-3.431-3.284-4.381-4.753" transform="translate(-142.579 -54.091)" fill="#ff9685"/>
            <path id="Trazado_912624" data-name="Trazado 912624" d="M285.611,116.834c.145,3.2-2.279,6.387-5.961,7.836" transform="translate(-148.229 -61.928)" fill="none" stroke="#000" stroke-linecap="round" stroke-linejoin="round" stroke-width="1"/>
            <path id="Trazado_912625" data-name="Trazado 912625" d="M195,190.623c6.752-13.808,10.169-26.547,15.254-39.822" transform="translate(-103.358 -79.932)" fill="none" stroke="#000" stroke-linecap="round" stroke-linejoin="round" stroke-width="1"/>
            <path id="Trazado_912626" data-name="Trazado 912626" d="M134.192,232.17c-3.34-1.015-10.527-.714-15.366-1a34.931,34.931,0,0,0-1.139,6.507c3.332,2.849,4.779,4.992,10.354,4.849a26.107,26.107,0,0,0,6.15-10.356" transform="translate(-62.38 -122.531)" fill="#ff9685"/>
            <path id="Trazado_912627" data-name="Trazado 912627" d="M120.111,229.2a18.174,18.174,0,0,1,11.505-1.354c2.674.571,5.494,1.56,8.148,2.316a.366.366,0,0,1,.166.6c-.774.8-3.112.872-4.551,1a33.768,33.768,0,0,1-15.268-2.565" transform="translate(-63.665 -120.564)" fill="#ff9685"/>
            <path id="Trazado_912628" data-name="Trazado 912628" d="M146.119,232.144l9.926,2.523a17.124,17.124,0,0,0,4.8,3.651c-1.2,1.642-4.867-.2-6.517-1.81-2.7-.259-5.345-.673-8.04-.933a2.172,2.172,0,0,1-1.3-.416,1.467,1.467,0,0,1-.3-1.5c.16-.515,1.091-1.093,1.43-1.513" transform="translate(-76.65 -123.048)" fill="#ff9685"/>
            <path id="Trazado_912629" data-name="Trazado 912629" d="M139.58,243.913l9.926,2.523a17.124,17.124,0,0,0,4.8,3.651c-1.2,1.642-4.867-.2-6.517-1.81-2.7-.259-5.345-.673-8.04-.933a2.172,2.172,0,0,1-1.3-.416,1.467,1.467,0,0,1-.3-1.5c.16-.515,1.091-1.093,1.43-1.513" transform="translate(-73.184 -129.286)" fill="#ff9685"/>
            <path id="Trazado_912630" data-name="Trazado 912630" d="M133.3,248.117l9.136,2.322a15.753,15.753,0,0,0,4.421,3.36c-1.1,1.512-4.48-.18-6-1.665-2.481-.239-4.92-.62-7.4-.859a2,2,0,0,1-1.193-.383,1.35,1.35,0,0,1-.28-1.383c.148-.474,1-1.006,1.316-1.392" transform="translate(-69.916 -131.515)" fill="#ff9685"/>
            <path id="Trazado_912631" data-name="Trazado 912631" d="M144.986,238.1l10.461,2.659a18.045,18.045,0,0,0,5.062,3.847c-1.26,1.731-5.129-.206-6.868-1.907-2.84-.274-5.633-.71-8.474-.983a2.288,2.288,0,0,1-1.367-.438,1.547,1.547,0,0,1-.321-1.583c.169-.543,1.15-1.152,1.507-1.595" transform="translate(-76.006 -126.208)" fill="#ff9685"/>
            <path id="Trazado_912632" data-name="Trazado 912632" d="M137.169,231.643a36.524,36.524,0,0,1,12.21,1.959" transform="translate(-72.707 -122.783)" fill="none" stroke="#000" stroke-linecap="round" stroke-linejoin="round" stroke-width="0.75"/>
            <path id="Trazado_912633" data-name="Trazado 912633" d="M52.779,238.068c-3.87.86-7.955,1.71-11.716.419-2.215-.761-4.392-2.644-4.381-5.1.008-1.836,1.913-4.9,3.288-6.028,4.3-3.526,8.82-4.162,14.267-4.237,8.217-.113,14.173,3.779,25.2,3.274-.025,0-1.924,5.29-2.7,5.934-1.44,1.2-3.969,1.294-5.684,1.675l-18.279,4.061" transform="translate(-19.443 -118.266)" fill="#ff9685"/>
            <path id="Trazado_912634" data-name="Trazado 912634" d="M376.038,69.379H341.622a2.685,2.685,0,0,1-2.685-2.685V54.74a2.685,2.685,0,0,1,2.685-2.685h34.416a2.685,2.685,0,0,1,2.685,2.685V66.694a2.685,2.685,0,0,1-2.685,2.685" transform="translate(-179.654 -27.592)" fill="#fbcc34"/>
            <path id="Trazado_912635" data-name="Trazado 912635" d="M409.988,81.426l14.785,8.5-10.206-12.7Z" transform="translate(-217.314 -40.935)" fill="#fbcc34"/>
            <line id="Línea_1753" data-name="Línea 1753" x2="28.59" transform="translate(164.823 30.28)" fill="none" stroke="#fff" stroke-linecap="round" stroke-linejoin="round" stroke-width="1"/>
            <line id="Línea_1754" data-name="Línea 1754" x2="28.59" transform="translate(164.823 32.726)" fill="none" stroke="#fff" stroke-linecap="round" stroke-linejoin="round" stroke-width="1"/>
            <line id="Línea_1755" data-name="Línea 1755" x2="11.293" transform="translate(164.823 35.173)" fill="none" stroke="#fff" stroke-linecap="round" stroke-linejoin="round" stroke-width="1"/>
            <path id="Trazado_912636" data-name="Trazado 912636" d="M342.06,31.861l.965,1.955,2.158.313-1.562,1.522.368,2.15-1.93-1.015L340.13,37.8l.368-2.15-1.562-1.522,2.158-.313Z" transform="translate(-179.654 -16.888)" fill="#fbcc34"/>
            <path id="Trazado_912637" data-name="Trazado 912637" d="M359.652,31.861l.965,1.955,2.158.313-1.562,1.522.368,2.15-1.93-1.015-1.93,1.015.368-2.15-1.562-1.522,2.158-.313Z" transform="translate(-188.978 -16.888)" fill="#fbcc34"/>
            <path id="Trazado_912638" data-name="Trazado 912638" d="M377.244,31.861l.965,1.955,2.158.313-1.562,1.522.368,2.15-1.93-1.015-1.93,1.015.368-2.15-1.562-1.522,2.158-.313Z" transform="translate(-198.303 -16.888)" fill="#fbcc34"/>
            <path id="Trazado_912639" data-name="Trazado 912639" d="M394.837,31.861l.965,1.955,2.158.313L396.4,35.652l.368,2.15-1.93-1.015-1.93,1.015.368-2.15-1.562-1.522,2.158-.313Z" transform="translate(-207.628 -16.888)" fill="#fbcc34"/>
            <path id="Trazado_912640" data-name="Trazado 912640" d="M412.429,31.861l.965,1.955,2.158.313-1.562,1.522.368,2.15-1.93-1.015L410.5,37.8l.368-2.15-1.562-1.522,2.158-.313Z" transform="translate(-216.953 -16.888)" fill="#fbcc34"/>
            <path id="Trazado_912641" data-name="Trazado 912641" d="M275.561,243.3H198.81a1.521,1.521,0,0,1-1.486-2.1l14.127-48.115a3.042,3.042,0,0,1,2.722-2.1h76.75a1.521,1.521,0,0,1,1.486,2.1L278.283,241.2a3.043,3.043,0,0,1-2.722,2.1" transform="translate(-104.544 -101.228)" fill="#323e78"/>
            <path id="Trazado_912642" data-name="Trazado 912642" d="M281.319,243.3h-76.75a1.521,1.521,0,0,1-1.486-2.1l14.127-48.115a3.042,3.042,0,0,1,2.722-2.1h76.75a1.521,1.521,0,0,1,1.486,2.1L284.041,241.2a3.042,3.042,0,0,1-2.722,2.1" transform="translate(-107.596 -101.228)"/>
            <path id="Trazado_912643" data-name="Trazado 912643" d="M278,273.555h-1.4l15,26.121H275.337V301h18.071v-1.386Z" transform="translate(-145.943 -144.998)" fill="#323e78"/>
            <path id="Trazado_912644" data-name="Trazado 912644" d="M297.342,273.555H281l15.411,26.06V301h15.8V299.44Z" transform="translate(-148.943 -144.998)"/>
            <rect id="Rectángulo_404051" data-name="Rectángulo 404051" width="260.017" height="19.558" transform="translate(6.11 170.547)" fill="#773040"/>
            <rect id="Rectángulo_404052" data-name="Rectángulo 404052" width="272.237" height="8.035" transform="translate(0 155.592)" fill="#773040"/>
            <rect id="Rectángulo_404053" data-name="Rectángulo 404053" width="272.237" height="6.92" transform="translate(0 163.627)" fill="#52212c"/>
            <rect id="Rectángulo_404054" data-name="Rectángulo 404054" width="67.778" height="10.897" transform="translate(78.241 144.695)" fill="#fbcc34"/>
          </g>
        </g>
        <g id="Grupo_1101303" data-name="Grupo 1101303">
          <g id="Grupo_1101302" data-name="Grupo 1101302" clip-path="url(#clip-path)">
            <path id="Trazado_912645" data-name="Trazado 912645" d="M604.237,224.544c.227,3.382.16,7.238-2.333,9.535-1.845,1.7-4.524,2.052-7.02,2.3q-9.04.907-18.112,1.447c1.791-.107,2.105-41.269,2.105-45.133q0-11.407-.535-22.806c-.227-4.842-3.262-17.332-.668-21.094,8.424,9.811,14.107,23.759,18.35,35.855a151.446,151.446,0,0,1,8.213,39.893" transform="translate(-305.644 -78.869)" fill="#ca7441"/>
            <path id="Trazado_912646" data-name="Trazado 912646" d="M592.809,224.544c.133,3.382.094,7.238-1.367,9.535a5.362,5.362,0,0,1-4.114,2.3q-5.3.907-10.615,1.447c1.049-.107,1.234-41.269,1.234-45.133q0-11.407-.314-22.806c-.133-4.842-1.911-17.332-.391-21.094,4.937,9.811,8.268,23.759,10.754,35.855a247.423,247.423,0,0,1,4.813,39.893" transform="translate(-305.644 -78.869)"/>
            <path id="Trazado_912647" data-name="Trazado 912647" d="M464.287,4.446A15.126,15.126,0,0,1,476.4.071a9.6,9.6,0,0,1,4.892,1.746,5.639,5.639,0,0,1,2.33,4.5A8.255,8.255,0,0,1,493.2,7.9a8.256,8.256,0,0,1,1.027,9.656,4.334,4.334,0,0,1,4.389,2.734,7.1,7.1,0,0,1-.245,5.419,21.065,21.065,0,0,1-3.019,4.661L483.853,45.089c.6-.764-4.192-7.809-4.782-8.729a73.459,73.459,0,0,0-13.189-15.4c-2.021-1.786-5.925-3.488-5.864-6.383a15.109,15.109,0,0,1,4.268-10.134" transform="translate(-243.833 0)" fill="#b85123"/>
            <path id="Trazado_912648" data-name="Trazado 912648" d="M491.929,77.979c5.228,13.247,8.133,25.355,13.361,38.6-8.643,1.908-17.023,4.62-25.666,6.527-1.321-13.014-1.509-25.784-2.83-38.8,3.994-2.663,11.141-3.668,15.135-6.331" transform="translate(-252.725 -41.333)" fill="#ffa973"/>
            <path id="Trazado_912649" data-name="Trazado 912649" d="M489.608,75.556c.032.081.063.163.1.243-2.646,8.377-6.23,17.546-11.594,24.937-.346-5.884-.713-11.772-1.316-17.711,3.994-2.663,8.82-4.806,12.814-7.469" transform="translate(-252.725 -40.049)"/>
            <path id="Trazado_912650" data-name="Trazado 912650" d="M468.841,43.472c.946-2.207,4.286-2.632,6.092-1.049a5.735,5.735,0,0,1,1.026,6.632,10.366,10.366,0,0,1-5.269,4.692,19.144,19.144,0,0,1,0,4.32c-.485,2.124-18.446,10.222-21.414,9.369-1.541-.443-.928-2.535-1.074-3.5-.431-2.829-1.866-5.575-2.3-8.4-.919-.283-3.848-.951-3.853-1.47-.017-1.645,4.714-7.943,5.527-11.394a22.433,22.433,0,0,1-1.026-3.076c1.122-3.767,2.695-9.023,5.075-12.151a49.071,49.071,0,0,1,10.637,2.994c-.273,1.821-.337,3.752-.61,5.573,2.352,2.263,4.837,5.2,7.189,7.465" transform="translate(-234.308 -14.545)" fill="#ffa973"/>
            <path id="Trazado_912651" data-name="Trazado 912651" d="M506.018,62.158a2.67,2.67,0,0,0-4.176,2.857,1.008,1.008,0,1,1,.438,1.83" transform="translate(-265.952 -32.671)" fill="none" stroke="#000" stroke-linecap="round" stroke-linejoin="round" stroke-width="1"/>
            <path id="Trazado_912652" data-name="Trazado 912652" d="M460.522,88.714l3.3-.644a15.888,15.888,0,0,1-6.888,5,10.1,10.1,0,0,1,3.584-4.358" transform="translate(-242.2 -46.682)" fill="#7a0c0c"/>
            <path id="Trazado_912653" data-name="Trazado 912653" d="M454.459,90.365l4.749-.925a10.1,10.1,0,0,0-3.584,4.358c-.12.042-.241.085-.362.124-.243-1.092-.56-2.464-.8-3.557" transform="translate(-240.886 -47.408)" fill="#520c0c"/>
            <path id="Trazado_912654" data-name="Trazado 912654" d="M457.77,58.86a1.277,1.277,0,1,0,1.235-1.528,1.4,1.4,0,0,0-1.235,1.528" transform="translate(-242.641 -30.389)"/>
            <path id="Trazado_912655" data-name="Trazado 912655" d="M464.419,51.13a8.3,8.3,0,0,0-4.527-2.08,2.857,2.857,0,0,0-1.216.055,1.254,1.254,0,0,0-.854.81" transform="translate(-242.668 -25.978)" fill="none" stroke="#000" stroke-linecap="round" stroke-linejoin="round" stroke-width="2"/>
            <path id="Trazado_912656" data-name="Trazado 912656" d="M443.626,127.7c-.164-1.817-.319-3.733-.483-5.55a62.274,62.274,0,0,1,31.194-10.022c.639,1.5,1.594,3.175,2.233,4.671a39.826,39.826,0,0,1,7.364,1.438,31.3,31.3,0,0,1,21.984,24.614,196.273,196.273,0,0,1,1.2,57.944c-1.2,9.284,3.569,24.422-5.662,26.2H432.213c-4.771-1.739-.794-20.893-.794-20.893-.795-20.693-3.069-50.943-5.719-65.876,4.554-7.627,17.927-12.53,17.927-12.53" transform="translate(-225.642 -59.435)" fill="#ca7441"/>
            <path id="Trazado_912657" data-name="Trazado 912657" d="M446.006,184.577c-2.183,9.459-6.9,18.07-12.412,26.057.92,11.682,1.578,23.94,2.06,35.032,5.009-6.2,7.883-14.516,10.352-21.614,4.229-12.689,6.109-27.257,0-39.476" transform="translate(-229.827 -97.835)"/>
            <path id="Trazado_912658" data-name="Trazado 912658" d="M502.273,123.431a67.944,67.944,0,0,0-34.4,10.012" transform="translate(-247.998 -65.425)" fill="none" stroke="#000" stroke-linecap="round" stroke-linejoin="round" stroke-width="1"/>
            <path id="Trazado_912659" data-name="Trazado 912659" d="M525.8,184.49a126.8,126.8,0,0,0-59.621,9.3" transform="translate(-247.096 -97.541)" fill="none" stroke="#000" stroke-linecap="round" stroke-linejoin="round" stroke-width="1"/>
            <path id="Trazado_912660" data-name="Trazado 912660" d="M538.873,186.6a225.211,225.211,0,0,1,1.719,79.44" transform="translate(-285.63 -98.906)" fill="none" stroke="#000" stroke-linecap="round" stroke-linejoin="round" stroke-width="1"/>
            <path id="Trazado_912661" data-name="Trazado 912661" d="M439.559,356.564l1.17,22.538H520.2s-4.195-17.548-11.406-22.538Z" transform="translate(-232.989 -188.997)" fill="#12263f"/>
            <line id="Línea_1756" data-name="Línea 1756" x2="70.002" transform="translate(207.741 172.739)" fill="none" stroke="#000" stroke-linecap="round" stroke-linejoin="round" stroke-width="1"/>
            <path id="Trazado_912662" data-name="Trazado 912662" d="M444.867,372.938a3.083,3.083,0,0,0,1.6,2.279,9.105,9.105,0,0,0,2.736.909l13.023,2.84" transform="translate(-235.802 -197.676)" fill="none" stroke="#000" stroke-linecap="round" stroke-linejoin="round" stroke-width="1"/>
            <path id="Trazado_912663" data-name="Trazado 912663" d="M353.724,214.59c-5.145-12.351-12.8-24-17.883-36.319-3.618,1.3-5.347,1.593-8.964,2.894a202.74,202.74,0,0,0,14.743,52.672,51.764,51.764,0,0,1,12.1-19.248" transform="translate(-173.262 -94.493)" fill="#ffa973"/>
            <path id="Trazado_912664" data-name="Trazado 912664" d="M398.832,158.237c-4.764,1.088-8.686,4.608-11.322,8.723s-4.158,8.828-5.652,13.48l-9.281,28.9q-1.106-2.679-2.226-5.366a51.771,51.771,0,0,0-12.1,19.247q2.646,6.12,5.688,12.048A7.986,7.986,0,0,0,375.825,238a95.722,95.722,0,0,0,18.464-17.509c7.165-9.209,12.371-20.154,13.639-31.753a38.924,38.924,0,0,0-9.1-30.5" transform="translate(-189.89 -83.874)" fill="#ca7441"/>
            <path id="Trazado_912665" data-name="Trazado 912665" d="M381.558,287.028a37.18,37.18,0,0,1,3.875-22.234" transform="translate(-202.062 -140.354)" fill="none" stroke="#000" stroke-linecap="round" stroke-linejoin="round" stroke-width="1"/>
            <path id="Trazado_912666" data-name="Trazado 912666" d="M331.12,173.035a94.961,94.961,0,0,1,.521-20.892c-4.106-3.64-14.608-.56-15.68.078-1.594.948-2.045,3.01-2.346,4.84a5.957,5.957,0,0,0,.133,3.5c.508,1.073,2,1.75,2.924,1a4.532,4.532,0,0,0-2.054,4.864,9.144,9.144,0,0,0,2.139,3.6l5.424,6.556c3.171-.2,6.289-1.8,8.939-3.549" transform="translate(-166.128 -79.719)" fill="#ffa973"/>
            <path id="Trazado_912667" data-name="Trazado 912667" d="M345.474,140.148q1.825-12.116,3.649-24.232a4.882,4.882,0,0,0-3.5,2.5,13.171,13.171,0,0,0-1.465,4.114,158.019,158.019,0,0,0-2.828,16.051" transform="translate(-180.924 -61.441)" fill="#ffa973"/>
            <path id="Trazado_912668" data-name="Trazado 912668" d="M320.152,171.52a5.255,5.255,0,0,1,.447-5.875" transform="translate(-169.329 -87.8)" fill="none" stroke="#000" stroke-linecap="round" stroke-linejoin="round" stroke-width="1"/>
            <path id="Trazado_912669" data-name="Trazado 912669" d="M316.714,168.693l1.336,1.216" transform="translate(-167.874 -89.416)" fill="none" stroke="#000" stroke-linecap="round" stroke-linejoin="round" stroke-width="1"/>
            <path id="Trazado_912670" data-name="Trazado 912670" d="M320.58,153.8a13.925,13.925,0,0,1,7.1,2.785" transform="translate(-169.924 -81.521)" fill="none" stroke="#000" stroke-linecap="round" stroke-linejoin="round" stroke-width="1"/>
            <path id="Trazado_912671" data-name="Trazado 912671" d="M329.921,151.387a7.7,7.7,0,0,1,5.237,2.419" transform="translate(-174.875 -80.243)" fill="none" stroke="#000" stroke-linecap="round" stroke-linejoin="round" stroke-width="1"/>
            <path id="Trazado_912672" data-name="Trazado 912672" d="M338.214,150.57a11.031,11.031,0,0,1,4.209.442" transform="translate(-179.271 -79.787)" fill="none" stroke="#000" stroke-linecap="round" stroke-linejoin="round" stroke-width="1"/>
            <rect id="Rectángulo_404056" data-name="Rectángulo 404056" width="60.586" height="1.612" transform="translate(15.344 153.979)"/>
            <path id="Trazado_912673" data-name="Trazado 912673" d="M66.208,321.764s-3.425-7.464-15.538-4.54-12.684,2.715-12.684,2.715l-.822,1.825Z" transform="translate(-19.698 -167.785)" fill="#fff8f8"/>
            <path id="Trazado_912674" data-name="Trazado 912674" d="M93.765,321.764s3.425-7.464,15.538-4.54,12.685,2.715,12.685,2.715l.821,1.825Z" transform="translate(-49.7 -167.785)" fill="#fff8f8"/>
            <path id="Trazado_912675" data-name="Trazado 912675" d="M230.986,37.768h40.126a2.685,2.685,0,0,0,2.684-2.685V23.107a2.684,2.684,0,0,0-2.684-2.684H230.986a2.684,2.684,0,0,0-2.684,2.684V35.084a2.685,2.685,0,0,0,2.684,2.685" transform="translate(-121.012 -10.825)" fill="#12263f"/>
            <path id="Trazado_912676" data-name="Trazado 912676" d="M225.651,50.723,212.874,58.07l8.82-10.974Z" transform="translate(-112.834 -24.963)" fill="#12263f"/>
            <line id="Línea_1757" data-name="Línea 1757" x1="24.707" transform="translate(112.177 15.812)" fill="none" stroke="#fff" stroke-linecap="round" stroke-linejoin="round" stroke-width="1"/>
            <line id="Línea_1758" data-name="Línea 1758" x1="24.707" transform="translate(112.177 17.926)" fill="none" stroke="#fff" stroke-linecap="round" stroke-linejoin="round" stroke-width="1"/>
            <line id="Línea_1759" data-name="Línea 1759" x1="9.759" transform="translate(127.125 20.04)" fill="none" stroke="#fff" stroke-linecap="round" stroke-linejoin="round" stroke-width="1"/>
            <path id="Trazado_912677" data-name="Trazado 912677" d="M301.828,24.754l1.682,1.131c.187.125.186.218,0,.344l-1.575,1.06c-.066.045-.132.1-.217.048s-.079-.129-.079-.21c0-.194,0-.388,0-.582,0-.068-.018-.089-.087-.081a4.755,4.755,0,0,0-1.691,8.947,4.647,4.647,0,0,0,2.522.524,4.706,4.706,0,0,0,2.278-.768,4.6,4.6,0,0,0,.58-.451c.048-.044.077-.046.124,0,.176.194.354.384.536.571.054.055.055.083,0,.136a5.343,5.343,0,0,1-2.044,1.191,5.591,5.591,0,0,1-5.8-1.354,5.33,5.33,0,0,1-1.658-3.294,5.579,5.579,0,0,1,1.84-5.027,5.474,5.474,0,0,1,3-1.412c.11-.016.219-.032.329-.039.063,0,.078-.029.077-.088,0-.146,0-.293,0-.439a.233.233,0,0,1,.1-.215Z" transform="translate(-157.073 -13.121)" fill="#fff"/>
            <path id="Trazado_912678" data-name="Trazado 912678" d="M313.932,27.9l-.039.058c-.149.214-.3.426-.448.642-.04.059-.07.068-.13.026a4.345,4.345,0,0,0-.67-.377c-.06-.027-.071-.055-.043-.116.109-.241.215-.484.318-.727.026-.062.052-.073.115-.044a5.928,5.928,0,0,1,.845.478c.022.015.052.023.053.06" transform="translate(-165.687 -14.493)" fill="#fff"/>
            <path id="Trazado_912679" data-name="Trazado 912679" d="M316.538,31.606c-.039.005-.048-.026-.062-.047a4.989,4.989,0,0,0-.481-.632c-.044-.048-.032-.077.011-.116.2-.181.4-.363.592-.548.05-.047.074-.031.112.011a6.257,6.257,0,0,1,.587.775c.031.049.036.075-.021.109-.234.139-.466.283-.7.426l-.039.023" transform="translate(-167.479 -16.025)" fill="#fff"/>
            <path id="Trazado_912680" data-name="Trazado 912680" d="M306.471,39.633h-3.637l.133-.855,1.908-1.772.262-.262a1.521,1.521,0,0,0,.563-1.168.421.421,0,0,0-.442-.438.582.582,0,0,0-.481.23,1.18,1.18,0,0,0-.245.621l-1.2.008a1.841,1.841,0,0,1,.306-.923,1.9,1.9,0,0,1,.739-.654,2.11,2.11,0,0,1,.985-.232,1.742,1.742,0,0,1,1.216.426,1.307,1.307,0,0,1,.376,1.11,1.813,1.813,0,0,1-.271.8,4.143,4.143,0,0,1-.691.821l-.56.516-.833.8,2.026.007Z" transform="translate(-160.518 -18.121)" fill="#fff"/>
            <path id="Trazado_912681" data-name="Trazado 912681" d="M315.59,37.611h.527l-.166.958h-.527l-.2,1.139h-1.212l.2-1.139H312.2l.067-.818,2.634-3.4v-.026l1.253.018Zm-2.126-.008.914.008.324-1.666Z" transform="translate(-165.483 -18.196)" fill="#fff"/>
          </g>
        </g>
      </g>
    </g>
  </g>
</svg>
