<svg xmlns="http://www.w3.org/2000/svg" width="53.61" height="55.089" viewBox="0 0 53.61 55.089">
  <path id="Trazado_911932" data-name="Trazado 911932" d="M64.166,34.652c.053.617.082,1.244.089,1.866l.372-.469a.889.889,0,0,1,1.392,1.1L64,39.7a.889.889,0,0,1-.7.336H63.3a.889.889,0,0,1-.7-.345l-1.987-2.572a.889.889,0,1,1,1.406-1.086l.46.6c0-.608-.032-1.22-.083-1.824a.888.888,0,0,1,1.77-.152ZM25.755,18.088a.884.884,0,0,0,.509-.161q.7-.489,1.434-.925l-.262.606a.889.889,0,1,0,1.631.706l1.292-2.982A.888.888,0,0,0,29.69,14.1l-3.2-.539a.889.889,0,1,0-.295,1.752l.675.114q-.831.49-1.621,1.042a.889.889,0,0,0,.51,1.616Zm32.553,5.49a.889.889,0,1,0,1.454-1.022A24.992,24.992,0,0,0,57,19.272a.888.888,0,0,0-1.257,1.256A23.225,23.225,0,0,1,58.309,23.577ZM16.127,31.448a.887.887,0,0,0,1.088-.628,22.916,22.916,0,0,1,1.363-3.742.888.888,0,1,0-1.61-.751A24.693,24.693,0,0,0,15.5,30.36.888.888,0,0,0,16.127,31.448Zm-.419,8.3a.888.888,0,0,0,.809-.961c-.057-.659-.085-1.329-.085-1.992s.029-1.332.085-1.992a.889.889,0,0,0-1.771-.152c-.061.711-.092,1.432-.092,2.144s.031,1.434.092,2.144a.889.889,0,0,0,.884.813c.026,0,.051,0,.077,0ZM49.2,15.932a23.066,23.066,0,0,1,3.447,1.994.889.889,0,1,0,1.02-1.456,24.85,24.85,0,0,0-3.713-2.148.888.888,0,0,0-.753,1.609ZM61.7,30.82a.889.889,0,0,0,1.716-.46,24.719,24.719,0,0,0-1.469-4.033.888.888,0,1,0-1.61.751A22.938,22.938,0,0,1,61.7,30.82Zm-42.33-7.027a.888.888,0,0,0,1.238-.216,23.214,23.214,0,0,1,2.562-3.049.889.889,0,1,0-1.257-1.256,24.99,24.99,0,0,0-2.758,3.283.889.889,0,0,0,.216,1.238ZM52.648,55.665A23.092,23.092,0,0,1,49.2,57.659a.888.888,0,1,0,.753,1.609,24.846,24.846,0,0,0,3.713-2.148.889.889,0,1,0-1.02-1.456ZM45.4,59.043a23.018,23.018,0,0,1-3.922.687.889.889,0,0,0,.076,1.774c.026,0,.052,0,.078,0a24.778,24.778,0,0,0,4.226-.741.888.888,0,1,0-.458-1.717Zm-7.969.688c-.661-.058-1.322-.144-1.978-.259l.715-.277a.889.889,0,0,0-.641-1.658L32.5,58.709a.888.888,0,0,0-.407,1.338l1.864,2.662a.889.889,0,1,0,1.456-1.019l-.338-.482c.731.13,1.468.229,2.206.293.026,0,.052,0,.078,0a.888.888,0,0,0,.076-1.774ZM18.579,46.514a22.94,22.94,0,0,1-1.363-3.742.889.889,0,0,0-1.716.461,24.725,24.725,0,0,0,1.469,4.033.889.889,0,1,0,1.611-.751Zm49.567,6.221a.888.888,0,0,1-.769.444H54.9a.889.889,0,0,1-.769-1.333l6.237-10.8a.888.888,0,0,1,1.539,0l6.237,10.8A.889.889,0,0,1,68.146,52.735ZM65.837,51.4l-4.7-8.137-4.7,8.137ZM30.473,55.2a6.29,6.29,0,1,1-6.29-6.29A6.3,6.3,0,0,1,30.473,55.2Zm-1.777,0a4.513,4.513,0,1,0-4.513,4.513A4.518,4.518,0,0,0,28.7,55.2Zm4.47-38.319V8.889A.889.889,0,0,1,34.055,8h10.8a.889.889,0,0,1,.889.889v7.99a.889.889,0,0,1-.889.889h-10.8a.889.889,0,0,1-.889-.889Zm1.777-.889h9.025V9.777H34.944ZM51.011,45.746l-2.6,2.605a.888.888,0,0,1-.989.184l-1.791-.8A12.476,12.476,0,0,1,42.831,48.9l-.7,1.828a.888.888,0,0,1-.829.569H37.614a.889.889,0,0,1-.829-.569l-.7-1.829a12.469,12.469,0,0,1-2.794-1.158l-1.792.8a.889.889,0,0,1-.989-.184l-2.6-2.6a.888.888,0,0,1-.184-.989l.8-1.791a12.472,12.472,0,0,1-1.159-2.795l-1.828-.7a.888.888,0,0,1-.569-.829V34.954a.889.889,0,0,1,.569-.829l1.828-.7a12.477,12.477,0,0,1,1.158-2.794l-.8-1.792a.888.888,0,0,1,.184-.989l2.6-2.6a.888.888,0,0,1,.989-.184l1.792.8A12.472,12.472,0,0,1,36.081,24.7l.7-1.829a.888.888,0,0,1,.829-.569H41.3a.889.889,0,0,1,.829.569l.7,1.829a12.474,12.474,0,0,1,2.794,1.158l1.792-.8a.889.889,0,0,1,.989.184l2.6,2.6a.888.888,0,0,1,.184.989l-.8,1.791a12.477,12.477,0,0,1,1.159,2.795l1.828.7a.888.888,0,0,1,.569.829v3.684a.889.889,0,0,1-.569.829l-1.829.7A12.478,12.478,0,0,1,50.4,42.965l.8,1.792a.888.888,0,0,1-.184.989Zm-.519-7.069,1.686-.649V35.564l-1.686-.649a.888.888,0,0,1-.545-.624,10.71,10.71,0,0,0-1.3-3.142.888.888,0,0,1-.056-.827l.734-1.652-1.742-1.742-1.653.734a.888.888,0,0,1-.827-.055,10.71,10.71,0,0,0-3.141-1.3.888.888,0,0,1-.624-.545l-.649-1.686H38.224l-.649,1.686a.889.889,0,0,1-.624.545,10.711,10.711,0,0,0-3.141,1.3.888.888,0,0,1-.826.055l-1.653-.734-1.742,1.742.734,1.652a.888.888,0,0,1-.056.827,10.71,10.71,0,0,0-1.3,3.141.888.888,0,0,1-.545.624l-1.686.649v2.464l1.686.649a.888.888,0,0,1,.545.624,10.708,10.708,0,0,0,1.3,3.142.888.888,0,0,1,.056.827l-.734,1.652,1.742,1.742,1.653-.734a.888.888,0,0,1,.826.055,10.707,10.707,0,0,0,3.141,1.3.889.889,0,0,1,.624.545l.649,1.686h2.464l.649-1.686a.889.889,0,0,1,.624-.545,10.7,10.7,0,0,0,3.142-1.3.889.889,0,0,1,.827-.056l1.652.734,1.742-1.742-.734-1.653a.888.888,0,0,1,.056-.826,10.709,10.709,0,0,0,1.3-3.141.89.89,0,0,1,.545-.623ZM46.769,36.8a7.313,7.313,0,1,1-7.313-7.313A7.321,7.321,0,0,1,46.769,36.8Zm-1.777,0a5.536,5.536,0,1,0-5.536,5.536A5.542,5.542,0,0,0,44.992,36.8Z" transform="translate(-14.655 -8)" fill="#ee4f47"/>
</svg>
