<svg xmlns="http://www.w3.org/2000/svg" xmlns:xlink="http://www.w3.org/1999/xlink" width="299.22" height="249.293" viewBox="0 0 299.22 249.293">
  <defs>
    <clipPath id="clip-path">
      <rect id="Rectángulo_404047" data-name="Rectángulo 404047" width="298.949" height="214.998" fill="none"/>
    </clipPath>
  </defs>
  <g id="Grupo_1102784" data-name="Grupo 1102784" transform="translate(-1053.605 -9135.732)">
    <g id="Grupo_1102783" data-name="Grupo 1102783">
      <rect id="Rectángulo_35929" data-name="Rectángulo 35929" width="298.949" height="249.293" transform="translate(1053.876 9135.732)" fill="#f6ccb3"/>
    </g>
    <rect id="Rectángulo_402739" data-name="Rectángulo 402739" width="298.949" height="81.071" transform="translate(1053.605 9135.732)" fill="#fef6ed"/>
    <g id="Rectángulo_402741" data-name="Rectángulo 402741" transform="translate(1078.939 9158.027)" fill="none" stroke="#fef6ed" stroke-width="3">
      <rect width="248.279" height="204.704" stroke="none"/>
      <rect x="1.5" y="1.5" width="245.279" height="201.704" fill="none"/>
    </g>
    <g id="Grupo_1101297" data-name="Grupo 1101297" transform="translate(1053.876 9135.732)">
      <path id="Trazado_912413" data-name="Trazado 912413" d="M78.164,443.662l-4.041,25.793h3.852l4.041-25.793Z" transform="translate(-40.188 -254.686)" fill="#ff8d01"/>
      <path id="Trazado_912414" data-name="Trazado 912414" d="M242.413,443.662l-4.04,25.793h3.852l4.041-25.793Z" transform="translate(-143.69 -254.686)" fill="#ff8d01"/>
      <path id="Trazado_912415" data-name="Trazado 912415" d="M660.167,443.662l4.041,25.793h3.853l-4.041-25.793Z" transform="translate(-402.347 -254.686)" fill="#ff8d01"/>
      <path id="Trazado_912416" data-name="Trazado 912416" d="M495.919,443.662l4.041,25.793h3.852l-4.041-25.793Z" transform="translate(-298.938 -254.686)" fill="#ff8d01"/>
      <g id="Grupo_1101296" data-name="Grupo 1101296">
        <g id="Grupo_1101295" data-name="Grupo 1101295" clip-path="url(#clip-path)">
          <path id="Trazado_912417" data-name="Trazado 912417" d="M59.1,443.922H309.235a1.47,1.47,0,0,0,1.412-1.521v-1.453a1.47,1.47,0,0,0-1.412-1.522H59.1a1.47,1.47,0,0,0-1.412,1.522V442.4a1.47,1.47,0,0,0,1.412,1.521" transform="translate(-34.692 -250.663)"/>
          <path id="Trazado_912418" data-name="Trazado 912418" d="M502.328,169.07H432.777v-8.784c0-4.852,3.649-8.784,8.151-8.784h61.4c4.5,0,8.151,3.933,8.151,8.784s-3.649,8.784-8.151,8.784" transform="translate(-260.273 -86.422)" fill="#ffbd45"/>
          <line id="Línea_1733" data-name="Línea 1733" x2="48.486" transform="translate(176.865 71.431)" fill="none" stroke="#000" stroke-linecap="round" stroke-linejoin="round" stroke-width="1"/>
          <line id="Línea_1734" data-name="Línea 1734" x2="48.486" transform="translate(176.865 73.865)" fill="none" stroke="#000" stroke-linecap="round" stroke-linejoin="round" stroke-width="1"/>
          <line id="Línea_1735" data-name="Línea 1735" x2="32.279" transform="translate(176.865 76.298)" fill="none" stroke="#000" stroke-linecap="round" stroke-linejoin="round" stroke-width="1"/>
          <path id="Trazado_912419" data-name="Trazado 912419" d="M590.219,165.531a6.24,6.24,0,0,1,.274-2.064,3.228,3.228,0,0,1,.889-1.312,6.182,6.182,0,0,0,.935-1.016,1.746,1.746,0,0,0,.32-1.017q0-1.352-1.08-1.352a.973.973,0,0,0-.806.394,1.762,1.762,0,0,0-.324,1.066h-2.809a3.756,3.756,0,0,1,1.047-2.79,3.983,3.983,0,0,1,2.892-1,4.124,4.124,0,0,1,2.871.923,3.358,3.358,0,0,1,1.018,2.624,3.261,3.261,0,0,1-.274,1.352,4.557,4.557,0,0,1-.881,1.245l-.955.958a2.431,2.431,0,0,0-.565.864,3.666,3.666,0,0,0-.175,1.124Zm-.341,2.723a1.44,1.44,0,0,1,.444-1.088,1.66,1.66,0,0,1,2.219,0,1.554,1.554,0,0,1,0,2.176,1.66,1.66,0,0,1-2.219,0,1.44,1.44,0,0,1-.444-1.088" transform="translate(-353.394 -89.239)" fill="#12263f"/>
          <rect id="Rectángulo_404045" data-name="Rectángulo 404045" width="11.399" height="35.866" transform="translate(186.766 153.179)"/>
          <path id="Trazado_912420" data-name="Trazado 912420" d="M467.824,436.094h-59.1a2.9,2.9,0,0,1,2.787-3h53.521a2.9,2.9,0,0,1,2.787,3" transform="translate(-245.81 -247.049)"/>
          <path id="Trazado_912421" data-name="Trazado 912421" d="M445.517,303.443h-136.2a1.858,1.858,0,0,1-1.785-1.924V220.889a1.858,1.858,0,0,1,1.785-1.924h136.2a1.858,1.858,0,0,1,1.785,1.924v80.631a1.858,1.858,0,0,1-1.785,1.924" transform="translate(-184.953 -124.905)"/>
          <path id="Trazado_912422" data-name="Trazado 912422" d="M446.151,304.377H312.45a1.858,1.858,0,0,1-1.785-1.924V227.52a1.858,1.858,0,0,1,1.785-1.924h133.7a1.858,1.858,0,0,1,1.785,1.924v74.934a1.858,1.858,0,0,1-1.785,1.924" transform="translate(-186.834 -128.687)" fill="#fff"/>
          <path id="Trazado_912423" data-name="Trazado 912423" d="M563.828,225.6H505.09v78.781h58.738a1.1,1.1,0,0,0,1.036-1.152V226.749a1.1,1.1,0,0,0-1.036-1.153" transform="translate(-303.762 -128.687)" fill="#ffbd45"/>
          <line id="Línea_1736" data-name="Línea 1736" x2="50.035" transform="translate(206.451 119.379)" fill="none" stroke="#fff" stroke-linecap="round" stroke-linejoin="round" stroke-width="1"/>
          <line id="Línea_1737" data-name="Línea 1737" x2="50.035" transform="translate(206.451 122.317)" fill="none" stroke="#fff" stroke-linecap="round" stroke-linejoin="round" stroke-width="1"/>
          <line id="Línea_1738" data-name="Línea 1738" x2="30.762" transform="translate(206.451 125.255)" fill="none" stroke="#fff" stroke-linecap="round" stroke-linejoin="round" stroke-width="1"/>
          <line id="Línea_1739" data-name="Línea 1739" x2="12.708" transform="translate(206.451 114.855)" fill="none" stroke="#fff" stroke-linecap="round" stroke-linejoin="round" stroke-width="4"/>
          <line id="Línea_1740" data-name="Línea 1740" x2="50.035" transform="translate(206.451 139.579)" fill="none" stroke="#fff" stroke-linecap="round" stroke-linejoin="round" stroke-width="1"/>
          <line id="Línea_1741" data-name="Línea 1741" x2="15.83" transform="translate(206.451 142.517)" fill="none" stroke="#fff" stroke-linecap="round" stroke-linejoin="round" stroke-width="1"/>
          <line id="Línea_1742" data-name="Línea 1742" x2="12.708" transform="translate(206.451 135.055)" fill="none" stroke="#fff" stroke-linecap="round" stroke-linejoin="round" stroke-width="4"/>
          <line id="Línea_1743" data-name="Línea 1743" x2="50.035" transform="translate(206.451 159.779)" fill="none" stroke="#fff" stroke-linecap="round" stroke-linejoin="round" stroke-width="1"/>
          <line id="Línea_1744" data-name="Línea 1744" x2="50.035" transform="translate(206.451 162.717)" fill="none" stroke="#fff" stroke-linecap="round" stroke-linejoin="round" stroke-width="1"/>
          <line id="Línea_1745" data-name="Línea 1745" x2="20.187" transform="translate(206.451 165.655)" fill="none" stroke="#fff" stroke-linecap="round" stroke-linejoin="round" stroke-width="1"/>
          <line id="Línea_1746" data-name="Línea 1746" x2="12.708" transform="translate(206.451 155.255)" fill="none" stroke="#fff" stroke-linecap="round" stroke-linejoin="round" stroke-width="4"/>
          <path id="Trazado_912424" data-name="Trazado 912424" d="M386.774,279.237h15.713l.141,4.466H386.614Z" transform="translate(-232.51 -159.286)" fill="#253070"/>
          <path id="Trazado_912425" data-name="Trazado 912425" d="M382.936,231.691c.127,2.375-1.107,4.383-2.754,4.486s-3.087-1.74-3.213-4.115,1.106-4.383,2.754-4.486,3.086,1.74,3.214,4.115" transform="translate(-226.704 -129.814)"/>
          <path id="Trazado_912426" data-name="Trazado 912426" d="M399.99,210.908c.325,6.082-3.963,11.3-9.578,11.644s-10.429-4.3-10.755-10.381,3.962-11.3,9.577-11.644,10.43,4.3,10.755,10.382" transform="translate(-228.316 -114.377)"/>
          <path id="Trazado_912427" data-name="Trazado 912427" d="M424.849,231.691c.127,2.375-1.106,4.383-2.754,4.486s-3.086-1.74-3.214-4.115,1.106-4.383,2.754-4.486,3.087,1.74,3.214,4.115" transform="translate(-251.911 -129.814)"/>
          <path id="Trazado_912428" data-name="Trazado 912428" d="M401.639,267.4c-3.222,2.1-9.915,6.372-9.915,6.372-.027-.019-6.864-4.275-10.083-6.372.91-.261,2.7-.471,3.609-.732a67.687,67.687,0,0,0,.579-10.514c0-.261,0-.525,0-.786-.021-1.662-.1-3.32-.239-4.972v0l5.943-.417.026,0v-.013l.083.006.086-.006v.013l.026,0,5.943.417v0c-.142,1.729-.224,3.47-.24,5.208,0,.264,0,.531,0,.8a69.3,69.3,0,0,0,.544,10.265c.912.261,2.735.471,3.644.732" transform="translate(-229.519 -142.587)" fill="#ed7f6e"/>
          <path id="Trazado_912429" data-name="Trazado 912429" d="M403.647,250.4c-.142,1.728-.225,3.47-.239,5.207-1.737,3.186-4.1,6.5-5.172,6.5h-1.284c-.86,0-3.353-3.492-5.171-6.738q-.031-2.492-.24-4.972l5.942-.42v-.016h.027l.082.006.086-.006h.026v.016Z" transform="translate(-235.473 -142.587)"/>
          <path id="Trazado_912430" data-name="Trazado 912430" d="M378.936,199.514c.885-3.966,15.276-10.256,16.662-2.043a13.693,13.693,0,0,1,2.742,2.707,6.275,6.275,0,0,1,.78,4.948c-.466,2.984-1.1,3.707-1.376,7.288-.1,1.319-7.97,3.064-10.73,2.644-2.089-.317-5.908-.9-6.221-3.378-.434-3.442-2.347-9.977-1.858-12.167" transform="translate(-227.845 -110.353)" fill="#773040"/>
          <path id="Trazado_912431" data-name="Trazado 912431" d="M396.556,214.754h-9.528a3.227,3.227,0,0,0-3.083,3.486l.436,11.637c0,1.315,4.383,7.716,6.185,7.716H394.2c2.407,0,6.281-6.255,6.281-7.716l.533-8.894a1.864,1.864,0,0,0-.576-1.478,8.1,8.1,0,0,1-2.093-3.428,1.888,1.888,0,0,0-1.791-1.324" transform="translate(-230.903 -122.503)" fill="#ed7f6e"/>
          <path id="Trazado_912432" data-name="Trazado 912432" d="M398.214,255.784a3.308,3.308,0,0,0,5.309.256,5.1,5.1,0,0,0-5.309-.256" transform="translate(-239.487 -145.55)" fill="#961717"/>
          <path id="Trazado_912433" data-name="Trazado 912433" d="M396.8,253.888a3.839,3.839,0,0,0,.565,1.172,5.1,5.1,0,0,1,5.309.256,3.815,3.815,0,0,0,.764-1.428Z" transform="translate(-238.634 -144.826)" fill="#520c0c"/>
          <path id="Trazado_912434" data-name="Trazado 912434" d="M402.107,242.57c-1.083-.465-1.667-1.215-1.527-1.912.346-1.725.844-3.427.877-4.132" transform="translate(-240.897 -134.922)" fill="none" stroke="#000" stroke-linecap="round" stroke-linejoin="round" stroke-width="1"/>
          <path id="Trazado_912435" data-name="Trazado 912435" d="M393.524,233.968a1.014,1.014,0,0,1-1.405.506,1.171,1.171,0,0,1-.469-1.514,1.013,1.013,0,0,1,1.405-.506,1.171,1.171,0,0,1,.469,1.514" transform="translate(-235.472 -132.531)"/>
          <path id="Trazado_912436" data-name="Trazado 912436" d="M415.434,233.969a1.013,1.013,0,0,1-1.405.505,1.171,1.171,0,0,1-.469-1.514,1.014,1.014,0,0,1,1.405-.506,1.171,1.171,0,0,1,.469,1.514" transform="translate(-248.649 -132.532)"/>
          <path id="Trazado_912437" data-name="Trazado 912437" d="M386.849,227.342a3.126,3.126,0,0,1,2-1.389,2.958,2.958,0,0,1,2.324.548" transform="translate(-232.652 -128.862)" fill="none" stroke="#000" stroke-linecap="round" stroke-linejoin="round" stroke-width="2"/>
          <path id="Trazado_912438" data-name="Trazado 912438" d="M414.977,227.342a3.126,3.126,0,0,0-2-1.389,2.958,2.958,0,0,0-2.324.548" transform="translate(-246.967 -128.862)" fill="none" stroke="#000" stroke-linecap="round" stroke-linejoin="round" stroke-width="2"/>
          <path id="Trazado_912439" data-name="Trazado 912439" d="M420.616,244.067a7.686,7.686,0,0,1-1.586,4.29,6.769,6.769,0,0,1-3.658,2.406" transform="translate(-249.806 -139.224)" fill="none" stroke="#000" stroke-linecap="round" stroke-linejoin="round" stroke-width="1"/>
          <path id="Trazado_912440" data-name="Trazado 912440" d="M414.966,258.705a.474.474,0,0,0-.216-.274.438.438,0,0,0-.344-.029l-.568.192a.468.468,0,0,0-.254.234.572.572,0,0,0-.028.369.475.475,0,0,0,.217.274.436.436,0,0,0,.343.03l.568-.192a.469.469,0,0,0,.254-.234.576.576,0,0,0,.027-.37" transform="translate(-248.701 -147.388)"/>
          <path id="Trazado_912441" data-name="Trazado 912441" d="M329.735,382.925l-12.78-9.265v2.982l12.78,6.629Z" transform="translate(-190.617 -213.148)"/>
          <path id="Trazado_912442" data-name="Trazado 912442" d="M316.955,380.6v12.3h12.78v-5.673Z" transform="translate(-190.617 -217.108)" fill="#ed7f6e"/>
          <path id="Trazado_912443" data-name="Trazado 912443" d="M478.143,380.507l-13.461,8.527v.638l13.461-5.981Z" transform="translate(-279.46 -217.054)"/>
          <path id="Trazado_912444" data-name="Trazado 912444" d="M464.681,393.9v3.178h13.461v-9.158Z" transform="translate(-279.46 -221.283)" fill="#ed7f6e"/>
          <path id="Trazado_912445" data-name="Trazado 912445" d="M385.712,297.013c-.361-2.793-.845-5.772-2.661-7.8a11.75,11.75,0,0,0-5.281-2.954c-5.874-1.958-12.444-2.786-18.564-3.417l-1.16-3.6c-2.183.932-4.239,1.885-6.422,2.817-.576,1.571-.9,2.853-1.434,4.376-.533-1.522-.859-2.8-1.435-4.376-2.182-.932-4.24-1.884-6.422-2.817l-1.16,3.6c-6.12.631-12.69,1.46-18.564,3.417a11.75,11.75,0,0,0-5.282,2.954c-1.816,2.03-2.3,5.009-2.661,7.8-.92,7.128-1.56,14.339-1.949,21.561l14.468,10.49v6.019h46.1v-3.816l14.537-9.208c-.358-8.385-1.047-16.772-2.115-25.046" transform="translate(-188.07 -159.287)" fill="#ee4f47"/>
          <line id="Línea_1747" data-name="Línea 1747" y2="47.357" transform="translate(162.169 128.334)" fill="none" stroke="#000" stroke-linecap="round" stroke-linejoin="round" stroke-width="1"/>
          <line id="Línea_1748" data-name="Línea 1748" y2="27.369" transform="translate(139.118 148.323)" fill="none" stroke="#000" stroke-linecap="round" stroke-linejoin="round" stroke-width="1"/>
          <line id="Línea_1749" data-name="Línea 1749" y2="27.369" transform="translate(185.221 148.323)" fill="none" stroke="#000" stroke-linecap="round" stroke-linejoin="round" stroke-width="1"/>
          <path id="Trazado_912446" data-name="Trazado 912446" d="M384.236,287.248a24.25,24.25,0,0,0,4.379,5.394c.855-1.939,1.685-3.994,2.539-5.933" transform="translate(-231.08 -163.548)" fill="none" stroke="#000" stroke-linecap="round" stroke-linejoin="round" stroke-width="1"/>
          <path id="Trazado_912447" data-name="Trazado 912447" d="M418.451,287.248a24.249,24.249,0,0,1-4.379,5.394c-.855-1.939-1.685-3.994-2.539-5.933" transform="translate(-247.496 -163.548)" fill="none" stroke="#000" stroke-linecap="round" stroke-linejoin="round" stroke-width="1"/>
          <rect id="Rectángulo_404046" data-name="Rectángulo 404046" width="12.685" height="2.179" transform="translate(168.704 153.102)" fill="#fff"/>
          <path id="Trazado_912448" data-name="Trazado 912448" d="M483.164,365.7l4.981-28.328-5.788-4.462a171.911,171.911,0,0,0-11.876,29.965c-.271.928-.534,1.871-.728,2.825Z" transform="translate(-282.511 -189.901)" fill="#ed7f6e"/>
          <path id="Trazado_912449" data-name="Trazado 912449" d="M499.136,323.5c.169-2.694,2.89-5.718,5.381-6,1.7-1.841,2.874-3.074,4.571-4.915.534.007.936.6.967,1.17a3.217,3.217,0,0,1-.474,1.622,15.028,15.028,0,0,1-2.816,3.577,7.488,7.488,0,0,1-.873,4.784,4.671,4.671,0,0,1-3.1,2.223c-1.266.188-3.083-1.227-3.656-2.458" transform="translate(-300.181 -178.309)" fill="#ed7f6e"/>
          <path id="Trazado_912450" data-name="Trazado 912450" d="M510.121,327.659s-4.341.973-4.723,1.095c-1.752.558-4.87-.212-5.951,1.539-1.124,1.822-.193,4.8,1.226,6.007,2.551,2.171,6.733,1.323,9.95.826,1.1-3.276.505-6.157-.5-9.466" transform="translate(-300.068 -186.908)" fill="#ed7f6e"/>
          <path id="Trazado_912451" data-name="Trazado 912451" d="M525.42,323.922a26.682,26.682,0,0,0,6.224-3.187,29.644,29.644,0,0,0,1.212-5.214.947.947,0,0,0-1.017-.042,2.189,2.189,0,0,0-.708.757,7.938,7.938,0,0,0-1.095,2.719,14.951,14.951,0,0,1-5.264,1.868Z" transform="translate(-315.599 -179.887)" fill="#ed7f6e"/>
          <path id="Trazado_912452" data-name="Trazado 912452" d="M527.19,329a32.2,32.2,0,0,0,7.29-2.52,29.148,29.148,0,0,0,1.8-5.011.952.952,0,0,0-1-.178,2.131,2.131,0,0,0-.79.656,7.781,7.781,0,0,0-1.4,2.551,26.168,26.168,0,0,1-7.184,1.837Z" transform="translate(-316.28 -183.234)" fill="#ed7f6e"/>
          <path id="Trazado_912453" data-name="Trazado 912453" d="M525.51,336.2a31.715,31.715,0,0,0,7.55-1.369,28.505,28.505,0,0,0,2.451-4.681.965.965,0,0,0-.97-.331,2.07,2.07,0,0,0-.87.527,7.552,7.552,0,0,0-1.724,2.309,25.876,25.876,0,0,1-7.355.71Z" transform="translate(-315.491 -188.126)" fill="#ed7f6e"/>
          <path id="Trazado_912454" data-name="Trazado 912454" d="M523.013,342.435a28.506,28.506,0,0,0,6.8-1.169,25.55,25.55,0,0,0,2.238-4.191.87.87,0,0,0-.87-.306,1.859,1.859,0,0,0-.786.468,6.78,6.78,0,0,0-1.568,2.063,23.289,23.289,0,0,1-6.622.578Z" transform="translate(-314.057 -192.093)" fill="#ed7f6e"/>
          <path id="Trazado_912455" data-name="Trazado 912455" d="M534.03,337.033a1.3,1.3,0,0,0-1.4.075,4.234,4.234,0,0,0-1.047,1.11l-.745,1.007c-1.8.247-3.512.476-5.31.722" transform="translate(-316.051 -192.156)" fill="none" stroke="#000" stroke-linecap="round" stroke-linejoin="round" stroke-width="1"/>
          <path id="Trazado_912456" data-name="Trazado 912456" d="M538.876,330.11a2.092,2.092,0,0,0-2.234.52,7.026,7.026,0,0,0-1.381,2.108,20.491,20.491,0,0,1-5.012,1.083" transform="translate(-318.893 -188.223)" fill="none" stroke="#000" stroke-linecap="round" stroke-linejoin="round" stroke-width="1"/>
          <path id="Trazado_912457" data-name="Trazado 912457" d="M512.852,327.413a7.355,7.355,0,0,1-3.594,6.566" transform="translate(-306.269 -186.767)" fill="none" stroke="#000" stroke-linecap="round" stroke-linejoin="round" stroke-width="1"/>
          <path id="Trazado_912458" data-name="Trazado 912458" d="M527.5,326.358a33.08,33.08,0,0,0,6.463-1.754,8.244,8.244,0,0,1,1.144-2.255,2.435,2.435,0,0,1,2.084-1.027" transform="translate(-317.238 -183.286)" fill="none" stroke="#000" stroke-linecap="round" stroke-linejoin="round" stroke-width="1"/>
          <path id="Trazado_912459" data-name="Trazado 912459" d="M469.754,388.887a137.68,137.68,0,0,1,4.9-15.328" transform="translate(-282.511 -213.09)" fill="none" stroke="#000" stroke-linecap="round" stroke-linejoin="round" stroke-width="1"/>
          <path id="Trazado_912460" data-name="Trazado 912460" d="M130.984,332.065c-.63,4.51-1.192,9.435.961,13.362a9.852,9.852,0,0,0,9.219,5.068,11.27,11.27,0,0,0,8.786-6.129c1.621-3.081,1.983-6.732,2.135-10.269a107.1,107.1,0,0,0-6.071-40.275,103.953,103.953,0,0,0-4.007-9.7c-1.264-2.669-2.843-4.554-4.184-.62-1.159,3.4-2.69,18.86-3.212,22.594q-1.813,12.983-3.627,25.966" transform="translate(-78.432 -160.437)" fill="#ffb996"/>
          <path id="Trazado_912461" data-name="Trazado 912461" d="M157.041,293.821a103.962,103.962,0,0,0-4.007-9.7c-1.264-2.669-2.843-4.554-4.185-.621-1.16,3.4,8.261,42.414,4.912,55.406a90.112,90.112,0,0,1-3.784,11.477,9.1,9.1,0,0,0,2.213.107,11.27,11.27,0,0,0,8.786-6.129c1.621-3.081,1.983-6.732,2.135-10.269a107.1,107.1,0,0,0-6.071-40.275" transform="translate(-89.459 -160.437)"/>
          <path id="Trazado_912462" data-name="Trazado 912462" d="M229.852,146.429c-2.315,8.836-10.838,13.977-19.037,11.483s-12.97-11.679-10.655-20.516S211,123.419,219.2,125.913s12.97,11.68,10.656,20.516" transform="translate(-120.025 -71.466)"/>
          <path id="Trazado_912463" data-name="Trazado 912463" d="M208.24,195.05,197.7,232.16c5.687,3.387,7.575,5.308,13.262,8.695,2.556-12.339,4.3-24.646,6.86-36.985-2.4-3.287-7.178-5.534-9.58-8.82" transform="translate(-118.895 -111.263)" fill="#ffb996"/>
          <path id="Trazado_912464" data-name="Trazado 912464" d="M238.762,209.926c.434-2.321.883-4.643,1.364-6.966-2.4-3.287-2.051-6.219-4.453-9.505-.032.073-.854,0-.886.071.175,2,1.292,13.548,3.975,16.4" transform="translate(-141.201 -110.353)"/>
          <path id="Trazado_912465" data-name="Trazado 912465" d="M227.294,159.426a3.547,3.547,0,0,0-5.382-1.806c-1.822,1.31-2.39,4.082-1.72,6.328a10.011,10.011,0,0,0,4.2,5.249c-.169.856,5.854,11.17,15.216,13.913,1.411.413,2.365-2.409,2.613-3.33.727-2.7.929-3.408,1.656-6.108.865-.158,4.1-.966,3.743-1.826-1.777-4.311-2.477-5.371-2.949-8.066,0,0,1.044-3.254,1.384-4.331-.564-3.814-3.21-9.252-4.988-12.605-3.291-.025-5.24.734-8.449,1.522.029,1.809-.2,5.134-.172,6.943-2.4,1.9-2.759,2.214-5.155,4.117" transform="translate(-132.261 -83.764)" fill="#ffb996"/>
          <path id="Trazado_912466" data-name="Trazado 912466" d="M225.705,175.317a2.36,2.36,0,0,1,2.823.332,2.843,2.843,0,0,1,.61,2.988.932.932,0,0,0-1.475.381,1.035,1.035,0,0,0,.861,1.346" transform="translate(-135.739 -99.822)" fill="none" stroke="#000" stroke-linecap="round" stroke-linejoin="round" stroke-width="1"/>
          <path id="Trazado_912467" data-name="Trazado 912467" d="M273.474,180.7c-.109.812-.7,1.391-1.33,1.293a1.383,1.383,0,0,1-.934-1.647c.109-.812.7-1.391,1.33-1.293a1.383,1.383,0,0,1,.934,1.647" transform="translate(-163.096 -102.133)"/>
          <path id="Trazado_912468" data-name="Trazado 912468" d="M264.574,171.709a6.331,6.331,0,0,1,4.625-1.443,1.6,1.6,0,0,1,1.5,1.09" transform="translate(-159.115 -97.107)" fill="none" stroke="#000" stroke-linecap="round" stroke-linejoin="round" stroke-width="2"/>
          <path id="Trazado_912469" data-name="Trazado 912469" d="M268.338,208.569l-4.9-1.791a5.843,5.843,0,0,0,4.28,4.153c.37-.855.254-1.507.624-2.362" transform="translate(-158.43 -117.953)" fill="#fff"/>
          <path id="Trazado_912470" data-name="Trazado 912470" d="M217.459,132.631a9.028,9.028,0,0,1-.97,6.9,15.78,15.78,0,0,1-4.856,5.035,26.486,26.486,0,0,1-13.247,4.7c-1.44.1-3.023.135-4.1,1.123-1.379,1.268-1.282,3.536-.7,5.349s1.555,3.559,1.571,5.467a7.044,7.044,0,0,1-4.006,6.026,14.211,14.211,0,0,1-7.315,1.163c-3.341-.188-6.8-.943-9.416-3.1s-4.145-5.995-2.885-9.179c.949-2.4,3.186-3.948,4.724-6,4.476-5.956,2.468-15.1,6.577-21.337,3-4.552,8.76-6.505,14.11-6.2,4.628.261,9.045,1.947,13.255,3.854,2.807,1.271,6.278,2.96,7.251,6.2" transform="translate(-102.895 -69.905)"/>
          <path id="Trazado_912471" data-name="Trazado 912471" d="M216.248,242.448c-4.581-3.381-7.583-6.031-12.661-8.45a12.565,12.565,0,0,0-6.193-.983,39.608,39.608,0,0,0-2.581,6.74l-1.227.269a57.163,57.163,0,0,1,22.458,6.506c0-1.963.2-4.081.2-4.081" transform="translate(-116.423 -132.889)" fill="#536dfe"/>
          <path id="Trazado_912472" data-name="Trazado 912472" d="M400.178,414.229a11.836,11.836,0,0,0,12.342,2.981c-.677-2.783-.994-5.869-1.671-8.651a18.289,18.289,0,0,0-14.8-.836,18.154,18.154,0,0,0,4.133,6.507" transform="translate(-238.182 -231.906)" fill="#ffb996"/>
          <path id="Trazado_912473" data-name="Trazado 912473" d="M431.178,425.495c1.659.653,5.345,2.4,7,3.053.8,2.022,1.766,4.325,2.567,6.348-1.293.474-3.191-2.4-4.15-4.992-2.07-.77-3.766-1.351-5.835-2.121" transform="translate(-259.062 -242.716)" fill="#ffb996"/>
          <path id="Trazado_912474" data-name="Trazado 912474" d="M431.226,417.964c2.206.868,7.11,3.193,9.316,4.061,1.066,2.69,2.349,5.754,3.415,8.444-1.719.63-4.244-3.194-5.521-6.64-2.753-1.025-5.01-1.8-7.762-2.821" transform="translate(-259.008 -238.42)" fill="#ffb996"/>
          <path id="Trazado_912475" data-name="Trazado 912475" d="M429.659,415.553c2.349-.011,7.7.337,10.045.326,1.866,2.124,4.055,4.518,5.921,6.642-1.409,1.234-5.009-1.409-7.315-4.163-2.912.068-5.276.189-8.188.256" transform="translate(-258.398 -237.045)" fill="#ffb996"/>
          <path id="Trazado_912476" data-name="Trazado 912476" d="M425.187,409.548c2.349-.011,7.7.337,10.045.326,1.865,2.124,4.055,4.518,5.921,6.642-1.409,1.234-5.009-1.409-7.315-4.163-2.912.068-5.276.189-8.188.256" transform="translate(-255.708 -233.619)" fill="#ffb996"/>
          <path id="Trazado_912477" data-name="Trazado 912477" d="M448.926,422.431c-2.543-2.325-4.423-4.427-6.966-6.753-2.727-.23-4.672.292-6.667.285" transform="translate(-261.786 -237.083)" fill="none" stroke="#000" stroke-linecap="round" stroke-linejoin="round" stroke-width="1"/>
          <path id="Trazado_912478" data-name="Trazado 912478" d="M199.152,316.5a70.89,70.89,0,0,1,3.931-28.058c1.815-5.28-.877-17.256-1.65-24.631a15.861,15.861,0,0,0-4.747-9.892c-2.8-2.653-6.432-5.722-9.673-7.328,0-1.979.2-4.141.2-4.141-4.581-3.381-7.583-6.031-12.661-8.45a12.563,12.563,0,0,0-6.193-.983,39.545,39.545,0,0,0-2.581,6.74c-3.98.875-8.282,1.784-12.438,2.842a9.951,9.951,0,0,0-7.194,8.375c-1.344,9.4-1.24,19.286,1.561,28.1,1.556,4.9,3.676,9.567,5.2,14.476s2.43,10.193,1.463,15.262A26.026,26.026,0,0,1,152,315.583c15.6,1.543,31.513,2.345,47.156.915" transform="translate(-87.391 -132.888)" fill="#773040"/>
          <path id="Trazado_912479" data-name="Trazado 912479" d="M256.171,360.3,239.6,331.368l7.092,41.856q4.594-.18,9.165-.59a71.144,71.144,0,0,1,.314-12.334" transform="translate(-144.096 -189.023)"/>
          <path id="Trazado_912480" data-name="Trazado 912480" d="M201.432,263.809a15.861,15.861,0,0,0-4.747-9.892c-2.8-2.653-6.432-5.722-9.673-7.328,0-1.979.2-4.141.2-4.141-4.581-3.381-7.583-6.031-12.661-8.45a12.563,12.563,0,0,0-6.193-.983,39.545,39.545,0,0,0-2.581,6.74c-3.98.875-8.282,1.784-12.438,2.842a9.951,9.951,0,0,0-7.194,8.375c-1.344,9.4-1.24,19.286,1.561,28.1,1.556,4.9,3.676,9.567,5.2,14.476s2.43,10.193,1.463,15.262A26.027,26.027,0,0,1,152,315.583a276.921,276.921,0,0,0,37.992,1.5l-7.092-41.856,16.571,28.932a73.7,73.7,0,0,1,3.617-15.725c1.815-5.28-.877-17.256-1.65-24.631" transform="translate(-87.391 -132.888)" fill="#ca7441"/>
          <path id="Trazado_912481" data-name="Trazado 912481" d="M141.523,425.3c-2.714,5.434-6.846,10.247-9.612,15.743a38.176,38.176,0,0,0-4.013,16.343h66.259c-2.2-10.849-4.858-20.67-5.478-31.171-15.643,1.429-31.56.628-47.156-.915" transform="translate(-76.919 -242.606)" fill="#12263f"/>
          <path id="Trazado_912482" data-name="Trazado 912482" d="M161.8,434.583a294.78,294.78,0,0,0,45.343,1.28" transform="translate(-97.309 -247.901)" fill="none" stroke="#000" stroke-linecap="round" stroke-linejoin="round" stroke-width="1"/>
          <path id="Trazado_912483" data-name="Trazado 912483" d="M241.979,453.66a23.841,23.841,0,0,0,7.887-1.449,9.018,9.018,0,0,0,5.388-5.983" transform="translate(-145.527 -254.543)" fill="none" stroke="#000" stroke-linecap="round" stroke-linejoin="round" stroke-width="1"/>
          <path id="Trazado_912484" data-name="Trazado 912484" d="M185.024,480.589a35.886,35.886,0,0,1,3.062-14.617" transform="translate(-111.274 -265.806)" fill="none" stroke="#000" stroke-linecap="round" stroke-linejoin="round" stroke-width="1"/>
          <path id="Trazado_912485" data-name="Trazado 912485" d="M253.364,307.2q-9.529,3.471-19.318,6.018a6.478,6.478,0,0,1-1.107-2,42.24,42.24,0,0,1-1.592-5.955" transform="translate(-139.132 -174.134)" fill="none" stroke="#000" stroke-linecap="round" stroke-linejoin="round" stroke-width="1"/>
          <path id="Trazado_912486" data-name="Trazado 912486" d="M305.073,351.909c-12.807.563-28.246,1.345-41.3,1.928l-6.225-44.416-7.674,2.765-11.651,3.381,12.221,53a4.606,4.606,0,0,0,5.366,3.669c14.569-3.13,38.454-9.646,50.286-13.5-.349-2.409-.672-4.413-1.021-6.821" transform="translate(-143.266 -176.504)" fill="#ffb996"/>
          <path id="Trazado_912487" data-name="Trazado 912487" d="M615.865,423.386a8.8,8.8,0,0,0-5.053-6.994,10.313,10.313,0,0,0-8.978.584,17.728,17.728,0,0,0-6.448,6.41Z" transform="translate(-358.067 -237.083)"/>
        </g>
      </g>
    </g>
  </g>
</svg>
