<svg xmlns="http://www.w3.org/2000/svg" xmlns:xlink="http://www.w3.org/1999/xlink" width="420.27" height="318.507" viewBox="0 0 420.27 318.507">
  <defs>
    <clipPath id="clip-path">
      <rect id="Rectángulo_404028" data-name="Rectángulo 404028" width="400" height="300.745" fill="#f6ccb3"/>
    </clipPath>
    <clipPath id="clip-path-2">
      <rect id="Rectángulo_404018" data-name="Rectángulo 404018" width="400" height="300.745" fill="none"/>
    </clipPath>
    <clipPath id="clip-path-3">
      <rect id="Rectángulo_404016" data-name="Rectángulo 404016" width="398.833" height="292.546" fill="none"/>
    </clipPath>
    <clipPath id="clip-path-4">
      <rect id="Rectángulo_404017" data-name="Rectángulo 404017" width="232.179" height="178.777" fill="none"/>
    </clipPath>
    <clipPath id="clip-path-6">
      <rect id="Rectángulo_404019" data-name="Rectángulo 404019" width="20.309" height="23.784" fill="none"/>
    </clipPath>
    <clipPath id="clip-path-7">
      <rect id="Rectángulo_404020" data-name="Rectángulo 404020" width="7.807" height="16.637" fill="none"/>
    </clipPath>
    <clipPath id="clip-path-8">
      <rect id="Rectángulo_404023" data-name="Rectángulo 404023" width="349.442" height="5.094" fill="none"/>
    </clipPath>
  </defs>
  <g id="Grupo_1102783" data-name="Grupo 1102783" transform="translate(-180 -1115.525)">
    <rect id="Rectángulo_403016" data-name="Rectángulo 403016" width="420.27" height="318.233" transform="translate(180 1115.525)" fill="#ffbd45"/>
    <g id="Grupo_1101237" data-name="Grupo 1101237" transform="translate(193 1133.287)">
      <g id="Grupo_1101236" data-name="Grupo 1101236" clip-path="url(#clip-path)">
        <g id="Grupo_1101222" data-name="Grupo 1101222">
          <g id="Grupo_1101221" data-name="Grupo 1101221" clip-path="url(#clip-path-2)">
            <path id="Trazado_912003" data-name="Trazado 912003" d="M384.012,287.161Z" transform="translate(0 0)" fill="#f6ccb3"/>
            <g id="Grupo_1101220" data-name="Grupo 1101220" transform="translate(103.262 115.175)" style="mix-blend-mode: multiply;isolation: isolate">
              <g id="Grupo_1101219" data-name="Grupo 1101219">
                <g id="Grupo_1101218" data-name="Grupo 1101218" clip-path="url(#clip-path-4)">
                  <path id="Trazado_912005" data-name="Trazado 912005" d="M128.365,295.264C126.205,293,94.532,229.6,129.8,171.493s123.815-51.32,159.088-28.679,52.549,52.074,56.149,83.017-20.156,79.244-20.156,79.244Z" transform="translate(-113.234 -126.298)" fill="#ddecff"/>
                </g>
              </g>
            </g>
          </g>
        </g>
        <g id="Grupo_1101233" data-name="Grupo 1101233">
          <g id="Grupo_1101232" data-name="Grupo 1101232" clip-path="url(#clip-path-2)">
            <path id="Trazado_912006" data-name="Trazado 912006" d="M397.8,191.7H357.1a4.56,4.56,0,0,1-4.56-4.56V166.831a4.56,4.56,0,0,1,4.56-4.56H397.8a4.56,4.56,0,0,1,4.56,4.56v20.314a4.56,4.56,0,0,1-4.56,4.56" transform="translate(-31.047 -14.29)" fill="#ee4f47"/>
            <path id="Trazado_912007" data-name="Trazado 912007" d="M379.232,205.691l6.448-15.283h-12.9Z" transform="translate(-32.829 -16.768)" fill="#ee4f47"/>
            <path id="Trazado_912008" data-name="Trazado 912008" d="M379.685,172.4h11.648v1.7l5.711-3.293-5.711-3.292v1.7H379.685Z" transform="translate(-33.437 -14.752)" fill="#223a7a"/>
            <path id="Trazado_912009" data-name="Trazado 912009" d="M397.044,180.046H385.4v-1.7l-5.711,3.293,5.711,3.292v-1.7h11.648Z" transform="translate(-33.437 -15.706)" fill="#fff"/>
            <path id="Trazado_912010" data-name="Trazado 912010" d="M371.041,182.072l-.554.2a17.591,17.591,0,0,1-2.625-4.122,14.8,14.8,0,0,1-.928-4.774l.4-.169-2.463-5.895a4.841,4.841,0,0,0-1.2,1.356c-1.394,2.356-1.256,5.97.146,9.5s2.9,6.682,5.637,8.662a5.4,5.4,0,0,0,4.072,1.2Z" transform="translate(-31.941 -14.735)" fill="#223a7a"/>
            <path id="Trazado_912011" data-name="Trazado 912011" d="M373.711,182.726l-.766.278,2.521,6.035a4.476,4.476,0,0,0,.762-.329,1.468,1.468,0,0,0,.663-1.829l-1.318-3.318a1.465,1.465,0,0,0-1.863-.837" transform="translate(-32.844 -16.084)" fill="#223a7a"/>
            <path id="Trazado_912012" data-name="Trazado 912012" d="M367.1,166.172a5.781,5.781,0,0,0-.987.463l2.515,6.021.847-.354a1.467,1.467,0,0,0,.8-1.885l-1.322-3.394a1.463,1.463,0,0,0-1.854-.851" transform="translate(-32.242 -14.626)" fill="#223a7a"/>
            <path id="Trazado_912014" data-name="Trazado 912014" d="M194.7,127.65s-2.453,20.566-3.4,22.264l-.943,1.7-4.717,3.207s9.056,12.83,20.188,14.906,10.189-4.529,10.189-4.529l-1.7-3.585,2.264-19.622S196.4,132.744,194.7,127.65" transform="translate(-16.349 -11.242)" fill="#ff9d8c"/>
            <path id="Trazado_912015" data-name="Trazado 912015" d="M179.234,159l7.358-3.207s4.717,7.736,15.66,12.264,11.132,1.887,11.7,0a7.172,7.172,0,0,0-.189-3.962l.81-6.606,4.376,1.459,15.191,122.881-39.056,1.887Z" transform="translate(-15.784 -13.72)" fill="#fff"/>
            <path id="Trazado_912016" data-name="Trazado 912016" d="M218.751,157.788s2.641,6.1,5.094,20.44,4.717,38.49,5.283,55.094.944,54.527.944,54.527h49.244c.565,0,3.962-18.679,3.962-18.679s-21.51-18.427-22.642-21.446c-.755-2.013-.378-39.308-3.585-56.477s-7.358-20.629-16.037-24.906c-8.97-4.419-22.264-8.553-22.264-8.553" transform="translate(-19.264 -13.896)" fill="#12263f"/>
            <path id="Trazado_912017" data-name="Trazado 912017" d="M246.753,269.071a.456.456,0,0,1-.456-.456c0-1.35-.24-20.515-.471-39.05s-.471-37.707-.471-39.062a.456.456,0,0,1,.912,0c0,1.349.24,20.515.471,39.05s.472,37.707.472,39.062a.456.456,0,0,1-.456.456" transform="translate(-21.607 -16.737)" fill="#8593b6"/>
            <path id="Trazado_912018" data-name="Trazado 912018" d="M139.267,271.65l-.378,26.226h57.358s2.452-22.264,1.509-24.34-58.49-1.887-58.49-1.887" transform="translate(-12.231 -23.923)" fill="#12263f"/>
            <g id="Grupo_1101225" data-name="Grupo 1101225" transform="translate(179.932 118.633)" style="mix-blend-mode: multiply;isolation: isolate">
              <g id="Grupo_1101224" data-name="Grupo 1101224">
                <g id="Grupo_1101223" data-name="Grupo 1101223" clip-path="url(#clip-path-6)">
                  <path id="Trazado_912019" data-name="Trazado 912019" d="M208.247,149.562a30.018,30.018,0,0,0,8.024,4.311l1.347-11.669s-15.165-6.946-20.31-12.115c1.075,5.873,3.72,13.653,10.939,19.473" transform="translate(-197.308 -130.089)" fill="#8e9bbb"/>
                </g>
              </g>
            </g>
            <path id="Trazado_912020" data-name="Trazado 912020" d="M234.883,85.242a40.819,40.819,0,0,1,4.717,15.094c.755,8.3,0,29.621-6.792,38.678s-20.943,6.415-27.358.944c-5.887-5.022-11.7-10.566-13.208-21.509s3.208-31.7,16.6-36.038,26.038,2.831,26.038,2.831" transform="translate(-16.906 -7.135)" fill="#ff9d8c"/>
            <path id="Trazado_912021" data-name="Trazado 912021" d="M252.9,285.866s-.666,0-1.678-.027c-.237-.009-.5,0-.775-.009-.976-.027-2.161-.055-3.356-.091l-.8-.027c-1.186-.027-2.2.119-3.146.064h-.027c-.2-.009-.492.018-.73.027a1.771,1.771,0,0,1-.3.009,4.43,4.43,0,0,1-1.249-.492,84.83,84.83,0,0,0-19.57-2.608c-8.426.036-15.986.611-17.217-.419-1.24-1.049-1.988-11.636,5.207-12.329l8.846,3.356s20.2-2.4,27.6,3.064c7.423,5.462,7.2,9.484,7.2,9.484" transform="translate(-17.899 -23.774)" fill="#ff9d8c"/>
            <path id="Trazado_912022" data-name="Trazado 912022" d="M245.845,286.723c-.2-.009-.492.018-.73.027a8.559,8.559,0,0,0-.775-1.04c-2.28-2.325-7.788-3.83-9.785-4.313a.343.343,0,0,1-.255-.41.35.35,0,0,1,.419-.255c2.909.7,9.083,2.5,10.834,5.444.055.082.2.365.292.547" transform="translate(-20.633 -24.722)" fill="#223a7a"/>
            <path id="Trazado_912023" data-name="Trazado 912023" d="M250.075,286.464c-.265-.006-.539-.013-.8-.028-2.489-4.54-6.561-5.844-11.594-7.462l-.3-.1a.343.343,0,1,1,.216-.651l.29.1c5.322,1.707,9.6,3.08,12.19,8.142" transform="translate(-20.884 -24.5)" fill="#223a7a"/>
            <path id="Trazado_912024" data-name="Trazado 912024" d="M254.483,286.366c-.237-.005-.5,0-.775-.01a19.886,19.886,0,0,0-13.117-9.724.343.343,0,0,1-.283-.4.353.353,0,0,1,.4-.273c6.81,1.279,12.3,6.84,13.776,10.406" transform="translate(-21.162 -24.302)" fill="#223a7a"/>
            <path id="Trazado_912025" data-name="Trazado 912025" d="M195.92,107.78A17.662,17.662,0,0,0,203,100.234a21.486,21.486,0,0,0,2.547-10.567s5.283-.849,13.207,1.509,17.359,5.566,25.283,1.038,7.924-11.792,4.056-14.811c-4.332-3.381-12.925-1.32-12.925-1.32s3.3-3.207,1.51-5.094-8.3.566-8.3.566-7.925-6.321-22.924-5.566S183.279,77.215,182.43,88.913s3.4,23.4,3.4,23.4Z" transform="translate(-16.056 -5.806)" fill="#12263f"/>
            <g id="Grupo_1101228" data-name="Grupo 1101228" transform="translate(206.416 104.581)" style="mix-blend-mode: multiply;isolation: isolate">
              <g id="Grupo_1101227" data-name="Grupo 1101227">
                <g id="Grupo_1101226" data-name="Grupo 1101226" clip-path="url(#clip-path-7)">
                  <path id="Trazado_912026" data-name="Trazado 912026" d="M230.229,114.91c-.85,2.1-.829,4.528-1.043,6.752-.167,1.731-.484,3.748,1.1,4.915.757.558,4.338,2.064,2.5,3.283a4.85,4.85,0,0,1-2.678.3c-.551-.026-1.107-.049-1.657-.09-.592-.044-1.172-.223-1.764-.225a.345.345,0,0,0-.173.637,7.45,7.45,0,0,0,3.46.823,5.222,5.222,0,0,0,2.864-.5,2.049,2.049,0,0,0,1.309-1.467,2.344,2.344,0,0,0-1.127-2.02c-.713-.529-1.589-.775-2.309-1.291-1-.715-.917-1.92-.846-3.035.169-2.682.785-5.318,1.025-7.989.037-.409-.528-.409-.658-.089" transform="translate(-226.35 -114.68)" fill="#8e9bbb"/>
                </g>
              </g>
            </g>
            <path id="Trazado_912027" data-name="Trazado 912027" d="M238.653,121.5c-.282,1.59-1.438,2.716-2.584,2.512s-1.847-1.656-1.565-3.246,1.438-2.716,2.584-2.512,1.847,1.656,1.565,3.246" transform="translate(-20.646 -10.412)" fill="#223a7a"/>
            <path id="Trazado_912028" data-name="Trazado 912028" d="M222.792,120.1c-.255,1.716-1.465,2.957-2.7,2.774s-2.032-1.724-1.776-3.44,1.465-2.958,2.7-2.774,2.031,1.724,1.776,3.44" transform="translate(-19.222 -10.272)" fill="#223a7a"/>
            <path id="Trazado_912029" data-name="Trazado 912029" d="M235.313,114.4c.882.149,1.771,0,2.661.059.213.016.425.047.637.067.151.015-.283-.045-.071-.01l.136.022c.111.02.223.043.333.07.189.046.372.117.562.159a2.165,2.165,0,0,0,.537.069l.291-.038-.183.033a1.767,1.767,0,0,0,.361-.039.981.981,0,0,0,.678-1.192,1.141,1.141,0,0,0-.193-.385c-.037-.049-.076-.1-.115-.147l.107.122c-.037-.053-.077-.1-.118-.155a.569.569,0,0,0-.2-.2c-.07-.054-.14-.111-.213-.161a2.565,2.565,0,0,0-.818-.329,6.75,6.75,0,0,0-1.621-.208,11.267,11.267,0,0,0-1.605.128,3.089,3.089,0,0,0-1.375.509.912.912,0,0,0-.426.887.875.875,0,0,0,.638.74" transform="translate(-20.666 -9.876)" fill="#223a7a"/>
            <path id="Trazado_912030" data-name="Trazado 912030" d="M223.561,111.755a3.7,3.7,0,0,0-.368-.191c-.108-.049-.4-.2-.179-.081-.08-.044-.16-.088-.242-.129a5.573,5.573,0,0,0-1.14-.409,7.583,7.583,0,0,0-2.65-.181,6.156,6.156,0,0,0-2.618.819,1.669,1.669,0,0,0-.329.233c-.065.082-.129.165-.191.248l.054-.082a.929.929,0,0,0-.4.769.766.766,0,0,0,.408.679,1.152,1.152,0,0,0,.916.007h-.477a1.712,1.712,0,0,0,.71-.006c.01,0,.254-.063.093-.029s.257-.031.3-.037.336-.036.036-.006c.056-.005.11-.013.165-.02.143-.017.285-.035.428-.047.623-.049,1.244-.078,1.868-.1.579-.019,1.169-.024,1.747,0,.248.011.5.019.743.026.14,0,.08.026-.015,0,.05.016.1.026.155.039.1.029.2.062.3.1a.867.867,0,0,0,1.033-.507.879.879,0,0,0-.358-1.094" transform="translate(-18.978 -9.751)" fill="#223a7a"/>
            <path id="Trazado_912031" data-name="Trazado 912031" d="M228.534,140.209a8.533,8.533,0,0,1,4.262-3.837c-1.581-.16-9.045-.852-10.928.218-2.11,1.2.389,6.008,4.753,6.249a5.963,5.963,0,0,0,1.272-.074,6.3,6.3,0,0,1,.64-2.556" transform="translate(-19.472 -11.977)" fill="#223a7a"/>
            <path id="Trazado_912032" data-name="Trazado 912032" d="M191.441,129.439s.754,2.925,5.094,6.321a50.291,50.291,0,0,0,10.629,5.88l.5-2.2s-6.509-2.831-9.529-5.944-3.4-4.811-3.4-4.811Z" transform="translate(-16.859 -11.333)" fill="#dee1eb"/>
            <path id="Trazado_912033" data-name="Trazado 912033" d="M209.773,138.691a5.456,5.456,0,0,1,5.685,4.385c.243,1.786-1.434,3.79-5.36,2.03-4.876-2.186-3.816-6.253-.325-6.415" transform="translate(-18.211 -12.213)" fill="#223a7a"/>
            <path id="Trazado_912034" data-name="Trazado 912034" d="M193.685,102.368s1.507-10.843,8.773-18.207c13.868-14.056,25.66-13.207,25.66-13.207s-.094-1.982-4.528-3.491c-4.163-1.418-6.038-.66-6.038-.66s-11.415.944-21.037,11.6-10.661,24.245-10.661,24.245Z" transform="translate(-16.367 -5.865)" fill="#dee1eb"/>
            <path id="Trazado_912035" data-name="Trazado 912035" d="M191.9,104.354c-9.085-1.539-14.15,5.566-14.528,12.735s4.832,12.621,11.792,12.076c15.66-1.227,13.868-22.924,2.736-24.811" transform="translate(-15.618 -9.171)" fill="#fff"/>
            <path id="Trazado_912036" data-name="Trazado 912036" d="M187.719,122.577a6.191,6.191,0,0,1-5.584-3.328,6.9,6.9,0,0,1,.265-7.13.342.342,0,1,1,.565.385,6.209,6.209,0,0,0-.23,6.417,5.5,5.5,0,0,0,5.157,2.968,5.987,5.987,0,0,0,4.954-2.674,7.559,7.559,0,0,0,.748-6.7,5.1,5.1,0,0,0-5.089-3.347.342.342,0,0,1-.09-.678,5.718,5.718,0,0,1,5.819,3.781,8.264,8.264,0,0,1-.82,7.324,6.654,6.654,0,0,1-5.5,2.977l-.192,0" transform="translate(-15.964 -9.551)" fill="#818fb3"/>
            <path id="Trazado_912037" data-name="Trazado 912037" d="M176.121,156.409s-27.547,6.792-37.17,17.735-14.15,64.905-14.339,74.9,6.792,14.15,10.943,16.981,22.453,7.924,37.17,8.679,28.679,0,28.679,0a19.6,19.6,0,0,1,2.217-7.924c2.1-4.375,4.764-5.284,4.764-5.284l-12.641-4.528s-2.213-39.664-5.66-58.867c-3.962-22.075-13.962-41.7-13.962-41.7" transform="translate(-10.974 -13.774)" fill="#12263f"/>
            <path id="Trazado_912038" data-name="Trazado 912038" d="M230.41,250.857a.456.456,0,0,1-.417-.64c2.581-5.824,5.255-17.256,6.761-25.276l.124-.648c.456-2.359,1.023-5.294-.109-7.318-.577-1.033-1.881-3.275-3.135-5.43-1.3-2.238-2.53-4.351-2.871-4.981-.665-1.232,1.427-4.522,4.456-9.035.818-1.22,1.525-2.273,1.937-2.987,1.08-1.868.361-3.578-.471-5.56l-.284-.682c-.754-1.851-1.611-3.706-2.439-5.5-.339-.733-.678-1.466-1.012-2.2q-.663-1.464-1.338-2.971A173.875,173.875,0,0,0,222.66,159.6a.456.456,0,1,1,.783-.466,174.58,174.58,0,0,1,9,18.119q.676,1.5,1.336,2.968.5,1.1,1.01,2.2c.834,1.8,1.694,3.668,2.457,5.538l.28.674c.848,2.02,1.725,4.109.419,6.368-.428.74-1.142,1.806-1.97,3.038-1.579,2.354-4.864,7.253-4.41,8.094.334.618,1.559,2.725,2.856,4.956,1.257,2.16,2.564,4.407,3.143,5.442,1.295,2.316.691,5.432.208,7.937l-.124.644c-.548,2.921-3.454,17.876-6.823,25.477a.455.455,0,0,1-.417.272" transform="translate(-19.603 -13.994)" fill="#8593b6"/>
            <path id="Trazado_912039" data-name="Trazado 912039" d="M199.431,252.315a.454.454,0,0,1-.324-.135c-2.144-2.16-12.483-20.063-13.252-23.429-.422-1.843.637-6.518,1.659-11.039.792-3.5,1.612-7.125,1.38-8.105-.349-1.466-2.992-3.626-5.549-5.714-3.089-2.522-6.282-5.132-6.9-7.482-.7-2.671-.1-19.393.3-30.458.142-3.979.255-7.121.254-8.242a.456.456,0,0,1,.912,0c0,1.138-.112,4.288-.255,8.276-.372,10.342-.994,27.651-.326,30.193.544,2.063,3.759,4.69,6.6,7.008,2.8,2.285,5.439,4.444,5.858,6.209.283,1.186-.486,4.583-1.376,8.517-.954,4.216-2.035,8.993-1.661,10.636.755,3.3,10.906,20.868,13.011,22.989a.457.457,0,0,1-.324.778" transform="translate(-15.51 -13.849)" fill="#8593b6"/>
            <path id="Trazado_912040" data-name="Trazado 912040" d="M160.983,247.677a.5.5,0,0,1-.064,0,.457.457,0,0,1-.388-.515c.336-2.372,5.569-49.61,5.809-53.228a.456.456,0,1,1,.91.06c-.241,3.624-5.481,50.921-5.815,53.3a.458.458,0,0,1-.451.392" transform="translate(-14.137 -17.041)" fill="#8593b6"/>
            <path id="Trazado_912041" data-name="Trazado 912041" d="M197.6,265.285a.477.477,0,0,1-.171-.033c-1.159-.471-6.284-2.2-12.771-4.386-13.094-4.416-31.027-10.463-34.437-12.235a.455.455,0,1,1,.42-.808c3.348,1.739,21.979,8.021,34.308,12.179,6.5,2.193,11.638,3.925,12.823,4.4a.456.456,0,0,1-.171.879" transform="translate(-13.208 -21.82)" fill="#8593b6"/>
            <path id="Trazado_912042" data-name="Trazado 912042" d="M190.356,286.737c-11.524,0-33.865-2.077-50.836-8.08a.456.456,0,0,1,.3-.861c21.44,7.585,51.431,8.88,57.011,7.626a.456.456,0,1,1,.2.89,36.379,36.379,0,0,1-6.679.424" transform="translate(-12.26 -24.462)" fill="#8593b6"/>
            <path id="Trazado_912043" data-name="Trazado 912043" d="M50.152,160.194c3.578,3.147,8.109,5.164,11.248,8.8,1.236,1.432,2.345,2.956,3.492,4.457.834,1.092,3.062,2.9,3.424,4.278.159.6.125-.214-.035-.821-.006-.026-.02-.05-.027-.076-.313-2.781-.538-5.572-.635-8.369s.076-5.59-.1-8.375c-.247-3.93-1.474-7.734-4.685-10.2-1.57-1.2-3.588-1.936-5.031-3.271-1.37-1.268-.82-2.719-.015-4.133a14.079,14.079,0,0,0,1.961-4.146,7.319,7.319,0,0,0-1.195-4.99c-1.869-3.136-6.012-6.634-9.936-6.165-3.272.391-3.643,4.166-3.6,6.8.046,2.556.3,5.105.323,7.664.026,2.629-.421,5.207-.459,7.824-.064,4.45,1.993,7.842,5.265,10.719" transform="translate(-3.953 -11.197)" fill="#ca7441"/>
            <path id="Trazado_912044" data-name="Trazado 912044" d="M82.367,202.858a41.994,41.994,0,0,1,3.544-6.757c1.928-2.965,4.065-5.853,5.36-9.171,1.322-3.389,1.128-7.013,1.258-10.582.1-2.623.875-5.237.665-7.866-.1-1.261-.828-3.3-2.459-3.092-1.269.162-2.024,1.736-2.511,2.74a48.258,48.258,0,0,0-2.074,5.461c-.247.719-.482,1.452-.794,2.146-.182.4-.76,1.389-1.3,1.255-.927-.23-.086-4.014.052-4.685.693-3.367,1.735-6.5,1.879-9.96.21-5.023-.181-11-5.093-13.749-1.285-.718-2.912-1.145-4.132-.072-1.2,1.06-1.544,2.9-1.723,4.407-.548,4.639.544,9.032,2.03,13.4,1.227,3.6,2.69,7.323,2.8,11.177.1,3.71-1.828,7-2.733,10.5a33.206,33.206,0,0,0-1.152,10.355c-.009,2.265.073,4.507.239,6.767.152,2.076.332,4.154.586,6.22.051.419.1.855.154,1.292-.8-1.921-1.077-4.123-1.737-6.053-1.175-3.432-2.538-6.793-3.665-10.242a84.981,84.981,0,0,0-3.04-8.458,20.492,20.492,0,0,0-4.7-7.173A6.854,6.854,0,0,0,59.2,178.92a12.754,12.754,0,0,0-3.174.675,3.575,3.575,0,0,1-3.412-.6c-3.521-2.707-4.592-7.56-7.2-10.986-1.944-2.556-6.557-6.913-9.948-4.127-1.8,1.479-2.3,4.336-2.2,6.527a15.812,15.812,0,0,0,2.749,7.558c1.521,2.444,3.485,4.632,4.883,7.143a7.587,7.587,0,0,1,.823,4.581A10.91,10.91,0,0,0,42,194.315c1.613,4.569,6.653,3.931,10.574,4.051a29.335,29.335,0,0,1,8.289,1.369,9.215,9.215,0,0,1,6.043,5.949c.779,2.155,1.195,4.6,2.661,6.431a6.845,6.845,0,0,0,2.606,1.941c1.529.676,6.189.969,6.224.544a20.9,20.9,0,0,1,1.214-4.282c.793-2.536,1.726-5.009,2.754-7.46" transform="translate(-2.929 -13.023)" fill="#ca7441"/>
            <path id="Trazado_912045" data-name="Trazado 912045" d="M108.323,206.446c-.4-2.612-.327-5.491-1.564-7.889a.357.357,0,0,0-.481-.126c-.886.492-.924,1.923-1,2.8-.12,1.455-.031,2.915-.21,4.365a32.738,32.738,0,0,1-1.822,7.582,8.153,8.153,0,0,1-5.674,5.11,14.367,14.367,0,0,0-4.966,2.19,10.463,10.463,0,0,0-2.913,4.017c-1.833,4.109-2.706,8.7-3.555,13.094-.573,2.956-1.039,5.927-1.757,8.853a87.069,87.069,0,0,0-1.9,8.824c-.069.15-.142.3-.207.451-.188.447.512.689.752.317,2.833-4.362,6.285-8.277,10.994-10.679,2.127-1.085,4.952-1.31,6.726-3.015,1.35-1.3,1.536-3.275,1.334-5.038a15.84,15.84,0,0,0-2.532-6.2c-.636-1.084-1.386-2.247-1.13-3.565a4.6,4.6,0,0,1,2.3-2.8c1.957-1.216,4.246-1.763,5.849-3.515a9.6,9.6,0,0,0,2.48-5.844,40.3,40.3,0,0,0-.73-8.94" transform="translate(-7.243 -17.471)" fill="#ca7441"/>
            <path id="Trazado_912046" data-name="Trazado 912046" d="M66.937,222.757a37.635,37.635,0,0,0-8.914-8.254c-1.811-1.2-6.086-3.578-6.948-.027-.506,2.08,1.53,4.126,2.87,5.431,2.014,1.959,4.343,3.65,6.042,5.908-2.1.671-4.3.8-6.13,2.256-2.163,1.722-3.135,5.048-.989,7.157a13.6,13.6,0,0,0,3.734,2.289c1.693.82,3.416,1.562,5.151,2.287,3.745,1.565,7.539,3.153,10.734,5.715,3.256,2.613,6.315,7.029,6.574,11.291.026.407-.129.036.114-.15.132.119.579-.094.576-.332a44.957,44.957,0,0,0-3.787-18.138,75.745,75.745,0,0,0-9.027-15.433" transform="translate(-4.491 -18.723)" fill="#ca7441"/>
            <path id="Trazado_912047" data-name="Trazado 912047" d="M59,159.142c1.38,2.863,2.822,5.659,4.354,8.451a68.041,68.041,0,0,1,4.048,8.222c1.358,3.531,2.781,7.008,4.217,10.507a103.7,103.7,0,0,1,3.9,11.126,132.066,132.066,0,0,1,4.406,22.626,91.892,91.892,0,0,1,.46,11.695c-.083,3.05-.427,6.067-.714,9.1a53.909,53.909,0,0,0-.249,9.52c.221,2.648.642,5.8,2.7,7.686a.473.473,0,0,0,.739-.57c-2.442-5.009-2.305-10.468-1.838-15.9.257-3,.616-5.98.716-8.99a90.012,90.012,0,0,0-.382-11.479,135.834,135.834,0,0,0-4.142-22.174,100.067,100.067,0,0,0-3.642-10.971c-1.421-3.6-3.061-7.094-4.438-10.708-2.49-6.536-6.286-12.33-9.646-18.422-.174-.316-.633-.038-.48.281" transform="translate(-5.193 -13.978)" fill="#43578e"/>
            <path id="Trazado_912048" data-name="Trazado 912048" d="M82.029,215.241c.395-4.76.817-9.343,2.421-13.883.749-2.118,1.655-4.177,2.377-6.3.6-1.757,1.489-4.168,1.03-6.034a.216.216,0,0,0-.412,0c-.307,1.067-.274,2.236-.494,3.33a29.5,29.5,0,0,1-.834,3.144c-.7,2.2-1.624,4.308-2.421,6.472A32.031,32.031,0,0,0,81.7,215.241a.164.164,0,0,0,.327,0" transform="translate(-7.188 -16.633)" fill="#43578e"/>
            <path id="Trazado_912049" data-name="Trazado 912049" d="M51.823,187.764c1.889,4.564,7.568,4.827,11.7,5.849a10.974,10.974,0,0,1,6.7,5.259,40.194,40.194,0,0,1,3.826,9.208.028.028,0,0,0,.055-.015c-1.156-5.471-2.814-12.058-8.454-14.6-4.519-2.04-10.474-1.016-13.363-5.9-.143-.24-.585-.078-.469.2" transform="translate(-4.562 -16.508)" fill="#43578e"/>
            <path id="Trazado_912050" data-name="Trazado 912050" d="M78.793,216.987c.224.3.43.62.663.918a2.471,2.471,0,0,0,.376.4.879.879,0,0,0,.526.268.115.115,0,0,0,.1-.171,1.808,1.808,0,0,0-.394-.36c-.135-.119-.274-.237-.4-.361-.264-.25-.505-.521-.764-.776-.049-.049-.145.017-.1.078" transform="translate(-6.938 -19.101)" fill="#43578e"/>
            <path id="Trazado_912051" data-name="Trazado 912051" d="M65.832,232.832a45.974,45.974,0,0,1,8.653,9.308,56.289,56.289,0,0,1,3.153,5.184,57.852,57.852,0,0,1,2.547,6.009c.062.154.343.157.322-.044-.453-4.292-3.172-7.971-5.348-11.542a27.52,27.52,0,0,0-4.05-4.9,35.949,35.949,0,0,0-4.983-4.4c-.223-.157-.507.205-.294.38" transform="translate(-5.791 -20.468)" fill="#43578e"/>
            <path id="Trazado_912052" data-name="Trazado 912052" d="M93.356,227.328c-1.569.89-1.621,3.369-1.652,4.952-.059,3.042.694,5.9-.641,8.8-1.206,2.616-3.132,4.8-4.646,7.233-1.417,2.276-2.816,5.184-2.784,7.925,0,.158.244.246.318.085a33.011,33.011,0,0,0,1.185-3.958,16.608,16.608,0,0,1,1.933-4.085c1.457-2.258,3.246-4.313,4.428-6.742,1.246-2.559,1.063-5.094.981-7.867-.052-1.769-.23-4.61,1.2-5.926.223-.205-.062-.559-.319-.414" transform="translate(-7.365 -20.017)" fill="#43578e"/>
            <path id="Trazado_912053" data-name="Trazado 912053" d="M81.012,259.325c-6.322-.088-18.365-.157-18.365-.157l2.98,22.124a10.032,10.032,0,0,0,9.942,8.693H86.456a10.032,10.032,0,0,0,9.942-8.693l2.979-22.124s-12.042.069-18.365.157" transform="translate(-5.517 -22.824)" fill="#fff"/>
            <path id="Trazado_912054" data-name="Trazado 912054" d="M404.251,214.656,368.182,286.1l-105.155.754,32.452-73.206Z" transform="translate(-23.164 -18.815)" fill="#f6f7fa"/>
            <path id="Trazado_912055" data-name="Trazado 912055" d="M186.5,286.254l.02-5.719h68.072l31.319-68.678H394.776l2.736,2.641H291.161l-32.547,71.7s-72.117-.13-72.117.058" transform="translate(-16.424 -18.657)" fill="#dadee8"/>
            <path id="Trazado_912056" data-name="Trazado 912056" d="M355.627,257.333c-1.188,3.564-7.636,6.315-14.4,6.146s-11.287-3.2-10.1-6.759,7.636-6.315,14.4-6.146,11.288,3.2,10.1,6.759" transform="translate(-29.144 -22.066)" fill="#dadee8"/>
            <path id="Trazado_912057" data-name="Trazado 912057" d="M265.535,286.863a.464.464,0,0,1-.189-.041.456.456,0,0,1-.226-.6l32.667-71.964H404.433a.456.456,0,0,1,0,.912H298.376L265.95,286.6a.456.456,0,0,1-.415.267" transform="translate(-23.344 -18.868)" fill="#fff"/>
            <rect id="Rectángulo_404021" data-name="Rectángulo 404021" width="125.092" height="27.735" transform="translate(40.244 273.01)" fill="#596b9b"/>
            <rect id="Rectángulo_404022" data-name="Rectángulo 404022" width="225.065" height="27.735" transform="translate(164.622 273.01)" fill="#7a89af"/>
            <g id="Grupo_1101231" data-name="Grupo 1101231" transform="translate(40.244 273.01)" style="mix-blend-mode: multiply;isolation: isolate">
              <g id="Grupo_1101230" data-name="Grupo 1101230">
                <g id="Grupo_1101229" data-name="Grupo 1101229" clip-path="url(#clip-path-8)">
                  <path id="Trazado_912058" data-name="Trazado 912058" d="M169.222,299.375H44.13v5.094H393.572v-5.094Z" transform="translate(-44.13 -299.375)" fill="#bdc4d7"/>
                </g>
              </g>
            </g>
            <rect id="Rectángulo_404024" data-name="Rectángulo 404024" width="136.601" height="6.792" transform="translate(34.207 267.539)" fill="#6f7fa9"/>
            <rect id="Rectángulo_404025" data-name="Rectángulo 404025" width="225.065" height="6.792" transform="translate(170.093 267.539)" fill="#9ca6c3"/>
            <path id="Trazado_912059" data-name="Trazado 912059" d="M141.928,130.719H97.768a4.948,4.948,0,0,1-4.948-4.948V103.726a4.949,4.949,0,0,1,4.948-4.949h44.16a4.949,4.949,0,0,1,4.948,4.949v22.045a4.948,4.948,0,0,1-4.948,4.948" transform="translate(-8.174 -8.699)" fill="#fff"/>
            <path id="Trazado_912060" data-name="Trazado 912060" d="M164.295,115.614l-16.585-7v14Z" transform="translate(-13.008 -9.565)" fill="#fff"/>
            <path id="Trazado_912061" data-name="Trazado 912061" d="M113.73,115.995a3.055,3.055,0,1,1-3.055-3.055,3.055,3.055,0,0,1,3.055,3.055" transform="translate(-9.478 -9.946)" fill="#223a7a"/>
            <path id="Trazado_912062" data-name="Trazado 912062" d="M125.218,115.995a3.055,3.055,0,1,1-3.055-3.055,3.055,3.055,0,0,1,3.055,3.055" transform="translate(-10.489 -9.946)" fill="#223a7a"/>
            <path id="Trazado_912063" data-name="Trazado 912063" d="M136.706,115.995a3.055,3.055,0,1,1-3.055-3.055,3.055,3.055,0,0,1,3.055,3.055" transform="translate(-11.501 -9.946)" fill="#223a7a"/>
            <path id="Trazado_912064" data-name="Trazado 912064" d="M382.209,24.409H280.261a11.855,11.855,0,0,0-11.855,11.855V84.629a11.855,11.855,0,0,0,11.855,11.855H289.4c.257,4.384-.371,10.906-4.032,19.245a51.221,51.221,0,0,0,22.1-19.245h74.739a11.855,11.855,0,0,0,11.855-11.855V36.264a11.855,11.855,0,0,0-11.855-11.855" transform="translate(-23.637 -2.15)" fill="#ee4f47"/>
            <path id="Trazado_912065" data-name="Trazado 912065" d="M340.383,49.2H289.818a2.516,2.516,0,1,1,0-5.031h50.565a2.516,2.516,0,1,1,0,5.031" transform="translate(-25.301 -3.89)" fill="#fff"/>
            <path id="Trazado_912066" data-name="Trazado 912066" d="M376.641,65.456h-87.8a1.541,1.541,0,1,1,0-3.081h87.8a1.541,1.541,0,1,1,0,3.081" transform="translate(-25.301 -5.493)" fill="#d2e6ff"/>
            <path id="Trazado_912067" data-name="Trazado 912067" d="M376.641,74.835h-87.8a1.541,1.541,0,1,1,0-3.081h87.8a1.541,1.541,0,1,1,0,3.081" transform="translate(-25.301 -6.319)" fill="#d2e6ff"/>
            <path id="Trazado_912068" data-name="Trazado 912068" d="M357.489,84.835H288.843a1.541,1.541,0,0,1,0-3.081h68.646a1.541,1.541,0,1,1,0,3.081" transform="translate(-25.301 -7.2)" fill="#d2e6ff"/>
            <path id="Trazado_912069" data-name="Trazado 912069" d="M381.94,49.2H357.818a2.516,2.516,0,0,1,0-5.031H381.94a2.516,2.516,0,1,1,0,5.031" transform="translate(-31.29 -3.89)" fill="#fff"/>
            <path id="Trazado_912070" data-name="Trazado 912070" d="M315.025,169.491H287.636a1.823,1.823,0,0,1-1.824-1.824v-18.71a1.823,1.823,0,0,1,1.824-1.824h27.389a1.823,1.823,0,0,1,1.824,1.824v18.71a1.823,1.823,0,0,1-1.824,1.824" transform="translate(-25.17 -12.957)" fill="#fff"/>
            <path id="Trazado_912071" data-name="Trazado 912071" d="M301.53,161.7a.683.683,0,0,1-.436-.157l-14.906-12.311a.684.684,0,0,1,.871-1.055l14.459,11.943,14.091-12.261a.684.684,0,0,1,.9,1.032l-14.528,12.641a.683.683,0,0,1-.449.168" transform="translate(-25.181 -13.007)" fill="#6f7fa9"/>
            <path id="Trazado_912072" data-name="Trazado 912072" d="M286.624,169.9a.683.683,0,0,1-.5-1.155l10.425-10.96a.684.684,0,1,1,.99.943l-10.425,10.96a.68.68,0,0,1-.5.212" transform="translate(-25.181 -13.877)" fill="#6f7fa9"/>
            <path id="Trazado_912073" data-name="Trazado 912073" d="M317.9,169.513a.681.681,0,0,1-.484-.2L307.03,158.9a.684.684,0,0,1,.968-.967l10.383,10.412a.684.684,0,0,1-.484,1.167" transform="translate(-27.021 -13.891)" fill="#6f7fa9"/>
            <path id="Trazado_912074" data-name="Trazado 912074" d="M329.673,145.49a9.151,9.151,0,1,1-9.15-9.151,9.151,9.151,0,0,1,9.15,9.151" transform="translate(-27.421 -12.007)" fill="#ff5f42"/>
          </g>
        </g>
        <text id="_85" data-name="85" transform="translate(286.669 136.403)" fill="#fff" font-size="10" font-family="Quicksand-Bold, Quicksand" font-weight="700"><tspan x="0" y="0">85</tspan></text>
        <g id="Grupo_1101235" data-name="Grupo 1101235">
          <g id="Grupo_1101234" data-name="Grupo 1101234" clip-path="url(#clip-path-2)">
            <path id="Trazado_912075" data-name="Trazado 912075" d="M416.674,141.169H363.216a3.648,3.648,0,0,1-3.648-3.648v-8.364a3.647,3.647,0,0,1,3.648-3.648h53.458a3.647,3.647,0,0,1,3.648,3.648v8.364a3.648,3.648,0,0,1-3.648,3.648" transform="translate(-31.666 -11.053)" fill="#12263f"/>
            <path id="Trazado_912076" data-name="Trazado 912076" d="M367.444,137.8a.72.72,0,0,1-.577-.256.861.861,0,0,1-.193-.642l.232-2.027c.016-.051.008-.086-.026-.1a.131.131,0,0,0-.129.026l-1.668,1.206a.789.789,0,0,1-.642.167.8.8,0,0,1-.539-.4.776.776,0,0,1-.09-.719.825.825,0,0,1,.475-.436l1.874-.847c.051-.017.077-.043.077-.078s-.026-.059-.077-.077l-1.874-.847a.765.765,0,0,1-.462-.488.843.843,0,0,1,.078-.667.8.8,0,0,1,.539-.4.842.842,0,0,1,.642.141l1.668,1.232a.127.127,0,0,0,.129.026c.034-.016.042-.051.026-.1l-.232-2.028a.833.833,0,0,1,.206-.641.787.787,0,0,1,.616-.257.762.762,0,0,1,.77.9l-.231,2.028c-.017.051-.009.086.026.1a.125.125,0,0,0,.128-.026l1.669-1.206a.809.809,0,0,1,.654-.167.732.732,0,0,1,.526.4.773.773,0,0,1,.089.719.826.826,0,0,1-.474.436l-1.873.847c-.052.017-.078.043-.078.077s.026.06.078.078l1.873.847a.808.808,0,0,1,.474.487.751.751,0,0,1-.089.668.726.726,0,0,1-.526.4.86.86,0,0,1-.654-.14l-1.669-1.233a.129.129,0,0,0-.128-.026c-.036.017-.044.052-.026.1l.231,2.027a.741.741,0,0,1-.192.642.834.834,0,0,1-.629.256" transform="translate(-32.035 -11.413)" fill="#fff"/>
            <path id="Trazado_912077" data-name="Trazado 912077" d="M379.569,137.8a.72.72,0,0,1-.577-.256.861.861,0,0,1-.193-.642l.232-2.027c.016-.051.008-.086-.026-.1a.131.131,0,0,0-.129.026l-1.668,1.206a.789.789,0,0,1-.642.167.8.8,0,0,1-.539-.4.776.776,0,0,1-.09-.719.825.825,0,0,1,.475-.436l1.874-.847c.051-.017.077-.043.077-.078s-.026-.059-.077-.077l-1.874-.847a.765.765,0,0,1-.462-.488.843.843,0,0,1,.078-.667.8.8,0,0,1,.539-.4.842.842,0,0,1,.642.141l1.668,1.232a.126.126,0,0,0,.129.026c.034-.016.042-.051.026-.1l-.232-2.028a.833.833,0,0,1,.206-.641.787.787,0,0,1,.616-.257.762.762,0,0,1,.77.9l-.231,2.028c-.017.051-.009.086.026.1a.125.125,0,0,0,.128-.026l1.669-1.206a.81.81,0,0,1,.655-.167.734.734,0,0,1,.525.4.77.77,0,0,1,.089.719.826.826,0,0,1-.474.436l-1.873.847c-.052.017-.078.043-.078.077s.026.06.078.078l1.873.847a.808.808,0,0,1,.474.487.751.751,0,0,1-.089.668.728.728,0,0,1-.525.4.862.862,0,0,1-.655-.14l-1.669-1.233a.129.129,0,0,0-.128-.026c-.036.017-.044.052-.026.1l.231,2.027a.741.741,0,0,1-.192.642.834.834,0,0,1-.629.256" transform="translate(-33.102 -11.413)" fill="#fff"/>
            <path id="Trazado_912078" data-name="Trazado 912078" d="M391.693,137.8a.72.72,0,0,1-.577-.256.861.861,0,0,1-.193-.642l.232-2.027c.016-.051.008-.086-.026-.1a.131.131,0,0,0-.129.026l-1.668,1.206a.788.788,0,0,1-.642.167.8.8,0,0,1-.539-.4.776.776,0,0,1-.09-.719.825.825,0,0,1,.475-.436l1.874-.847c.051-.017.077-.043.077-.078s-.026-.059-.077-.077l-1.874-.847a.765.765,0,0,1-.462-.488.843.843,0,0,1,.078-.667.8.8,0,0,1,.539-.4.842.842,0,0,1,.642.141L391,132.6a.127.127,0,0,0,.129.026c.034-.016.042-.051.026-.1l-.232-2.028a.832.832,0,0,1,.206-.641.787.787,0,0,1,.616-.257.762.762,0,0,1,.77.9l-.231,2.028c-.017.051-.009.086.026.1a.125.125,0,0,0,.128-.026l1.669-1.206a.809.809,0,0,1,.654-.167.732.732,0,0,1,.526.4.773.773,0,0,1,.089.719.826.826,0,0,1-.474.436l-1.873.847c-.052.017-.078.043-.078.077s.026.06.078.078l1.873.847a.808.808,0,0,1,.474.487.751.751,0,0,1-.089.668.726.726,0,0,1-.526.4.86.86,0,0,1-.654-.14l-1.669-1.233a.13.13,0,0,0-.128-.026c-.036.017-.044.052-.026.1l.231,2.027a.741.741,0,0,1-.191.642.834.834,0,0,1-.629.256" transform="translate(-34.17 -11.413)" fill="#fff"/>
            <path id="Trazado_912079" data-name="Trazado 912079" d="M403.818,137.8a.721.721,0,0,1-.577-.256.861.861,0,0,1-.193-.642l.232-2.027c.016-.051.008-.086-.026-.1a.131.131,0,0,0-.129.026l-1.668,1.206a.789.789,0,0,1-.642.167.8.8,0,0,1-.539-.4.776.776,0,0,1-.09-.719.825.825,0,0,1,.475-.436l1.874-.847c.051-.017.077-.043.077-.078s-.026-.059-.077-.077l-1.874-.847a.765.765,0,0,1-.462-.488.843.843,0,0,1,.078-.667.8.8,0,0,1,.539-.4.842.842,0,0,1,.642.141l1.668,1.232a.126.126,0,0,0,.129.026c.034-.016.042-.051.026-.1l-.232-2.028a.833.833,0,0,1,.206-.641.787.787,0,0,1,.616-.257.762.762,0,0,1,.77.9l-.231,2.028c-.017.051-.009.086.026.1a.125.125,0,0,0,.128-.026l1.669-1.206a.809.809,0,0,1,.654-.167.732.732,0,0,1,.526.4.77.77,0,0,1,.089.719.826.826,0,0,1-.474.436l-1.873.847c-.052.017-.078.043-.078.077s.026.06.078.078l1.873.847a.808.808,0,0,1,.474.487.751.751,0,0,1-.089.668.726.726,0,0,1-.526.4.86.86,0,0,1-.654-.14l-1.669-1.233a.129.129,0,0,0-.128-.026c-.036.017-.044.052-.026.1l.231,2.027a.741.741,0,0,1-.191.642.834.834,0,0,1-.629.256" transform="translate(-35.238 -11.413)" fill="#fff"/>
            <path id="Trazado_912080" data-name="Trazado 912080" d="M415.943,137.8a.72.72,0,0,1-.577-.256.861.861,0,0,1-.193-.642l.232-2.027c.016-.051.008-.086-.026-.1a.131.131,0,0,0-.129.026l-1.668,1.206a.788.788,0,0,1-.642.167.8.8,0,0,1-.539-.4.776.776,0,0,1-.09-.719.825.825,0,0,1,.475-.436l1.874-.847c.051-.017.077-.043.077-.078s-.026-.059-.077-.077l-1.874-.847a.765.765,0,0,1-.462-.488.843.843,0,0,1,.078-.667.8.8,0,0,1,.539-.4.842.842,0,0,1,.642.141l1.668,1.232a.127.127,0,0,0,.129.026c.034-.016.042-.051.026-.1l-.232-2.028a.832.832,0,0,1,.206-.641.787.787,0,0,1,.616-.257.762.762,0,0,1,.77.9l-.231,2.028c-.017.051-.009.086.026.1a.125.125,0,0,0,.128-.026l1.669-1.206a.809.809,0,0,1,.654-.167.732.732,0,0,1,.526.4.77.77,0,0,1,.089.719.826.826,0,0,1-.474.436l-1.873.847c-.051.017-.078.043-.078.077s.026.06.078.078l1.873.847a.808.808,0,0,1,.474.487.751.751,0,0,1-.089.668.726.726,0,0,1-.526.4.86.86,0,0,1-.654-.14l-1.669-1.233a.129.129,0,0,0-.128-.026c-.036.017-.044.052-.026.1l.231,2.027a.741.741,0,0,1-.191.642.834.834,0,0,1-.629.256" transform="translate(-36.306 -11.413)" fill="#67acff"/>
          </g>
        </g>
      </g>
    </g>
  </g>
</svg>
