<svg xmlns="http://www.w3.org/2000/svg" width="44.226" height="44.227" viewBox="0 0 44.226 44.227">
  <g id="Grupo_1101106" data-name="Grupo 1101106" transform="translate(-1.824 -11.706)">
    <g id="emoji_grinning-alt" data-name="emoji/grinning-alt" transform="translate(-64.176 18.706)">
      <path id="Fill-1" d="M15.966,21.785V14.8a1.164,1.164,0,0,1,2.328,0v6.983a1.164,1.164,0,0,1-2.328,0Zm13.966,0V14.8a1.164,1.164,0,1,1,2.328,0v6.983a1.164,1.164,0,1,1-2.328,0ZM24.113,35.752a10.562,10.562,0,0,0,10.309-7.879,60.016,60.016,0,0,1-20.619,0A10.562,10.562,0,0,0,24.113,35.752Zm-12.8-9.311A1.162,1.162,0,0,1,12.7,25.3a57.935,57.935,0,0,0,22.821,0,1.176,1.176,0,0,1,.966.24,1.164,1.164,0,0,1,.426.9c0,5.493-5.475,11.639-12.8,11.639s-12.8-6.145-12.8-11.639ZM4.328,24.113A19.785,19.785,0,1,0,24.113,4.328,19.808,19.808,0,0,0,4.328,24.113ZM2,24.113A22.113,22.113,0,1,1,24.113,46.226,22.139,22.139,0,0,1,2,24.113Z" transform="translate(64 -9)" fill="#ee4f47" fill-rule="evenodd"/>
    </g>
  </g>
</svg>
