<svg xmlns="http://www.w3.org/2000/svg" width="299.22" height="249.293" viewBox="0 0 299.22 249.293">
  <g id="Grupo_1102782" data-name="Grupo 1102782" transform="translate(-1035.78 -8533.732)">
    <g id="Grupo_1101104" data-name="Grupo 1101104" transform="translate(435.792 8129.732)">
      <rect id="Rectángulo_35929" data-name="Rectángulo 35929" width="298.949" height="249.293" transform="translate(600.259 404)" fill="#f6ccb3"/>
      <rect id="Rectángulo_402739" data-name="Rectángulo 402739" width="298.949" height="81.071" transform="translate(599.988 404)" fill="#fef6ed"/>
      <g id="Rectángulo_402741" data-name="Rectángulo 402741" transform="translate(625.323 426.294)" fill="none" stroke="#fef6ed" stroke-width="3">
        <rect width="248.279" height="204.704" stroke="none"/>
        <rect x="1.5" y="1.5" width="245.279" height="201.704" fill="none"/>
      </g>
      <g id="Grupo_1101293" data-name="Grupo 1101293" transform="translate(600.259 499.637)">
        <g id="Grupo_1101294" data-name="Grupo 1101294" transform="translate(0 -44.344)">
          <path id="Trazado_912335" data-name="Trazado 912335" d="M70.735,261.018H86.067c-4.7-14.28-10.919-28.1-19.936-40.077-10.772-14.311-25.857-25.888-43.3-29.958-4.883-1.139-10.137-1.66-14.813.151S-.507,197.642.055,202.625c.38,3.374,2.658,6.29,5.4,8.288a45.31,45.31,0,0,0,9.076,4.57,133.725,133.725,0,0,1,56.2,45.536" transform="translate(0 -89.888)" fill="#ca7441"/>
          <path id="Trazado_912336" data-name="Trazado 912336" d="M90.744,265.315c-13.482-28.832-38.767-52.537-69.129-63.374" transform="translate(-10.229 -95.564)" fill="none" stroke="#000" stroke-linecap="round" stroke-linejoin="round" stroke-width="1"/>
          <path id="Trazado_912337" data-name="Trazado 912337" d="M64.4,293.836a87.169,87.169,0,0,0-15.949-20.229c-8.808-8.039-20.1-13.759-32.014-14.278-3.335-.145-6.837.16-9.674,1.92s-4.777,5.306-3.8,8.5a8.293,8.293,0,0,0,4.554,4.758,30.166,30.166,0,0,0,6.5,1.874,88.926,88.926,0,0,1,36.225,17.457Z" transform="translate(-1.28 -122.707)" fill="#ca7441"/>
          <path id="Trazado_912338" data-name="Trazado 912338" d="M65.228,296.9A81.862,81.862,0,0,0,28.22,271.6a77.017,77.017,0,0,0-12.437-3.012" transform="translate(-7.469 -127.104)" fill="none" stroke="#000" stroke-linecap="round" stroke-linejoin="round" stroke-width="1"/>
          <path id="Trazado_912339" data-name="Trazado 912339" d="M136.83,213.618a99.06,99.06,0,0,1,22.039,50.176H169.29a93.437,93.437,0,0,0-.242-28.7c-2.306-12.839-8.376-25.448-18.521-34.121-2.84-2.427-6.133-4.592-9.826-5.075s-7.809,1.153-9.111,4.51a8.92,8.92,0,0,0,.784,7.144,34.369,34.369,0,0,0,4.456,6.067" transform="translate(-62.062 -92.665)" fill="#536dfe"/>
          <path id="Trazado_912340" data-name="Trazado 912340" d="M174.644,266.544c.887-22.583-9.122-45.761-24.409-62.158" transform="translate(-71.095 -96.721)" fill="none" stroke="#000" stroke-linecap="round" stroke-linejoin="round" stroke-width="1"/>
          <path id="Trazado_912347" data-name="Trazado 912347" d="M189.906,229.059a10.9,10.9,0,0,0-.144-1.258c-.037-.211-.08-.422-.13-.634L184.071,203.5a10.792,10.792,0,0,0-10.505-8.324H96.412a10.724,10.724,0,0,0-8.252,3.844,10.969,10.969,0,0,0-1.011,1.418c-.161.269-.314.544-.452.826a10.928,10.928,0,0,0-.46,1.1q-.1.281-.185.568a10.694,10.694,0,0,0-.145,5.509L91.468,232.1v0c.064.271.14.536.223.8.025.079.053.156.078.233q.1.292.216.574c.03.073.058.146.088.218.1.24.215.476.336.706.037.071.077.137.116.207.09.162.181.322.279.478.059.1.119.189.181.282.086.13.176.256.268.381.073.1.144.2.221.3q.2.254.412.494c.1.113.2.22.308.328.068.071.136.141.206.209.116.115.234.228.356.337.041.036.082.071.123.106a10.811,10.811,0,0,0,.914.718h0c.166.116.336.225.509.332l.074.045A10.774,10.774,0,0,0,99,240l.013,0q.439.125.891.213l.087.019c.274.051.553.09.833.12.053.006.105.016.159.021.326.03.655.047.989.047h77.153c.217,0,.433-.006.646-.019a10.8,10.8,0,0,0,1.258-.147,10.659,10.659,0,0,0,3.935-1.545,10.836,10.836,0,0,0,2.24-1.926c.186-.211.361-.431.53-.655a10.91,10.91,0,0,0,.832-1.271c.126-.226.24-.459.35-.694.141-.3.271-.611.384-.927.066-.188.129-.377.185-.568a10.773,10.773,0,0,0,.25-1.049,10.507,10.507,0,0,0,.17-2.568" transform="translate(-40.515 -92.361)" fill="#c3922e"/>
          <path id="Trazado_912348" data-name="Trazado 912348" d="M183.053,240.427H105.9A10.792,10.792,0,0,1,95.394,232.1l-5.561-23.671a10.791,10.791,0,0,1,10.505-13.26h77.153A10.792,10.792,0,0,1,188,203.5l5.561,23.671a10.792,10.792,0,0,1-10.506,13.26" transform="translate(-42.374 -92.361)" fill="#ff8d01"/>
          <path id="Trazado_912349" data-name="Trazado 912349" d="M100.339,195.172a10.792,10.792,0,0,0-10.506,13.26L95.394,232.1a10.787,10.787,0,0,0,6.614,7.589l2.748-44.52Z" transform="translate(-42.374 -92.361)" fill="#fbcc34"/>
          <path id="Trazado_912350" data-name="Trazado 912350" d="M204.757,227.166,199.2,203.495a10.792,10.792,0,0,0-10.506-8.324H115.953l-2.748,44.52a10.758,10.758,0,0,0,3.893.735h77.153a10.792,10.792,0,0,0,10.506-13.26" transform="translate(-53.572 -92.36)"/>
          <path id="Trazado_912351" data-name="Trazado 912351" d="M309.133,209.2a114.767,114.767,0,0,1,10.135,27.424c.78,3.391,1.407,6.906.816,10.335s-2.618,6.792-5.833,8.121a10.373,10.373,0,0,1-8.7-.806,23.925,23.925,0,0,1-6.727-5.935,71.972,71.972,0,0,1-14.27-26.991" transform="translate(-134.661 -98.997)" fill="#e08860"/>
          <path id="Trazado_912352" data-name="Trazado 912352" d="M296.338,237.444c1.571,1.6,4.238,1.066,6.347.3a60.765,60.765,0,0,0,10.551-5.043,21.387,21.387,0,0,0,1.86-1.246l-20.049,2.181a6.132,6.132,0,0,0,1.292,3.811" transform="translate(-139.624 -109.529)"/>
          <path id="Trazado_912353" data-name="Trazado 912353" d="M314.716,187.179a9.458,9.458,0,0,0-.631-3.706,180.685,180.685,0,0,0-9.292-23.534c-1.615-3.376-3.416-6.8-6.322-9.162s-7.207-3.385-10.448-1.512l-.75,2.875q2.043,21.028,4.086,42.056c0,.028.006.057.009.086l20.049-2.181c1.686-1.276,3.1-2.877,3.3-4.921" transform="translate(-135.945 -70.178)" fill="#ee4f47"/>
          <path id="Trazado_912354" data-name="Trazado 912354" d="M337.637,161.969a272.79,272.79,0,0,0-21.182,49.592c-1.061,3.375-2.07,6.874-1.787,10.411a13.291,13.291,0,0,0,7.578,11.067,10.912,10.912,0,0,0,12.562-3.013c2.118-2.655,2.825-6.182,3.465-9.556l9.687-51.116Z" transform="translate(-148.887 -76.648)" fill="#e08860"/>
          <path id="Trazado_912355" data-name="Trazado 912355" d="M355.292,152.613c.3-4.458,5.154-9.463,9.6-9.935,3.027-3.046,5.127-5.088,8.153-8.134a1.975,1.975,0,0,1,1.725,1.936,5.052,5.052,0,0,1-.847,2.685,25.249,25.249,0,0,1-5.022,5.919A11.641,11.641,0,0,1,367.342,153a8.333,8.333,0,0,1-5.53,3.68c-2.258.311-5.5-2.031-6.521-4.068" transform="translate(-168.134 -63.67)" fill="#e08860"/>
          <path id="Trazado_912356" data-name="Trazado 912356" d="M374.965,154.887s-7.743,1.611-8.424,1.812c-3.125.923-8.687-.35-10.613,2.546-2.006,3.016-.344,7.944,2.186,9.941,4.55,3.593,12.009,2.189,17.747,1.367,1.957-5.422.9-10.189-.9-15.667" transform="translate(-168.013 -73.297)" fill="#e08860"/>
          <path id="Trazado_912357" data-name="Trazado 912357" d="M391.045,152.46a49.059,49.059,0,0,0,11.1-5.274,46.06,46.06,0,0,0,2.162-8.629,1.8,1.8,0,0,0-1.814-.07,3.75,3.75,0,0,0-1.263,1.253,12.64,12.64,0,0,0-1.953,4.5,28.034,28.034,0,0,1-9.388,3.092Z" transform="translate(-184.506 -65.436)" fill="#e08860"/>
          <path id="Trazado_912358" data-name="Trazado 912358" d="M393.711,159.066a60.491,60.491,0,0,0,13-4.17,46.033,46.033,0,0,0,3.218-8.293,1.8,1.8,0,0,0-1.791-.295,3.752,3.752,0,0,0-1.41,1.086,12.637,12.637,0,0,0-2.5,4.223,49.618,49.618,0,0,1-12.814,3.039Z" transform="translate(-185.231 -69.183)" fill="#e08860"/>
          <path id="Trazado_912359" data-name="Trazado 912359" d="M391.285,168.369a60.488,60.488,0,0,0,13.466-2.266,46.022,46.022,0,0,0,4.371-7.747,1.8,1.8,0,0,0-1.73-.548,3.753,3.753,0,0,0-1.55.873,12.634,12.634,0,0,0-3.076,3.822,49.616,49.616,0,0,1-13.117,1.175Z" transform="translate(-184.392 -74.66)" fill="#e08860"/>
          <path id="Trazado_912360" data-name="Trazado 912360" d="M387.866,176.565A54.457,54.457,0,0,0,400,174.63a41.438,41.438,0,0,0,3.992-6.937,1.618,1.618,0,0,0-1.552-.506,3.369,3.369,0,0,0-1.4.774,11.363,11.363,0,0,0-2.8,3.415,44.633,44.633,0,0,1-11.81.956Z" transform="translate(-182.869 -79.102)" fill="#e08860"/>
          <path id="Trazado_912361" data-name="Trazado 912361" d="M406.076,167.591a2.467,2.467,0,0,0-2.5.124,7.262,7.262,0,0,0-1.869,1.837l-1.329,1.667c-3.206.408-6.264.787-9.47,1.2" transform="translate(-184.987 -79.172)" fill="none" stroke="#000" stroke-linecap="round" stroke-linejoin="round" stroke-width="1"/>
          <path id="Trazado_912362" data-name="Trazado 912362" d="M412.669,158.24a3.939,3.939,0,0,0-3.984.861,11.6,11.6,0,0,0-2.463,3.489,38.994,38.994,0,0,1-8.938,1.793" transform="translate(-188.005 -74.769)" fill="none" stroke="#000" stroke-linecap="round" stroke-linejoin="round" stroke-width="1"/>
          <path id="Trazado_912363" data-name="Trazado 912363" d="M375.363,154.554a12,12,0,0,1-6.411,10.866" transform="translate(-174.598 -73.139)" fill="none" stroke="#000" stroke-linecap="round" stroke-linejoin="round" stroke-width="1"/>
          <path id="Trazado_912364" data-name="Trazado 912364" d="M393.567,154.673a62.6,62.6,0,0,0,11.527-2.9,13.322,13.322,0,0,1,2.04-3.732,4.467,4.467,0,0,1,3.718-1.7" transform="translate(-186.247 -69.243)" fill="none" stroke="#000" stroke-linecap="round" stroke-linejoin="round" stroke-width="1"/>
          <path id="Trazado_912365" data-name="Trazado 912365" d="M245.024,135.074l-13.956-1.181,5.537,13.941h4.177Z" transform="translate(-109.348 -63.362)"/>
          <path id="Trazado_912366" data-name="Trazado 912366" d="M200.859,74.456a153.68,153.68,0,0,1-4.336,39.264,125.64,125.64,0,0,0,27.348,13.419,159.86,159.86,0,0,1-4.355-41.873,44.39,44.39,0,0,0-18.657-10.81" transform="translate(-93 -35.235)" fill="#e08860"/>
          <path id="Trazado_912367" data-name="Trazado 912367" d="M226.074,86.153a43.977,43.977,0,0,0-15.695-9.823c1.656,10.209,7.42,19.353,15.944,24.511-.321-4.89-.415-9.793-.25-14.688" transform="translate(-99.557 -36.121)"/>
          <path id="Trazado_912368" data-name="Trazado 912368" d="M261.586,59.389c.874,3.771-.7,7.357-3.523,8.01s-5.813-1.873-6.687-5.644.7-7.357,3.523-8.01,5.813,1.873,6.687,5.644" transform="translate(-118.844 -25.385)"/>
          <path id="Trazado_912369" data-name="Trazado 912369" d="M227.355,32.735a7.986,7.986,0,0,0,.857-7.8c1.044-3.3-.511-7.225-2.991-9.8A18.165,18.165,0,0,0,215.5,10.3a26.281,26.281,0,0,0-22.337,6.216l2.708-.352a9.178,9.178,0,0,0-5.667,5.447,8.17,8.17,0,0,0,1.127,7.454c-1.7,1.757-1.544,4.059-.71,6.281a17.8,17.8,0,0,0,4.216,5.838,27.155,27.155,0,0,1,4.646,5.59,33.992,33.992,0,0,0,27.872-14.039" transform="translate(-89.8 -4.663)" fill="#773040"/>
          <path id="Trazado_912370" data-name="Trazado 912370" d="M226.5,33.145c-5.949-4.03-20.258-1.232-24.336.768.328,2.521,1.137,6.769,1.137,6.769L200.717,49.1s-5.448-3.152-7.872-1.294c-4.544,3.484,2.535,13.165,8.029,10.5.25-.121,3.31,12.978,17.965,14.478,5.824.6,9.16-1.663,9.832-8.345A87.09,87.09,0,0,0,226.5,33.145" transform="translate(-90.572 -14.712)" fill="#e08860"/>
          <path id="Trazado_912371" data-name="Trazado 912371" d="M228.7,87.734a12.76,12.76,0,0,0,4.072,3.855,7.753,7.753,0,0,0,4.979,1.2,3.065,3.065,0,0,0,.455-.115c-1.567-3.211-5.916-5.253-9.506-4.944" transform="translate(-108.229 -41.504)" fill="#961717"/>
          <path id="Trazado_912372" data-name="Trazado 912372" d="M240.351,87.631a48.85,48.85,0,0,1-13.433-2.579q.455.742.941,1.428c3.591-.309,7.94,1.733,9.506,4.943a4.622,4.622,0,0,0,2.986-3.793" transform="translate(-107.384 -40.249)" fill="#520c0c"/>
          <path id="Trazado_912373" data-name="Trazado 912373" d="M246.37,72.968a6.55,6.55,0,0,0,1.956-.71,2.814,2.814,0,0,0,1.3-1.778,4.942,4.942,0,0,0-.589-2.883l-2.307-5.325" transform="translate(-116.589 -29.469)" fill="none" stroke="#000" stroke-linecap="round" stroke-linejoin="round" stroke-width="1"/>
          <path id="Trazado_912374" data-name="Trazado 912374" d="M195.546,67.163a1.914,1.914,0,0,1,1.917-1.891,2.928,2.928,0,0,1,2.427,1.558,6.564,6.564,0,0,1,.718,2.909,1.35,1.35,0,1,0-.642,2.492" transform="translate(-92.535 -30.888)" fill="none" stroke="#000" stroke-linecap="round" stroke-linejoin="round" stroke-width="1"/>
          <path id="Trazado_912375" data-name="Trazado 912375" d="M231.06,60.671a1.868,1.868,0,1,1-.837-2.506,1.868,1.868,0,0,1,.837,2.506" transform="translate(-107.669 -27.432)"/>
          <path id="Trazado_912376" data-name="Trazado 912376" d="M256.189,60.671a1.868,1.868,0,1,1-.836-2.506,1.868,1.868,0,0,1,.836,2.506" transform="translate(-119.561 -27.432)"/>
          <path id="Trazado_912377" data-name="Trazado 912377" d="M221.348,51.1c1.44-1.035,4.745-2.957,7.964-1.688" transform="translate(-104.748 -23.184)" fill="none" stroke="#000" stroke-linecap="round" stroke-linejoin="round" stroke-width="2"/>
          <path id="Trazado_912378" data-name="Trazado 912378" d="M249.509,49.992a4.34,4.34,0,0,1,5.313.638" transform="translate(-118.074 -23.36)" fill="none" stroke="#000" stroke-linecap="round" stroke-linejoin="round" stroke-width="2"/>
          <path id="Trazado_912379" data-name="Trazado 912379" d="M201.643,65.016c.874,3.771-.7,7.357-3.523,8.01s-5.813-1.874-6.687-5.644.7-7.357,3.523-8.01,5.813,1.873,6.687,5.644" transform="translate(-90.477 -28.048)"/>
          <path id="Trazado_912380" data-name="Trazado 912380" d="M219.475,8.654a16.876,16.876,0,0,0-17.015,2.99c-4.578,3.956-6.37,10.031-6.622,15.9a71.449,71.449,0,0,0,.792,11.743c.123,1,1.7.919,1.578-.094-.739-6.015-1.5-12.239.235-18.159A16.232,16.232,0,0,1,208.984,9.765a15.131,15.131,0,0,1,9.762.292c.942.355,1.678-1.045.728-1.4" transform="translate(-92.66 -3.576)"/>
          <path id="Trazado_912381" data-name="Trazado 912381" d="M263.214,73.312c-.515-.879-1.839-.016-1.325.861a7.3,7.3,0,0,1,.5,6.385,7.389,7.389,0,0,1-4.182,4.061c-.948.359-.459,1.862.5,1.5a8.785,8.785,0,0,0,4.51-12.807" transform="translate(-121.949 -34.519)"/>
          <path id="Trazado_912382" data-name="Trazado 912382" d="M259.158,94.061a1.58,1.58,0,0,0-.285-.754l-.349-.411a2.1,2.1,0,0,0-.98-.5l-.564-.043a2.109,2.109,0,0,0-1.022.337l-.48.288a2.167,2.167,0,0,0-.62,2.915l.349.411a2.1,2.1,0,0,0,.98.5l.564.043a2.107,2.107,0,0,0,1.022-.337l.48-.288a2.036,2.036,0,0,0,.9-2.161" transform="translate(-120.443 -43.703)"/>
          <path id="Trazado_912383" data-name="Trazado 912383" d="M227.053,231.015H135.674c-1.556-13.381-3.532-24.4-5.088-37.78-3,0-7.2.051-10.368-1.593a5.12,5.12,0,0,1-2.748-4.969c.591-7.168,1.142-15.3,1.749-22.074.521-5.82,1.121-11.882,4.208-16.844,3.278-5.268,9.023-8.619,15-10.276s12.257-1.806,18.46-1.944c.445-1.845.4-3.27.847-5.115,7.119,1.558,13.967,3.036,21.085,4.594,1.422,3.388,2.355,6.16,3.777,9.548.517,0,1.4.03,1.922.03.444-2.879,1.056-5.988,1.5-8.868,1.183-.438,4.056-1.855,5.239-2.294.065,1.255.577,5.169.577,5.169,5.941.727,9.87.241,15.811.968,2.436.3,4.96.627,7.04,1.929a11.516,11.516,0,0,1,4.608,6.674,38.943,38.943,0,0,1,1.106,8.2c1.8,25.555-5.223,51.942,6.652,74.642" transform="translate(-55.581 -61.718)" fill="#ee4f47"/>
          <path id="Trazado_912384" data-name="Trazado 912384" d="M126.422,235.544c-1.41-.252-2.985-.276-4.255-1.014a2.39,2.39,0,0,1-1.215-2.251c.319-3.137,5.412-4.132,7.823-4.7a27.466,27.466,0,0,1,13.779.1c3.6,1.028,7.979,2.95,9.865,6.4,0,0-25.2,1.607-26,1.465" transform="translate(-57.233 -107.303)"/>
          <path id="Trazado_912385" data-name="Trazado 912385" d="M180.636,221a213.28,213.28,0,0,1,4.2-21.692" transform="translate(-85.482 -94.316)" fill="none" stroke="#000" stroke-linecap="round" stroke-linejoin="round" stroke-width="1"/>
          <path id="Trazado_912386" data-name="Trazado 912386" d="M213.628,141.059q-.489,5.874-.979,11.748c-6.067-4-12.555-7.976-18.622-11.973" transform="translate(-91.818 -66.646)" fill="none" stroke="#000" stroke-linecap="round" stroke-linejoin="round" stroke-width="1"/>
          <path id="Trazado_912387" data-name="Trazado 912387" d="M248.539,140.624q1.038,4.758,2.077,9.516l3.253-6.44" transform="translate(-117.615 -66.547)" fill="none" stroke="#000" stroke-linecap="round" stroke-linejoin="round" stroke-width="1"/>
          <path id="Trazado_912388" data-name="Trazado 912388" d="M244.176,160.714c3.9,28.508,4.342,54.12,6.915,84.7" transform="translate(-115.551 -76.054)" fill="none" stroke="#000" stroke-linecap="round" stroke-linejoin="round" stroke-width="1"/>
          <path id="Trazado_912389" data-name="Trazado 912389" d="M319.1,260.824c-5.1-10.206-6.73-21.723-7.088-33.128s1.135-22.785,2.419-34.123" transform="translate(-147.626 -91.604)" fill="none" stroke="#000" stroke-linecap="round" stroke-linejoin="round" stroke-width="1"/>
          <path id="Trazado_912390" data-name="Trazado 912390" d="M328.253,201.87a205.254,205.254,0,0,0-9.889,24.906,30.713,30.713,0,0,0-1.971,9.317,11.747,11.747,0,0,0,3.273,8.7" transform="translate(-149.725 -95.53)" fill="none" stroke="#000" stroke-linecap="round" stroke-linejoin="round" stroke-width="1"/>
          <path id="Trazado_912391" data-name="Trazado 912391" d="M248.226,253.837c-1.914,1.852-2.613,9.683-.63,11.46,9.093,8.151,13.217,2.958,17.864,4.324a13.922,13.922,0,0,0,4.267.782c1.451-.042.263-8,1.106-9.18Z" transform="translate(-116.607 -120.123)" fill="#e08860"/>
          <path id="Trazado_912392" data-name="Trazado 912392" d="M263.75,268.389a52.22,52.22,0,0,1,6.128,11.556,49.029,49.029,0,0,1-3.636,8.741,1.915,1.915,0,0,1-1.593-1.093,3.994,3.994,0,0,1-.283-1.873,13.452,13.452,0,0,1,1.192-5.083,29.825,29.825,0,0,0-6.052-8.6Z" transform="translate(-122.805 -127.009)" fill="#e08860"/>
          <path id="Trazado_912393" data-name="Trazado 912393" d="M274.06,266.92a63.088,63.088,0,0,1,7.4,13.961c-1,3.828-2.694,6.986-4.393,10.56a2.312,2.312,0,0,1-1.925-1.32,4.822,4.822,0,0,1-.342-2.262,16.248,16.248,0,0,1,1.44-6.141,36.043,36.043,0,0,0-7.311-10.395Z" transform="translate(-127.266 -126.314)" fill="#e08860"/>
          <path id="Trazado_912394" data-name="Trazado 912394" d="M287.824,268.8a63.074,63.074,0,0,1,7.4,13.961c-1,3.828-2.694,6.986-4.393,10.56a2.312,2.312,0,0,1-1.925-1.32,4.821,4.821,0,0,1-.342-2.262,16.249,16.249,0,0,1,1.44-6.141,36.044,36.044,0,0,0-7.311-10.395Z" transform="translate(-133.779 -127.205)" fill="#e08860"/>
          <path id="Trazado_912395" data-name="Trazado 912395" d="M289.862,267.859a63.081,63.081,0,0,1,11.855,10.448c.411,3.936-.055,7.488-.382,11.431a2.314,2.314,0,0,1-2.267-.555,4.825,4.825,0,0,1-1.118-2,16.238,16.238,0,0,1-.821-6.254,36.045,36.045,0,0,0-10.51-7.144Z" transform="translate(-135.636 -126.758)" fill="#e08860"/>
          <path id="Trazado_912396" data-name="Trazado 912396" d="M189.159,243.225c-15.941,2.4-21.359,2.72-37.3,5.118a87.7,87.7,0,0,1,.7-12.1c-8.219-6.087-19.8-6.177-28.958-1.627q-.946,14.64-1.891,29.28c-.235,3.649-.346,7.7,2.014,10.5,3.22,3.809,9.156,3.271,14.03,2.215,22.667-4.913,33.348-13.482,54.539-19.433-.392-2.895-.795-12.02-3.133-13.947" transform="translate(-57.54 -109.51)" fill="#e08860"/>
          <path id="Trazado_912397" data-name="Trazado 912397" d="M158.145,272.86a23.521,23.521,0,0,1,10.921-9.408" transform="translate(-74.839 -124.673)" fill="none" stroke="#000" stroke-linecap="round" stroke-linejoin="round" stroke-width="1"/>
          <line id="Línea_1712" data-name="Línea 1712" x2="17.837" transform="translate(141.763 117.524)" fill="none" stroke="#000" stroke-linecap="round" stroke-linejoin="round" stroke-width="1"/>
          <path id="Trazado_912398" data-name="Trazado 912398" d="M412.273,272.817H334.38l12.691-51.891h77.894Z" transform="translate(-158.238 -104.548)" fill="#323e78"/>
          <path id="Trazado_912399" data-name="Trazado 912399" d="M416.289,272.817H338.4l12.691-51.891H428.98Z" transform="translate(-160.138 -104.548)"/>
          <rect id="Rectángulo_404040" data-name="Rectángulo 404040" width="43.289" height="2.15" transform="translate(133.702 166.119)" fill="#323e78"/>
          <path id="Trazado_912400" data-name="Trazado 912400" d="M369.379,21.544H304.546V10.772A10.772,10.772,0,0,1,315.318,0h54.061a10.772,10.772,0,0,1,0,21.544" transform="translate(-144.119)" fill="#fbcc34"/>
          <line id="Línea_1713" data-name="Línea 1713" x2="64.078" transform="translate(166.19 7.788)" fill="none" stroke="#000" stroke-linecap="round" stroke-linejoin="round" stroke-width="1"/>
          <line id="Línea_1714" data-name="Línea 1714" x2="64.078" transform="translate(166.19 10.772)" fill="none" stroke="#000" stroke-linecap="round" stroke-linejoin="round" stroke-width="1"/>
          <line id="Línea_1715" data-name="Línea 1715" x2="42.659" transform="translate(166.19 13.756)" fill="none" stroke="#000" stroke-linecap="round" stroke-linejoin="round" stroke-width="1"/>
          <path id="Trazado_912401" data-name="Trazado 912401" d="M374.688,114.647H304.546v-5.462a5.462,5.462,0,0,1,5.462-5.462h64.68a5.462,5.462,0,1,1,0,10.924" transform="translate(-144.119 -49.085)" fill="#fbcc34"/>
          <line id="Línea_1716" data-name="Línea 1716" x2="64.078" transform="translate(166.19 59.082)" fill="none" stroke="#000" stroke-linecap="round" stroke-linejoin="round" stroke-width="1"/>
          <line id="Línea_1717" data-name="Línea 1717" x2="33.529" transform="translate(166.19 62.066)" fill="none" stroke="#000" stroke-linecap="round" stroke-linejoin="round" stroke-width="1"/>
          <path id="Trazado_912402" data-name="Trazado 912402" d="M405.014,70h51.431V61.459a8.545,8.545,0,0,0-8.545-8.545H405.014a8.545,8.545,0,1,0,0,17.091" transform="translate(-187.62 -25.04)" fill="#ca7441"/>
          <line id="Línea_1718" data-name="Línea 1718" x1="50.833" transform="translate(213.421 34.052)" fill="none" stroke="#000" stroke-linecap="round" stroke-linejoin="round" stroke-width="1"/>
          <line id="Línea_1719" data-name="Línea 1719" x1="50.833" transform="translate(213.421 36.419)" fill="none" stroke="#000" stroke-linecap="round" stroke-linejoin="round" stroke-width="1"/>
          <line id="Línea_1720" data-name="Línea 1720" x1="33.841" transform="translate(230.412 38.786)" fill="none" stroke="#000" stroke-linecap="round" stroke-linejoin="round" stroke-width="1"/>
          <path id="Trazado_912403" data-name="Trazado 912403" d="M9.891,323.165H300.556a1.866,1.866,0,1,0,0-3.731H9.891a1.866,1.866,0,1,0,0,3.731" transform="translate(-3.798 -151.165)"/>
          <path id="Trazado_912404" data-name="Trazado 912404" d="M537.895,65.325a4.487,4.487,0,1,1-4.488-4.488,4.488,4.488,0,0,1,4.488,4.488" transform="translate(-250.299 -28.79)" fill="#ffbd45"/>
          <path id="Trazado_912405" data-name="Trazado 912405" d="M533.044,71.222a2.4,2.4,0,0,0,4.63,0Z" transform="translate(-252.251 -33.704)" fill="#fff"/>
          <path id="Trazado_912406" data-name="Trazado 912406" d="M532.283,68.448a1.011,1.011,0,0,1,2.022,0" transform="translate(-251.891 -31.913)" fill="none" stroke="#000" stroke-linecap="round" stroke-linejoin="round" stroke-width="0.5"/>
          <path id="Trazado_912407" data-name="Trazado 912407" d="M538.755,68.448a1.011,1.011,0,0,1,2.022,0" transform="translate(-254.953 -31.913)" fill="none" stroke="#000" stroke-linecap="round" stroke-linejoin="round" stroke-width="0.5"/>
          <line id="Línea_1721" data-name="Línea 1721" y1="2.437" transform="translate(283.108 27.874)" fill="none" stroke="#ffbd45" stroke-linecap="round" stroke-linejoin="round" stroke-width="1"/>
          <line id="Línea_1722" data-name="Línea 1722" y1="2.437" transform="translate(283.108 43.015)" fill="none" stroke="#ffbd45" stroke-linecap="round" stroke-linejoin="round" stroke-width="1"/>
          <line id="Línea_1723" data-name="Línea 1723" x2="2.437" transform="translate(289.46 36.663)" fill="none" stroke="#ffbd45" stroke-linecap="round" stroke-linejoin="round" stroke-width="1"/>
          <line id="Línea_1724" data-name="Línea 1724" x2="2.437" transform="translate(274.318 36.663)" fill="none" stroke="#ffbd45" stroke-linecap="round" stroke-linejoin="round" stroke-width="1"/>
          <line id="Línea_1725" data-name="Línea 1725" y1="1.724" x2="1.724" transform="translate(287.6 30.448)" fill="none" stroke="#ffbd45" stroke-linecap="round" stroke-linejoin="round" stroke-width="1"/>
          <line id="Línea_1726" data-name="Línea 1726" y1="1.724" x2="1.724" transform="translate(276.893 41.155)" fill="none" stroke="#ffbd45" stroke-linecap="round" stroke-linejoin="round" stroke-width="1"/>
          <line id="Línea_1727" data-name="Línea 1727" x2="1.724" y2="1.724" transform="translate(287.6 41.155)" fill="none" stroke="#ffbd45" stroke-linecap="round" stroke-linejoin="round" stroke-width="1"/>
          <line id="Línea_1728" data-name="Línea 1728" x2="1.724" y2="1.724" transform="translate(276.893 30.448)" fill="none" stroke="#ffbd45" stroke-linecap="round" stroke-linejoin="round" stroke-width="1"/>
          <path id="Trazado_912408" data-name="Trazado 912408" d="M109.117,71.607H72.06a6.647,6.647,0,0,1-6.647-6.647V20.75A6.647,6.647,0,0,1,72.06,14.1h37.057a6.647,6.647,0,0,1,6.647,6.647V64.96a6.647,6.647,0,0,1-6.647,6.647" transform="translate(-30.955 -6.674)" fill="#fbcc34"/>
          <line id="Línea_1729" data-name="Línea 1729" x2="33.628" transform="translate(46.911 20.785)" fill="none" stroke="#000" stroke-linecap="round" stroke-linejoin="round" stroke-width="1"/>
          <rect id="Rectángulo_404041" data-name="Rectángulo 404041" width="4.378" height="4.378" transform="translate(38.871 18.591)" fill="none" stroke="#000" stroke-linecap="round" stroke-linejoin="round" stroke-width="1"/>
          <path id="Trazado_912409" data-name="Trazado 912409" d="M75.905,36.79l1.344,1.191,5.031-4.148" transform="translate(-35.92 -16.011)" fill="none" stroke="#000" stroke-linecap="round" stroke-linejoin="round" stroke-width="1"/>
          <line id="Línea_1730" data-name="Línea 1730" x2="33.628" transform="translate(46.911 31.916)" fill="none" stroke="#000" stroke-linecap="round" stroke-linejoin="round" stroke-width="1"/>
          <rect id="Rectángulo_404042" data-name="Rectángulo 404042" width="4.378" height="4.378" transform="translate(38.871 29.722)" fill="none" stroke="#000" stroke-linecap="round" stroke-linejoin="round" stroke-width="1"/>
          <path id="Trazado_912410" data-name="Trazado 912410" d="M75.905,57.921l1.344,1.191,5.031-4.148" transform="translate(-35.92 -26.011)" fill="none" stroke="#000" stroke-linecap="round" stroke-linejoin="round" stroke-width="1"/>
          <line id="Línea_1731" data-name="Línea 1731" x2="33.628" transform="translate(46.911 43.048)" fill="none" stroke="#000" stroke-linecap="round" stroke-linejoin="round" stroke-width="1"/>
          <rect id="Rectángulo_404043" data-name="Rectángulo 404043" width="4.378" height="4.378" transform="translate(38.871 40.853)" fill="none" stroke="#000" stroke-linecap="round" stroke-linejoin="round" stroke-width="1"/>
          <path id="Trazado_912411" data-name="Trazado 912411" d="M75.905,79.053l1.344,1.191L82.28,76.1" transform="translate(-35.92 -36.01)" fill="none" stroke="#000" stroke-linecap="round" stroke-linejoin="round" stroke-width="1"/>
          <line id="Línea_1732" data-name="Línea 1732" x2="33.628" transform="translate(46.911 54.179)" fill="none" stroke="#000" stroke-linecap="round" stroke-linejoin="round" stroke-width="1"/>
          <rect id="Rectángulo_404044" data-name="Rectángulo 404044" width="4.378" height="4.378" transform="translate(38.871 51.985)" fill="none" stroke="#000" stroke-linecap="round" stroke-linejoin="round" stroke-width="1"/>
          <path id="Trazado_912412" data-name="Trazado 912412" d="M75.905,100.184l1.344,1.191,5.031-4.148" transform="translate(-35.92 -46.01)" fill="none" stroke="#000" stroke-linecap="round" stroke-linejoin="round" stroke-width="1"/>
        </g>
      </g>
    </g>
  </g>
</svg>
