<svg xmlns="http://www.w3.org/2000/svg" width="109.949" height="105.704" viewBox="0 0 109.949 105.704">
  <g id="Grupo_1101197" data-name="Grupo 1101197" transform="translate(0 -9.884)">
    <path id="Trazado_911971" data-name="Trazado 911971" d="M209.723,164.117a36.32,36.32,0,0,1,36.006,44.137,65.817,65.817,0,0,0-1.639,14.172v9.223a2.558,2.558,0,0,1-2.558,2.558h-9.223a65.817,65.817,0,0,0-14.172,1.639,36.3,36.3,0,1,1-8.414-71.729Z" transform="translate(-136.631 -121.109)" fill="#ffbd45"/>
    <path id="Trazado_911973" data-name="Trazado 911973" d="M44.9,9.889A44.246,44.246,0,0,0,1.037,63.66a80.191,80.191,0,0,1,2,17.265V92.161A3.117,3.117,0,0,0,6.15,95.278H17.386a80.194,80.194,0,0,1,17.265,2A44.218,44.218,0,1,0,44.9,9.889Z" fill="#ee4f47"/>
    <circle id="Elipse_11530" data-name="Elipse 11530" cx="6.848" cy="6.848" r="6.848" transform="translate(16.555 49.567)" fill="#fff"/>
    <circle id="Elipse_11531" data-name="Elipse 11531" cx="6.848" cy="6.848" r="6.848" transform="translate(35.924 49.567)" fill="#fff"/>
    <circle id="Elipse_11532" data-name="Elipse 11532" cx="6.848" cy="6.848" r="6.848" transform="translate(55.292 49.567)" fill="#fff"/>
  </g>
</svg>
