<svg id="Grupo_1101211" data-name="Grupo 1101211" xmlns="http://www.w3.org/2000/svg" width="105.863" height="105.863" viewBox="0 0 105.863 105.863">
  <path id="Trazado_911981" data-name="Trazado 911981" d="M94.457,0H11.407A11.419,11.419,0,0,0,0,11.407V72.244A11.419,11.419,0,0,0,11.407,83.65h26.32l8.716,17.434c1.518,3.037,3.882,4.779,6.488,4.779s4.97-1.742,6.488-4.779l8.717-17.433h26.32a11.419,11.419,0,0,0,11.406-11.407V11.407A11.419,11.419,0,0,0,94.457,0Zm0,0" fill="#e7f0ef"/>
  <path id="Trazado_911982" data-name="Trazado 911982" d="M297.525,0H256V105.863c2.606,0,4.97-1.742,6.488-4.779l8.717-17.433h26.32a11.419,11.419,0,0,0,11.406-11.407V11.407A11.419,11.419,0,0,0,297.525,0Zm0,0" transform="translate(-203.069)" fill="#c5e1e6"/>
  <path id="Trazado_911983" data-name="Trazado 911983" d="M218.613,262.105a9.745,9.745,0,1,0,9.746,9.745A9.757,9.757,0,0,0,218.613,262.105Zm0,0" transform="translate(-165.681 -207.911)" fill="#ee4f47"/>
  <path id="Trazado_911984" data-name="Trazado 911984" d="M218.613,64.27a9.756,9.756,0,0,0-9.745,9.745v14.33a9.746,9.746,0,0,0,19.491,0V74.014A9.757,9.757,0,0,0,218.613,64.27Zm0,0" transform="translate(-165.681 -50.981)" fill="#ee4f47"/>
  <g id="Grupo_1101210" data-name="Grupo 1101210" transform="translate(52.931 13.288)">
    <path id="Trazado_911985" data-name="Trazado 911985" d="M265.746,271.851A9.757,9.757,0,0,0,256,262.105V281.6a9.757,9.757,0,0,0,9.746-9.745Zm0,0" transform="translate(-256 -221.199)" fill="#ee4f47"/>
    <path id="Trazado_911986" data-name="Trazado 911986" d="M265.746,88.341V74.011A9.757,9.757,0,0,0,256,64.266V98.087a9.757,9.757,0,0,0,9.746-9.745Zm0,0" transform="translate(-256 -64.266)" fill="#ee4f47"/>
  </g>
</svg>
