<svg xmlns="http://www.w3.org/2000/svg" width="104.205" height="84.328" viewBox="0 0 104.205 84.328">
  <g id="Grupo_1101213" data-name="Grupo 1101213" transform="translate(0 -48.832)">
    <path id="Trazado_911987" data-name="Trazado 911987" d="M84.671,48.832H19.534A19.534,19.534,0,0,0,0,68.366V99.34a19.534,19.534,0,0,0,19.534,19.534h14.18a7.893,7.893,0,0,1,6.452,3.347l6.034,8.565a5.6,5.6,0,0,0,9.153,0l6.034-8.565a7.893,7.893,0,0,1,6.452-3.347H84.671A19.534,19.534,0,0,0,104.205,99.34V68.366A19.533,19.533,0,0,0,84.671,48.832Z" transform="translate(0 0)" fill="#ee4f47"/>
    <path id="Trazado_911988" data-name="Trazado 911988" d="M31.837,76.279a49.933,49.933,0,0,1,8.171-27.447H19.534A19.534,19.534,0,0,0,0,68.366V99.34a19.534,19.534,0,0,0,19.534,19.534h14.18a7.893,7.893,0,0,1,6.452,3.347l6.034,8.565a5.6,5.6,0,0,0,9.153,0l6.034-8.565c.035-.049.072-.1.108-.144A50.181,50.181,0,0,1,31.837,76.279Z" transform="translate(0 0)" fill="#ee4f47"/>
    <path id="Trazado_911989" data-name="Trazado 911989" d="M123.475,218.9c-8.74,0-15.825,7.6-15.825,16.971a7.087,7.087,0,0,0,7.087,7.087h17.476a7.087,7.087,0,0,0,7.087-7.087C139.3,226.5,132.215,218.9,123.475,218.9Z" transform="translate(-85.74 -135.456)" fill="#d1d0ff"/>
    <g id="Grupo_1101212" data-name="Grupo 1101212" transform="translate(25.362 63.091)">
      <circle id="Elipse_11534" data-name="Elipse 11534" cx="12.373" cy="12.373" r="12.373" fill="#ecebff"/>
      <path id="Trazado_911990" data-name="Trazado 911990" d="M342.157,164.637h-4.841a1.572,1.572,0,1,0,0,3.145h3.268v21.075a1.572,1.572,0,1,0,3.145,0V166.21A1.572,1.572,0,0,0,342.157,164.637Z" transform="translate(-292.773 -155.327)" fill="#ecebff"/>
    </g>
  </g>
</svg>
