<svg xmlns="http://www.w3.org/2000/svg" width="354.602" height="258.156" viewBox="0 0 354.602 258.156">
  <g id="Grupo_1102787" data-name="Grupo 1102787" transform="translate(-307.91 -1104)">
    <path id="Trazado_912873" data-name="Trazado 912873" d="M7.32-2.125H3.563L2.906,0H-.023L4.148-11.375H6.727L10.93,0H7.984Zm-3.1-2.117H6.664L5.438-8.187ZM16.75-6.07l-.867-.062a1.558,1.558,0,0,0-1.594.781V0H11.656V-8.453h2.469l.086,1.086a2.039,2.039,0,0,1,1.852-1.242,2.567,2.567,0,0,1,.734.094Zm6.063,0-.867-.062a1.558,1.558,0,0,0-1.594.781V0H17.719V-8.453h2.469l.086,1.086a2.039,2.039,0,0,1,1.852-1.242,2.567,2.567,0,0,1,.734.094ZM23.148-4.3a4.989,4.989,0,0,1,.492-2.254,3.52,3.52,0,0,1,1.414-1.52,4.259,4.259,0,0,1,2.164-.531,3.887,3.887,0,0,1,2.992,1.176,4.512,4.512,0,0,1,1.094,3.2v.094A4.378,4.378,0,0,1,30.207-1,3.9,3.9,0,0,1,27.234.156a3.942,3.942,0,0,1-2.9-1.082,4.232,4.232,0,0,1-1.18-2.934Zm2.633.164a3.145,3.145,0,0,0,.367,1.719,1.223,1.223,0,0,0,1.086.547q1.406,0,1.438-2.164V-4.3q0-2.273-1.453-2.273-1.32,0-1.43,1.961Zm6.375-.148a5.708,5.708,0,0,1,.422-2.266,3.4,3.4,0,0,1,1.211-1.52,3.192,3.192,0,0,1,1.836-.535,2.538,2.538,0,0,1,2.063.891l.094-.734h2.391V-.32a3.564,3.564,0,0,1-.52,1.941,3.334,3.334,0,0,1-1.5,1.266,5.528,5.528,0,0,1-2.281.441,4.769,4.769,0,0,1-1.8-.352,3.251,3.251,0,0,1-1.332-.914l1.1-1.547a2.414,2.414,0,0,0,1.938.867,1.568,1.568,0,0,0,1.75-1.8V-.68a2.472,2.472,0,0,1-1.914.836,3.055,3.055,0,0,1-2.5-1.184A4.9,4.9,0,0,1,32.156-4.2Zm2.641.164a3.007,3.007,0,0,0,.391,1.645,1.232,1.232,0,0,0,1.094.605,1.4,1.4,0,0,0,1.242-.57V-6A1.363,1.363,0,0,0,36.3-6.578a1.241,1.241,0,0,0-1.1.629A3.429,3.429,0,0,0,34.8-4.125ZM46.43,0a2.973,2.973,0,0,1-.25-.758,2.448,2.448,0,0,1-2.031.914,3,3,0,0,1-2.031-.723,2.3,2.3,0,0,1-.836-1.816A2.364,2.364,0,0,1,42.3-4.461a5.174,5.174,0,0,1,2.953-.7h.813v-.445q0-1.164-1.008-1.164a.822.822,0,0,0-.937.922H41.484a2.364,2.364,0,0,1,1.043-1.992,4.379,4.379,0,0,1,2.66-.766,3.843,3.843,0,0,1,2.555.789A2.743,2.743,0,0,1,48.7-5.656v3.742a3.832,3.832,0,0,0,.359,1.781V0ZM44.781-1.719A1.469,1.469,0,0,0,45.6-1.93a1.322,1.322,0,0,0,.465-.477V-3.758H45.3q-1.375,0-1.375,1.234a.754.754,0,0,0,.242.582A.876.876,0,0,0,44.781-1.719Zm7.8-6.734.086.992a2.867,2.867,0,0,1,2.414-1.148,2.412,2.412,0,0,1,1.973.789,3.757,3.757,0,0,1,.676,2.375V0H55.086V-5.336a1.426,1.426,0,0,0-.258-.941,1.193,1.193,0,0,0-.937-.3,1.256,1.256,0,0,0-1.148.609V0H50.109V-8.453Zm9.672-2.1v2.1h1.391v1.828H62.25v3.867a.987.987,0,0,0,.172.664.922.922,0,0,0,.68.188,3.862,3.862,0,0,0,.656-.047V-.07a4.859,4.859,0,0,1-1.484.227,2.758,2.758,0,0,1-2.008-.641,2.626,2.626,0,0,1-.648-1.945v-4.2H58.539V-8.453h1.078v-2.1ZM68.766.156A4.345,4.345,0,0,1,65.617-1a4.006,4.006,0,0,1-1.2-3.02v-.219a5.191,5.191,0,0,1,.48-2.289,3.516,3.516,0,0,1,1.4-1.535,4.233,4.233,0,0,1,2.188-.543A3.659,3.659,0,0,1,71.3-7.5a4.344,4.344,0,0,1,1.031,3.082V-3.4H67.094a1.9,1.9,0,0,0,.617,1.117,1.836,1.836,0,0,0,1.234.406A2.366,2.366,0,0,0,70.9-2.75l1.2,1.422A3.363,3.363,0,0,1,70.707-.246,4.713,4.713,0,0,1,68.766.156Zm-.3-6.734q-1.156,0-1.375,1.531H69.75v-.2a1.3,1.3,0,0,0-.32-.98A1.275,1.275,0,0,0,68.469-6.578Z" transform="translate(377.051 1119)" fill="#12263f"/>
    <path id="Trazado_912874" data-name="Trazado 912874" d="M.859,0V-11.375H4.523a5.39,5.39,0,0,1,2.711.684,4.805,4.805,0,0,1,1.879,1.93A5.826,5.826,0,0,1,9.8-5.969v.523a5.86,5.86,0,0,1-.66,2.8A4.826,4.826,0,0,1,7.277-.707,5.271,5.271,0,0,1,4.6,0ZM3.6-9.258v7.148h.953a2.133,2.133,0,0,0,1.813-.84A4.116,4.116,0,0,0,7-5.445v-.492a4.082,4.082,0,0,0-.633-2.484,2.17,2.17,0,0,0-1.844-.836ZM16.117-.914A2.714,2.714,0,0,1,13.859.156a2.662,2.662,0,0,1-2.105-.809,3.4,3.4,0,0,1-.715-2.324V-8.453h2.633v5.492a.946.946,0,0,0,1.055,1.086,1.376,1.376,0,0,0,1.289-.648v-5.93h2.648V0H16.2ZM27.953-4.156a5.152,5.152,0,0,1-.859,3.2A2.878,2.878,0,0,1,24.672.156,2.5,2.5,0,0,1,22.594-.867L22.484,0H20.125V-12h2.633v4.227a2.41,2.41,0,0,1,1.9-.836,2.879,2.879,0,0,1,2.438,1.133,5.179,5.179,0,0,1,.859,3.188ZM25.313-4.32a3.447,3.447,0,0,0-.324-1.738,1.092,1.092,0,0,0-1-.52,1.26,1.26,0,0,0-1.234.68v3.359a1.267,1.267,0,0,0,1.25.672,1.118,1.118,0,0,0,1.18-.906A6.518,6.518,0,0,0,25.313-4.32ZM31.891,0H29.25V-8.453h2.641Zm-2.8-10.633a1.175,1.175,0,0,1,.406-.922,1.533,1.533,0,0,1,1.055-.359,1.533,1.533,0,0,1,1.055.359,1.175,1.175,0,0,1,.406.922,1.175,1.175,0,0,1-.406.922,1.533,1.533,0,0,1-1.055.359A1.533,1.533,0,0,1,29.5-9.711,1.175,1.175,0,0,1,29.094-10.633Zm7.484.078v2.1h1.391v1.828H36.578v3.867a.987.987,0,0,0,.172.664.922.922,0,0,0,.68.188,3.862,3.862,0,0,0,.656-.047V-.07A4.859,4.859,0,0,1,36.6.156a2.758,2.758,0,0,1-2.008-.641,2.626,2.626,0,0,1-.648-1.945v-4.2H32.867V-8.453h1.078v-2.1ZM43.766,0a2.973,2.973,0,0,1-.25-.758,2.448,2.448,0,0,1-2.031.914,3,3,0,0,1-2.031-.723,2.3,2.3,0,0,1-.836-1.816,2.364,2.364,0,0,1,1.016-2.078,5.174,5.174,0,0,1,2.953-.7H43.4v-.445q0-1.164-1.008-1.164a.822.822,0,0,0-.937.922H38.82a2.364,2.364,0,0,1,1.043-1.992,4.379,4.379,0,0,1,2.66-.766,3.843,3.843,0,0,1,2.555.789,2.743,2.743,0,0,1,.961,2.164v3.742A3.832,3.832,0,0,0,46.4-.133V0ZM42.117-1.719a1.469,1.469,0,0,0,.816-.211,1.322,1.322,0,0,0,.465-.477V-3.758h-.766q-1.375,0-1.375,1.234a.754.754,0,0,0,.242.582A.876.876,0,0,0,42.117-1.719Zm8.445-8.836v2.1h1.391v1.828H50.563v3.867a.987.987,0,0,0,.172.664.922.922,0,0,0,.68.188,3.862,3.862,0,0,0,.656-.047V-.07a4.859,4.859,0,0,1-1.484.227,2.758,2.758,0,0,1-2.008-.641A2.626,2.626,0,0,1,47.93-2.43v-4.2H46.852V-8.453H47.93v-2.1ZM55.766,0H53.125V-8.453h2.641Zm-2.8-10.633a1.175,1.175,0,0,1,.406-.922,1.533,1.533,0,0,1,1.055-.359,1.533,1.533,0,0,1,1.055.359,1.175,1.175,0,0,1,.406.922,1.175,1.175,0,0,1-.406.922,1.533,1.533,0,0,1-1.055.359,1.533,1.533,0,0,1-1.055-.359A1.175,1.175,0,0,1,52.969-10.633Zm7.789,7.5,1.336-5.32h2.773L62.109,0H59.422L56.664-8.453h2.781ZM65.2-4.3A4.989,4.989,0,0,1,65.7-6.559a3.52,3.52,0,0,1,1.414-1.52,4.259,4.259,0,0,1,2.164-.531,3.887,3.887,0,0,1,2.992,1.176,4.512,4.512,0,0,1,1.094,3.2v.094A4.378,4.378,0,0,1,72.262-1,3.9,3.9,0,0,1,69.289.156a3.942,3.942,0,0,1-2.9-1.082,4.232,4.232,0,0,1-1.18-2.934Zm2.633.164A3.145,3.145,0,0,0,68.2-2.422a1.223,1.223,0,0,0,1.086.547q1.406,0,1.438-2.164V-4.3q0-2.273-1.453-2.273-1.32,0-1.43,1.961Z" transform="translate(542.051 1119)" fill="#12263f"/>
    <path id="Trazado_912875" data-name="Trazado 912875" d="M3.6-3.859V0H.859V-11.375H5.4a5.287,5.287,0,0,1,2.309.48A3.621,3.621,0,0,1,9.262-9.527a3.734,3.734,0,0,1,.551,2.012,3.291,3.291,0,0,1-1.191,2.66,4.943,4.943,0,0,1-3.27,1Zm0-2.117H5.4a1.7,1.7,0,0,0,1.215-.4A1.48,1.48,0,0,0,7.031-7.5,1.83,1.83,0,0,0,6.6-8.773,1.522,1.522,0,0,0,5.43-9.258H3.6ZM10.719-4.3a4.989,4.989,0,0,1,.492-2.254,3.52,3.52,0,0,1,1.414-1.52,4.259,4.259,0,0,1,2.164-.531,3.887,3.887,0,0,1,2.992,1.176,4.512,4.512,0,0,1,1.094,3.2v.094A4.378,4.378,0,0,1,17.777-1,3.9,3.9,0,0,1,14.8.156a3.942,3.942,0,0,1-2.9-1.082,4.232,4.232,0,0,1-1.18-2.934Zm2.633.164a3.145,3.145,0,0,0,.367,1.719,1.223,1.223,0,0,0,1.086.547q1.406,0,1.438-2.164V-4.3q0-2.273-1.453-2.273-1.32,0-1.43,1.961ZM22.813,0H20.172V-12h2.641Zm5.711.156A4.345,4.345,0,0,1,25.375-1a4.006,4.006,0,0,1-1.2-3.02v-.219a5.191,5.191,0,0,1,.48-2.289,3.516,3.516,0,0,1,1.4-1.535,4.233,4.233,0,0,1,2.188-.543A3.659,3.659,0,0,1,31.055-7.5a4.344,4.344,0,0,1,1.031,3.082V-3.4H26.852a1.9,1.9,0,0,0,.617,1.117,1.836,1.836,0,0,0,1.234.406,2.366,2.366,0,0,0,1.953-.875l1.2,1.422A3.363,3.363,0,0,1,30.465-.246,4.713,4.713,0,0,1,28.523.156Zm-.3-6.734q-1.156,0-1.375,1.531h2.656v-.2a1.3,1.3,0,0,0-.32-.98A1.275,1.275,0,0,0,28.227-6.578Zm-.031-5.43h2.781L28.8-9.555H26.656Zm7.438,3.555.086.992a2.906,2.906,0,0,1,2.414-1.148A2.14,2.14,0,0,1,40.3-7.336a2.813,2.813,0,0,1,2.484-1.273q2.57,0,2.641,3.109V0H42.781V-5.336a1.611,1.611,0,0,0-.219-.945.931.931,0,0,0-.8-.3,1.247,1.247,0,0,0-1.164.7l.008.109V0H37.969V-5.32a1.694,1.694,0,0,0-.211-.961.929.929,0,0,0-.8-.3,1.263,1.263,0,0,0-1.156.7V0H33.164V-8.453ZM49.7,0H47.063V-8.453H49.7Zm-2.8-10.633a1.175,1.175,0,0,1,.406-.922,1.533,1.533,0,0,1,1.055-.359,1.533,1.533,0,0,1,1.055.359,1.175,1.175,0,0,1,.406.922,1.175,1.175,0,0,1-.406.922,1.533,1.533,0,0,1-1.055.359,1.533,1.533,0,0,1-1.055-.359A1.175,1.175,0,0,1,46.906-10.633ZM54.9-1.875a1.171,1.171,0,0,0,.859-.3,1.1,1.1,0,0,0,.3-.84h2.469a2.922,2.922,0,0,1-1,2.281,3.705,3.705,0,0,1-2.566.891A3.751,3.751,0,0,1,52.055-1a4.556,4.556,0,0,1-1.062-3.2v-.109a5.149,5.149,0,0,1,.473-2.262,3.441,3.441,0,0,1,1.363-1.508,4.065,4.065,0,0,1,2.109-.527,3.658,3.658,0,0,1,2.617.914,3.242,3.242,0,0,1,.969,2.477H56.055a1.445,1.445,0,0,0-.32-1.008,1.106,1.106,0,0,0-.859-.352q-1.023,0-1.2,1.3a9.206,9.206,0,0,0-.055,1.141,3.616,3.616,0,0,0,.3,1.766A1.055,1.055,0,0,0,54.9-1.875ZM59.3-4.3A4.989,4.989,0,0,1,59.8-6.559a3.52,3.52,0,0,1,1.414-1.52,4.259,4.259,0,0,1,2.164-.531,3.887,3.887,0,0,1,2.992,1.176,4.512,4.512,0,0,1,1.094,3.2v.094A4.378,4.378,0,0,1,66.363-1,3.9,3.9,0,0,1,63.391.156a3.942,3.942,0,0,1-2.9-1.082,4.232,4.232,0,0,1-1.18-2.934Zm2.633.164A3.145,3.145,0,0,0,62.3-2.422a1.223,1.223,0,0,0,1.086.547q1.406,0,1.438-2.164V-4.3q0-2.273-1.453-2.273-1.32,0-1.43,1.961Z" transform="translate(595.051 1222)" fill="#12263f"/>
    <path id="Trazado_912876" data-name="Trazado 912876" d="M7.32-2.125H3.563L2.906,0H-.023L4.148-11.375H6.727L10.93,0H7.984Zm-3.1-2.117H6.664L5.438-8.187Zm15.266.078A5.1,5.1,0,0,1,18.6-1.02,2.843,2.843,0,0,1,16.2.156,2.437,2.437,0,0,1,14.289-.7V3.25H11.656v-11.7h2.461l.078.781a2.437,2.437,0,0,1,1.992-.937,2.866,2.866,0,0,1,2.43,1.152,5.16,5.16,0,0,1,.867,3.168Zm-2.633-.164q0-2.25-1.312-2.25a1.239,1.239,0,0,0-1.25.672v3.328a1.279,1.279,0,0,0,1.266.7q1.258,0,1.3-2.172ZM25.758-6.07l-.867-.062a1.558,1.558,0,0,0-1.594.781V0H20.664V-8.453h2.469l.086,1.086A2.039,2.039,0,0,1,25.07-8.609a2.567,2.567,0,0,1,.734.094ZM30.8.156A4.345,4.345,0,0,1,27.648-1a4.006,4.006,0,0,1-1.2-3.02v-.219a5.191,5.191,0,0,1,.48-2.289,3.516,3.516,0,0,1,1.4-1.535,4.233,4.233,0,0,1,2.188-.543A3.659,3.659,0,0,1,33.328-7.5a4.344,4.344,0,0,1,1.031,3.082V-3.4H29.125a1.9,1.9,0,0,0,.617,1.117,1.836,1.836,0,0,0,1.234.406A2.366,2.366,0,0,0,32.93-2.75l1.2,1.422A3.363,3.363,0,0,1,32.738-.246,4.713,4.713,0,0,1,30.8.156Zm-.3-6.734q-1.156,0-1.375,1.531h2.656v-.2a1.3,1.3,0,0,0-.32-.98A1.275,1.275,0,0,0,30.5-6.578Zm9.344,4.2a.608.608,0,0,0-.352-.539,5.348,5.348,0,0,0-1.336-.422,6.092,6.092,0,0,1-1.625-.574,2.722,2.722,0,0,1-.977-.863,2.061,2.061,0,0,1-.336-1.164,2.336,2.336,0,0,1,.961-1.918A3.958,3.958,0,0,1,38.7-8.609a4.386,4.386,0,0,1,2.688.758A2.37,2.37,0,0,1,42.4-5.859H39.758q0-1.016-1.07-1.016a1.061,1.061,0,0,0-.7.23.714.714,0,0,0-.281.574.655.655,0,0,0,.344.57,3.248,3.248,0,0,0,1.1.359,9.485,9.485,0,0,1,1.324.336,2.406,2.406,0,0,1,1.906,2.352A2.214,2.214,0,0,1,41.355-.57,4.505,4.505,0,0,1,38.7.156a4.6,4.6,0,0,1-1.937-.391A3.24,3.24,0,0,1,35.43-1.3a2.406,2.406,0,0,1-.477-1.414h2.461a1.017,1.017,0,0,0,.391.855,1.607,1.607,0,0,0,.961.27,1.264,1.264,0,0,0,.809-.219A.7.7,0,0,0,39.844-2.375Zm8.8,1.461A2.714,2.714,0,0,1,46.391.156a2.662,2.662,0,0,1-2.105-.809,3.4,3.4,0,0,1-.715-2.324V-8.453H46.2v5.492a.946.946,0,0,0,1.055,1.086,1.376,1.376,0,0,0,1.289-.648v-5.93H51.2V0H48.727Zm9.1-5.156-.867-.062a1.558,1.558,0,0,0-1.594.781V0H52.656V-8.453h2.469l.086,1.086a2.039,2.039,0,0,1,1.852-1.242,2.567,2.567,0,0,1,.734.094ZM63.227,0a2.973,2.973,0,0,1-.25-.758,2.448,2.448,0,0,1-2.031.914,3,3,0,0,1-2.031-.723,2.3,2.3,0,0,1-.836-1.816,2.364,2.364,0,0,1,1.016-2.078,5.174,5.174,0,0,1,2.953-.7h.813v-.445q0-1.164-1.008-1.164a.822.822,0,0,0-.937.922H58.281a2.364,2.364,0,0,1,1.043-1.992,4.379,4.379,0,0,1,2.66-.766,3.843,3.843,0,0,1,2.555.789A2.743,2.743,0,0,1,65.5-5.656v3.742a3.832,3.832,0,0,0,.359,1.781V0ZM61.578-1.719a1.469,1.469,0,0,0,.816-.211,1.322,1.322,0,0,0,.465-.477V-3.758h-.766q-1.375,0-1.375,1.234a.754.754,0,0,0,.242.582A.876.876,0,0,0,61.578-1.719Zm5.047-2.57a5.164,5.164,0,0,1,.867-3.164,2.854,2.854,0,0,1,2.422-1.156,2.428,2.428,0,0,1,1.906.891V-12h2.641V0H72.094l-.133-.906A2.493,2.493,0,0,1,69.9.156,2.849,2.849,0,0,1,67.508-1,5.327,5.327,0,0,1,66.625-4.289Zm2.633.164q0,2.25,1.313,2.25a1.3,1.3,0,0,0,1.25-.734V-5.828a1.261,1.261,0,0,0-1.234-.75q-1.219,0-1.32,1.969Zm6.367-.18a4.989,4.989,0,0,1,.492-2.254,3.52,3.52,0,0,1,1.414-1.52A4.259,4.259,0,0,1,79.7-8.609a3.887,3.887,0,0,1,2.992,1.176,4.512,4.512,0,0,1,1.094,3.2v.094A4.378,4.378,0,0,1,82.684-1,3.9,3.9,0,0,1,79.711.156a3.942,3.942,0,0,1-2.9-1.082,4.232,4.232,0,0,1-1.18-2.934Zm2.633.164a3.145,3.145,0,0,0,.367,1.719,1.223,1.223,0,0,0,1.086.547q1.406,0,1.438-2.164V-4.3q0-2.273-1.453-2.273-1.32,0-1.43,1.961Z" transform="translate(576.051 1320)" fill="#12263f"/>
    <path id="Trazado_912877" data-name="Trazado 912877" d="M5.086-4.016H3.6V0H.859V-11.375H5.336a4.993,4.993,0,0,1,3.164.9A3.046,3.046,0,0,1,9.641-7.937a3.7,3.7,0,0,1-.48,1.969A3.411,3.411,0,0,1,7.656-4.7L10.031-.117V0H7.094ZM3.6-6.133H5.336a1.559,1.559,0,0,0,1.176-.41,1.583,1.583,0,0,0,.395-1.145,1.6,1.6,0,0,0-.4-1.152,1.544,1.544,0,0,0-1.172-.418H3.6ZM15.266.156A4.345,4.345,0,0,1,12.117-1a4.006,4.006,0,0,1-1.2-3.02v-.219a5.191,5.191,0,0,1,.48-2.289,3.516,3.516,0,0,1,1.4-1.535,4.233,4.233,0,0,1,2.188-.543A3.659,3.659,0,0,1,17.8-7.5a4.344,4.344,0,0,1,1.031,3.082V-3.4H13.594a1.9,1.9,0,0,0,.617,1.117,1.836,1.836,0,0,0,1.234.406A2.366,2.366,0,0,0,17.4-2.75l1.2,1.422A3.363,3.363,0,0,1,17.207-.246,4.713,4.713,0,0,1,15.266.156Zm-.3-6.734q-1.156,0-1.375,1.531H16.25v-.2a1.3,1.3,0,0,0-.32-.98A1.275,1.275,0,0,0,14.969-6.578Zm9.344,4.2a.608.608,0,0,0-.352-.539,5.348,5.348,0,0,0-1.336-.422A6.092,6.092,0,0,1,21-3.91a2.722,2.722,0,0,1-.977-.863,2.061,2.061,0,0,1-.336-1.164,2.336,2.336,0,0,1,.961-1.918,3.958,3.958,0,0,1,2.516-.754,4.386,4.386,0,0,1,2.688.758,2.37,2.37,0,0,1,1.016,1.992H24.227q0-1.016-1.07-1.016a1.061,1.061,0,0,0-.7.23.714.714,0,0,0-.281.574.655.655,0,0,0,.344.57,3.248,3.248,0,0,0,1.1.359,9.486,9.486,0,0,1,1.324.336,2.406,2.406,0,0,1,1.906,2.352A2.214,2.214,0,0,1,25.824-.57a4.505,4.505,0,0,1-2.66.727,4.6,4.6,0,0,1-1.937-.391A3.24,3.24,0,0,1,19.9-1.3a2.406,2.406,0,0,1-.477-1.414h2.461a1.017,1.017,0,0,0,.391.855,1.607,1.607,0,0,0,.961.27,1.264,1.264,0,0,0,.809-.219A.7.7,0,0,0,24.313-2.375ZM32.172.156A4.345,4.345,0,0,1,29.023-1a4.006,4.006,0,0,1-1.2-3.02v-.219a5.191,5.191,0,0,1,.48-2.289,3.516,3.516,0,0,1,1.4-1.535,4.233,4.233,0,0,1,2.188-.543A3.659,3.659,0,0,1,34.7-7.5a4.344,4.344,0,0,1,1.031,3.082V-3.4H30.5a1.9,1.9,0,0,0,.617,1.117,1.836,1.836,0,0,0,1.234.406A2.366,2.366,0,0,0,34.3-2.75l1.2,1.422A3.363,3.363,0,0,1,34.113-.246,4.713,4.713,0,0,1,32.172.156Zm-.3-6.734q-1.156,0-1.375,1.531h2.656v-.2a1.3,1.3,0,0,0-.32-.98A1.275,1.275,0,0,0,31.875-6.578Zm10.031.508-.867-.062a1.558,1.558,0,0,0-1.594.781V0H36.813V-8.453h2.469l.086,1.086a2.039,2.039,0,0,1,1.852-1.242,2.567,2.567,0,0,1,.734.094Zm4.461,2.938L47.7-8.453h2.773L47.719,0H45.031L42.273-8.453h2.781ZM55.906,0a2.973,2.973,0,0,1-.25-.758,2.448,2.448,0,0,1-2.031.914,3,3,0,0,1-2.031-.723,2.3,2.3,0,0,1-.836-1.816,2.364,2.364,0,0,1,1.016-2.078,5.174,5.174,0,0,1,2.953-.7h.813v-.445q0-1.164-1.008-1.164a.822.822,0,0,0-.937.922H50.961A2.364,2.364,0,0,1,52-7.844a4.379,4.379,0,0,1,2.66-.766,3.843,3.843,0,0,1,2.555.789,2.743,2.743,0,0,1,.961,2.164v3.742a3.832,3.832,0,0,0,.359,1.781V0ZM54.258-1.719a1.469,1.469,0,0,0,.816-.211,1.322,1.322,0,0,0,.465-.477V-3.758h-.766q-1.375,0-1.375,1.234a.754.754,0,0,0,.242.582A.876.876,0,0,0,54.258-1.719ZM59.3-4.289a5.164,5.164,0,0,1,.867-3.164,2.854,2.854,0,0,1,2.422-1.156,2.428,2.428,0,0,1,1.906.891V-12h2.641V0H64.773l-.133-.906A2.493,2.493,0,0,1,62.578.156,2.849,2.849,0,0,1,60.188-1,5.327,5.327,0,0,1,59.3-4.289Zm2.633.164q0,2.25,1.313,2.25a1.3,1.3,0,0,0,1.25-.734V-5.828a1.261,1.261,0,0,0-1.234-.75q-1.219,0-1.32,1.969ZM68.3-4.3A4.989,4.989,0,0,1,68.8-6.559a3.52,3.52,0,0,1,1.414-1.52,4.259,4.259,0,0,1,2.164-.531,3.887,3.887,0,0,1,2.992,1.176,4.512,4.512,0,0,1,1.094,3.2v.094A4.378,4.378,0,0,1,75.363-1,3.9,3.9,0,0,1,72.391.156a3.942,3.942,0,0,1-2.9-1.082,4.232,4.232,0,0,1-1.18-2.934Zm2.633.164A3.145,3.145,0,0,0,71.3-2.422a1.223,1.223,0,0,0,1.086.547q1.406,0,1.438-2.164V-4.3q0-2.273-1.453-2.273-1.32,0-1.43,1.961Z" transform="translate(461.051 1362)" fill="#12263f"/>
    <path id="Trazado_912878" data-name="Trazado 912878" d="M7.32-2.125H3.563L2.906,0H-.023L4.148-11.375H6.727L10.93,0H7.984Zm-3.1-2.117H6.664L5.438-8.187Zm9.906-4.211.086.992a2.906,2.906,0,0,1,2.414-1.148,2.14,2.14,0,0,1,2.164,1.273,2.813,2.813,0,0,1,2.484-1.273q2.57,0,2.641,3.109V0H21.273V-5.336a1.611,1.611,0,0,0-.219-.945.931.931,0,0,0-.8-.3,1.247,1.247,0,0,0-1.164.7l.008.109V0H16.461V-5.32a1.694,1.694,0,0,0-.211-.961.929.929,0,0,0-.8-.3,1.263,1.263,0,0,0-1.156.7V0H11.656V-8.453ZM30.18,0a2.973,2.973,0,0,1-.25-.758A2.448,2.448,0,0,1,27.9.156a3,3,0,0,1-2.031-.723,2.3,2.3,0,0,1-.836-1.816,2.364,2.364,0,0,1,1.016-2.078A5.174,5.174,0,0,1,29-5.164h.813v-.445q0-1.164-1.008-1.164a.822.822,0,0,0-.937.922H25.234a2.364,2.364,0,0,1,1.043-1.992,4.379,4.379,0,0,1,2.66-.766,3.843,3.843,0,0,1,2.555.789,2.743,2.743,0,0,1,.961,2.164v3.742a3.832,3.832,0,0,0,.359,1.781V0ZM28.531-1.719a1.469,1.469,0,0,0,.816-.211,1.322,1.322,0,0,0,.465-.477V-3.758h-.766q-1.375,0-1.375,1.234a.754.754,0,0,0,.242.582A.876.876,0,0,0,28.531-1.719ZM41.758-4.156a5.152,5.152,0,0,1-.859,3.2A2.878,2.878,0,0,1,38.477.156,2.5,2.5,0,0,1,36.4-.867L36.289,0H33.93V-12h2.633v4.227a2.41,2.41,0,0,1,1.9-.836A2.879,2.879,0,0,1,40.9-7.477a5.179,5.179,0,0,1,.859,3.188ZM39.117-4.32a3.447,3.447,0,0,0-.324-1.738,1.092,1.092,0,0,0-1-.52,1.26,1.26,0,0,0-1.234.68v3.359a1.267,1.267,0,0,0,1.25.672,1.118,1.118,0,0,0,1.18-.906A6.518,6.518,0,0,0,39.117-4.32ZM45.7,0H43.055V-12H45.7Zm5.711.156A4.345,4.345,0,0,1,48.258-1a4.006,4.006,0,0,1-1.2-3.02v-.219a5.191,5.191,0,0,1,.48-2.289,3.516,3.516,0,0,1,1.4-1.535,4.233,4.233,0,0,1,2.188-.543A3.659,3.659,0,0,1,53.938-7.5a4.344,4.344,0,0,1,1.031,3.082V-3.4H49.734a1.9,1.9,0,0,0,.617,1.117,1.836,1.836,0,0,0,1.234.406,2.366,2.366,0,0,0,1.953-.875l1.2,1.422A3.363,3.363,0,0,1,53.348-.246,4.713,4.713,0,0,1,51.406.156Zm-.3-6.734q-1.156,0-1.375,1.531h2.656v-.2a1.3,1.3,0,0,0-.32-.98A1.275,1.275,0,0,0,51.109-6.578Z" transform="translate(326.051 1308)" fill="#12263f"/>
    <path id="Trazado_912879" data-name="Trazado 912879" d="M4.461-11.375,7-3.461l2.531-7.914h3.609V0h-2.75V-2.656l.266-5.437L7.906,0H6.094L3.336-8.1,3.6-2.656V0H.859V-11.375ZM18.852.156A4.345,4.345,0,0,1,15.7-1a4.006,4.006,0,0,1-1.2-3.02v-.219a5.191,5.191,0,0,1,.48-2.289,3.516,3.516,0,0,1,1.4-1.535,4.233,4.233,0,0,1,2.188-.543A3.659,3.659,0,0,1,21.383-7.5a4.344,4.344,0,0,1,1.031,3.082V-3.4H17.18A1.9,1.9,0,0,0,17.8-2.281a1.836,1.836,0,0,0,1.234.406,2.366,2.366,0,0,0,1.953-.875l1.2,1.422A3.363,3.363,0,0,1,20.793-.246,4.713,4.713,0,0,1,18.852.156Zm-.3-6.734q-1.156,0-1.375,1.531h2.656v-.2a1.3,1.3,0,0,0-.32-.98A1.275,1.275,0,0,0,18.555-6.578Zm7.984-3.977v2.1H27.93v1.828H26.539v3.867a.987.987,0,0,0,.172.664.922.922,0,0,0,.68.188,3.862,3.862,0,0,0,.656-.047V-.07a4.859,4.859,0,0,1-1.484.227,2.758,2.758,0,0,1-2.008-.641,2.626,2.626,0,0,1-.648-1.945v-4.2H22.828V-8.453h1.078v-2.1ZM31.742,0H29.1V-8.453h2.641Zm-2.8-10.633a1.175,1.175,0,0,1,.406-.922,1.533,1.533,0,0,1,1.055-.359,1.533,1.533,0,0,1,1.055.359,1.175,1.175,0,0,1,.406.922,1.175,1.175,0,0,1-.406.922,1.533,1.533,0,0,1-1.055.359,1.533,1.533,0,0,1-1.055-.359A1.175,1.175,0,0,1,28.945-10.633Zm7.992,8.758a1.171,1.171,0,0,0,.859-.3,1.1,1.1,0,0,0,.3-.84h2.469a2.922,2.922,0,0,1-1,2.281A3.705,3.705,0,0,1,37,.156,3.751,3.751,0,0,1,34.094-1a4.556,4.556,0,0,1-1.062-3.2v-.109A5.149,5.149,0,0,1,33.5-6.574a3.441,3.441,0,0,1,1.363-1.508,4.065,4.065,0,0,1,2.109-.527,3.658,3.658,0,0,1,2.617.914,3.242,3.242,0,0,1,.969,2.477H38.094a1.445,1.445,0,0,0-.32-1.008,1.106,1.106,0,0,0-.859-.352q-1.023,0-1.2,1.3a9.206,9.206,0,0,0-.055,1.141,3.616,3.616,0,0,0,.3,1.766A1.055,1.055,0,0,0,36.938-1.875Zm9.773.961A2.714,2.714,0,0,1,44.453.156a2.662,2.662,0,0,1-2.105-.809,3.4,3.4,0,0,1-.715-2.324V-8.453h2.633v5.492A.946.946,0,0,0,45.32-1.875a1.376,1.376,0,0,0,1.289-.648v-5.93h2.648V0H46.789ZM53.477,0H50.836V-12h2.641Zm1.289-4.3a4.989,4.989,0,0,1,.492-2.254,3.52,3.52,0,0,1,1.414-1.52,4.259,4.259,0,0,1,2.164-.531,3.887,3.887,0,0,1,2.992,1.176,4.512,4.512,0,0,1,1.094,3.2v.094A4.378,4.378,0,0,1,61.824-1,3.9,3.9,0,0,1,58.852.156a3.942,3.942,0,0,1-2.9-1.082,4.232,4.232,0,0,1-1.18-2.934Zm2.633.164a3.145,3.145,0,0,0,.367,1.719,1.223,1.223,0,0,0,1.086.547q1.406,0,1.438-2.164V-4.3q0-2.273-1.453-2.273-1.32,0-1.43,1.961ZM68.508-2.375a.608.608,0,0,0-.352-.539,5.348,5.348,0,0,0-1.336-.422A6.092,6.092,0,0,1,65.2-3.91a2.722,2.722,0,0,1-.977-.863,2.061,2.061,0,0,1-.336-1.164,2.336,2.336,0,0,1,.961-1.918,3.958,3.958,0,0,1,2.516-.754,4.386,4.386,0,0,1,2.688.758,2.37,2.37,0,0,1,1.016,1.992H68.422q0-1.016-1.07-1.016a1.061,1.061,0,0,0-.7.23.714.714,0,0,0-.281.574.655.655,0,0,0,.344.57,3.248,3.248,0,0,0,1.1.359,9.486,9.486,0,0,1,1.324.336,2.406,2.406,0,0,1,1.906,2.352A2.214,2.214,0,0,1,70.02-.57a4.505,4.505,0,0,1-2.66.727,4.6,4.6,0,0,1-1.937-.391A3.24,3.24,0,0,1,64.094-1.3a2.406,2.406,0,0,1-.477-1.414h2.461a1.017,1.017,0,0,0,.391.855,1.607,1.607,0,0,0,.961.27,1.264,1.264,0,0,0,.809-.219A.7.7,0,0,0,68.508-2.375ZM71.945-4.3a4.989,4.989,0,0,1,.492-2.254,3.52,3.52,0,0,1,1.414-1.52,4.259,4.259,0,0,1,2.164-.531,3.887,3.887,0,0,1,2.992,1.176,4.512,4.512,0,0,1,1.094,3.2v.094A4.378,4.378,0,0,1,79-1,3.9,3.9,0,0,1,76.031.156a3.942,3.942,0,0,1-2.9-1.082,4.232,4.232,0,0,1-1.18-2.934Zm2.633.164a3.145,3.145,0,0,0,.367,1.719,1.223,1.223,0,0,0,1.086.547q1.406,0,1.438-2.164V-4.3q0-2.273-1.453-2.273-1.32,0-1.43,1.961ZM85.688-2.375a.608.608,0,0,0-.352-.539A5.348,5.348,0,0,0,84-3.336a6.092,6.092,0,0,1-1.625-.574,2.722,2.722,0,0,1-.977-.863,2.061,2.061,0,0,1-.336-1.164,2.336,2.336,0,0,1,.961-1.918,3.958,3.958,0,0,1,2.516-.754,4.386,4.386,0,0,1,2.688.758,2.37,2.37,0,0,1,1.016,1.992H85.6q0-1.016-1.07-1.016a1.061,1.061,0,0,0-.7.23.714.714,0,0,0-.281.574.655.655,0,0,0,.344.57,3.248,3.248,0,0,0,1.1.359A9.486,9.486,0,0,1,86.32-4.8a2.406,2.406,0,0,1,1.906,2.352A2.214,2.214,0,0,1,87.2-.57a4.505,4.505,0,0,1-2.66.727A4.6,4.6,0,0,1,82.6-.234,3.24,3.24,0,0,1,81.273-1.3,2.406,2.406,0,0,1,80.8-2.711h2.461a1.017,1.017,0,0,0,.391.855,1.607,1.607,0,0,0,.961.27,1.264,1.264,0,0,0,.809-.219A.7.7,0,0,0,85.688-2.375Z" transform="translate(307.051 1196)" fill="#12263f"/>
    <g id="Grupo_1101144" data-name="Grupo 1101144" transform="translate(461.261 1104.237)">
      <path id="Trazado_911943" data-name="Trazado 911943" d="M776.877-10150.46s11.618-53.269-42.209-79.466c-2.637-1.283-5.024-2.4-7.227-3.392,3.017,8.276,3.924,19.521,3.924,19.521s41.588,13.256,45.512,63.336" transform="translate(-712.332 10235.858)" fill="#ebaaa7"/>
      <path id="Polígono_5" data-name="Polígono 5" d="M11.87,2.295a2,2,0,0,1,3.261,0l9.626,13.547A2,2,0,0,1,23.126,19H3.874a2,2,0,0,1-1.63-3.158Z" transform="translate(-0.211 26.763) rotate(-90)" fill="#ebaaa7"/>
    </g>
    <g id="Grupo_1101145" data-name="Grupo 1101145" transform="matrix(0.326, 0.946, -0.946, 0.326, 596.008, 1124.301)">
      <path id="Trazado_911943-2" data-name="Trazado 911943" d="M49.436,82.857S61.053,29.589,7.227,3.392C4.59,2.108,2.2.988,0,0,3.017,8.276,3.924,19.521,3.924,19.521S45.513,32.777,49.436,82.857" transform="translate(15.11 2.541)" fill="#f6ccb3"/>
      <path id="Polígono_5-2" data-name="Polígono 5" d="M11.625,2.341a2,2,0,0,1,3.277,0L24.323,15.8a2,2,0,0,1-1.638,3.147H3.841A2,2,0,0,1,2.2,15.8Z" transform="translate(0 26.526) rotate(-90)" fill="#f6ccb3"/>
    </g>
    <g id="Grupo_1101146" data-name="Grupo 1101146" transform="translate(633.622 1244.67) rotate(120)">
      <path id="Trazado_911943-3" data-name="Trazado 911943" d="M49.436,82.857S61.053,29.589,7.227,3.392C4.59,2.108,2.2.988,0,0,3.017,8.276,3.924,19.521,3.924,19.521S45.513,32.777,49.436,82.857" transform="translate(15.11 2.541)" fill="#ca7441"/>
      <path id="Polígono_5-3" data-name="Polígono 5" d="M11.625,2.341a2,2,0,0,1,3.277,0L24.323,15.8a2,2,0,0,1-1.638,3.147H3.841A2,2,0,0,1,2.2,15.8Z" transform="translate(0 26.526) rotate(-90)" fill="#ca7441"/>
    </g>
    <g id="Grupo_1101147" data-name="Grupo 1101147" transform="matrix(0.899, -0.438, 0.438, 0.899, 476.371, 1280.485)">
      <path id="Trazado_911943-4" data-name="Trazado 911943" d="M1.056,0S-10.561,53.268,43.265,79.466c2.637,1.283,5.024,2.4,7.227,3.392-3.017-8.277-3.924-19.522-3.924-19.522S4.98,50.079,1.056,0" fill="#ee9967"/>
      <path id="Polígono_5-4" data-name="Polígono 5" d="M11.625,2.341a2,2,0,0,1,3.277,0L24.323,15.8a2,2,0,0,1-1.638,3.147H3.841A2,2,0,0,1,2.2,15.8Z" transform="translate(65.602 58.873) rotate(90)" fill="#ee9967"/>
    </g>
    <g id="Grupo_1101148" data-name="Grupo 1101148" transform="translate(445.122 1355.309) rotate(-144)">
      <path id="Trazado_911943-5" data-name="Trazado 911943" d="M49.436,82.857S61.054,29.589,7.227,3.392C4.59,2.108,2.2.989,0,0,3.017,8.276,3.924,19.522,3.924,19.522S45.513,32.778,49.436,82.857" transform="translate(15.11 2.541)" fill="#f6a677"/>
      <path id="Polígono_5-5" data-name="Polígono 5" d="M11.625,2.341a2,2,0,0,1,3.277,0L24.323,15.8a2,2,0,0,1-1.638,3.147H3.841A2,2,0,0,1,2.2,15.8Z" transform="translate(0 26.526) rotate(-90)" fill="#f6a677"/>
    </g>
    <g id="Grupo_1101149" data-name="Grupo 1101149" transform="matrix(0.719, -0.695, 0.695, 0.719, 361.209, 1161.286)">
      <path id="Trazado_911943-6" data-name="Trazado 911943" d="M49.436,82.857S61.054,29.589,7.227,3.392C4.59,2.108,2.2.989,0,0,3.017,8.276,3.924,19.522,3.924,19.522S45.513,32.778,49.436,82.857" transform="translate(15.11 2.542)" fill="#ff837d"/>
      <path id="Polígono_5-6" data-name="Polígono 5" d="M11.625,2.341a2,2,0,0,1,3.277,0L24.323,15.8a2,2,0,0,1-1.638,3.147H3.841A2,2,0,0,1,2.2,15.8Z" transform="translate(0 26.526) rotate(-90)" fill="#ff837d"/>
    </g>
    <g id="Grupo_1101150" data-name="Grupo 1101150" transform="translate(351.125 1280.756) rotate(-93)">
      <path id="Trazado_911943-7" data-name="Trazado 911943" d="M49.436,82.857S61.054,29.589,7.227,3.392C4.59,2.108,2.2.989,0,0,3.017,8.276,3.924,19.522,3.924,19.522S45.513,32.778,49.436,82.857" transform="translate(15.11 2.542)" fill="#ee4f47"/>
      <path id="Polígono_5-7" data-name="Polígono 5" d="M11.625,2.341a2,2,0,0,1,3.277,0L24.323,15.8a2,2,0,0,1-1.638,3.147H3.841A2,2,0,0,1,2.2,15.8Z" transform="translate(0 26.526) rotate(-90)" fill="#ee4f47"/>
    </g>
    <g id="Grupo_1101151" data-name="Grupo 1101151" transform="translate(426.209 1165.816)">
      <ellipse id="Elipse_11529" data-name="Elipse 11529" cx="60" cy="59.5" rx="60" ry="59.5" transform="translate(-0.158 0.184)" fill="#ffbd45"/>
      <text id="Cliente" transform="translate(34.842 102.183)" fill="#12263f" font-size="16" font-family="Roboto-Black, Roboto" font-weight="800"><tspan x="0" y="0">Cliente</tspan></text>
      <g id="Layer_x0020_1" transform="translate(-20.658 13.21)">
        <path id="Trazado_912703" data-name="Trazado 912703" d="M100.2,71.973H61.8a1,1,0,0,1-.981-1.121V65.666A13.125,13.125,0,0,1,73.152,52.352v-4.2a17.952,17.952,0,0,1-2.1-6.027c-3.5-1.822-4.2-13.174-.42-16.258A22.268,22.268,0,0,1,81.14,22.079c3.083-.42,4.485,1.4,6.307,2.1,2.523.981,5.746,1.261,6.167,4.625.28,2.8,1.261,11.913-2.523,13.315a18.352,18.352,0,0,1-1.542,5.326v5.045a13.207,13.207,0,0,1,11.633,13.174v5.326C101.322,71.553,100.9,71.973,100.2,71.973ZM56.614,25.162A1.134,1.134,0,0,1,55.492,23.9L56.614,19l-3.784-3.5a1.046,1.046,0,0,1,.561-1.822l5.046-.561,2.1-4.625a1.078,1.078,0,0,1,1.962,0l2.1,4.625,5.045.561a1.058,1.058,0,0,1,.561,1.822L66.424,19l.981,5.046a1.019,1.019,0,0,1-1.542.981l-4.345-2.383-4.485,2.383A.515.515,0,0,1,56.614,25.162ZM61.519,20.4a21.227,21.227,0,0,1,3.5,1.822l-.561-3.364a.867.867,0,0,1,.28-.981l2.523-2.383-3.5-.561a.946.946,0,0,1-.841-.561l-1.4-3.083-1.4,3.083c-.28.28-.561.561-.841.561l-3.5.561L58.3,17.874a1.272,1.272,0,0,1,.42.981l-.7,3.364C58.716,21.8,60.958,20.4,61.519,20.4Zm34.057,4.765a1.083,1.083,0,0,1-.981-1.121L95.576,19l-3.784-3.5a1.086,1.086,0,0,1,.561-1.822l5.046-.561,2.1-4.625a1.078,1.078,0,0,1,1.962,0l2.242,4.625,4.905.561a1.058,1.058,0,0,1,.561,1.822L105.387,19l.981,5.046a1,1,0,0,1-1.542.981l-4.345-2.383C99.781,22.92,96,25.162,95.576,25.162Zm4.905-4.765a13.988,13.988,0,0,1,3.5,1.822l-.561-3.5a.929.929,0,0,1,.28-.981l2.523-2.383-3.5-.42c-.28,0-.561-.28-.841-.561l-1.4-3.083-1.4,3.083a.946.946,0,0,1-.841.561l-3.364.561L97.4,17.874a2.026,2.026,0,0,1,.28.981l-.7,3.364C97.678,21.8,99.921,20.4,100.481,20.4ZM73.712,54.454A11.282,11.282,0,0,0,62.78,65.666v4.2h5.326V65.106a1.051,1.051,0,0,1,2.1,0v4.765H91.932V65.106a1.051,1.051,0,0,1,2.1,0v4.765H99.22v-4.2A11.292,11.292,0,0,0,88.849,54.454L82.121,61.6a1.276,1.276,0,0,1-1.682,0Zm1.542-1.542,6.027,6.447,6.167-6.307V50.39c-3.5,3.5-8.549,3.784-12.193.28Zm12.333-6.167a19,19,0,0,0,1.682-5.466c-.14-.7-.42-3.784-1.542-5.466-1.4-2.1-7.708-2.663-10.652-2.242-2.383.42-4.064,1.4-4.064,7.849a13.879,13.879,0,0,0,1.822,5.606c.14.14.28.28.28.42A7.341,7.341,0,0,0,81.14,51.09C83.8,51.09,86.326,49.128,87.587,46.746ZM74.974,20.958a.976.976,0,0,1-.981-1.121l1.261-6.307L70.489,9.185a1.046,1.046,0,0,1,.561-1.822l6.447-.7L80.159.776a1.051,1.051,0,0,1,1.822,0l2.8,5.886,6.307.7a1.082,1.082,0,0,1,.7,1.822l-4.765,4.345,1.261,6.307a1.127,1.127,0,0,1-1.542,1.121L81.14,17.734l-5.606,3.224ZM81,15.632c.561,0,4.064,1.962,4.765,2.383l-.841-4.765a.674.674,0,0,1,.28-.841l3.5-3.364-4.765-.561a.769.769,0,0,1-.841-.561L81,3.579,79.038,7.923a.946.946,0,0,1-.841.561l-4.765.561,3.5,3.364a.674.674,0,0,1,.28.841l-.841,4.765C77.076,17.594,80.44,15.632,81,15.632Zm-1.542,15.7c3.5,0,8.409.7,9.951,3.224A11.952,11.952,0,0,1,91.091,39.6c1.121-1.962.981-6.867.561-10.652-.28-1.822-2.8-2.1-4.765-2.943-1.822-.7-3.224-2.242-5.326-1.962A21.84,21.84,0,0,0,72.03,27.4c-2.1,1.822-2.242,8.689-.841,11.633C71.75,32.871,74.413,31.329,79.458,31.329Z" fill="#ee4f47" fill-rule="evenodd"/>
      </g>
    </g>
  </g>
</svg>
