<svg xmlns="http://www.w3.org/2000/svg" xmlns:xlink="http://www.w3.org/1999/xlink" width="318.667" height="304.066" viewBox="0 0 318.667 304.066">
  <defs>
    <clipPath id="clip-path">
      <rect id="Rectángulo_404086" data-name="Rectángulo 404086" width="318.667" height="304.066" fill="none"/>
    </clipPath>
    <clipPath id="clip-path-3">
      <rect id="Rectángulo_404070" data-name="Rectángulo 404070" width="55.32" height="55.317" fill="none"/>
    </clipPath>
    <clipPath id="clip-path-4">
      <path id="Trazado_912706" data-name="Trazado 912706" d="M436.356,520.232a46.459,46.459,0,0,1-48.852-.457l-30.117,18.268a79.632,79.632,0,0,0,96.123,10.471c.98-.595,1.94-1.211,2.885-1.84l-17.187-28.334c-.924.657-1.868,1.3-2.853,1.893" transform="translate(-357.388 -518.339)" fill="#f1a97e"/>
    </clipPath>
    <clipPath id="clip-path-6">
      <rect id="Rectángulo_404073" data-name="Rectángulo 404073" width="55.32" height="55.316" fill="none"/>
    </clipPath>
    <clipPath id="clip-path-7">
      <path id="Trazado_912710" data-name="Trazado 912710" d="M243.908,49.6c-.98.595-1.94,1.211-2.884,1.841l17.185,28.334c.924-.658,1.868-1.3,2.853-1.894a46.456,46.456,0,0,1,48.851.458L340.031,60.07A79.828,79.828,0,0,0,285,38.094,78.98,78.98,0,0,0,243.908,49.6" transform="translate(-241.024 -38.094)" fill="#e4960a"/>
    </clipPath>
    <clipPath id="clip-path-9">
      <rect id="Rectángulo_404076" data-name="Rectángulo 404076" width="55.324" height="55.327" fill="none"/>
    </clipPath>
    <clipPath id="clip-path-10">
      <rect id="Rectángulo_404077" data-name="Rectángulo 404077" width="85.135" height="48.576" fill="#fff"/>
    </clipPath>
    <clipPath id="clip-path-11">
      <rect id="Rectángulo_404078" data-name="Rectángulo 404078" width="33.093" height="97.083" fill="#7e0c0c"/>
    </clipPath>
    <clipPath id="clip-path-12">
      <path id="Trazado_912716" data-name="Trazado 912716" d="M47.719,422.312c.595.98,1.211,1.94,1.841,2.885L77.893,408.01c-.657-.924-1.3-1.868-1.893-2.853a46.457,46.457,0,0,1,.457-48.851L58.19,326.189a79.631,79.631,0,0,0-10.47,96.123" transform="translate(-36.214 -326.189)" fill="#ac130c"/>
    </clipPath>
    <clipPath id="clip-path-14">
      <rect id="Rectángulo_404081" data-name="Rectángulo 404081" width="82.893" height="51.283" fill="#fff"/>
    </clipPath>
    <clipPath id="clip-path-15">
      <rect id="Rectángulo_404082" data-name="Rectángulo 404082" width="192.826" height="192.821" fill="none"/>
    </clipPath>
    <clipPath id="clip-path-16">
      <rect id="Rectángulo_404083" data-name="Rectángulo 404083" width="194.611" height="194.603" fill="none"/>
    </clipPath>
    <clipPath id="clip-path-17">
      <rect id="Rectángulo_404084" data-name="Rectángulo 404084" width="192.841" height="192.844" fill="none"/>
    </clipPath>
  </defs>
  <g id="Grupo_1102787" data-name="Grupo 1102787" transform="translate(-221.051 -2101)">
    <g id="Grupo_1102606" data-name="Grupo 1102606" transform="translate(221.051 2101)">
      <g id="Grupo_1102605" data-name="Grupo 1102605" clip-path="url(#clip-path)">
        <g id="Grupo_1102568" data-name="Grupo 1102568">
          <g id="Grupo_1102567" data-name="Grupo 1102567" clip-path="url(#clip-path)">
            <path id="Trazado_912704" data-name="Trazado 912704" d="M452.363,306.194a79.49,79.49,0,1,0-26.747,109.178,79.584,79.584,0,0,0,26.747-109.178M344.718,371.489a46.409,46.409,0,1,1,63.744,15.6,46.462,46.462,0,0,1-63.744-15.6" transform="translate(-162.141 -142.479)" fill="#f6ccb3"/>
            <g id="Grupo_1102566" data-name="Grupo 1102566" transform="translate(194.596 177.279)" style="mix-blend-mode: soft-light;isolation: isolate">
              <g id="Grupo_1102565" data-name="Grupo 1102565">
                <g id="Grupo_1102564" data-name="Grupo 1102564" clip-path="url(#clip-path-3)">
                  <path id="Trazado_912705" data-name="Trazado 912705" d="M419.571,420.6a27.667,27.667,0,1,1,38,9.3,27.7,27.7,0,0,1-38-9.3" transform="translate(-415.567 -378.587)" fill="#fff"/>
                </g>
              </g>
            </g>
          </g>
        </g>
        <g id="Grupo_1102570" data-name="Grupo 1102570" transform="translate(167.353 242.72)">
          <g id="Grupo_1102569" data-name="Grupo 1102569" clip-path="url(#clip-path-4)">
            <rect id="Rectángulo_404072" data-name="Rectángulo 404072" width="110.165" height="93.408" transform="translate(-21.814 13.231) rotate(-31.24)" fill="#f1a97e"/>
          </g>
        </g>
        <g id="Grupo_1102575" data-name="Grupo 1102575">
          <g id="Grupo_1102574" data-name="Grupo 1102574" clip-path="url(#clip-path)">
            <path id="Trazado_912707" data-name="Trazado 912707" d="M516.014,490.4l-9.532,38.925,38.924,9.532Z" transform="translate(-269.314 -260.761)" fill="#f6ccb3"/>
            <path id="Trazado_912708" data-name="Trazado 912708" d="M177,158.775A79.49,79.49,0,1,0,203.751,49.6,79.583,79.583,0,0,0,177,158.775M284.65,93.48a46.41,46.41,0,1,1-63.745-15.6,46.463,46.463,0,0,1,63.745,15.6" transform="translate(-88.004 -20.254)" fill="#ffbd45"/>
            <g id="Grupo_1102573" data-name="Grupo 1102573" transform="translate(129.307 69.641)" style="mix-blend-mode: soft-light;isolation: isolate">
              <g id="Grupo_1102572" data-name="Grupo 1102572">
                <g id="Grupo_1102571" data-name="Grupo 1102571" clip-path="url(#clip-path-6)">
                  <path id="Trazado_912709" data-name="Trazado 912709" d="M327.457,162.03a27.667,27.667,0,1,1-38-9.3,27.7,27.7,0,0,1,38,9.3" transform="translate(-276.141 -148.722)" fill="#fff"/>
                </g>
              </g>
            </g>
          </g>
        </g>
        <g id="Grupo_1102577" data-name="Grupo 1102577" transform="translate(112.863 17.838)">
          <g id="Grupo_1102576" data-name="Grupo 1102576" clip-path="url(#clip-path-7)">
            <rect id="Rectángulo_404075" data-name="Rectángulo 404075" width="106.268" height="86.984" transform="matrix(0.855, -0.519, 0.519, 0.855, -18.482, 11.21)" fill="#e4960a"/>
          </g>
        </g>
        <g id="Grupo_1102588" data-name="Grupo 1102588">
          <g id="Grupo_1102587" data-name="Grupo 1102587" clip-path="url(#clip-path)">
            <path id="Trazado_912711" data-name="Trazado 912711" d="M249.631,100.018l9.532-38.925L220.238,51.56Z" transform="translate(-117.108 -27.416)" fill="#ffbd45"/>
            <path id="Trazado_912712" data-name="Trazado 912712" d="M156.9,421.164A79.49,79.49,0,1,0,47.718,394.417,79.583,79.583,0,0,0,156.9,421.164M91.6,313.519A46.41,46.41,0,1,1,76,377.263a46.463,46.463,0,0,1,15.6-63.744" transform="translate(-19.255 -145.551)" fill="#ee4f47"/>
            <g id="Grupo_1102580" data-name="Grupo 1102580" transform="translate(68.758 179.983)" style="mix-blend-mode: soft-light;isolation: isolate">
              <g id="Grupo_1102579" data-name="Grupo 1102579">
                <g id="Grupo_1102578" data-name="Grupo 1102578" clip-path="url(#clip-path-9)">
                  <path id="Trazado_912713" data-name="Trazado 912713" d="M160.144,388.365a27.67,27.67,0,1,1-9.3,38.006,27.7,27.7,0,0,1,9.3-38.006" transform="translate(-146.835 -384.36)" fill="#fff"/>
                </g>
              </g>
            </g>
            <g id="Grupo_1102583" data-name="Grupo 1102583" transform="translate(84.122 128.184)" opacity="0.65" style="isolation: isolate">
              <g id="Grupo_1102582" data-name="Grupo 1102582">
                <g id="Grupo_1102581" data-name="Grupo 1102581" clip-path="url(#clip-path-10)">
                  <path id="Trazado_912714" data-name="Trazado 912714" d="M179.645,274.678a79.493,79.493,0,0,0,85.135,46.7,79.5,79.5,0,0,0-85.135-46.7" transform="translate(-179.645 -273.741)" fill="#fff"/>
                </g>
              </g>
            </g>
            <g id="Grupo_1102586" data-name="Grupo 1102586" transform="translate(142.79 157.754)" style="mix-blend-mode: multiply;isolation: isolate">
              <g id="Grupo_1102585" data-name="Grupo 1102585" style="isolation: isolate">
                <g id="Grupo_1102584" data-name="Grupo 1102584" clip-path="url(#clip-path-11)" style="isolation: isolate">
                  <path id="Trazado_912715" data-name="Trazado 912715" d="M322.521,433.973a79.5,79.5,0,0,0-2.08-97.082,79.485,79.485,0,0,0,2.08,97.082" transform="translate(-304.933 -336.891)" fill="#87791e" opacity="0.45"/>
                </g>
              </g>
            </g>
          </g>
        </g>
        <g id="Grupo_1102590" data-name="Grupo 1102590" transform="translate(16.958 152.743)">
          <g id="Grupo_1102589" data-name="Grupo 1102589" clip-path="url(#clip-path-12)">
            <rect id="Rectángulo_404080" data-name="Rectángulo 404080" width="93.408" height="110.165" transform="translate(-51.417 26.63) rotate(-31.24)" fill="#ac130c"/>
          </g>
        </g>
        <g id="Grupo_1102604" data-name="Grupo 1102604">
          <g id="Grupo_1102603" data-name="Grupo 1102603" clip-path="url(#clip-path)">
            <path id="Trazado_912717" data-name="Trazado 912717" d="M98.137,484.816l-38.925-9.531L49.68,514.208Z" transform="translate(-26.417 -252.725)" fill="#ee4f47"/>
            <g id="Grupo_1102593" data-name="Grupo 1102593" transform="translate(148.165 125.477)" opacity="0.66" style="isolation: isolate">
              <g id="Grupo_1102592" data-name="Grupo 1102592">
                <g id="Grupo_1102591" data-name="Grupo 1102591" clip-path="url(#clip-path-14)">
                  <path id="Trazado_912718" data-name="Trazado 912718" d="M349.28,279.463a79.082,79.082,0,0,0-32.868,39.28,79.311,79.311,0,0,0,82.893-50.28,79.089,79.089,0,0,0-50.025,11" transform="translate(-316.412 -267.962)" fill="#fff"/>
                </g>
              </g>
            </g>
            <g id="Grupo_1102596" data-name="Grupo 1102596" transform="translate(125.84 108.527)" style="mix-blend-mode: soft-light;isolation: isolate">
              <g id="Grupo_1102595" data-name="Grupo 1102595">
                <g id="Grupo_1102594" data-name="Grupo 1102594" clip-path="url(#clip-path-15)">
                  <path id="Trazado_912719" data-name="Trazado 912719" d="M282.547,377.945q-.66-1.092-1.284-2.194l1.642-.933q.615,1.08,1.26,2.153Zm1.34,2.162,1.592-1.017q.673,1.054,1.369,2.084l-1.564,1.057q-.711-1.05-1.4-2.125m-3.851-6.583q-.6-1.126-1.167-2.26l1.689-.845q.556,1.112,1.145,2.215Zm6.7,10.8,1.537-1.1q.728,1.016,1.477,2.009l-1.508,1.138q-.764-1.013-1.506-2.049m-8.974-15.345q-.539-1.154-1.047-2.317l1.732-.755q.5,1.139,1.026,2.273Zm12.041,19.4,1.476-1.178q.78.976,1.58,1.927l-1.444,1.218q-.818-.97-1.612-1.967m-14.072-24.064q-.478-1.181-.923-2.37l1.77-.661q.437,1.164.9,2.323Zm17.347,27.954,1.413-1.254q.828.934,1.68,1.842l-1.378,1.292q-.869-.926-1.715-1.88m-19.13-32.718q-.413-1.2-.8-2.415l1.8-.568q.374,1.188.78,2.369Zm22.608,36.429,1.343-1.328q.879.887,1.777,1.749l-1.307,1.365q-.915-.879-1.812-1.785M272.421,354.7q-.351-1.223-.665-2.454l1.829-.471q.309,1.205.652,2.407Zm27.8,44.8,1.271-1.4q.926.843,1.874,1.658l-1.232,1.431q-.968-.831-1.913-1.691M271.154,349.77q-.283-1.242-.534-2.486l1.852-.373q.245,1.22.524,2.438Zm32.938,53.06,1.194-1.463q.971.791,1.959,1.554l-1.154,1.5q-1.009-.779-2-1.586m-33.94-58.047q-.218-1.25-.4-2.5l1.869-.273q.18,1.228.393,2.453Zm37.977,61.165,1.115-1.525q1.01.739,2.036,1.448l-1.073,1.554q-1.047-.723-2.078-1.477m-38.712-66.18q-.15-1.261-.268-2.523l1.881-.175q.115,1.237.263,2.472Zm42.906,69.078,1.033-1.581q1.047.683,2.11,1.336l-.989,1.609q-1.087-.667-2.154-1.365m-43.375-74.129q-.084-1.267-.134-2.534l1.888-.075q.05,1.242.132,2.484Zm47.716,76.8.946-1.634q1.082.625,2.178,1.222l-.9,1.66q-1.117-.609-2.22-1.248m-47.919-81.872q-.016-1.27,0-2.538l1.888.024q-.015,1.244,0,2.49Zm52.391,84.308.86-1.682q1.112.568,2.238,1.106l-.814,1.7q-1.148-.549-2.283-1.128m-52.325-89.384q.05-1.27.132-2.536l1.885.123q-.081,1.241-.129,2.486Zm56.919,91.581.769-1.726q1.141.51,2.293.988l-.724,1.745q-1.176-.488-2.338-1.006M269.141,319.5q.117-1.265.265-2.525l1.877.221q-.147,1.238-.262,2.479Zm61.289,98.6.678-1.763q1.165.448,2.339.864l-.63,1.781q-1.2-.425-2.387-.882M269.738,314.455q.183-1.257.4-2.509l1.862.319q-.211,1.227-.39,2.462ZM335.226,419.8l.585-1.8q1.186.386,2.381.74l-.537,1.811q-1.219-.362-2.429-.756M270.6,309.447q.249-1.247.528-2.487l1.844.415q-.275,1.216-.518,2.439ZM340.1,421.253l.489-1.824q1.2.322,2.417.615l-.442,1.837q-1.238-.3-2.464-.627M271.717,304.488q.313-1.233.657-2.457l1.818.512q-.338,1.2-.644,2.408Zm73.328,117.956.394-1.847q1.218.26,2.444.487l-.345,1.857q-1.251-.232-2.493-.5M273.1,299.591q.375-1.214.784-2.42l1.79.606q-.4,1.182-.77,2.373Zm76.946,123.783.3-1.865q1.229.2,2.465.359l-.248,1.874q-1.26-.168-2.515-.368m-75.314-128.6q.439-1.193.912-2.376l1.755.7q-.463,1.16-.894,2.33Zm80.351,129.269.2-1.879q1.238.132,2.48.231l-.15,1.883q-1.266-.1-2.529-.236m-78.467-134q.5-1.169,1.034-2.326l1.717.79q-.523,1.134-1.014,2.281Zm83.531,134.4.1-1.887q1.243.067,2.488.1l-.05,1.888q-1.271-.034-2.538-.1m-81.4-139.027q.564-1.141,1.156-2.268l1.672.878q-.582,1.106-1.134,2.226Zm86.477,139.164v-1.889q1.245,0,2.489-.031l.048,1.888q-1.268.033-2.538.032M281.113,280.912q.623-1.11,1.275-2.206l1.623.966q-.64,1.073-1.25,2.163Zm89.179,143.542-.1-1.887q1.24-.064,2.481-.162l.148,1.883q-1.266.1-2.532.165M283.72,276.535q.679-1.076,1.39-2.136l1.569,1.051q-.694,1.039-1.362,2.095Zm91.631,147.524-.2-1.879q1.235-.13,2.469-.292l.246,1.873q-1.257.165-2.517.3M286.556,272.3q.737-1.04,1.5-2.061l1.511,1.133q-.749,1-1.473,2.021Zm93.821,151.1-.3-1.866q1.226-.194,2.449-.421l.346,1.857q-1.248.233-2.5.43M289.615,268.219q.792-1,1.611-1.979l1.449,1.212q-.8.96-1.578,1.94ZM385.369,422.47l-.394-1.847q1.216-.261,2.43-.553l.444,1.837q-1.239.3-2.48.564M292.889,264.3q.84-.952,1.709-1.884l1.382,1.287q-.851.914-1.675,1.847Zm97.424,156.971-.492-1.824q1.2-.323,2.4-.681l.54,1.81q-1.22.365-2.446.695M296.355,260.582q.891-.907,1.807-1.791l1.312,1.359q-.9.867-1.771,1.756ZM395.186,419.82l-.588-1.795q1.183-.387,2.358-.808l.636,1.779q-1.2.428-2.406.824M300.015,257.049q.936-.857,1.9-1.692l1.238,1.427q-.944.819-1.861,1.659Zm99.96,161.059-.683-1.761q1.159-.45,2.313-.932l.73,1.742q-1.177.492-2.36.951M303.856,253.716q.981-.8,1.987-1.589l1.16,1.49q-.985.768-1.947,1.558ZM404.668,416.143l-.775-1.722q1.134-.511,2.261-1.054l.819,1.7q-1.148.553-2.3,1.074m-96.8-165.551q1.02-.754,2.066-1.483l1.08,1.549q-1.025.715-2.026,1.453ZM409.248,413.935l-.865-1.68q1.106-.569,2.2-1.17l.908,1.655q-1.118.614-2.245,1.195M312.04,247.682q1.059-.7,2.141-1.372l1,1.6q-1.062.662-2.1,1.345ZM413.7,411.492l-.952-1.632q.717-.418,1.43-.85.355-.216.708-.434l.995,1.607q-.36.222-.722.442-.727.44-1.459.868M317.314,246.625,316.357,245q1.1-.644,2.206-1.256l.914,1.653q-1.087.6-2.163,1.232m99.678,160.612q1.045-.686,2.068-1.394l1.077,1.552q-1.043.723-2.11,1.422ZM321.676,244.215l-.87-1.676q1.132-.587,2.273-1.142l.826,1.7q-1.119.543-2.228,1.118M421.091,404.4q1.008-.74,1.991-1.5l1.156,1.494q-1,.776-2.03,1.53ZM326.161,242.037l-.78-1.72q1.16-.527,2.33-1.02l.735,1.741q-1.146.483-2.284,1m98.873,159.306q.967-.791,1.909-1.6l1.234,1.431q-.962.827-1.948,1.635ZM330.754,240.1l-.687-1.76q1.186-.463,2.381-.894l.641,1.777q-1.17.422-2.334.877m98.055,157.989q.923-.841,1.822-1.7l1.308,1.363q-.917.879-1.859,1.737Zm-93.365-159.68-.593-1.794q1.21-.4,2.425-.767l.546,1.808q-1.193.359-2.378.753m96.962,156.228q.878-.889,1.728-1.8l1.379,1.292q-.867.927-1.763,1.833ZM340.217,236.966l-.5-1.822q1.229-.336,2.462-.637l.449,1.835q-1.209.3-2.414.624M435.815,391q.832-.936,1.636-1.893l1.446,1.216q-.82.976-1.669,1.932ZM345.06,235.782l-.4-1.846q1.245-.269,2.493-.505l.35,1.856q-1.224.231-2.444.5m93.975,151.387q.781-.978,1.533-1.976l1.508,1.138q-.768,1.016-1.563,2.015Zm-89.084-152.31-.3-1.865q1.252-.2,2.508-.371l.252,1.873q-1.231.165-2.459.364m92.095,148.319q.727-1.018,1.424-2.054l1.566,1.055q-.712,1.056-1.453,2.1ZM354.877,234.195l-.2-1.878q1.263-.136,2.525-.239l.153,1.883q-1.238.1-2.475.234m89.962,144.837q.672-1.055,1.314-2.126l1.62.972q-.655,1.093-1.339,2.168ZM359.834,233.793l-.1-1.887q1.269-.07,2.536-.1l.053,1.888q-1.243.034-2.486.1m87.574,140.955q.615-1.089,1.2-2.191l1.67.884q-.6,1.124-1.222,2.235Zm-82.6-141.1,0-1.889q1.27,0,2.539.029l-.046,1.888q-1.243-.03-2.489-.027m84.938,136.683q.556-1.118,1.081-2.25l1.714.8q-.536,1.154-1.1,2.295Zm-79.96-136.562.1-1.887q1.269.064,2.535.162l-.145,1.884q-1.242-.1-2.486-.158m82.061,132.034q.5-1.146.961-2.3l1.753.7q-.474,1.179-.98,2.35Zm-77.1-131.653.194-1.879q1.265.131,2.523.294l-.243,1.874q-1.236-.159-2.475-.288m78.957,127.022q.435-1.169.839-2.35l1.787.612q-.412,1.2-.855,2.4ZM379.692,234.8l.292-1.866q1.255.2,2.506.425l-.34,1.859q-1.226-.225-2.457-.418m75.631,121.66q.373-1.191.714-2.39l1.817.517q-.348,1.224-.728,2.438ZM384.594,235.7l.389-1.85q1.245.262,2.481.557l-.437,1.838q-1.212-.289-2.433-.545m72.093,115.964q.31-1.207.589-2.423l1.842.422q-.284,1.239-.6,2.471Zm-67.241-114.81.485-1.826q1.229.327,2.449.686l-.533,1.812q-1.2-.351-2.4-.672M457.8,346.8q.246-1.221.46-2.45l1.862.325q-.218,1.252-.47,2.5ZM394.23,238.255l.579-1.8q1.211.39,2.411.812l-.627,1.782q-1.177-.414-2.364-.8m64.427,103.634q.182-1.232.332-2.47l1.875.228q-.152,1.262-.338,2.518ZM398.937,239.911l.674-1.766q1.188.454,2.365.938l-.719,1.747q-1.155-.475-2.32-.919m60.319,97.033q.118-1.239.2-2.482l1.885.129q-.088,1.268-.206,2.532Zm-55.7-95.133.765-1.726q1.163.514,2.314,1.061l-.81,1.707q-1.128-.537-2.269-1.041M459.6,331.974q.053-1.243.072-2.487l1.888.028q-.018,1.271-.073,2.539Zm-51.533-88.024.853-1.685q1.136.575,2.257,1.182l-.9,1.661q-1.1-.594-2.211-1.159M459.673,327q-.012-1.243-.059-2.487l1.888-.07q.046,1.268.06,2.538Zm-47.218-80.67.941-1.638q1.1.634,2.192,1.3L414.6,247.6q-1.065-.652-2.147-1.274m47.035,75.7q-.078-1.24-.19-2.48l1.882-.168q.113,1.264.193,2.53Zm-42.773-73.092,1.026-1.586q1.071.693,2.122,1.415l-1.07,1.557q-1.03-.708-2.079-1.387m42.327,68.14q-.143-1.233-.32-2.465l1.87-.268q.181,1.257.327,2.515Zm-38.207-65.311,1.11-1.528q1.032.749,2.044,1.527l-1.151,1.5q-.993-.762-2-1.5m37.5,60.391q-.209-1.226-.451-2.451l1.853-.368q.248,1.25.461,2.5ZM424.8,254.807l1.19-1.467q.99.8,1.96,1.634l-1.228,1.435q-.952-.815-1.922-1.6m32.567,52.453q-.274-1.213-.582-2.424l1.832-.465q.313,1.234.592,2.473Zm-28.767-49.2,1.268-1.4q.941.851,1.863,1.73l-1.3,1.368q-.9-.862-1.828-1.7m27.54,44.368q-.338-1.2-.71-2.391l1.8-.561q.377,1.217.724,2.437ZM432.211,261.5l1.34-1.333q.895.9,1.77,1.828l-1.375,1.3q-.856-.908-1.734-1.791m22.449,36.167q-.4-1.178-.835-2.35l1.771-.656q.443,1.194.852,2.4Zm-19.029-32.541,1.409-1.258q.845.945,1.668,1.918l-1.441,1.222q-.808-.953-1.637-1.882m17.3,27.866q-.464-1.153-.96-2.3l1.734-.75q.506,1.17.979,2.348Zm-14.073-24.061,1.474-1.182q.794.989,1.565,2l-1.5,1.143q-.756-1-1.535-1.965m12.094,19.486q-.524-1.129-1.079-2.249l1.692-.839q.565,1.141,1.1,2.291ZM441.873,272.9l1.533-1.1q.741,1.029,1.458,2.083l-1.563,1.062q-.7-1.033-1.428-2.042m6.857,11.049q-.582-1.1-1.2-2.187l1.645-.929q.627,1.11,1.22,2.231Zm-4.053-6.928L446.265,276q.686,1.066,1.348,2.157l.289.48-1.622.969-.281-.466q-.652-1.073-1.322-2.118" transform="translate(-268.737 -231.763)" fill="#fff"/>
                </g>
              </g>
            </g>
            <g id="Grupo_1102599" data-name="Grupo 1102599" transform="translate(59.661 0)" style="mix-blend-mode: soft-light;isolation: isolate">
              <g id="Grupo_1102598" data-name="Grupo 1102598">
                <g id="Grupo_1102597" data-name="Grupo 1102597" clip-path="url(#clip-path-16)">
                  <path id="Trazado_912720" data-name="Trazado 912720" d="M141.491,147.775l-.075-.124,1.616-.98.075.124q.65,1.071,1.323,2.119l-1.589,1.021q-.686-1.068-1.349-2.16m-1.366-2.322q-.631-1.11-1.232-2.229l1.666-.892q.589,1.1,1.207,2.187Zm4.119,6.606L145.806,151q.7,1.035,1.431,2.047l-1.534,1.1q-.741-1.032-1.459-2.087m-6.524-11.1q-.573-1.141-1.114-2.29l1.71-.8q.53,1.127,1.092,2.246Zm9.5,15.232,1.505-1.143q.756,1,1.536,1.968l-1.474,1.183q-.8-.992-1.567-2.008m-11.664-19.841q-.513-1.169-.993-2.345l1.749-.714q.471,1.154.974,2.3ZM150.4,160.17l1.443-1.218q.808.955,1.637,1.885l-1.41,1.257q-.846-.948-1.669-1.924m-16.772-28.532q-.45-1.194-.868-2.394l1.785-.621q.411,1.177.851,2.349Zm20.161,32.335,1.377-1.294q.857.912,1.734,1.8l-1.341,1.33q-.9-.9-1.77-1.833m-21.834-37.146q-.386-1.215-.739-2.437l1.815-.525q.346,1.2.725,2.39Zm25.419,40.764,1.306-1.365q.9.865,1.828,1.7l-1.271,1.4q-.941-.855-1.863-1.736m-26.834-45.658q-.323-1.233-.611-2.473l1.84-.428q.282,1.214.6,2.424Zm30.612,49.088,1.232-1.431q.95.818,1.92,1.609l-1.193,1.464q-.99-.807-1.96-1.642m-31.768-54.048q-.257-1.25-.479-2.5l1.859-.33q.218,1.227.471,2.451Zm35.727,57.278,1.155-1.495q.992.766,2,1.5l-1.115,1.525q-1.03-.754-2.042-1.535m-36.62-62.285q-.188-1.257-.346-2.515l1.875-.233q.154,1.234.339,2.467Zm40.742,65.3,1.075-1.554q1.031.713,2.077,1.4l-1.032,1.582q-1.068-.7-2.12-1.424m-41.367-70.34q-.124-1.264-.214-2.531l1.885-.135q.087,1.242.208,2.482Zm45.642,73.131.99-1.608q1.066.657,2.147,1.285l-.948,1.634q-1.1-.64-2.19-1.311m-46-78.2q-.057-1.271-.081-2.54l1.888-.035q.025,1.245.08,2.491Zm50.416,80.762.9-1.658q1.1.6,2.212,1.17l-.862,1.681q-1.133-.583-2.253-1.193M127.409,96.776q.01-1.272.052-2.542l1.888.063q-.041,1.246-.051,2.494Zm55.05,88.172.819-1.7q1.128.542,2.268,1.053l-.774,1.723q-1.162-.521-2.313-1.073M127.578,91.694q.075-1.27.184-2.537l1.882.161q-.107,1.243-.179,2.487Zm59.534,95.34.728-1.744q1.153.482,2.319.933l-.682,1.761q-1.186-.459-2.365-.95m-59.1-100.41q.14-1.264.315-2.525l1.871.259q-.17,1.234-.309,2.476Zm63.854,102.249.635-1.779q1.176.421,2.364.811l-.589,1.8q-1.212-.4-2.411-.827M128.707,81.584q.209-1.257.446-2.506l1.857.355q-.235,1.226-.438,2.458Zm68,108.88.542-1.809q1.2.359,2.4.687l-.5,1.823q-1.23-.334-2.449-.7M129.665,76.583q.27-1.244.574-2.48l1.836.45q-.3,1.212-.565,2.433ZM201.62,191.8l.449-1.836q1.212.3,2.433.561l-.4,1.847q-1.245-.27-2.482-.572M130.878,71.638q.336-1.228.7-2.449l1.808.546q-.361,1.2-.691,2.4ZM206.6,192.88l.353-1.855q1.226.232,2.458.434l-.3,1.865q-1.259-.2-2.508-.443M132.348,66.761q.4-1.21.831-2.409l1.778.638q-.423,1.176-.814,2.362ZM211.62,193.7l.255-1.872q1.237.169,2.477.306l-.206,1.878q-1.266-.14-2.525-.312M134.071,61.965q.461-1.188.954-2.363l1.743.73q-.485,1.154-.937,2.318Zm82.607,132.294.159-1.883q1.242.1,2.488.177l-.109,1.886q-1.271-.073-2.538-.179m-80.638-137q.523-1.162,1.077-2.311l1.7.819q-.542,1.128-1.055,2.267Zm85.715,137.291.06-1.889q1.245.039,2.493.046l-.01,1.889q-1.273-.007-2.543-.047m-83.5-141.886q.583-1.134,1.2-2.253l1.656.908q-.6,1.1-1.173,2.21ZM226.84,194.583l-.038-1.889q1.245-.025,2.491-.083l.087,1.887q-1.27.06-2.54.084M140.7,48.194q.642-1.1,1.313-2.188l1.607.994q-.658,1.065-1.287,2.145Zm91.212,146.155-.137-1.885q1.241-.09,2.482-.212l.186,1.88q-1.266.126-2.531.218M143.387,43.853q.7-1.067,1.427-2.118l1.552,1.077q-.713,1.03-1.4,2.076Zm93.584,149.994-.235-1.874q1.233-.154,2.466-.342l.286,1.867q-1.258.192-2.516.349M146.3,39.656q.756-1.029,1.537-2.04l1.494,1.157q-.768.991-1.508,2ZM241.99,193.085l-.332-1.86q1.227-.22,2.452-.473l.383,1.85q-1.25.258-2.5.483M149.425,35.618q.808-.989,1.644-1.957L152.5,34.9q-.82.95-1.612,1.919Zm97.553,156.435-.43-1.839q1.214-.284,2.424-.6l.48,1.827q-1.234.323-2.473.613M152.765,31.748q.856-.941,1.739-1.861l1.363,1.308q-.865.9-1.705,1.824Zm99.141,159.013-.528-1.814q1.2-.348,2.389-.728l.575,1.8q-1.215.389-2.436.744M156.292,28.072q.9-.894,1.836-1.766l1.291,1.378q-.912.856-1.8,1.733ZM256.758,189.212l-.621-1.784q1.175-.411,2.346-.854l.669,1.766q-1.193.452-2.394.871M160.008,24.589q.951-.844,1.927-1.667l1.217,1.444q-.957.806-1.888,1.635ZM261.522,187.407l-.716-1.749q1.153-.471,2.3-.976l.761,1.729q-1.168.514-2.344,1M163.9,21.306q.994-.794,2.011-1.564l1.139,1.506q-1,.755-1.97,1.533Zm102.281,164.05-.806-1.708q1.127-.531,2.244-1.095l.85,1.687q-1.14.575-2.289,1.116M167.964,18.23q1.033-.739,2.089-1.456l1.06,1.563q-1.036.7-2.049,1.429ZM270.732,183.063l-.894-1.664q1.1-.59,2.185-1.21l.937,1.64q-1.109.633-2.228,1.234M172.178,15.374q1.022-.655,2.064-1.287l.1-.059.98,1.616-.1.059q-1.022.62-2.024,1.262Zm102,163.547.036-.022q1.053-.639,2.084-1.3l1.021,1.59q-1.051.675-2.125,1.326Zm-96.7-164.543-.937-1.641q1.11-.633,2.229-1.232l.893,1.664q-1.1.589-2.186,1.209M278.379,176.223q1.035-.7,2.048-1.43l1.1,1.534q-1.033.742-2.088,1.458ZM181.873,12.017l-.849-1.687q1.142-.574,2.29-1.115l.8,1.709q-1.127.531-2.245,1.093M282.436,173.31q1-.756,1.97-1.535l1.181,1.475q-.991.794-2.009,1.565ZM186.392,9.889l-.76-1.729q1.168-.514,2.345-.994l.714,1.749q-1.153.471-2.3.974m99.943,160.3q.957-.807,1.887-1.636l1.257,1.411q-.95.846-1.925,1.668ZM191.015,8l-.668-1.767q1.194-.452,2.4-.87l.621,1.785q-1.178.409-2.348.851m99.05,158.866q.912-.856,1.8-1.733l1.329,1.342q-.9.894-1.834,1.768ZM195.733,6.36l-.574-1.8q1.215-.388,2.437-.742l.527,1.815q-1.2.347-2.39.727m97.882,156.994q.866-.9,1.7-1.826l1.4,1.271q-.855.942-1.738,1.862ZM200.53,4.97l-.478-1.828q1.233-.323,2.472-.612l.429,1.839q-1.214.284-2.424.6m96.45,154.681q.818-.95,1.61-1.92l1.463,1.2q-.807.988-1.643,1.957ZM205.392,3.835l-.381-1.85q1.25-.257,2.5-.48l.332,1.859q-1.228.22-2.453.471m94.755,151.936q.767-.992,1.506-2l1.524,1.116q-.754,1.03-1.536,2.041ZM210.3,2.959l-.283-1.867Q211.274.9,212.532.744l.234,1.875q-1.233.154-2.467.34M303.1,151.73q.713-1.03,1.4-2.077l1.58,1.034q-.7,1.067-1.424,2.117ZM215.241,2.343l-.184-1.88q1.264-.124,2.531-.215l.136,1.884q-1.241.091-2.482.212m90.6,145.2q.657-1.066,1.286-2.147l1.633.95q-.641,1.1-1.312,2.189ZM220.21,1.985,220.125.1q1.271-.059,2.54-.083L222.7,1.9q-1.245.023-2.492.081m88.149,141.23q.6-1.1,1.171-2.211l1.682.863q-.583,1.134-1.2,2.254ZM225.194,1.888,225.206,0q1.273.008,2.543.051l-.062,1.888q-1.246-.041-2.493-.05m85.449,136.878q.542-1.127,1.055-2.268l1.723.774q-.522,1.162-1.074,2.312ZM230.179,2.051l.111-1.885q1.271.074,2.538.182l-.16,1.882q-1.243-.106-2.488-.179M312.691,134.2q.482-1.155.934-2.319l1.761.684q-.461,1.188-.952,2.363ZM235.15,2.473,235.358.6q1.266.14,2.526.314l-.258,1.871q-1.236-.169-2.476-.308M314.5,129.544q.421-1.176.812-2.364l1.794.591q-.4,1.21-.827,2.409ZM240.095,3.153l.306-1.865q1.256.206,2.506.445l-.354,1.855q-1.226-.233-2.458-.435M316.061,124.8q.359-1.2.687-2.4l1.823.5q-.334,1.229-.7,2.449ZM245,4.088l.4-1.846q1.245.271,2.482.574l-.45,1.835q-1.212-.3-2.432-.563m72.374,115.889q.3-1.213.562-2.434l1.846.4q-.271,1.243-.574,2.481ZM249.851,5.277l.5-1.822q1.229.334,2.449.7l-.544,1.809q-1.2-.36-2.4-.688M318.434,115.1q.234-1.226.435-2.458l1.865.3q-.206,1.257-.444,2.507ZM254.635,6.716l.59-1.794q1.21.4,2.41.828L257,7.529q-1.176-.422-2.363-.813m64.607,103.456q.169-1.236.307-2.477l1.877.208q-.14,1.265-.313,2.524ZM259.339,8.4l.684-1.761q1.187.461,2.364.953l-.73,1.742q-1.153-.482-2.318-.935m60.452,96.81q.105-1.242.178-2.488l1.886.11q-.074,1.271-.181,2.538Zm-55.839-94.88.773-1.723q1.164.523,2.313,1.075l-.819,1.7q-1.127-.542-2.267-1.054m56.13,89.9q.039-1.247.049-2.494l1.889.014q-.01,1.271-.05,2.542ZM268.458,12.5l.864-1.681q1.133.583,2.253,1.2l-.907,1.657q-1.1-.6-2.21-1.172m51.656,82.748q-.024-1.245-.081-2.491l1.887-.086q.058,1.27.083,2.54ZM272.847,14.9l.948-1.633q1.1.641,2.191,1.312l-.993,1.608q-1.065-.658-2.146-1.286m47.039,75.368q-.09-1.242-.212-2.482l1.88-.185q.125,1.266.216,2.531ZM277.1,17.529l1.035-1.581q1.066.7,2.117,1.426l-1.076,1.553q-1.03-.714-2.077-1.4M319.4,85.311q-.155-1.235-.341-2.466l1.868-.283q.19,1.256.347,2.515ZM281.22,20.38l1.117-1.525q1.028.754,2.04,1.536l-1.156,1.494q-.992-.767-2-1.505m37.43,60.01q-.219-1.227-.472-2.451l1.85-.383q.258,1.249.482,2.5ZM285.182,23.445l1.2-1.463q.989.808,1.958,1.643L287.1,25.055q-.95-.82-1.919-1.611M317.643,75.5q-.283-1.214-.6-2.424l1.827-.479q.324,1.235.613,2.472ZM288.977,26.718l1.27-1.4q.942.856,1.862,1.739L290.8,28.422q-.9-.865-1.826-1.7m27.4,43.949q-.347-1.2-.727-2.389l1.8-.574q.388,1.217.742,2.437ZM292.583,30.175l1.342-1.329q.9.9,1.769,1.835l-1.378,1.292q-.855-.912-1.732-1.8M314.86,65.91q-.41-1.177-.853-2.348l1.767-.667q.451,1.193.869,2.393ZM296,33.816l1.411-1.256q.845.95,1.668,1.925L297.635,35.7q-.806-.957-1.636-1.887m17.094,27.423q-.471-1.153-.974-2.3l1.728-.762q.515,1.169,1,2.346ZM299.22,37.633l1.475-1.18q.793.992,1.564,2.009L300.754,39.6q-.755-1-1.534-1.97m11.863,19.034q-.53-1.127-1.093-2.245l1.687-.849q.574,1.14,1.116,2.289Zm-8.847-15.053,1.535-1.1q.74,1.032,1.457,2.088l-1.563,1.061q-.7-1.036-1.429-2.049m6.6,10.592q-.589-1.1-1.209-2.186l1.641-.935q.632,1.108,1.233,2.228Zm-3.8-6.458,1.591-1.02q.662,1.033,1.3,2.088l.044.072-1.616.98-.044-.072q-.628-1.035-1.278-2.049" transform="translate(-127.409 0.001)" fill="#fff"/>
                </g>
              </g>
            </g>
            <g id="Grupo_1102602" data-name="Grupo 1102602" transform="translate(0 111.222)" style="mix-blend-mode: soft-light;isolation: isolate">
              <g id="Grupo_1102601" data-name="Grupo 1102601">
                <g id="Grupo_1102600" data-name="Grupo 1102600" clip-path="url(#clip-path-17)">
                  <path id="Trazado_912721" data-name="Trazado 912721" d="M13.912,383.874q-.426-.7-.841-1.414l1.633-.95c.287.49.577.981.873,1.467l.412.671-1.608.991-.417-.683-.051-.083m1.833,2.913,1.58-1.034q.686,1.045,1.394,2.067L17.166,388.9q-.722-1.042-1.42-2.109m-3.922-6.536q-.612-1.118-1.192-2.246l1.679-.864q.57,1.106,1.17,2.2Zm6.817,10.716,1.525-1.115q.738,1.008,1.5,1.992L20.17,393q-.775-1-1.529-2.033M9.5,375.727q-.553-1.148-1.073-2.305l1.723-.775q.51,1.135,1.053,2.261Zm12.255,19.263,1.463-1.2q.79.968,1.6,1.91l-1.431,1.233q-.83-.961-1.635-1.948m-14.34-23.9q-.491-1.177-.949-2.359l1.761-.683q.45,1.16.931,2.314Zm17.66,27.754,1.4-1.271q.84.924,1.7,1.823L26.808,400.7q-.879-.917-1.736-1.859m-19.5-32.5q-.428-1.2-.823-2.406l1.8-.588q.387,1.182.807,2.359Zm23.016,36.169,1.328-1.344q.889.877,1.8,1.729l-1.293,1.378q-.926-.868-1.832-1.763m-24.6-41q-.365-1.221-.694-2.447l1.823-.491q.325,1.2.681,2.4ZM32.3,405.994l1.255-1.412q.936.832,1.891,1.637l-1.216,1.446q-.976-.82-1.931-1.67M2.67,356.6q-.3-1.24-.562-2.481l1.847-.393q.26,1.217.552,2.431Zm33.536,52.68,1.178-1.477q.978.78,1.975,1.532l-1.137,1.509q-1.017-.767-2.016-1.563M1.61,351.626q-.23-1.247-.429-2.5l1.866-.3q.195,1.225.421,2.449Zm38.666,60.728,1.1-1.537q1.017.727,2.052,1.424l-1.056,1.567q-1.055-.713-2.095-1.454M.817,346.621q-.163-1.259-.3-2.519l1.878-.2q.13,1.236.291,2.469ZM44.5,415.205l1.014-1.593q1.056.671,2.125,1.314l-.972,1.62q-1.092-.655-2.167-1.341M.292,341.575q-.1-1.265-.163-2.532l1.886-.1q.064,1.24.161,2.481Zm48.58,76.252.928-1.645q1.089.614,2.191,1.2l-.885,1.669q-1.124-.6-2.234-1.223M.03,336.509Q0,335.239,0,333.97l1.889,0q0,1.245.03,2.488ZM53.37,420.214l.842-1.691q1.117.556,2.25,1.081l-.8,1.714q-1.155-.536-2.3-1.1M.037,331.432q.035-1.271.1-2.538l1.887.1q-.067,1.243-.1,2.487Zm57.95,90.928.751-1.734q1.146.5,2.3.962l-.7,1.752q-1.18-.475-2.349-.981m-57.677-96q.1-1.266.235-2.529l1.88.2q-.132,1.238-.232,2.48Zm62.4,97.9.658-1.77q1.169.433,2.349.839l-.612,1.786q-1.2-.412-2.4-.856M.848,321.308q.168-1.26.369-2.514l1.865.3q-.2,1.229-.361,2.466Zm66.674,104.6.566-1.8q1.19.374,2.39.716l-.517,1.816q-1.224-.349-2.438-.729M1.65,316.29q.234-1.25.5-2.493l1.848.4q-.261,1.219-.489,2.443ZM72.413,427.3l.471-1.829q1.207.31,2.423.589l-.422,1.841q-1.24-.284-2.471-.6M2.713,311.318q.3-1.236.63-2.464l1.823.491q-.324,1.2-.616,2.416ZM77.369,428.442l.374-1.852q1.222.247,2.45.462l-.325,1.86q-1.252-.218-2.5-.47M4.035,306.407q.362-1.218.756-2.428l1.8.585q-.387,1.186-.743,2.382Zm78.34,122.911.277-1.868q1.233.183,2.47.333l-.228,1.874q-1.262-.152-2.519-.339M5.612,301.572q.426-1.2.884-2.387l1.762.679q-.447,1.165-.865,2.34ZM87.419,429.932l.178-1.88q1.24.117,2.483.2l-.131,1.884q-1.267-.087-2.531-.207M7.44,296.821q.489-1.175,1.008-2.337l1.725.771q-.509,1.14-.988,2.292Zm85.046,133.46.081-1.889q1.243.053,2.488.073l-.03,1.89q-1.271-.021-2.538-.074M9.516,292.174q.549-1.148,1.129-2.282l1.682.86q-.569,1.112-1.107,2.238ZM97.563,430.363l-.018-1.889q1.243-.012,2.487-.058l.069,1.888q-1.27.046-2.538.059M11.837,287.639q.608-1.118,1.248-2.221l1.634.948q-.627,1.082-1.224,2.177Zm90.8,142.54-.118-1.886q1.24-.077,2.479-.189l.17,1.882q-1.265.114-2.531.193M14.39,283.232q.669-1.085,1.366-2.153l1.582,1.033q-.686,1.048-1.339,2.11Zm93.3,146.5-.217-1.877q1.234-.143,2.465-.32l.267,1.871q-1.257.18-2.515.326M17.177,278.964q.726-1.047,1.478-2.077L20.181,278q-.74,1.01-1.449,2.037ZM112.706,429.01l-.317-1.861q1.229-.209,2.452-.45l.366,1.853q-1.249.245-2.5.458M20.189,274.848q.78-1.007,1.587-2l1.463,1.195q-.792.97-1.557,1.958ZM117.7,428.025l-.415-1.843q1.213-.274,2.425-.58l.464,1.831q-1.236.312-2.473.591M23.417,270.9q.832-.964,1.693-1.911l1.4,1.271q-.844.926-1.658,1.872Zm99.21,155.879-.513-1.818q1.2-.337,2.391-.708l.561,1.8q-1.218.378-2.439.722M26.847,267.127q.877-.915,1.785-1.811l1.328,1.344q-.889.877-1.751,1.775ZM127.484,425.265l-.609-1.788q1.177-.4,2.349-.834l.656,1.771q-1.195.442-2.4.851M30.465,263.553q.927-.867,1.879-1.714l1.254,1.413q-.933.828-1.842,1.68ZM132.254,423.5l-.7-1.755q1.155-.462,2.3-.958l.749,1.734q-1.169.5-2.348.978M34.268,260.176q.971-.817,1.967-1.612l1.178,1.477q-.978.779-1.929,1.58ZM136.922,421.484l-.795-1.714q1.129-.523,2.249-1.078l.839,1.692q-1.143.568-2.294,1.1M38.245,257.005q1.011-.764,2.05-1.505l1.1,1.538q-1.016.726-2.01,1.476ZM141.478,419.224l-.883-1.669q1.1-.582,2.189-1.2l.926,1.646q-1.111.626-2.231,1.218M42.382,254.05q1.051-.71,2.125-1.4l1.016,1.593q-1.054.672-2.084,1.369Zm103.527,162.68-.97-1.621.519-.312q1.069-.648,2.115-1.322l1.021,1.59q-1.066.686-2.156,1.347Zm-98.266-163.8-.974-1.619q1.092-.657,2.2-1.284l.932,1.644q-1.081.614-2.153,1.259M149.652,412.1q1.034-.7,2.043-1.429l1.1,1.533q-1.03.741-2.084,1.458ZM51.98,250.472l-.889-1.667q1.127-.6,2.261-1.167l.844,1.689q-1.112.556-2.216,1.144M153.7,409.188q.994-.756,1.963-1.535l1.184,1.473q-.99.794-2.005,1.565ZM56.441,248.243l-.8-1.712q1.155-.54,2.318-1.046l.754,1.732q-1.139.5-2.272,1.026M157.587,406.067q.952-.807,1.882-1.637l1.26,1.408q-.948.847-1.919,1.67ZM61.012,246.252,60.3,244.5q1.182-.478,2.37-.922l.662,1.769q-1.165.435-2.324.9M161.3,402.745q.908-.857,1.791-1.735l1.332,1.339q-.9.9-1.828,1.77ZM65.682,244.506l-.614-1.787q1.206-.414,2.416-.795l.567,1.8q-1.187.372-2.368.779M164.84,399.229q.861-.9,1.7-1.828l1.4,1.268q-.851.941-1.731,1.864Zm-94.4-156.217-.518-1.817q1.226-.349,2.456-.666l.47,1.831q-1.205.309-2.407.652m97.751,152.512q.816-.951,1.6-1.921l1.467,1.191q-.8.989-1.634,1.961ZM75.268,241.772l-.422-1.842q1.242-.283,2.487-.533l.371,1.852q-1.22.245-2.437.524M171.34,391.64q.762-.993,1.5-2l1.528,1.112q-.75,1.03-1.526,2.043ZM80.156,240.79l-.323-1.861q1.25-.216,2.5-.4l.273,1.868q-1.229.181-2.454.392M174.28,387.6q.709-1.033,1.388-2.08l1.584,1.028q-.694,1.068-1.415,2.12ZM85.074,240.071,84.85,238.2q1.26-.15,2.522-.267l.174,1.881q-1.236.114-2.472.262M177,383.4q.652-1.065,1.275-2.148l1.637.943q-.635,1.1-1.3,2.191ZM90.025,239.613l-.125-1.885q1.268-.084,2.535-.134l.074,1.888q-1.243.049-2.484.131M179.49,379.074q.594-1.1,1.158-2.212l1.685.855q-.577,1.136-1.183,2.256ZM95,239.416l-.025-1.889q1.271-.017,2.539,0l-.025,1.889q-1.243-.016-2.489,0m86.752,135.2q.536-1.129,1.041-2.269l1.727.765q-.516,1.164-1.062,2.314ZM99.975,239.48l.074-1.887q1.271.05,2.537.133l-.124,1.885q-1.242-.081-2.486-.131m83.795,130.577q.476-1.153.921-2.321l1.765.674q-.454,1.19-.938,2.367Zm-78.826-130.25.172-1.881q1.266.117,2.528.266l-.223,1.876q-1.236-.147-2.477-.26m80.605,125.587q.414-1.177.8-2.363l1.8.58q-.391,1.21-.812,2.411Zm-75.658-125,.27-1.869q1.259.181,2.511.4l-.319,1.861q-1.228-.21-2.461-.389M187.08,360.647q.352-1.2.672-2.4l1.825.487q-.327,1.23-.686,2.449ZM114.8,241.236l.368-1.853q1.248.248,2.487.528l-.417,1.843q-1.215-.275-2.438-.518m73.558,114.591q.289-1.213.546-2.432l1.849.39q-.262,1.243-.556,2.481ZM119.666,242.336l.465-1.832q1.233.313,2.457.658l-.513,1.818q-1.2-.338-2.408-.644M189.389,350.95q.225-1.225.417-2.457l1.867.293q-.2,1.256-.426,2.505ZM124.465,243.689l.56-1.805q1.216.377,2.42.786l-.606,1.789q-1.181-.4-2.373-.769m65.693,102.337q.16-1.235.289-2.475l1.879.2q-.131,1.263-.295,2.523ZM129.19,245.291l.652-1.772q1.2.44,2.377.911l-.7,1.755q-1.16-.462-2.33-.893m61.481,95.78q.1-1.241.158-2.486l1.886.1q-.063,1.268-.161,2.534Zm-56.846-93.933.745-1.736q1.17.5,2.326,1.035l-.79,1.716q-1.134-.523-2.28-1.015m57.1,88.959q.03-1.243.028-2.489l1.889,0q0,1.271-.029,2.539Zm-52.563-86.87.835-1.694q1.142.563,2.269,1.156l-.88,1.672q-1.1-.582-2.224-1.134m52.553,81.894q-.035-1.243-.1-2.487l1.886-.1q.069,1.269.1,2.535Zm-48.135-79.567.924-1.648q1.111.622,2.206,1.275l-.966,1.623q-1.074-.64-2.163-1.25m47.865,74.6q-.1-1.238-.234-2.475l1.878-.2q.136,1.262.238,2.525ZM147.071,254.11l1.009-1.6q1.077.68,2.137,1.391l-1.052,1.569q-1.038-.7-2.094-1.363m43.04,67.1q-.165-1.231-.364-2.458l1.865-.3q.2,1.252.372,2.508Zm-38.888-64.318,1.092-1.542q1.04.737,2.061,1.5l-1.134,1.511q-1-.749-2.019-1.472m38.1,59.413q-.231-1.224-.495-2.444l1.846-.4q.27,1.245.5,2.494Zm-34.1-56.414,1.174-1.479q1,.791,1.978,1.61l-1.212,1.449q-.96-.8-1.94-1.58m33.042,51.541q-.3-1.209-.624-2.414l1.822-.5q.335,1.228.637,2.462ZM159.059,263.1l1.25-1.417q.952.841,1.884,1.709l-1.287,1.382q-.913-.851-1.847-1.674m27.894,43.519q-.36-1.191-.752-2.377l1.794-.592q.4,1.21.766,2.425ZM162.706,266.5l1.324-1.348q.906.89,1.791,1.807l-1.359,1.312q-.867-.9-1.756-1.771m22.68,35.388q-.423-1.171-.878-2.334l1.759-.688q.464,1.187.895,2.38Zm-19.217-31.8,1.394-1.276q.856.936,1.692,1.9l-1.427,1.237q-.818-.944-1.659-1.861m17.4,27.157q-.483-1.146-1-2.285l1.722-.779q.524,1.16,1.018,2.33Zm-14.134-23.391,1.459-1.2q.806.98,1.589,1.985l-1.491,1.161q-.767-.985-1.557-1.947m12.076,18.85q-.543-1.118-1.119-2.228l1.677-.87q.587,1.131,1.141,2.273ZM172.5,277.789l1.521-1.121q.752,1.021,1.482,2.067l-1.55,1.08q-.714-1.025-1.453-2.026m6.719,10.488q-.6-1.087-1.232-2.164l1.63-.956q.644,1.1,1.256,2.206Zm-3.866-6.4,1.578-1.04q.7,1.058,1.371,2.141l-1.6,1q-.66-1.061-1.344-2.1" transform="translate(0 -237.519)" fill="#fff"/>
                </g>
              </g>
            </g>
          </g>
        </g>
      </g>
    </g>
    <path id="Trazado_912880" data-name="Trazado 912880" d="M3.6-3.859V0H.859V-11.375H5.4a5.287,5.287,0,0,1,2.309.48A3.621,3.621,0,0,1,9.262-9.527a3.734,3.734,0,0,1,.551,2.012,3.291,3.291,0,0,1-1.191,2.66,4.943,4.943,0,0,1-3.27,1Zm0-2.117H5.4a1.7,1.7,0,0,0,1.215-.4A1.48,1.48,0,0,0,7.031-7.5,1.83,1.83,0,0,0,6.6-8.773,1.522,1.522,0,0,0,5.43-9.258H3.6ZM15.242.156A4.345,4.345,0,0,1,12.094-1a4.006,4.006,0,0,1-1.2-3.02v-.219a5.191,5.191,0,0,1,.48-2.289,3.516,3.516,0,0,1,1.4-1.535,4.233,4.233,0,0,1,2.188-.543A3.659,3.659,0,0,1,17.773-7.5,4.344,4.344,0,0,1,18.8-4.422V-3.4H13.57a1.9,1.9,0,0,0,.617,1.117,1.836,1.836,0,0,0,1.234.406,2.366,2.366,0,0,0,1.953-.875l1.2,1.422A3.363,3.363,0,0,1,17.184-.246,4.713,4.713,0,0,1,15.242.156Zm-.3-6.734q-1.156,0-1.375,1.531h2.656v-.2a1.3,1.3,0,0,0-.32-.98A1.275,1.275,0,0,0,14.945-6.578Zm10.031.508-.867-.062a1.558,1.558,0,0,0-1.594.781V0H19.883V-8.453h2.469l.086,1.086a2.039,2.039,0,0,1,1.852-1.242,2.567,2.567,0,0,1,.734.094Zm4.375,4.2a1.171,1.171,0,0,0,.859-.3,1.1,1.1,0,0,0,.3-.84h2.469a2.922,2.922,0,0,1-1,2.281,3.705,3.705,0,0,1-2.566.891A3.751,3.751,0,0,1,26.508-1a4.556,4.556,0,0,1-1.062-3.2v-.109a5.149,5.149,0,0,1,.473-2.262,3.441,3.441,0,0,1,1.363-1.508,4.065,4.065,0,0,1,2.109-.527,3.658,3.658,0,0,1,2.617.914,3.242,3.242,0,0,1,.969,2.477H30.508a1.445,1.445,0,0,0-.32-1.008,1.106,1.106,0,0,0-.859-.352q-1.023,0-1.2,1.3a9.206,9.206,0,0,0-.055,1.141,3.616,3.616,0,0,0,.3,1.766A1.055,1.055,0,0,0,29.352-1.875ZM38.18.156A4.345,4.345,0,0,1,35.031-1a4.006,4.006,0,0,1-1.2-3.02v-.219a5.191,5.191,0,0,1,.48-2.289,3.516,3.516,0,0,1,1.4-1.535A4.233,4.233,0,0,1,37.9-8.609,3.659,3.659,0,0,1,40.711-7.5a4.344,4.344,0,0,1,1.031,3.082V-3.4H36.508a1.9,1.9,0,0,0,.617,1.117,1.836,1.836,0,0,0,1.234.406,2.366,2.366,0,0,0,1.953-.875l1.2,1.422A3.363,3.363,0,0,1,40.121-.246,4.713,4.713,0,0,1,38.18.156Zm-.3-6.734q-1.156,0-1.375,1.531h2.656v-.2a1.3,1.3,0,0,0-.32-.98A1.275,1.275,0,0,0,37.883-6.578ZM50.648-4.164a5.1,5.1,0,0,1-.887,3.145A2.843,2.843,0,0,1,47.367.156,2.437,2.437,0,0,1,45.453-.7V3.25H42.82v-11.7h2.461l.078.781a2.437,2.437,0,0,1,1.992-.937,2.866,2.866,0,0,1,2.43,1.152,5.16,5.16,0,0,1,.867,3.168Zm-2.633-.164q0-2.25-1.312-2.25a1.239,1.239,0,0,0-1.25.672v3.328a1.279,1.279,0,0,0,1.266.7q1.258,0,1.3-2.172Zm7.367,2.453a1.171,1.171,0,0,0,.859-.3,1.1,1.1,0,0,0,.3-.84h2.469a2.922,2.922,0,0,1-1,2.281,3.705,3.705,0,0,1-2.566.891A3.751,3.751,0,0,1,52.539-1a4.556,4.556,0,0,1-1.062-3.2v-.109a5.149,5.149,0,0,1,.473-2.262,3.441,3.441,0,0,1,1.363-1.508,4.065,4.065,0,0,1,2.109-.527,3.658,3.658,0,0,1,2.617.914,3.242,3.242,0,0,1,.969,2.477H56.539a1.445,1.445,0,0,0-.32-1.008,1.106,1.106,0,0,0-.859-.352q-1.023,0-1.2,1.3a9.206,9.206,0,0,0-.055,1.141,3.616,3.616,0,0,0,.3,1.766A1.055,1.055,0,0,0,55.383-1.875ZM62.9,0H60.258V-8.453H62.9ZM60.1-10.633a1.175,1.175,0,0,1,.406-.922,1.533,1.533,0,0,1,1.055-.359,1.533,1.533,0,0,1,1.055.359,1.175,1.175,0,0,1,.406.922,1.175,1.175,0,0,1-.406.922,1.533,1.533,0,0,1-1.055.359,1.533,1.533,0,0,1-1.055-.359A1.175,1.175,0,0,1,60.1-10.633ZM64.188-4.3a4.989,4.989,0,0,1,.492-2.254,3.52,3.52,0,0,1,1.414-1.52,4.259,4.259,0,0,1,2.164-.531A3.887,3.887,0,0,1,71.25-7.434a4.512,4.512,0,0,1,1.094,3.2v.094A4.378,4.378,0,0,1,71.246-1,3.9,3.9,0,0,1,68.273.156a3.942,3.942,0,0,1-2.9-1.082A4.232,4.232,0,0,1,64.2-3.859Zm2.633.164a3.145,3.145,0,0,0,.367,1.719,1.223,1.223,0,0,0,1.086.547q1.406,0,1.438-2.164V-4.3q0-2.273-1.453-2.273-1.32,0-1.43,1.961ZM68.617-12H71.4L69.227-9.547H67.078Zm7.3,3.547.086.992a2.867,2.867,0,0,1,2.414-1.148,2.412,2.412,0,0,1,1.973.789,3.757,3.757,0,0,1,.676,2.375V0H78.43V-5.336a1.426,1.426,0,0,0-.258-.941,1.193,1.193,0,0,0-.937-.3,1.256,1.256,0,0,0-1.148.609V0H73.453V-8.453Z" transform="translate(339.051 2205.721)" fill="#12263f"/>
    <path id="Trazado_912881" data-name="Trazado 912881" d="M7.914-4.82H3.6v2.711H8.7V0H.859V-11.375H8.711v2.117H3.6v2.4H7.914Zm5.2-1.3,1.227-2.328h2.734L14.852-4.336,17.188,0h-2.75L13.109-2.5,11.8,0H9.039l2.344-4.336L9.164-8.453H11.93ZM25.773-4.164a5.1,5.1,0,0,1-.887,3.145A2.843,2.843,0,0,1,22.492.156,2.437,2.437,0,0,1,20.578-.7V3.25H17.945v-11.7h2.461l.078.781a2.437,2.437,0,0,1,1.992-.937,2.866,2.866,0,0,1,2.43,1.152,5.16,5.16,0,0,1,.867,3.168Zm-2.633-.164q0-2.25-1.312-2.25a1.239,1.239,0,0,0-1.25.672v3.328a1.279,1.279,0,0,0,1.266.7q1.258,0,1.3-2.172ZM31.023.156A4.345,4.345,0,0,1,27.875-1a4.006,4.006,0,0,1-1.2-3.02v-.219a5.191,5.191,0,0,1,.48-2.289,3.516,3.516,0,0,1,1.4-1.535,4.233,4.233,0,0,1,2.188-.543A3.659,3.659,0,0,1,33.555-7.5a4.344,4.344,0,0,1,1.031,3.082V-3.4H29.352a1.9,1.9,0,0,0,.617,1.117,1.836,1.836,0,0,0,1.234.406,2.366,2.366,0,0,0,1.953-.875l1.2,1.422A3.363,3.363,0,0,1,32.965-.246,4.713,4.713,0,0,1,31.023.156Zm-.3-6.734q-1.156,0-1.375,1.531h2.656v-.2a1.3,1.3,0,0,0-.32-.98A1.275,1.275,0,0,0,30.727-6.578Zm8.492,4.7a1.171,1.171,0,0,0,.859-.3,1.1,1.1,0,0,0,.3-.84h2.469a2.922,2.922,0,0,1-1,2.281,3.705,3.705,0,0,1-2.566.891A3.751,3.751,0,0,1,36.375-1a4.556,4.556,0,0,1-1.062-3.2v-.109a5.149,5.149,0,0,1,.473-2.262,3.441,3.441,0,0,1,1.363-1.508,4.065,4.065,0,0,1,2.109-.527,3.658,3.658,0,0,1,2.617.914,3.242,3.242,0,0,1,.969,2.477H40.375a1.445,1.445,0,0,0-.32-1.008,1.106,1.106,0,0,0-.859-.352q-1.023,0-1.2,1.3a9.206,9.206,0,0,0-.055,1.141,3.616,3.616,0,0,0,.3,1.766A1.055,1.055,0,0,0,39.219-1.875Zm7.8-8.68v2.1h1.391v1.828H47.023v3.867a.987.987,0,0,0,.172.664.922.922,0,0,0,.68.188,3.862,3.862,0,0,0,.656-.047V-.07a4.859,4.859,0,0,1-1.484.227,2.758,2.758,0,0,1-2.008-.641,2.626,2.626,0,0,1-.648-1.945v-4.2H43.313V-8.453h1.078v-2.1ZM54.211,0a2.973,2.973,0,0,1-.25-.758A2.448,2.448,0,0,1,51.93.156,3,3,0,0,1,49.9-.566a2.3,2.3,0,0,1-.836-1.816,2.364,2.364,0,0,1,1.016-2.078,5.174,5.174,0,0,1,2.953-.7h.813v-.445q0-1.164-1.008-1.164a.822.822,0,0,0-.937.922H49.266a2.364,2.364,0,0,1,1.043-1.992,4.379,4.379,0,0,1,2.66-.766,3.843,3.843,0,0,1,2.555.789,2.743,2.743,0,0,1,.961,2.164v3.742a3.832,3.832,0,0,0,.359,1.781V0ZM52.563-1.719a1.469,1.469,0,0,0,.816-.211,1.322,1.322,0,0,0,.465-.477V-3.758h-.766q-1.375,0-1.375,1.234a.754.754,0,0,0,.242.582A.876.876,0,0,0,52.563-1.719Zm8.445-8.836v2.1H62.4v1.828H61.008v3.867a.987.987,0,0,0,.172.664.922.922,0,0,0,.68.188,3.862,3.862,0,0,0,.656-.047V-.07a4.859,4.859,0,0,1-1.484.227,2.758,2.758,0,0,1-2.008-.641,2.626,2.626,0,0,1-.648-1.945v-4.2H57.3V-8.453h1.078v-2.1ZM66.211,0H63.57V-8.453h2.641Zm-2.8-10.633a1.175,1.175,0,0,1,.406-.922,1.533,1.533,0,0,1,1.055-.359,1.533,1.533,0,0,1,1.055.359,1.175,1.175,0,0,1,.406.922,1.175,1.175,0,0,1-.406.922,1.533,1.533,0,0,1-1.055.359,1.533,1.533,0,0,1-1.055-.359A1.175,1.175,0,0,1,63.414-10.633Zm7.789,7.5,1.336-5.32h2.773L72.555,0H69.867L67.109-8.453h2.781ZM80.742,0a2.973,2.973,0,0,1-.25-.758,2.448,2.448,0,0,1-2.031.914A3,3,0,0,1,76.43-.566a2.3,2.3,0,0,1-.836-1.816,2.364,2.364,0,0,1,1.016-2.078,5.174,5.174,0,0,1,2.953-.7h.813v-.445q0-1.164-1.008-1.164a.822.822,0,0,0-.937.922H75.8A2.364,2.364,0,0,1,76.84-7.844a4.379,4.379,0,0,1,2.66-.766,3.843,3.843,0,0,1,2.555.789,2.743,2.743,0,0,1,.961,2.164v3.742a3.832,3.832,0,0,0,.359,1.781V0ZM79.094-1.719a1.469,1.469,0,0,0,.816-.211,1.322,1.322,0,0,0,.465-.477V-3.758h-.766q-1.375,0-1.375,1.234a.754.754,0,0,0,.242.582A.876.876,0,0,0,79.094-1.719Z" transform="translate(402.051 2313.721)" fill="#12263f"/>
    <path id="Trazado_912882" data-name="Trazado 912882" d="M3.6-3.859V0H.859V-11.375H5.4a5.287,5.287,0,0,1,2.309.48A3.621,3.621,0,0,1,9.262-9.527a3.734,3.734,0,0,1,.551,2.012,3.291,3.291,0,0,1-1.191,2.66,4.943,4.943,0,0,1-3.27,1Zm0-2.117H5.4a1.7,1.7,0,0,0,1.215-.4A1.48,1.48,0,0,0,7.031-7.5,1.83,1.83,0,0,0,6.6-8.773,1.522,1.522,0,0,0,5.43-9.258H3.6ZM16.266-6.07,15.4-6.133a1.558,1.558,0,0,0-1.594.781V0H11.172V-8.453h2.469l.086,1.086a2.039,2.039,0,0,1,1.852-1.242,2.567,2.567,0,0,1,.734.094ZM16.6-4.3a4.989,4.989,0,0,1,.492-2.254,3.52,3.52,0,0,1,1.414-1.52,4.259,4.259,0,0,1,2.164-.531,3.887,3.887,0,0,1,2.992,1.176,4.512,4.512,0,0,1,1.094,3.2v.094A4.378,4.378,0,0,1,23.66-1,3.9,3.9,0,0,1,20.688.156a3.942,3.942,0,0,1-2.9-1.082,4.232,4.232,0,0,1-1.18-2.934Zm2.633.164A3.145,3.145,0,0,0,19.6-2.422a1.223,1.223,0,0,0,1.086.547q1.406,0,1.438-2.164V-4.3q0-2.273-1.453-2.273-1.32,0-1.43,1.961Zm9.938,1.008,1.336-5.32h2.773L30.523,0H27.836L25.078-8.453h2.781ZM36.844,0H34.2V-8.453h2.641Zm-2.8-10.633a1.175,1.175,0,0,1,.406-.922,1.533,1.533,0,0,1,1.055-.359,1.533,1.533,0,0,1,1.055.359,1.175,1.175,0,0,1,.406.922,1.175,1.175,0,0,1-.406.922,1.533,1.533,0,0,1-1.055.359,1.533,1.533,0,0,1-1.055-.359A1.175,1.175,0,0,1,34.047-10.633Zm8.844,8.258a.608.608,0,0,0-.352-.539A5.348,5.348,0,0,0,41.2-3.336a6.092,6.092,0,0,1-1.625-.574,2.722,2.722,0,0,1-.977-.863,2.061,2.061,0,0,1-.336-1.164,2.336,2.336,0,0,1,.961-1.918,3.958,3.958,0,0,1,2.516-.754,4.386,4.386,0,0,1,2.688.758,2.37,2.37,0,0,1,1.016,1.992H42.8q0-1.016-1.07-1.016a1.061,1.061,0,0,0-.7.23.714.714,0,0,0-.281.574.655.655,0,0,0,.344.57,3.248,3.248,0,0,0,1.1.359,9.485,9.485,0,0,1,1.324.336A2.406,2.406,0,0,1,45.43-2.453,2.214,2.214,0,0,1,44.4-.57a4.505,4.505,0,0,1-2.66.727A4.6,4.6,0,0,1,39.8-.234,3.24,3.24,0,0,1,38.477-1.3,2.406,2.406,0,0,1,38-2.711h2.461a1.017,1.017,0,0,0,.391.855,1.607,1.607,0,0,0,.961.27,1.264,1.264,0,0,0,.809-.219A.7.7,0,0,0,42.891-2.375ZM49.438,0H46.8V-8.453h2.641Zm-2.8-10.633a1.175,1.175,0,0,1,.406-.922,1.533,1.533,0,0,1,1.055-.359,1.533,1.533,0,0,1,1.055.359,1.175,1.175,0,0,1,.406.922,1.175,1.175,0,0,1-.406.922,1.533,1.533,0,0,1-1.055.359,1.533,1.533,0,0,1-1.055-.359A1.175,1.175,0,0,1,46.641-10.633ZM50.727-4.3a4.989,4.989,0,0,1,.492-2.254,3.52,3.52,0,0,1,1.414-1.52A4.259,4.259,0,0,1,54.8-8.609a3.887,3.887,0,0,1,2.992,1.176,4.512,4.512,0,0,1,1.094,3.2v.094A4.378,4.378,0,0,1,57.785-1,3.9,3.9,0,0,1,54.813.156a3.942,3.942,0,0,1-2.9-1.082,4.232,4.232,0,0,1-1.18-2.934Zm2.633.164a3.145,3.145,0,0,0,.367,1.719,1.223,1.223,0,0,0,1.086.547q1.406,0,1.438-2.164V-4.3q0-2.273-1.453-2.273-1.32,0-1.43,1.961ZM55.156-12h2.781L55.766-9.547H53.617Zm7.3,3.547.086.992a2.867,2.867,0,0,1,2.414-1.148,2.412,2.412,0,0,1,1.973.789,3.757,3.757,0,0,1,.676,2.375V0H64.969V-5.336a1.426,1.426,0,0,0-.258-.941,1.193,1.193,0,0,0-.937-.3,1.256,1.256,0,0,0-1.148.609V0H59.992V-8.453Z" transform="translate(284.051 2313.721)" fill="#12263f"/>
    <path id="Trazado_912883" data-name="Trazado 912883" d="M6.727-3.023A1.127,1.127,0,0,0,6.3-3.961a5.292,5.292,0,0,0-1.5-.7,14.353,14.353,0,0,1-1.75-.7A3.314,3.314,0,0,1,.844-8.336,2.676,2.676,0,0,1,1.395-10a3.562,3.562,0,0,1,1.559-1.125,6.065,6.065,0,0,1,2.266-.4,5.305,5.305,0,0,1,2.2.438A3.482,3.482,0,0,1,8.93-9.848,3.254,3.254,0,0,1,9.469-8H6.734a1.375,1.375,0,0,0-.426-1.078,1.66,1.66,0,0,0-1.152-.383A1.872,1.872,0,0,0,4-9.137a1,1,0,0,0-.426.824,1,1,0,0,0,.469.793,5.911,5.911,0,0,0,1.648.734,10.1,10.1,0,0,1,1.938.816,3.256,3.256,0,0,1,1.844,2.93A2.778,2.778,0,0,1,8.344-.7,5,5,0,0,1,5.258.156a6.122,6.122,0,0,1-2.5-.5A3.775,3.775,0,0,1,1.066-1.7,3.542,3.542,0,0,1,.5-3.687H3.25A1.744,1.744,0,0,0,3.723-2.34a2.234,2.234,0,0,0,1.535.434A1.765,1.765,0,0,0,6.332-2.2.967.967,0,0,0,6.727-3.023ZM14.844.156A4.345,4.345,0,0,1,11.7-1a4.006,4.006,0,0,1-1.2-3.02v-.219a5.191,5.191,0,0,1,.48-2.289,3.516,3.516,0,0,1,1.4-1.535,4.233,4.233,0,0,1,2.188-.543A3.659,3.659,0,0,1,17.375-7.5a4.344,4.344,0,0,1,1.031,3.082V-3.4H13.172a1.9,1.9,0,0,0,.617,1.117,1.836,1.836,0,0,0,1.234.406,2.366,2.366,0,0,0,1.953-.875l1.2,1.422A3.363,3.363,0,0,1,16.785-.246,4.713,4.713,0,0,1,14.844.156Zm-.3-6.734q-1.156,0-1.375,1.531h2.656v-.2a1.3,1.3,0,0,0-.32-.98A1.275,1.275,0,0,0,14.547-6.578Zm10.031.508-.867-.062a1.558,1.558,0,0,0-1.594.781V0H19.484V-8.453h2.469l.086,1.086a2.039,2.039,0,0,1,1.852-1.242,2.567,2.567,0,0,1,.734.094Zm4.461,2.938,1.336-5.32h2.773L30.391,0H27.7L24.945-8.453h2.781ZM36.711,0H34.07V-8.453h2.641Zm-2.8-10.633a1.175,1.175,0,0,1,.406-.922,1.533,1.533,0,0,1,1.055-.359,1.533,1.533,0,0,1,1.055.359,1.175,1.175,0,0,1,.406.922,1.175,1.175,0,0,1-.406.922,1.533,1.533,0,0,1-1.055.359,1.533,1.533,0,0,1-1.055-.359A1.175,1.175,0,0,1,33.914-10.633Zm7.992,8.758a1.171,1.171,0,0,0,.859-.3,1.1,1.1,0,0,0,.3-.84h2.469a2.922,2.922,0,0,1-1,2.281,3.705,3.705,0,0,1-2.566.891A3.751,3.751,0,0,1,39.063-1,4.556,4.556,0,0,1,38-4.2v-.109a5.149,5.149,0,0,1,.473-2.262,3.441,3.441,0,0,1,1.363-1.508,4.065,4.065,0,0,1,2.109-.527,3.658,3.658,0,0,1,2.617.914,3.242,3.242,0,0,1,.969,2.477H43.063a1.445,1.445,0,0,0-.32-1.008,1.106,1.106,0,0,0-.859-.352q-1.023,0-1.2,1.3a9.206,9.206,0,0,0-.055,1.141,3.616,3.616,0,0,0,.3,1.766A1.055,1.055,0,0,0,41.906-1.875ZM49.422,0H46.781V-8.453h2.641Zm-2.8-10.633a1.175,1.175,0,0,1,.406-.922,1.533,1.533,0,0,1,1.055-.359,1.533,1.533,0,0,1,1.055.359,1.175,1.175,0,0,1,.406.922,1.175,1.175,0,0,1-.406.922,1.533,1.533,0,0,1-1.055.359,1.533,1.533,0,0,1-1.055-.359A1.175,1.175,0,0,1,46.625-10.633ZM50.711-4.3A4.989,4.989,0,0,1,51.2-6.559a3.52,3.52,0,0,1,1.414-1.52,4.259,4.259,0,0,1,2.164-.531,3.887,3.887,0,0,1,2.992,1.176,4.512,4.512,0,0,1,1.094,3.2v.094A4.378,4.378,0,0,1,57.77-1,3.9,3.9,0,0,1,54.8.156,3.942,3.942,0,0,1,51.9-.926a4.232,4.232,0,0,1-1.18-2.934Zm2.633.164a3.145,3.145,0,0,0,.367,1.719,1.223,1.223,0,0,0,1.086.547q1.406,0,1.438-2.164V-4.3q0-2.273-1.453-2.273-1.32,0-1.43,1.961Z" transform="translate(346.051 2269.72)" fill="#12263f"/>
  </g>
</svg>
