<svg xmlns="http://www.w3.org/2000/svg" width="75.293" height="84.169" viewBox="0 0 75.293 84.169">
  <g id="Grupo_1101315" data-name="Grupo 1101315" transform="translate(-43.286 -22.119)">
    <path id="Trazado_912696" data-name="Trazado 912696" d="M102.178,29.026H78.649a6.2,6.2,0,0,0-6.183,6.183V46.887a6.2,6.2,0,0,0,6.183,6.183H97.161a7.794,7.794,0,0,1,5.769,2.428l5.431,5.557V35.209A6.2,6.2,0,0,0,102.178,29.026Z" transform="translate(-23.866 -5.649)" fill="#ffe177" fill-rule="evenodd"/>
    <path id="Trazado_912697" data-name="Trazado 912697" d="M274.651,197.138a17.593,17.593,0,0,1,17.542,17.542V230.17a4.167,4.167,0,0,1-4.159,4.159H287v8.286a2.6,2.6,0,0,1-2.6,2.6H257.11V214.68A17.593,17.593,0,0,1,274.651,197.138Z" transform="translate(-174.882 -141.979)" fill="#ca7441" fill-rule="evenodd"/>
    <path id="Trazado_912698" data-name="Trazado 912698" d="M66.446,282.754A16.29,16.29,0,0,1,82.688,299v16.242H56.182a5.989,5.989,0,0,1-5.978-5.978V299a16.29,16.29,0,0,1,16.242-16.242Z" transform="translate(-5.658 -212.002)" fill="#fa6e85" fill-rule="evenodd"/>
    <circle id="Elipse_11543" data-name="Elipse 11543" cx="7.652" cy="7.652" r="7.652" transform="translate(53.136 54.835)" fill="#fcd4a9"/>
    <circle id="Elipse_11544" data-name="Elipse 11544" cx="9.057" cy="9.057" r="9.057" transform="translate(90.712 36.127)" fill="#fcd4a9"/>
    <path id="Trazado_912699" data-name="Trazado 912699" d="M176.807,311.293h19.9a2.467,2.467,0,0,1,2.46,2.46V338.58H174.347V313.753A2.467,2.467,0,0,1,176.807,311.293Z" transform="translate(-107.192 -235.344)" fill="#e6e6e6" fill-rule="evenodd"/>
    <path id="Trazado_912700" data-name="Trazado 912700" d="M75.468,396.933h-.014a1.89,1.89,0,0,1-1.882,1.79h-4.5a1.89,1.89,0,0,1-1.882-1.79H56.181a5.989,5.989,0,0,1-5.978-5.978V382.64H58v5.716a2.084,2.084,0,0,0,2.08,2.08H73.572a1.89,1.89,0,0,1,1.884,1.884Z" transform="translate(-5.657 -293.697)" fill="#fcd4a9" fill-rule="evenodd"/>
    <path id="Trazado_912701" data-name="Trazado 912701" d="M287.352,300.924h20.286V286.506h7.749v16.757h-.033v4.159h-21.62a1.89,1.89,0,0,1-1.882,1.79h-4.5a1.889,1.889,0,0,1-1.884-1.884v-4.519A1.889,1.889,0,0,1,287.352,300.924Z" transform="translate(-198.076 -217.571)" fill="#fcd4a9" fill-rule="evenodd"/>
    <path id="Trazado_912702" data-name="Trazado 912702" d="M78.315,24.669H54.783a4.97,4.97,0,0,0-4.922,5V41.512a4.965,4.965,0,0,0,4.922,4.994H73.3a9.035,9.035,0,0,1,6.66,2.846l3.276,3.4V29.668a4.971,4.971,0,0,0-4.922-5ZM89.275,84.3H90.72V78.023a1.206,1.206,0,0,0-1.2-1.22H69.612a1.213,1.213,0,0,0-1.2,1.22V95.374a3.19,3.19,0,0,1,2.65,3.145v3.4h19.66V95.25c-1.412,0-2.568.174-3.662-.935a3.2,3.2,0,0,1-.928-2.252V87.482A3.178,3.178,0,0,1,89.275,84.3Zm3.961,0V78.023a3.756,3.756,0,0,0-3.717-3.77H83.484v-2.02a16.271,16.271,0,0,1,32.374-2.559h-6.294a1.267,1.267,0,0,0-1.258,1.275V84.3Zm25.257-13.787a7.528,7.528,0,0,1,.077,1.723V87.942l-.032.595v3.622a1.267,1.267,0,0,1-1.258,1.275h-3.9v7.128a3.9,3.9,0,0,1-3.865,3.911H70.751a3.152,3.152,0,0,1-2.835,1.815H63.422a3.152,3.152,0,0,1-2.835-1.815H50.522a7.3,7.3,0,0,1-7.236-7.337V86.728A17.8,17.8,0,0,1,55.547,69.8,9.114,9.114,0,0,1,54.5,56.109a8.8,8.8,0,0,1,12.589.006A9.113,9.113,0,0,1,66.026,69.8a17.591,17.591,0,0,1,7.18,4.451h7.762v-2.02a19.107,19.107,0,0,1,13.2-18.192,10.548,10.548,0,0,1-1.688-16.17,10.2,10.2,0,0,1,14.582,0,10.548,10.548,0,0,1-1.688,16.17A19.1,19.1,0,0,1,118.492,70.509ZM110.86,93.434H96.609A3.136,3.136,0,0,1,93.78,95.25h-.545v6.672H109.51a1.355,1.355,0,0,0,1.35-1.36Zm-1.3-6.587a1.267,1.267,0,0,0,1.258-1.275V72.224h5.233V87.656c-.051.458-.01.429-.032.723a2.955,2.955,0,0,1-.819,1.646,2.865,2.865,0,0,1-2.047.859h-17.5A1.267,1.267,0,0,0,94.4,92.158a.628.628,0,0,1-.619.541h-4.5a.63.63,0,0,1-.629-.636V87.481a.628.628,0,0,1,.629-.635h20.288ZM68.546,103.183a.638.638,0,0,1-.629.555H63.422a.639.639,0,0,1-.634-.6,1.262,1.262,0,0,0-1.253-1.207v0H50.522A4.77,4.77,0,0,1,45.8,97.135V89.979h5.287V94.5a3.371,3.371,0,0,0,3.335,3.385H67.916a.628.628,0,0,1,.629.635ZM45.8,87.429v-.7A15.248,15.248,0,0,1,50.2,76a14.771,14.771,0,0,1,19.136-1.735A3.771,3.771,0,0,0,65.9,78.023V95.334H54.423a.822.822,0,0,1-.82-.835V88.7a1.267,1.267,0,0,0-1.258-1.275Zm28.634,3.21a1.275,1.275,0,0,1,0-2.55h7.621a1.275,1.275,0,0,1,0,2.55Zm0,6.917a1.275,1.275,0,0,1,0-2.55h7.621a1.275,1.275,0,0,1,0,2.55Zm0-13.836a1.275,1.275,0,0,1,0-2.55h7.621a1.275,1.275,0,0,1,0,2.55Zm30.846-44.056a7.731,7.731,0,0,0-11.025,0,8.006,8.006,0,0,0,0,11.2,7.729,7.729,0,0,0,11.024,0A8.006,8.006,0,0,0,105.281,39.664ZM60.793,68.983A6.485,6.485,0,1,0,54.4,62.5,6.428,6.428,0,0,0,60.793,68.983ZM65.167,31.1a1.278,1.278,0,0,1-.8,1.609,1.253,1.253,0,0,1-1.587-.812.918.918,0,0,0-1.747,0,1.253,1.253,0,0,1-1.587.812,1.279,1.279,0,0,1-.8-1.609,3.417,3.417,0,0,1,5.266-1.729A3.48,3.48,0,0,1,65.167,31.1Zm9.286,0a1.278,1.278,0,0,1-.8,1.609,1.253,1.253,0,0,1-1.587-.812.918.918,0,0,0-1.747,0,1.253,1.253,0,0,1-1.587.812,1.279,1.279,0,0,1-.8-1.609A3.417,3.417,0,0,1,73.2,29.367,3.481,3.481,0,0,1,74.452,31.1Zm-5.046,6.612a1.255,1.255,0,0,1,1.543-.9,1.277,1.277,0,0,1,.884,1.564,5.454,5.454,0,0,1-8.6,2.955,5.562,5.562,0,0,1-1.964-2.955,1.277,1.277,0,0,1,.884-1.564,1.256,1.256,0,0,1,1.543.9,2.953,2.953,0,0,0,4.654,1.6A3.012,3.012,0,0,0,69.406,37.708ZM54.783,22.119H78.315a7.521,7.521,0,0,1,7.437,7.549V55.879h0a1.253,1.253,0,0,1-2.153.887L78.168,51.13A6.481,6.481,0,0,0,73.3,49.056H54.783a7.516,7.516,0,0,1-7.437-7.544V29.668a7.521,7.521,0,0,1,7.437-7.549Z" fill="#1e2f3f" fill-rule="evenodd"/>
  </g>
</svg>
