<svg xmlns="http://www.w3.org/2000/svg" width="84.949" height="84.949" viewBox="0 0 84.949 84.949">
  <g id="Grupo_1101246" data-name="Grupo 1101246" transform="translate(-1 -1)">
    <circle id="Elipse_11536" data-name="Elipse 11536" cx="19.867" cy="19.867" r="19.867" transform="translate(40.049 7.166)" fill="#e6eeff"/>
    <path id="Trazado_912090" data-name="Trazado 912090" d="M38.94,30.93l3.124.055a2.049,2.049,0,0,1,1.37.534l1.836,1.617a2.127,2.127,0,0,0,1.411.534H56.9a2,2,0,0,0,1.918-1.781l1.425-9.372a3.406,3.406,0,0,0-.836-2.836,2.875,2.875,0,0,0-2.1-.945H52.7L54.2,12.159A2.615,2.615,0,0,0,53,9.282,2.243,2.243,0,0,0,49.819,10.6l-1.987,5.439a3.924,3.924,0,0,1-3.617,2.685H38.954V30.944Z" transform="translate(14.043 2.967)" fill="#ff9e4d"/>
    <path id="Trazado_912091" data-name="Trazado 912091" d="M67.1,52.442A20.552,20.552,0,1,1,34.221,36a27.388,27.388,0,0,0,27.855,2.987A20.4,20.4,0,0,1,67.1,52.442Z" transform="translate(9.254 12.955)" fill="#ee4f47"/>
    <path id="Trazado_912092" data-name="Trazado 912092" d="M32.513,25.922A27.164,27.164,0,0,0,35.952,39.2a20.551,20.551,0,1,1,1.014-28.225A27.159,27.159,0,0,0,32.513,25.922Z" transform="translate(0 1.11)" fill="#ffbd45"/>
    <path id="Trazado_912093" data-name="Trazado 912093" d="M51.033,1A26.033,26.033,0,1,0,77.066,27.033,26.039,26.039,0,0,0,51.033,1ZM66.762,25.663l-1.425,9.386a3.366,3.366,0,0,1-3.288,2.946H51.828a3.454,3.454,0,0,1-2.3-.863l-1.85-1.617a.71.71,0,0,0-.48-.192h-.671v.438A1.64,1.64,0,0,1,44.881,37.4H36.893a1.649,1.649,0,0,1-1.644-1.644V19.223a1.649,1.649,0,0,1,1.644-1.644h7.988a1.64,1.64,0,0,1,1.644,1.644v1.082h2.836a2.536,2.536,0,0,0,2.329-1.781l2-5.439a3.7,3.7,0,0,1,2.192-2.261,3.461,3.461,0,0,1,2.918.206,3.966,3.966,0,0,1,1.891,4.384l-1.124,4.891h2.9a4.223,4.223,0,0,1,3.11,1.4,4.825,4.825,0,0,1,1.178,3.96Z" transform="translate(8.884)" fill="#ca7441"/>
    <ellipse id="Elipse_11537" data-name="Elipse 11537" cx="12.5" cy="12" rx="12.5" ry="12" transform="translate(5 52)" fill="#f6ccb3"/>
    <g id="Grupo_1101245" data-name="Grupo 1101245" transform="translate(11.824 18.497)">
      <circle id="Elipse_11538" data-name="Elipse 11538" cx="2.055" cy="2.055" r="2.055" fill="#12263f"/>
      <circle id="Elipse_11539" data-name="Elipse 11539" cx="2.055" cy="2.055" r="2.055" transform="translate(15.346)" fill="#12263f"/>
      <path id="Trazado_912094" data-name="Trazado 912094" d="M18.443,28.629c-4.987,0-9.043-3.48-9.043-7.769h2.74c0,2.768,2.823,5.028,6.3,5.028s6.3-2.247,6.3-5.028h2.74C27.486,25.135,23.43,28.629,18.443,28.629Z" transform="translate(-8.715 -11.146)" fill="#12263f"/>
    </g>
    <path id="Trazado_912095" data-name="Trazado 912095" d="M51.945,53.2,44.45,60.776a.678.678,0,0,1-.973,0L36,53.2l-1.329-1.356a5.748,5.748,0,0,1,0-8.07,5.583,5.583,0,0,1,7.974,0l1.329,1.343L45.3,43.773a5.623,5.623,0,0,1,7.988,0,5.765,5.765,0,0,1,0,8.084l-1.329,1.356Z" transform="translate(11.849 15.212)" fill="#f6f6f6"/>
    <path id="Trazado_912096" data-name="Trazado 912096" d="M19.961,47.11h-4.11V43H13.11v4.11H9v2.74h4.11v4.11h2.74v-4.11h4.11Z" transform="translate(2.961 15.546)" fill="#12263f"/>
    <rect id="Rectángulo_404029" data-name="Rectángulo 404029" width="8.536" height="17.086" rx="0.2" transform="translate(45.502 18.949)" fill="#12263f"/>
  </g>
</svg>
