<svg xmlns="http://www.w3.org/2000/svg" width="85" height="68.093" viewBox="0 0 85 68.093">
  <g id="Grupo_1101250" data-name="Grupo 1101250" transform="translate(-23.217 -63.39)">
    <g id="Grupo_1101247" data-name="Grupo 1101247" transform="translate(23.217 64.819)">
      <path id="Trazado_912097" data-name="Trazado 912097" d="M27.186,123c-.027-5.168.171-10-.992-14.5-1.232-4.771-2.714-7.977-2.973-15.831-.046-1.389-.014-12.85,12.989-19.552h0A15.245,15.245,0,0,1,42,71.466h0c4.864-.375,14.144.29,20.136,9.252l.018.027a26.624,26.624,0,0,1,2.951,18.3c-1.1,5.274-2.9,7.193-5.162,9.262a26.746,26.746,0,0,0-7.065,9c-2.015,3.981-2.068,7.293-2.278,9.973-.191,2.432-.551,4.411-1.983,6.013-1.372,1.534-3.806,2.775-8.394,3.559a10.171,10.171,0,0,1-4.139-.137h0c-2.326-.571-5.859-1.962-7.824-5.033-1.309-2.046-1.974-4.842-1.07-8.674Z" transform="translate(-23.217 -71.388)" fill="#f6ccb3" fill-rule="evenodd"/>
      <path id="Trazado_912098" data-name="Trazado 912098" d="M64.768,121.069a1.436,1.436,0,0,1,.057-.27,22.034,22.034,0,0,1,1.417-4.4c1.879-4.152,5.3-7.605,11.426-7.649a12.091,12.091,0,0,1,8.288,2.727c2.843,2.447,4.068,6.2,4.4,9.684a19.077,19.077,0,0,1-.847,8.123c-.241,1.051-1.59,6.037-6.568,11.661-2.882,3.256-3.052,6.492-3.107,9.069-.048,2.225-.127,4.057-.97,5.3a8.955,8.955,0,0,1-3.956,2.842,7.123,7.123,0,0,1-5.718,0c-2.161-1.1-4.007-3.958-3.456-10.246a1.429,1.429,0,0,1,2.848.249,13.474,13.474,0,0,0,.4,5.491,3.251,3.251,0,0,0,1.506,1.956,4.245,4.245,0,0,0,3.4-.123,5.945,5.945,0,0,0,2.616-1.777,2.888,2.888,0,0,0,.379-1.312c.082-.725.08-1.549.1-2.448.066-3.106.351-6.979,3.825-10.9,4.983-5.629,5.943-10.5,5.943-10.5a1.425,1.425,0,0,1,.174-.462c.451-.763.884-3.576.592-6.659-.264-2.789-1.144-5.83-3.417-7.786a9.355,9.355,0,0,0-6.4-2.035c-5.761.042-8.392,4.015-9.629,8.075a13.93,13.93,0,0,1,4.106.545,6.359,6.359,0,0,1,4.724,4.886c1.2,5.9-1.914,9.117-3.968,12.283-.683,1.053-.346,2.274.1,3.419.626,1.6,1.575,3.091,1.932,4.124a1.429,1.429,0,1,1-2.7.935c-.43-1.243-1.712-3.149-2.263-5.109a5.834,5.834,0,0,1,.531-4.925c1.713-2.641,4.564-5.234,3.565-10.159a3.631,3.631,0,0,0-2.773-2.726,11.609,11.609,0,0,0-3.925-.405,30.422,30.422,0,0,0-.379,6.74,1.429,1.429,0,1,1-2.849.226A33.892,33.892,0,0,1,64.768,121.069Z" transform="translate(-56.805 -102.072)" fill="#fff0e8" fill-rule="evenodd"/>
    </g>
    <g id="Grupo_1101248" data-name="Grupo 1101248" transform="translate(75.933 63.39)">
      <path id="Trazado_912099" data-name="Trazado 912099" d="M350.579,84.207V66.854a3.471,3.471,0,0,0-3.464-3.464H321.76a3.471,3.471,0,0,0-3.464,3.464V84.207a3.467,3.467,0,0,0,3.464,3.459h2.93V92.5a.893.893,0,0,0,1.537.619l5.239-5.454h15.649A3.467,3.467,0,0,0,350.579,84.207Z" transform="translate(-318.296 -63.39)" fill="#ffbd45" fill-rule="evenodd"/>
      <path id="Trazado_912100" data-name="Trazado 912100" d="M354.383,92.8l4.937-5.139h1.786l-5.239,5.454a.893.893,0,0,1-1.484-.315Zm20.586-5.139a3.467,3.467,0,0,0,3.464-3.459V66.854a3.471,3.471,0,0,0-3.464-3.464h1.786a3.471,3.471,0,0,1,3.464,3.464V84.207a3.467,3.467,0,0,1-3.464,3.459Z" transform="translate(-347.936 -63.39)" fill="#ffbd45" fill-rule="evenodd"/>
      <path id="Trazado_912101" data-name="Trazado 912101" d="M349.509,95.768a1.429,1.429,0,1,1,0-2.858h18.479a1.429,1.429,0,0,1,0,2.858Zm0,5.5a1.429,1.429,0,1,1,0-2.858h18.479a1.429,1.429,0,0,1,0,2.858Zm0,5.492a1.429,1.429,0,1,1,0-2.858h18.479a1.429,1.429,0,0,1,0,2.858Z" transform="translate(-342.759 -87.636)" fill="#eceff1" fill-rule="evenodd"/>
    </g>
    <g id="Grupo_1101249" data-name="Grupo 1101249" transform="translate(60.777 99.813)">
      <path id="Trazado_912102" data-name="Trazado 912102" d="M248.617,267.269a15.156,15.156,0,1,1-4.837,29.525l-7.9,2.115a.893.893,0,0,1-1.094-1.094l1.691-6.316a15.156,15.156,0,0,1,12.14-24.23Z" transform="translate(-233.461 -267.269)" fill="#ee4f47" fill-rule="evenodd"/>
      <path id="Trazado_912103" data-name="Trazado 912103" d="M254.822,267.295q.443-.026.893-.026a15.156,15.156,0,0,1,0,30.312q-.449,0-.891-.026a15.156,15.156,0,0,0,0-30.26Zm-4.891,29.752-6.952,1.861a.893.893,0,0,1-.863-.231l-.012-.013,6.988-1.871Q249.506,296.932,249.93,297.047Z" transform="translate(-240.559 -267.269)" fill="#ee4f47" fill-rule="evenodd"/>
      <path id="Trazado_912104" data-name="Trazado 912104" d="M272.31,316.692a1.429,1.429,0,1,1,0-2.858H286.4a1.429,1.429,0,1,1,0,2.858Zm0,10.678a1.429,1.429,0,0,1,0-2.858H286.4a1.429,1.429,0,0,1,0,2.858Zm0-5.339a1.429,1.429,0,1,1,0-2.858H286.4a1.429,1.429,0,1,1,0,2.858Z" transform="translate(-264.196 -305.515)" fill="#eceff1" fill-rule="evenodd"/>
    </g>
  </g>
</svg>
