<svg xmlns="http://www.w3.org/2000/svg" xmlns:xlink="http://www.w3.org/1999/xlink" width="442.27" height="354.389" viewBox="0 0 442.27 354.389">
  <defs>
    <linearGradient id="linear-gradient" x1="0.892" x2="0.049" y2="0.806" gradientUnits="objectBoundingBox">
      <stop offset="0" stop-color="#ee4f47"/>
      <stop offset="1" stop-color="#ffbd45"/>
    </linearGradient>
  </defs>
  <g id="Grupo_1102540" data-name="Grupo 1102540" transform="translate(-305 -4392.319)">
    <rect id="Rectángulo_403049" data-name="Rectángulo 403049" width="442.27" height="354.113" transform="translate(305 4392.319)" fill="#ca7441"/>
    <path id="Trazado_911942" data-name="Trazado 911942" d="M0,0V138.16A48.582,48.582,0,0,0,8.538,138c24.631-2.607,43.559-27.27,54.626-47.214,8.665-15.62,11.256-34.406,24.71-46.773,31.878-29.286,82.841,5.892,120.1,1.709,18.542-2.087,34.737-10.665,48.072-23.245,5.8-5.459,10.035-15.163,15.431-22.48Z" transform="translate(305.27 4392.594)" fill="url(#linear-gradient)"/>
    <path id="Trazado_912106" data-name="Trazado 912106" d="M103.831,203.359a.71.71,0,0,1-.744.348c-6.818-.835-13.534.876-20.294,1.755,3.351,2.311,6.743,4.532,10.048,6.9,9.591,6.882,19.166,16.137,23.068,30.115-5.512-2.066-11.243-4.15-16.864-2.76s-11.095,7.317-11.521,15.222a21.434,21.434,0,0,0,4.794,14.31c9.454-1.536,18.793-3.975,28.389-4.3,1.189-.04,1.184,1.946,0,1.985-9.113.305-18,2.52-26.969,4.058a52.476,52.476,0,0,0,6.607,6.25l3.245,2.634c.7-.09,1.4-.182,2.106-.269a101.089,101.089,0,0,1,15.445-1.027c4.73.14,9.613.84,13.849,3.243,1.051.6.12,2.31-.93,1.714a22.315,22.315,0,0,0-7.209-2.437c-6.991-1.228-14.114-.439-21.163.479l37.867,30.741-19.336.943c-2.735.133-6.318,1.354-6.432,5.152-.111,3.7,3.233,5.4,5.87,5.971l31.361,6.844h9.72a1112.97,1112.97,0,0,0-60.906-127.879" transform="translate(240.154 4412.397)"/>
    <path id="Trazado_912110" data-name="Trazado 912110" d="M526.338,211.425q6.927-12.346,14.171-24.344c3.92-6.49,19.757-36.3,27.463-29.073,3.873,3.631,1.286,16.371.215,21.362a59.363,59.363,0,0,1-6.058,16.441c-3.205-.46-6.407-.951-9.631-1.244-4.878-.442-9.97-.552-14.7,1-.971.317-.555,1.955.419,1.637,4.685-1.535,9.722-1.365,14.548-.912,2.828.264,5.64.679,8.453,1.088a43.514,43.514,0,0,1-2.509,3.688,58.454,58.454,0,0,1-13.071,12.108c-6.44-.6-12.815-2.5-19.3-1.748" transform="translate(128.477 4421.43)"/>
    <path id="Trazado_912111" data-name="Trazado 912111" d="M507.761,226.341a.606.606,0,0,0,.635.3c5.832-.715,11.575.75,17.357,1.5-2.866,1.976-5.767,3.875-8.594,5.9-8.2,5.886-16.391,13.8-19.727,25.755,4.714-1.768,9.615-3.549,14.422-2.36s9.488,6.257,9.853,13.019a18.327,18.327,0,0,1-4.1,12.238c-8.085-1.314-16.072-3.4-24.278-3.674-1.017-.034-1.012,1.664,0,1.7,7.793.261,15.392,2.155,23.064,3.471a44.763,44.763,0,0,1-5.651,5.345l-2.774,2.253c-.6-.077-1.2-.156-1.8-.23a86.324,86.324,0,0,0-13.208-.878c-4.046.119-8.221.718-11.844,2.774-.9.51-.1,1.975.8,1.465a19.079,19.079,0,0,1,6.165-2.084c5.979-1.05,12.071-.375,18.1.41l-32.384,26.291,16.536.806c2.34.114,5.4,1.158,5.5,4.406.1,3.167-2.765,4.615-5.021,5.107l-26.82,5.853h-8.313a951.869,951.869,0,0,1,52.089-109.364" transform="translate(146.27 4407.93)"/>
    <path id="Trazado_912112" data-name="Trazado 912112" d="M550.717,143.067c4.082,9.4,1.523,21.6-2.566,31a54.745,54.745,0,0,1-3.442,6.608c-6.843-.17-13.692-.4-20.447,1.073-1,.217-.572,1.854.419,1.637,6.261-1.37,12.623-1.217,18.977-1.046a116.181,116.181,0,0,1-12.177,14.9l-3.167,3.45c-.563,0-1.126,0-1.689,0-5.05.043-10.235.35-15.067,2.057-.961.34-.548,1.979.419,1.637,4.749-1.677,9.814-1.96,14.777-2l-21.522,23.451c4.286-3.061,9.2-2.706,14.024-2.767s10.034,3.99,10.91,10.572c.666,5.009-1.183,9.456-3.856,13.2-9.185-.355-18.36-1.619-27.542-.548-1,.117-1.008,1.815,0,1.7,8.762-1.022,17.52.081,26.286.492a44.525,44.525,0,0,1-4.2,4.425q-8.251,7.663-16.746,14.8c-9.458-.195-18.913-1.743-28.384-1.056-1.009.073-1.012,1.772,0,1.7,8.818-.639,17.62.657,26.425,1Q485.679,283.031,468.4,294.7c7.56-1.123,14.667-.595,22.227-1.718,1.978-.294,4.432-.267,5.392,2.152a6.127,6.127,0,0,1-1.326,5.984,9.9,9.9,0,0,1-4.588,2.314c-8.794,2.747-17.106,8.331-24.178,16.087H445.6c22.259-70.892,59.12-132.838,105.12-176.451" transform="translate(148.806 4424.117)" fill="#ffbd45"/>
    <path id="Trazado_912113" data-name="Trazado 912113" d="M560.886,265.378c3.77-3.765,19.485-21.626,24.194-14.285,2.366,3.689-1.266,12.413-2.731,15.817a40.83,40.83,0,0,1-3.148,5.945c-6.379-2.07-12.914-3.654-19.6-3.679-1.017,0-1.015,1.693,0,1.7a62.062,62.062,0,0,1,18.611,3.431,29.087,29.087,0,0,1-5.791,6.138,30.593,30.593,0,0,1-7.357,4.125c-5.493-1.722-10.9-3.9-16.69-3.939-1.017-.006-1.015,1.691,0,1.7,4.89.033,9.515,1.65,14.152,3.185-3.392,1.16-6.869,2.012-10.266,3.106-6.847,2.2-13.959,5.907-18.037,13.855,3.716-.074,7.573-.11,10.959,2.02a13.052,13.052,0,0,1,5.508,12.174,11.261,11.261,0,0,1-2.572,5.941c-5.845-2.479-11.326-6.292-17.766-6.35-1.017-.009-1.015,1.689,0,1.7,5.958.054,11.13,3.473,16.542,5.921a22.525,22.525,0,0,1-6.873,4l-4.388,1.751c-6.688-2.812-13.181-7.13-20.558-6.026-1,.15-.573,1.785.419,1.637,4.072-.609,8.141.837,11.869,2.453,2.045.886,4.055,1.884,6.09,2.805l-24.259,9.678H498.278a565.171,565.171,0,0,1,62.609-74.8" transform="translate(135.542 4403.458)"/>
    <path id="Trazado_912114" data-name="Trazado 912114" d="M525.355,338.61h-37.2c25.7-43.869,60.033-77.938,98.3-97.321,1.581,7.273-1.2,14.809-4.94,20.528-5.325-1.476-10.668-2.864-16.194-3.115-1.016-.046-1.011,1.652,0,1.7a68.725,68.725,0,0,1,15.189,2.884c-.047.066-.094.136-.141.2-3.442,4.71-7.754,7.893-12.169,10.712-5.476-.68-10.942-1.474-16.469-.863-1,.111-1.008,1.809,0,1.7a60.583,60.583,0,0,1,14.209.581l-1,.616L541.7,290.485c3.577-1.14,7.157.4,10.721,1.616s6.863,5.561,6.619,10.645c-.252,5.242-3.77,8.516-7.407,10.668-5.437-2.729-10.939-5.311-16.831-6.646-.991-.225-1.411,1.412-.419,1.637a69.937,69.937,0,0,1,15.465,5.982c-.1.048-.191.1-.285.145q-6.065,2.98-12.212,5.625c-6.259-1.568-12.568-2.9-19.008-2.922-1.016,0-1.014,1.694,0,1.7a71.794,71.794,0,0,1,16.42,2.326,262.933,262.933,0,0,1-29.553,10.425c5.729,1.143,10.9,3.387,16.63,4.53,1.339.268,2.917.831,3.511,2.4" transform="translate(138.091 4405.024)" fill="#ffbd45"/>
    <path id="Trazado_912115" data-name="Trazado 912115" d="M255.539,197.919c-2.566-11.75-5.441-24.125-13.279-32.755Q238.343,181.95,236,199.1c-1.607,11.779-4.631,32.708,5.361,41.489,3.722,3.271,8.614,3.285,13.09,2.168,2.336-.583,7.521-1.734,8.925-4.014,1.677-2.725-.8-8.611-1.441-11.531l-6.4-29.3" transform="translate(202.011 4419.821)" fill="#f6ccb3"/>
    <path id="Trazado_912116" data-name="Trazado 912116" d="M310.225,283.871c-4.805-.678-33.99,0-55.391-5.767-.37-6.827.6-26.116.6-26.116-11.674-9.309-20.92-5.827-33.929,1.131q-1.343,22.39-2.686,44.78c-.334,5.581-.492,11.78,2.861,16.052,4.573,5.826,13,5,19.929,3.388,32.2-7.514,40.326-15.432,69.792-17.251-.557-4.427,2.145-13.271-1.176-16.217" transform="translate(205.947 4404.043)" fill="#ff9b6d"/>
    <path id="Trazado_912117" data-name="Trazado 912117" d="M253.815,297.3c1.737-3.127,5.888-8.831,9.872-11.536" transform="translate(197.094 4396.378)" fill="none" stroke="#000" stroke-linecap="round" stroke-linejoin="round" stroke-width="1"/>
    <path id="Trazado_912118" data-name="Trazado 912118" d="M360,308.981a55.421,55.421,0,0,1,5.876,11.932,52.783,52.783,0,0,1-3.487,9.026,1.844,1.844,0,0,1-1.528-1.129,4.414,4.414,0,0,1-.271-1.933,14.779,14.779,0,0,1,1.143-5.249,30.917,30.917,0,0,0-5.8-8.884Z" transform="translate(171.383 4391.866)" fill="#de875f"/>
    <path id="Trazado_912119" data-name="Trazado 912119" d="M366.342,304.295a77.135,77.135,0,0,1,8.181,16.611c-1.11,4.554-2.978,8.312-4.854,12.564a2.562,2.562,0,0,1-2.127-1.57,6.141,6.141,0,0,1-.378-2.692,20.572,20.572,0,0,1,1.591-7.307,43.059,43.059,0,0,0-8.078-12.368Z" transform="translate(170.188 4392.776)" fill="#de875f"/>
    <path id="Trazado_912120" data-name="Trazado 912120" d="M377.051,305.76a77.157,77.157,0,0,1,8.181,16.611c-1.11,4.554-2.978,8.312-4.854,12.565a2.564,2.564,0,0,1-2.127-1.571,6.14,6.14,0,0,1-.378-2.692,20.572,20.572,0,0,1,1.591-7.307A43.046,43.046,0,0,0,371.384,311Z" transform="translate(167.492 4392.492)" fill="#de875f"/>
    <path id="Trazado_912121" data-name="Trazado 912121" d="M340.288,292.928c-2.353,2.452-3.213,12.818-.775,15.172,11.18,10.791,16.49-.384,27.431,3.988,0,0,.1-7.815,1.141-9.381Z" transform="translate(175.884 4394.986)" fill="#ff9b6d"/>
    <path id="Trazado_912122" data-name="Trazado 912122" d="M376.849,305.065A79.654,79.654,0,0,1,391.425,318.9c.506,5.21-.067,9.912-.469,15.133a2.7,2.7,0,0,1-2.788-.736,6.534,6.534,0,0,1-1.375-2.642,23.046,23.046,0,0,1-1.01-8.279,44.335,44.335,0,0,0-12.922-9.459Z" transform="translate(167.12 4392.627)" fill="#ff9b6d"/>
    <path id="Trazado_912123" data-name="Trazado 912123" d="M347.712,315.8c2.6,3.844,6.478,6.411,10.253,8.878l10.461,6.835a1.1,1.1,0,0,0,.383.186c.692.132.933-.971.8-1.714-.83-4.516-3.779-7.317-7-9.966a8.983,8.983,0,0,1-3.52-6.948,14.769,14.769,0,0,0-.838-4.847,13.551,13.551,0,0,0-4.5-5.353,10.467,10.467,0,0,0-3.372-1.963c-3.6-1.068-5.563,2.3-5.894,5.737-.294,3.048,1.63,6.792,3.228,9.154" transform="translate(174.272 4393.475)" fill="#ff9b6d"/>
    <path id="Trazado_912124" data-name="Trazado 912124" d="M262.418,254a27.816,27.816,0,0,0-23.852-8.775" transform="translate(200.933 4404.305)" fill="none" stroke="#000" stroke-linecap="round" stroke-linejoin="round" stroke-width="1"/>
    <path id="Trazado_912125" data-name="Trazado 912125" d="M122.913,127.807c-17.107,1.795-36.437,7.8-43.495,24.672C65.593,185.533,86.144,222.1,86.144,222.1a679.227,679.227,0,0,0,1.912,69.717c.537,6.784,1.193,13.647,3.389,20.032H210.856c-2.07-40.809-4.427-83.235.492-123.979,2.831-23.45-10.328-45.678-31.344-52.544-16.829-5.5-37.277-9.6-57.092-7.52" transform="translate(242.208 4427.19)" fill="#f6ccb3"/>
    <path id="Trazado_912126" data-name="Trazado 912126" d="M197.417,158.564c9.083,38.149,8.476,78.092,7.811,117.467q-.348,20.612-.7,41.225" transform="translate(211.294 4421.104)" fill="none" stroke="#000" stroke-linecap="round" stroke-linejoin="round" stroke-width="1"/>
    <path id="Trazado_912127" data-name="Trazado 912127" d="M206.951,39.342l-29.7,30.131a20.091,20.091,0,0,1-4.492,3.752c-1.7.923-2.917,1.573-4.672.782a44.08,44.08,0,0,0-9.576-17.681,8.671,8.671,0,0,1-2.172-3.219c-.584-2.019.42-4.171,1.639-5.828-.331.449-3.638-3.3-3.852-3.869-.588-1.554-.306-4.824,1.439-5.425a21.365,21.365,0,0,1-1.822-2.762c-.993-1.978-1.952-6.829,1.425-7.073a8.089,8.089,0,0,1,.122-6.09,5.6,5.6,0,0,1,4.12-3.081,6.723,6.723,0,0,1,.674-4.625,6.7,6.7,0,0,1,2.38-2.812,2.682,2.682,0,0,1,3.318.359,9.357,9.357,0,0,1,7.089-6.451,4.261,4.261,0,0,1,2.615.257,2.6,2.6,0,0,1,1.475,2.209,9.78,9.78,0,0,1,4.21-3.755,8.937,8.937,0,0,1,3.191-.679,4.6,4.6,0,0,1,3.159.831,2.565,2.565,0,0,1,.688,3.153c1.087-2.688,3.925-4.635,6.631-4.3A4.322,4.322,0,0,1,198.659,6.4c1.46-1.58,4.542-1.351,6.305-.184a5.349,5.349,0,0,1,1.977,5.821,5.424,5.424,0,0,1,5.461,2.19,5.835,5.835,0,0,1,.162,5.94c1.585.421,2.406,2.436,2.667,4.171a4.77,4.77,0,0,1-1.9,4.537c1.3.612,1.374,2.61,1.024,4.093a6.736,6.736,0,0,1-2.536,3.578c-1.143.911-2.418,1.62-3.526,2.577" transform="translate(222.524 4451.319)" fill="#773040"/>
    <path id="Trazado_912128" data-name="Trazado 912128" d="M194.8,88.708a64.124,64.124,0,0,0-23.9-20.615,249.738,249.738,0,0,1-12.967,54.421c10.033,7.151,21.555,10.972,33.312,12.647a254.727,254.727,0,0,1,3.56-46.453" transform="translate(221.235 4438.69)" fill="#ff9b6d"/>
    <path id="Trazado_912129" data-name="Trazado 912129" d="M200.5,89.232a64,64,0,0,0-19.954-18.445c.156,15.816,6.308,30.961,17.184,40.712q.881-11.2,2.77-22.267" transform="translate(215.542 4438.167)"/>
    <path id="Trazado_912130" data-name="Trazado 912130" d="M211.9,33.19c-8.448-6.163-28.774-1.884-34.566,1.174.465,3.855,1.614,10.351,1.614,10.351l-3.671,12.87s-7.739-4.821-11.181-1.979c-6.455,5.328,3.6,20.133,11.4,16.056.355-.185,3.359,18.146,24.175,20.44,8.272.912,13.614-2.4,14.568-12.619,1.452-15.562,1.726-28.831-2.341-46.293" transform="translate(220.203 4446.086)" fill="#ff9b6d"/>
    <path id="Trazado_912131" data-name="Trazado 912131" d="M202.739,89.866a13.319,13.319,0,0,0,5.13,4.663,7.817,7.817,0,0,0,6.213.582,4.014,4.014,0,0,0,.564-.276c-2-4.315-7.445-6.268-11.907-4.97" transform="translate(209.954 4434.535)" fill="#961717"/>
    <path id="Trazado_912132" data-name="Trazado 912132" d="M217.9,88.058c-2.6-2.034-10.423-1.415-16.754-.593q.578.975,1.194,1.861c4.462-1.3,9.906.655,11.907,4.97a8.321,8.321,0,0,0,3.653-6.238" transform="translate(210.355 4435.075)" fill="#520c0c"/>
    <path id="Trazado_912133" data-name="Trazado 912133" d="M217.009,77.587a8.891,8.891,0,0,0,2.78-1.085,4.3,4.3,0,0,0,1.841-2.721,8.049,8.049,0,0,0-.837-4.409q-1.639-4.071-3.276-8.144" transform="translate(206.361 4440.025)" fill="none" stroke="#000" stroke-linecap="round" stroke-linejoin="round" stroke-width="1"/>
    <path id="Trazado_912134" data-name="Trazado 912134" d="M166.187,67.12a2.826,2.826,0,0,1,2.723-2.891,4.147,4.147,0,0,1,3.448,2.382,10.663,10.663,0,0,1,1.02,4.449,1.967,1.967,0,0,0-2.877,1.235,2.126,2.126,0,0,0,1.965,2.576" transform="translate(219.159 4439.441)" fill="none" stroke="#000" stroke-linecap="round" stroke-linejoin="round" stroke-width="1"/>
    <path id="Trazado_912135" data-name="Trazado 912135" d="M203.187,61.058a2.569,2.569,0,0,1-3.559,1.279,2.962,2.962,0,0,1-1.188-3.832A2.568,2.568,0,0,1,202,57.226a2.962,2.962,0,0,1,1.188,3.832" transform="translate(211.107 4440.861)"/>
    <path id="Trazado_912136" data-name="Trazado 912136" d="M228.316,61.058a2.569,2.569,0,0,1-3.559,1.279,2.962,2.962,0,0,1-1.188-3.832,2.568,2.568,0,0,1,3.559-1.279,2.962,2.962,0,0,1,1.188,3.832" transform="translate(204.78 4440.861)"/>
    <path id="Trazado_912137" data-name="Trazado 912137" d="M191.987,51.17c2.046-1.583,6.74-4.521,11.312-2.582" transform="translate(212.661 4442.606)" fill="none" stroke="#000" stroke-linecap="round" stroke-linejoin="round" stroke-width="2"/>
    <path id="Trazado_912138" data-name="Trazado 912138" d="M220.148,49.282a5.838,5.838,0,0,1,7.546.976" transform="translate(205.57 4442.534)" fill="none" stroke="#000" stroke-linecap="round" stroke-linejoin="round" stroke-width="2"/>
    <path id="Trazado_912139" data-name="Trazado 912139" d="M209.177,59.428c0,5.134-3.866,9.3-8.634,9.3s-8.634-4.163-8.634-9.3,3.865-9.3,8.634-9.3S209.177,54.294,209.177,59.428Z" transform="translate(212.681 4442.182)" fill="none" stroke="#000" stroke-linecap="round" stroke-linejoin="round" stroke-width="1"/>
    <ellipse id="Elipse_11540" data-name="Elipse 11540" cx="6.702" cy="9.297" rx="6.702" ry="9.297" transform="translate(426.248 4492.313)" fill="none" stroke="#000" stroke-linecap="round" stroke-linejoin="round" stroke-width="1"/>
    <path id="Trazado_912140" data-name="Trazado 912140" d="M213.571,55.951a9.946,9.946,0,0,1,3-1.091,3.363,3.363,0,0,1,2.945.923" transform="translate(207.227 4441.27)" fill="none" stroke="#000" stroke-linecap="round" stroke-linejoin="round" stroke-width="1"/>
    <path id="Trazado_912141" data-name="Trazado 912141" d="M187.893,59.094a125.6,125.6,0,0,0-12.59,2.148" transform="translate(216.861 4440.44)" fill="none" stroke="#000" stroke-linecap="round" stroke-linejoin="round" stroke-width="1"/>
    <path id="Trazado_912142" data-name="Trazado 912142" d="M174.891,67.015c1.241,5.767-1,11.251-5,12.25s-8.257-2.866-9.5-8.631,1-11.251,5-12.25,8.257,2.865,9.5,8.631" transform="translate(220.703 4440.608)"/>
    <path id="Trazado_912143" data-name="Trazado 912143" d="M171.065,10.549c-6.5,6.05-9.048,15.341-9.405,24.312a117.51,117.51,0,0,0,1.125,17.959,1.123,1.123,0,1,0,2.241-.143c-1.05-9.2-2.131-18.718.334-27.772,2.183-8.017,7.443-14.7,14.973-17.228.01,0,.02-.006.03-.009l2.57-3.042a23.093,23.093,0,0,0-11.867,5.924" transform="translate(220.309 4451.028)"/>
    <path id="Trazado_912144" data-name="Trazado 912144" d="M188.532,88.361a32.037,32.037,0,0,1-12.07-9.243c-.317-.39-.818.21-.5.6a32.521,32.521,0,0,0,12.23,9.362c.443.193.791-.521.344-.715" transform="translate(216.722 4436.572)"/>
    <path id="Trazado_912145" data-name="Trazado 912145" d="M192.183,88.648c-2.406,0-2.182,4.022.223,4.022s2.182-4.022-.223-4.022" transform="translate(213.039 4434.695)"/>
    <path id="Trazado_912146" data-name="Trazado 912146" d="M147.463,136.334a53.365,53.365,0,0,1,4.9-13.621,124.225,124.225,0,0,1,24.815,12.511s1.152,6.21,1.773,14.262c-8.046,1.787-21.862-4.152-31.484-13.152" transform="translate(223.871 4428.073)" fill="#f6ccb3"/>
    <path id="Trazado_912147" data-name="Trazado 912147" d="M150.921,134.3a67.43,67.43,0,0,0,20.235,15.54,86.184,86.184,0,0,1,6.59-12.365c.788,4.708,1.626,9.5,2.073,14.263" transform="translate(223 4425.821)" fill="none" stroke="#000" stroke-linecap="round" stroke-linejoin="round" stroke-width="1"/>
    <path id="Trazado_912148" data-name="Trazado 912148" d="M202.243,152.563q1.937-5.954,4.058-11.835l2.382,9.321-5.222-1.167" transform="translate(210.079 4424.571)" fill="none" stroke="#000" stroke-linecap="round" stroke-linejoin="round" stroke-width="1"/>
    <path id="Trazado_912149" data-name="Trazado 912149" d="M203.059,138.986c1.137.5,2.31.9,3.447,1.4" transform="translate(209.873 4424.91)" fill="none" stroke="#000" stroke-linecap="round" stroke-linejoin="round" stroke-width="1"/>
    <path id="Trazado_912150" data-name="Trazado 912150" d="M115.558,274.776a5.55,5.55,0,0,0,3.472-1.275c11.47-7.718,19.06-20.516,25.634-33.244,1.637-3.17,3.271-6.485,3.535-10.1-7.08.493-13.577,4.483-19.051,9.343a51.069,51.069,0,0,0-11.4,14.116,37.953,37.953,0,0,0-4.008,11.863c-.37,2.366-1.838,8.938,1.823,9.3" transform="translate(232.515 4407.188)"/>
    <path id="Trazado_912151" data-name="Trazado 912151" d="M215.443,197.092q-15.852,21.671-30.895,44.008-7.52,11.165-14.832,22.488c-3.769,5.837-8.141,12.846-7.6,20.319.48,6.67,4.748,13.187,9.777,16.88,5.678,4.17,15.459,1.892,21.1-7.537,6.624-11.072,25.37-60.131,33.748-84.325Z" transform="translate(220.194 4413.615)" fill="#ff9b6d"/>
    <path id="Trazado_912152" data-name="Trazado 912152" d="M290.32,190.712c2.219-1.251,7.263-14.172,6.866-14.661a1.188,1.188,0,0,0-.629-.406c-3.357-.812-8.787,7.063-9.818,9.7-4.452,1.141-10.992,2.25-15.443,3.391-.56.143-1.21.371-1.383.963a1.946,1.946,0,0,0,.1,1.07q.652,2.243,1.3,4.485a1.923,1.923,0,0,0,.48.95,1.663,1.663,0,0,0,1.517.118c6.11-1.535,15.531-4.776,17.005-5.609" transform="translate(193.051 4417.795)" fill="#de875f"/>
    <path id="Trazado_912153" data-name="Trazado 912153" d="M281.9,188.393c2.142-1.4,6.429-14.632,6-15.093a1.175,1.175,0,0,0-.652-.363c-3.4-.585-8.361,7.639-9.238,10.338-4.377,1.436-10.84,2.983-15.217,4.42-.551.18-1.186.453-1.324,1.054a1.939,1.939,0,0,0,.163,1.062L263.2,194.2a1.916,1.916,0,0,0,.534.915,1.659,1.659,0,0,0,1.52.014c6.009-1.942,15.224-5.809,16.648-6.738" transform="translate(195.171 4418.316)" fill="#de875f"/>
    <path id="Trazado_912154" data-name="Trazado 912154" d="M270.235,189.3c1.885-1.23,5.659-12.879,5.285-13.285a1.035,1.035,0,0,0-.574-.319c-2.991-.515-7.359,6.724-8.131,9.1-3.853,1.266-9.542,2.626-13.395,3.891-.485.16-1.044.4-1.165.929a1.7,1.7,0,0,0,.144.935l1.374,3.863a1.681,1.681,0,0,0,.471.806,1.462,1.462,0,0,0,1.338.014,116.762,116.762,0,0,0,14.654-5.932" transform="translate(197.492 4417.779)" fill="#de875f"/>
    <path id="Trazado_912155" data-name="Trazado 912155" d="M240.249,208.964c6.554-4.516,23.295-13.833,23.295-13.833,8.293-2.892,16.182-3.955,24.615-5.026a2.334,2.334,0,0,0,1.683-1.06,2.223,2.223,0,0,0-.714-2.737,5.059,5.059,0,0,0-2.786-.789c-4.756-.329-15.582.913-20.233,2.038a31.734,31.734,0,0,1-12.987.864c-.986-.1-4.262-2.69-3.933-3.7,1.016-3.106,3.927-3.881,5.692-6.571,2.4-3.662,5.6-7.318,5.448-11.8a2.271,2.271,0,0,0-.292-1.187,1.53,1.53,0,0,0-2.094-.244,6.056,6.056,0,0,0-1.539,1.838c-2.495,3.757-6.2,6.357-9.947,8.6s-7.663,4.256-10.967,7.2-6,7.035-6.3,11.642,6.865,13.8,11.062,14.756" transform="translate(203.297 4419.926)" fill="#ff9b6d"/>
    <path id="Trazado_912156" data-name="Trazado 912156" d="M169.4,265.693q-11.251-17.373-20.987-35.813c-16.376,3.238-30.276,17.123-33.4,34.732,9.443,18.055,26.042,29.756,42.5,40.494,3.218,2.1,6.793,4.274,10.51,3.649,3.145-.529,5.778-3.07,7.237-6.117a24,24,0,0,0,1.938-9.976,50.571,50.571,0,0,0-7.8-26.969" transform="translate(232.043 4407.242)" fill="#ff9b6d"/>
    <path id="Trazado_912157" data-name="Trazado 912157" d="M96.277,238.867a142.865,142.865,0,0,0,12.765,23.086,45.392,45.392,0,0,1,10.7-28.979c6.549-7.441,14.909-13,24.338-14.191a383.569,383.569,0,0,1-15.249-47.634" transform="translate(236.759 4418.658)" fill="none" stroke="#000" stroke-linecap="round" stroke-linejoin="round" stroke-width="1"/>
    <path id="Trazado_912158" data-name="Trazado 912158" d="M178.512,265.841c-6.866,7.253-9.814,18.531-7.471,28.575" transform="translate(218.135 4400.251)" fill="none" stroke="#000" stroke-linecap="round" stroke-linejoin="round" stroke-width="1"/>
    <path id="Trazado_912159" data-name="Trazado 912159" d="M263.718,351.828v2.75h44.068v-7.513Z" transform="translate(194.6 4384.462)" fill="#323e78"/>
    <rect id="Rectángulo_404030" data-name="Rectángulo 404030" width="75.015" height="7.513" transform="translate(502.387 4731.527)"/>
    <path id="Trazado_912160" data-name="Trazado 912160" d="M441.993,305.108H319.8c-1.85,0-2.911-1.615-2.367-3.608l22.492-82.481a4.916,4.916,0,0,1,4.334-3.608h122.2c1.85,0,2.911,1.614,2.367,3.608L446.328,301.5a4.917,4.917,0,0,1-4.334,3.608" transform="translate(181.112 4410.054)" fill="#323e78"/>
    <path id="Trazado_912161" data-name="Trazado 912161" d="M447.751,305.108h-122.2c-1.85,0-2.911-1.615-2.367-3.608l22.492-82.481a4.916,4.916,0,0,1,4.334-3.608h122.2c1.851,0,2.911,1.614,2.367,3.608L452.086,301.5a4.917,4.917,0,0,1-4.334,3.608" transform="translate(179.663 4410.054)"/>
    <path id="Trazado_912162" data-name="Trazado 912162" d="M399.626,297.99H397.4l23.888,44.778h-25.9v2.271h28.772v-2.376Z" transform="translate(161.447 4394.002)" fill="#323e78"/>
    <path id="Trazado_912163" data-name="Trazado 912163" d="M427.073,297.99H401.052l24.536,44.673v2.376h25.157v-2.676Z" transform="translate(160.022 4394.002)"/>
    <path id="Trazado_912164" data-name="Trazado 912164" d="M464.741,364.058H55.9a3.847,3.847,0,0,1,0-7.667h408.84a3.847,3.847,0,0,1,0,7.667" transform="translate(252.619 4382.65)"/>
    <path id="Trazado_912165" data-name="Trazado 912165" d="M565.647,11.9V129.777c0,6.574-4.946,11.907-11.051,11.907H470.287a10.255,10.255,0,0,1-4.482-1.023,11.96,11.96,0,0,1-6.577-10.884V11.9c0-6.574,4.946-11.9,11.059-11.9H554.6c6.105,0,11.051,5.325,11.051,11.9" transform="translate(145.374 4451.927)" fill="#f6f6f6"/>
    <path id="Trazado_912166" data-name="Trazado 912166" d="M567.86,146.762v6.727c0,6.574-4.946,11.907-11.051,11.907H472.5a10.255,10.255,0,0,1-4.482-1.023c7.116-9.724,9.921-22.9,19.918-29.614a85.889,85.889,0,0,1,20.419-9.764,60.29,60.29,0,0,1,17.808-3,42.953,42.953,0,0,1,16.461,2.949C553,129.167,560.842,137.3,567.86,146.762" transform="translate(143.161 4428.214)" fill="#ee4f47"/>
    <path id="Trazado_912167" data-name="Trazado 912167" d="M513.229,141.617c-.621,2.149-1.225,4.566-.267,6.567a5.262,5.262,0,0,0,3.728,2.742,10.982,10.982,0,0,0,4.635-.256,32.76,32.76,0,0,0,19.494-13.5" transform="translate(131.971 4425.264)" fill="none" stroke="#000" stroke-linecap="round" stroke-linejoin="round" stroke-width="1"/>
    <path id="Trazado_912168" data-name="Trazado 912168" d="M498.974,29.115c-3.654,2.211-6.24,6.057-8.021,10.143-2.873,6.592-3.731,14.932.281,20.794,2.445,3.573,6.339,5.72,8.9,9.2A16.264,16.264,0,0,1,502.5,83.139c-1.012,3.438-3.131,6.372-4.4,9.709s-2.307,9.259.944,10.123c12.364,3.289,31.679,1.047,45.5-6.444a16.527,16.527,0,0,0,6.091-4.848c1.456-2.132-.728-5.167-2.048-7.4-2.751-4.654-5.076-10.111-4.105-15.528.3-1.684.912-3.284,1.31-4.945a29.093,29.093,0,0,0,.607-7.919,52.659,52.659,0,0,0-3.418-16.677A20.842,20.842,0,0,0,540.34,34.1a17.864,17.864,0,0,0-6.72-5.14,41.868,41.868,0,0,0-17.581-3.8,31.3,31.3,0,0,0-7.521.657c-3.273.754-6.626,1.529-9.545,3.295" transform="translate(138.002 4447.037)" fill="#8c5a2c"/>
    <path id="Trazado_912169" data-name="Trazado 912169" d="M538.982,114.738c-2.291-14.769-2.812-30-3.191-45.054a48.4,48.4,0,0,0-17.739,15.4,192.381,192.381,0,0,1,2.689,35.089c-14.736,25.871,21.665,7.995,18.241-5.44" transform="translate(130.774 4438.381)" fill="#ff9b6d"/>
    <path id="Trazado_912170" data-name="Trazado 912170" d="M518.335,85.444a48.338,48.338,0,0,1,15.073-13.932c-.118,11.946-4.765,23.387-12.98,30.752q-.665-8.461-2.093-16.82" transform="translate(130.492 4438.026)"/>
    <path id="Trazado_912171" data-name="Trazado 912171" d="M501.244,43.112c6.382-4.656,21.735-1.423,26.11.887-.352,2.911-1.219,7.818-1.219,7.818l2.773,9.721s5.845-3.641,8.446-1.494c4.875,4.025-2.719,15.208-8.613,12.129-.268-.14-8.671,13.939-22.931,13.966-2.418,0-6.053-3.728-6.774-11.447-1.1-11.755.281-17.6,2.208-31.58" transform="translate(135.449 4444.008)" fill="#ff9b6d"/>
    <path id="Trazado_912172" data-name="Trazado 912172" d="M516.1,85.161a8.615,8.615,0,0,1-3.4,1.961,7.888,7.888,0,0,1-4.114.244,3.343,3.343,0,0,1-.374-.115c1.325-1.814,4.93-2.635,7.884-2.09" transform="translate(133.039 4435.405)" fill="#961717"/>
    <path id="Trazado_912173" data-name="Trazado 912173" d="M504.988,84.4c1.72-.856,6.9-.595,11.093-.249-.255.273-.518.533-.791.782-2.954-.546-6.558.276-7.883,2.089a3.62,3.62,0,0,1-2.419-2.622" transform="translate(133.853 4435.632)" fill="#520c0c"/>
    <path id="Trazado_912174" data-name="Trazado 912174" d="M547.494,68.743a2.135,2.135,0,0,0-2.057-2.184,3.133,3.133,0,0,0-2.6,1.8,8.054,8.054,0,0,0-.771,3.359,1.487,1.487,0,0,1,2.174.933,1.607,1.607,0,0,1-1.484,1.946" transform="translate(124.518 4438.989)" fill="none" stroke="#000" stroke-linecap="round" stroke-linejoin="round" stroke-width="1"/>
    <path id="Trazado_912175" data-name="Trazado 912175" d="M518.969,64.163a1.94,1.94,0,0,0,2.688.966,2.237,2.237,0,0,0,.9-2.895,1.939,1.939,0,0,0-2.689-.966,2.237,2.237,0,0,0-.9,2.895" transform="translate(130.386 4440.062)"/>
    <path id="Trazado_912176" data-name="Trazado 912176" d="M501.044,64.163a1.941,1.941,0,0,0,2.689.966,2.238,2.238,0,0,0,.9-2.895,1.94,1.94,0,0,0-2.689-.966,2.237,2.237,0,0,0-.9,2.895" transform="translate(134.899 4440.062)"/>
    <path id="Trazado_912177" data-name="Trazado 912177" d="M526.749,56.741c-1.3-1.475-5.717-3.132-9.17-1.667" transform="translate(130.683 4441.332)" fill="none" stroke="#000" stroke-linecap="round" stroke-linejoin="round" stroke-width="2"/>
    <path id="Trazado_912178" data-name="Trazado 912178" d="M506.645,55.268a4.411,4.411,0,0,0-5.7.738" transform="translate(134.871 4441.325)" fill="none" stroke="#000" stroke-linecap="round" stroke-linejoin="round" stroke-width="2"/>
    <path id="Trazado_912179" data-name="Trazado 912179" d="M508.01,67.26a33.139,33.139,0,0,1-3.766,5.624,9.639,9.639,0,0,0,2.812,4.393" transform="translate(134.04 4438.853)" fill="none" stroke="#000" stroke-linecap="round" stroke-linejoin="round" stroke-width="1"/>
    <path id="Trazado_912180" data-name="Trazado 912180" d="M522.085,55.472c6.366,4.242,14.168,5.368,21.638,4.823a1.8,1.8,0,0,0,1.119-.346,1.876,1.876,0,0,0,.479-1.178,13.417,13.417,0,0,0-.812-5.517,39.462,39.462,0,0,0-5.71-12.308,22.241,22.241,0,0,0-12.512-8.312,20.858,20.858,0,0,0-10.912.392c-3.214.994-4.079,2.28-3.68,5.849a23.648,23.648,0,0,0,10.391,16.6" transform="translate(132.187 4445.689)" fill="#8c5a2c"/>
    <path id="Trazado_912181" data-name="Trazado 912181" d="M480.639,170.78V201.79l11.775-31.011Z" transform="translate(139.983 4418.73)" fill="#773040"/>
    <path id="Trazado_912182" data-name="Trazado 912182" d="M446.436,62.007H398.946c-4.325,0-7.832-3.775-7.832-8.432V49.441c0-4.657,3.507-8.432,7.832-8.432h47.489c4.325,0,7.832,3.775,7.832,8.432v4.133c0,4.657-3.506,8.432-7.832,8.432" transform="translate(162.524 4443.955)" fill="#fbcc34"/>
    <path id="Trazado_912183" data-name="Trazado 912183" d="M463,63.089l19.086,18.165L467.954,60.4Z" transform="translate(144.425 4440.186)" fill="#fbcc34"/>
    <line id="Línea_1703" data-name="Línea 1703" x2="50.55" transform="translate(559.875 4492.014)" fill="none" stroke="#000" stroke-linecap="round" stroke-linejoin="round" stroke-width="1"/>
    <line id="Línea_1704" data-name="Línea 1704" x2="50.55" transform="translate(559.875 4494.98)" fill="none" stroke="#000" stroke-linecap="round" stroke-linejoin="round" stroke-width="1"/>
    <line id="Línea_1705" data-name="Línea 1705" x2="31.079" transform="translate(559.875 4497.946)" fill="none" stroke="#000" stroke-linecap="round" stroke-linejoin="round" stroke-width="1"/>
    <path id="Trazado_912184" data-name="Trazado 912184" d="M329.759,91.3H295.144c-7.282,0-13.185-6.356-13.185-14.2V44.289c0-7.841,5.9-14.2,13.185-14.2h34.615c7.282,0,13.186,6.355,13.186,14.2V77.105c0,7.841-5.9,14.2-13.186,14.2" transform="translate(190.007 4446.077)" fill="#fff"/>
    <path id="Trazado_912185" data-name="Trazado 912185" d="M277.288,78.1,249.349,88.735h29.964Z" transform="translate(198.218 4436.745)" fill="#fff"/>
    <path id="Trazado_912186" data-name="Trazado 912186" d="M314.334,70.689a19.871,19.871,0,0,1,.873-6.57,10.279,10.279,0,0,1,2.833-4.175,19.676,19.676,0,0,0,2.978-3.235,5.55,5.55,0,0,0,1.019-3.235q0-4.3-3.441-4.3a3.1,3.1,0,0,0-2.568,1.254A5.6,5.6,0,0,0,315,53.816h-8.948q.054-5.7,3.336-8.879t9.213-3.178q5.9,0,9.146,2.936t3.243,8.352a10.36,10.36,0,0,1-.873,4.3,14.512,14.512,0,0,1-2.807,3.962l-3.044,3.05a7.739,7.739,0,0,0-1.8,2.75,11.636,11.636,0,0,0-.556,3.577Zm-1.086,8.665a4.583,4.583,0,0,1,1.416-3.463,5.291,5.291,0,0,1,7.068,0,4.944,4.944,0,0,1,0,6.927,5.291,5.291,0,0,1-7.068,0,4.581,4.581,0,0,1-1.416-3.463" transform="translate(183.942 4443.81)" fill="#fbcc34"/>
    <path id="Trazado_912187" data-name="Trazado 912187" d="M564.37,347.443H541.978a1.835,1.835,0,0,1-1.763-1.9V312.256a1.835,1.835,0,0,1,1.763-1.9H564.37a1.835,1.835,0,0,1,1.764,1.9v33.288a1.835,1.835,0,0,1-1.764,1.9" transform="translate(124.983 4391.598)" fill="#773040"/>
    <path id="Trazado_912188" data-name="Trazado 912188" d="M539.292,340.43H533.43a6.852,6.852,0,0,1-6.578-7.082V326.76a6.851,6.851,0,0,1,6.578-7.082h5.862V316.3H533.43c-5.359,0-9.718,4.694-9.718,10.463v6.587c0,5.769,4.359,10.463,9.718,10.463h5.862Z" transform="translate(129.138 4390.443)" fill="#773040"/>
    <path id="Trazado_912189" data-name="Trazado 912189" d="M555.692,302.147c-1.1-2.359-2.521-4.282-3.585-6.787a13,13,0,0,1-1.018-4.119,9.4,9.4,0,0,1,.129-2.3,8.744,8.744,0,0,1,.761-2.212,34.236,34.236,0,0,1,2.1-3.241,10.6,10.6,0,0,0,.772-1.4,11.121,11.121,0,0,0,.533-1.555,12.363,12.363,0,0,0-.359-7.109,9.288,9.288,0,0,1,2.681,7.524,10.367,10.367,0,0,1-1.227,4.176c-.67,1.233-1.413,2.214-1.872,3.145a6.233,6.233,0,0,0-.688,2.883,14.664,14.664,0,0,0,.4,3.387c.505,2.327,1.48,4.928,1.369,7.615" transform="translate(122.25 4398.778)" fill="#fff"/>
  </g>
</svg>
