<svg xmlns="http://www.w3.org/2000/svg" width="79.704" height="79.979" viewBox="0 0 79.704 79.979">
  <g id="Grupo_1101262" data-name="Grupo 1101262" transform="translate(-0.878)">
    <g id="Grupo_1101255" data-name="Grupo 1101255" transform="translate(40.166 38.27)">
      <path id="Trazado_912190" data-name="Trazado 912190" d="M454.986,450.268a1.207,1.207,0,0,1-1.055-1.792,13.685,13.685,0,0,0,1.264-5.884,1.207,1.207,0,1,1,2.413.078,16.257,16.257,0,0,1-1.565,6.976A1.207,1.207,0,0,1,454.986,450.268Z" transform="translate(-422.321 -410.74)" fill="#12263f"/>
      <path id="Trazado_912191" data-name="Trazado 912191" d="M284.518,244.994h-1.357a16.142,16.142,0,1,0,0,32.283h1.357a16.142,16.142,0,1,0,0-32.283Z" transform="translate(-264.734 -244.994)" fill="#12263f"/>
      <path id="Trazado_912192" data-name="Trazado 912192" d="M281.509,272.553a16.108,16.108,0,0,0,7.213,4.175,16.146,16.146,0,0,1-4.2.553h-1.357a16.142,16.142,0,1,1,0-32.283h1.357a16.152,16.152,0,0,1,4.2.553,16.144,16.144,0,0,0-7.213,27Z" transform="translate(-264.736 -244.997)" fill="#12263f"/>
      <path id="Trazado_912193" data-name="Trazado 912193" d="M279.949,388.173H259.012a2.647,2.647,0,0,1-.51.209c-2.367.685-5.251-2.1-5.935-4.467a4.461,4.461,0,0,1,6.339-5.2H279.57Z" transform="translate(-252.39 -357.403)" fill="#ffcebf"/>
      <path id="Trazado_912194" data-name="Trazado 912194" d="M275.276,400.5a1.207,1.207,0,0,1-1.207-1.207,1.873,1.873,0,0,0-1.385-1.807,1.207,1.207,0,0,1,.625-2.332,4.29,4.29,0,0,1,3.174,4.139A1.207,1.207,0,0,1,275.276,400.5Z" transform="translate(-268.759 -371.661)" fill="#e49280"/>
      <g id="Grupo_1101253" data-name="Grupo 1101253" transform="translate(6.517 13.231)">
        <path id="Trazado_912195" data-name="Trazado 912195" d="M318.426,334.924a.967.967,0,0,1,.859.963v9.7a12.589,12.589,0,1,1-25.178,0v-9.506a.968.968,0,0,1,1.063-.965,20.864,20.864,0,0,0,5.144-.139,15.545,15.545,0,0,0,9.473-4.951.969.969,0,0,1,1.526.1C312.412,331.731,314.811,334.53,318.426,334.924Z" transform="translate(-294.108 -329.698)" fill="#ffdfcf"/>
        <path id="Trazado_912196" data-name="Trazado 912196" d="M309.8,386.3a12.6,12.6,0,0,1-15.69-12.2v-9.506a.968.968,0,0,1,1.063-.965,20.864,20.864,0,0,0,5.144-.139v10.61A12.6,12.6,0,0,0,309.8,386.3Z" transform="translate(-294.109 -358.204)" fill="#ffcebf"/>
      </g>
      <g id="Grupo_1101254" data-name="Grupo 1101254" transform="translate(13.053 22.065)">
        <path id="Trazado_912197" data-name="Trazado 912197" d="M337.161,390.3a1.207,1.207,0,0,1-1.207-1.207v-1.633a1.207,1.207,0,0,1,2.414,0v1.633A1.207,1.207,0,0,1,337.161,390.3Z" transform="translate(-335.954 -386.249)" fill="#12263f"/>
        <path id="Trazado_912198" data-name="Trazado 912198" d="M399.2,390.3a1.207,1.207,0,0,1-1.207-1.207v-1.633a1.207,1.207,0,1,1,2.414,0v1.633A1.207,1.207,0,0,1,399.2,390.3Z" transform="translate(-388.299 -386.249)" fill="#12263f"/>
      </g>
      <path id="Trazado_912199" data-name="Trazado 912199" d="M350.536,443.372a5.787,5.787,0,0,1-4.12-1.706,1.207,1.207,0,1,1,1.707-1.707,3.412,3.412,0,0,0,4.825,0,1.207,1.207,0,0,1,1.707,1.707A5.789,5.789,0,0,1,350.536,443.372Z" transform="translate(-331.431 -409.206)" fill="#ee4f47"/>
      <path id="Trazado_912200" data-name="Trazado 912200" d="M457.62,381.332h-.1a2.227,2.227,0,0,1-2.227-2.227v-8.239a2.227,2.227,0,0,1,2.227-2.227h.1a4.293,4.293,0,0,1,4.293,4.293v4.108A4.293,4.293,0,0,1,457.62,381.332Z" transform="translate(-423.595 -349.325)" fill="#727997"/>
      <path id="Trazado_912201" data-name="Trazado 912201" d="M461.912,396.12v4.108a4.293,4.293,0,0,1-4.292,4.293h-.1a2.228,2.228,0,0,1-2.228-2.228v-4.149a2.228,2.228,0,0,0,2.228,2.228h.1A4.293,4.293,0,0,0,461.912,396.12Z" transform="translate(-423.595 -372.513)" fill="#b0c0d2"/>
    </g>
    <g id="Grupo_1101259" data-name="Grupo 1101259" transform="translate(0.878 0)">
      <g id="Grupo_1101257" data-name="Grupo 1101257" transform="translate(4.75)">
        <path id="Trazado_912202" data-name="Trazado 912202" d="M66.184,28.339V15.794a15.794,15.794,0,0,0-31.589,0V28.339a5.415,5.415,0,0,0,2.106,10.4H64.077a5.415,5.415,0,0,0,2.107-10.4Z" transform="translate(-31.288 0)" fill="#ffe177"/>
        <path id="Trazado_912203" data-name="Trazado 912203" d="M40.7,33.328a5.412,5.412,0,0,0,5.413,5.413h-9.4a5.415,5.415,0,0,1-2.107-10.4V15.794A15.808,15.808,0,0,1,55.1.711,15.809,15.809,0,0,0,44,15.794V28.339A5.415,5.415,0,0,0,40.7,33.328Z" transform="translate(-31.293 0)" fill="#fece85"/>
        <path id="Trazado_912204" data-name="Trazado 912204" d="M101.611,133.722h20.706a4.462,4.462,0,0,1,6.34,5.2c-.685,2.366-3.569,5.152-5.937,4.467a2.645,2.645,0,0,1-.51-.209h-20.6Z" transform="translate(-90.626 -112.41)" fill="#ffcebf"/>
        <path id="Trazado_912205" data-name="Trazado 912205" d="M227.644,155.5a1.207,1.207,0,0,1-1.207-1.207,4.29,4.29,0,0,1,3.174-4.139,1.207,1.207,0,1,1,.625,2.332,1.873,1.873,0,0,0-1.384,1.807A1.207,1.207,0,0,1,227.644,155.5Z" transform="translate(-195.953 -126.668)" fill="#e49280"/>
        <path id="Trazado_912206" data-name="Trazado 912206" d="M98.159,99.1v9.632a12.589,12.589,0,1,1-25.177,0V99.564a1.051,1.051,0,0,1,1.327-1.016,18.982,18.982,0,0,0,4.88.655,17.341,17.341,0,0,0,11.943-4.649.788.788,0,0,1,1.2.171,6.879,6.879,0,0,0,4.9,3.329A1.058,1.058,0,0,1,98.159,99.1Z" transform="translate(-66.469 -79.611)" fill="#ffdfcf"/>
        <path id="Trazado_912207" data-name="Trazado 912207" d="M88.675,143.416a12.6,12.6,0,0,1-15.693-12.2v-9.166a1.051,1.051,0,0,1,1.327-1.016,18.982,18.982,0,0,0,4.88.655v9.527A12.593,12.593,0,0,0,88.675,143.416Z" transform="translate(-66.469 -102.092)" fill="#ffcebf"/>
        <g id="Grupo_1101256" data-name="Grupo 1101256" transform="translate(13.05 22.065)">
          <path id="Trazado_912208" data-name="Trazado 912208" d="M116.035,145.3a1.207,1.207,0,0,1-1.207-1.207v-1.633a1.207,1.207,0,1,1,2.414,0V144.1A1.207,1.207,0,0,1,116.035,145.3Z" transform="translate(-114.828 -141.256)" fill="#12263f"/>
          <path id="Trazado_912209" data-name="Trazado 912209" d="M178.071,145.3a1.207,1.207,0,0,1-1.207-1.207v-1.633a1.207,1.207,0,0,1,2.414,0V144.1A1.207,1.207,0,0,1,178.071,145.3Z" transform="translate(-167.173 -141.256)" fill="#12263f"/>
        </g>
        <path id="Trazado_912210" data-name="Trazado 912210" d="M129.411,198.378a5.808,5.808,0,0,1-4.12-1.7A1.207,1.207,0,1,1,127,194.967a3.415,3.415,0,0,0,4.825,0,1.207,1.207,0,0,1,1.707,1.707A5.808,5.808,0,0,1,129.411,198.378Z" transform="translate(-110.309 -164.214)" fill="#ee4f47"/>
      </g>
      <g id="Grupo_1101258" data-name="Grupo 1101258" transform="translate(0 21.395)">
        <path id="Trazado_912211" data-name="Trazado 912211" d="M21.323,166.336l-.837.7-1.229,1.023a6.128,6.128,0,0,1-7.33.373,24.979,24.979,0,0,1-9.694-11.7,24.972,24.972,0,0,1-.321-15.193A6.128,6.128,0,0,1,7.7,137.017l1.6-.031,1.089-.022a1.706,1.706,0,0,1,1.737,1.676l.122,7.377a2.1,2.1,0,0,1-1.962,2.128l-1.088.07a1.89,1.89,0,0,0-1.665,1.256,7.5,7.5,0,0,0,.426,5.118,7.507,7.507,0,0,0,3.026,4.152,1.888,1.888,0,0,0,2.08-.139l.869-.659a2.1,2.1,0,0,1,2.877.326l4.731,5.66A1.7,1.7,0,0,1,21.323,166.336Z" transform="translate(-0.878 -136.964)" fill="#12263f"/>
        <path id="Trazado_912212" data-name="Trazado 912212" d="M18.727,169a6.13,6.13,0,0,1-6.8-.022,24.981,24.981,0,0,1-9.694-11.7,24.978,24.978,0,0,1-.321-15.194,6.129,6.129,0,0,1,5.128-4.463,6.136,6.136,0,0,0-2.531,3.5,24.979,24.979,0,0,0,.321,15.194,24.981,24.981,0,0,0,9.694,11.7A6.133,6.133,0,0,0,18.727,169Z" transform="translate(-0.879 -137.514)" fill="#12263f"/>
      </g>
    </g>
    <path id="Trazado_912213" data-name="Trazado 912213" d="M341.567,26.442H319.172a4.116,4.116,0,0,0-4.116,4.116V44.815a4.116,4.116,0,0,0,4.116,4.116h8.16v4.716a1.3,1.3,0,0,0,2.021,1.081l8.685-5.8h3.529a4.116,4.116,0,0,0,4.116-4.116V30.558a4.116,4.116,0,0,0-4.116-4.116Z" transform="translate(-265.101 -22.312)" fill="#ee4f47"/>
    <path id="Trazado_912214" data-name="Trazado 912214" d="M323.3,48.93h-4.128a4.116,4.116,0,0,1-4.116-4.116V30.557a4.116,4.116,0,0,1,4.116-4.116H323.3a4.116,4.116,0,0,0-4.116,4.116V44.814A4.116,4.116,0,0,0,323.3,48.93Z" transform="translate(-265.101 -22.311)" fill="#ee4f47"/>
    <path id="Trazado_912215" data-name="Trazado 912215" d="M31.561,371.278H53.956a4.116,4.116,0,0,0,4.116-4.116v-11.8a4.116,4.116,0,0,0-4.116-4.116H52.233v-4.716a1.3,1.3,0,0,0-2.021-1.081l-8.685,5.8H31.561a4.116,4.116,0,0,0-4.116,4.116v11.8a4.116,4.116,0,0,0,4.116,4.116Z" transform="translate(-22.417 -291.3)" fill="#ffbd45"/>
    <path id="Trazado_912216" data-name="Trazado 912216" d="M31.834,387.867v11.8a4.117,4.117,0,0,0,4.116,4.116H31.562a4.117,4.117,0,0,1-4.116-4.116v-11.8a4.117,4.117,0,0,1,4.116-4.116h4.388A4.117,4.117,0,0,0,31.834,387.867Z" transform="translate(-22.418 -323.806)" fill="#ffbd45"/>
    <g id="Grupo_1101260" data-name="Grupo 1101260" transform="translate(54.799 9.275)">
      <path id="Trazado_912217" data-name="Trazado 912217" d="M366.437,61.787H347.27a1.207,1.207,0,0,1,0-2.414h19.167a1.207,1.207,0,1,1,0,2.414Z" transform="translate(-346.063 -59.373)" fill="#e8edf2"/>
      <path id="Trazado_912218" data-name="Trazado 912218" d="M366.437,94.847H347.27a1.207,1.207,0,0,1,0-2.414h19.167a1.207,1.207,0,1,1,0,2.414Z" transform="translate(-346.063 -87.269)" fill="#e8edf2"/>
      <path id="Trazado_912219" data-name="Trazado 912219" d="M362.246,127.908H347.27a1.207,1.207,0,0,1,0-2.414h14.976a1.207,1.207,0,0,1,0,2.414Z" transform="translate(-346.063 -115.165)" fill="#e8edf2"/>
    </g>
    <g id="Grupo_1101261" data-name="Grupo 1101261" transform="translate(15.373 62.636)">
      <path id="Trazado_912220" data-name="Trazado 912220" d="M98.636,412.749a1.207,1.207,0,0,1-1.207-1.207,3.543,3.543,0,0,1,2.2-3.249,2.552,2.552,0,1,0-3.517-2.709,2.6,2.6,0,0,0-.025.357,1.207,1.207,0,1,1-2.414,0,4.965,4.965,0,1,1,6.9,4.575,1.135,1.135,0,0,0-.723,1.025A1.207,1.207,0,0,1,98.636,412.749Z" transform="translate(-93.671 -400.977)" fill="#12263f"/>
      <path id="Trazado_912221" data-name="Trazado 912221" d="M118.934,484.226a1.21,1.21,0,1,1,1.207-1.219v.012A1.207,1.207,0,0,1,118.934,484.226Z" transform="translate(-113.969 -469.18)" fill="#12263f"/>
    </g>
  </g>
</svg>
